<?xml version="1.0" standalone="no"?>
<!DOCTYPE svg PUBLIC "-//W3C//DTD SVG 20010904//EN" "http://www.w3.org/TR/2001/REC-SVG-20010904/DTD/svg10.dtd">
<svg version="1.0" xmlns="http://www.w3.org/2000/svg" width="711.000000pt" height="397.000000pt" viewBox="0 0 711.000000 397.000000" preserveAspectRatio="xMidYMid meet">
 <g transform="translate(0.000000,397.000000) scale(0.100000,-0.100000)" fill="#000000" stroke="none">
  <path fill="#242170" d="M635 3865 c-225 -49 -417 -206 -504 -413 -52 -123 -51 -109 -51 -1470 0 -829 4 -1289 11 -1331 37 -231 206 -437 429 -524 144 -55 -56 -52 3045 -52 3070 0 2892 -3 3025 48 200 76 364 250 426 452 18 57 19 121 19 1410 l0 1350 -33 85 c-83 217 -221 345 -467 433 l-60 22 -2890 2 c-2357 1 -2901 -1 -2950 -12z m5858 -72 c234 -67 418 -250 462 -460 12 -57 15 -277 15 -1359 0 -1250 -1 -1293 -20 -1367 -60 -238 -267 -416 -531 -457 -55 -8 -818 -10 -2909 -8 l-2835 3 -80 27 c-110 38 -173 77 -260 159 -54 51 -84 90 -113 147 -76 148 -72 56 -72 1494 0 803 4 1305 10 1337 49 261 281 467 562 500 40 5 1338 8 2883 7 l2810 -1 78 -22z"/>
  <path fill="#242170" d="M693 3729 c-202 -34 -385 -190 -443 -378 -19 -61 -20 -99 -20 -1371 0 -1302 0 -1308 21 -1376 59 -189 227 -334 434 -373 44 -9 808 -11 2915 -9 l2855 3 70 28 c171 69 295 192 348 346 l22 66 3 1235 c2 801 -1 1272 -7 1340 -9 88 -17 117 -48 180 -50 102 -151 203 -253 254 -145 71 88 66 -3030 65 -1548 -1 -2838 -5 -2867 -10z m5026 -429 c146 -74 146 -267 1 -378 -27 -20 -49 -41 -49 -46 -1 -8 57 -155 114 -290 l17 -39 18 28 c10 15 24 47 30 72 12 40 11 46 -9 67 -12 13 -21 35 -21 53 0 25 5 32 26 37 38 10 177 5 192 -6 20 -16 14 -66 -9 -86 -43 -35 -62 -59 -120 -157 -56 -92 -59 -101 -48 -128 18 -44 52 -62 88 -47 36 15 68 0 77 -35 5 -22 -6 -37 -82 -110 -88 -84 -90 -85 -132 -81 -35 3 -53 12 -87 46 l-43 42 -46 -36 c-68 -51 -143 -71 -215 -57 -97 20 -154 71 -208 186 -26 55 -28 70 -28 180 0 106 3 125 23 165 30 58 84 114 150 157 28 18 52 40 52 47 0 8 -7 43 -16 77 -19 75 -14 148 14 211 22 51 90 118 135 135 51 18 133 16 176 -7z m-4440 -24 c6 -7 34 -164 61 -347 27 -184 56 -377 64 -429 8 -52 18 -117 22 -145 3 -27 20 -75 37 -106 28 -50 30 -60 19 -83 l-12 -26 -167 2 -168 3 -3 34 c-3 25 3 40 22 60 24 25 25 30 16 86 -5 33 -10 61 -10 63 0 1 -38 2 -84 2 l-84 0 -6 -30 c-3 -16 -9 -43 -12 -59 -4 -24 0 -35 26 -57 25 -23 30 -35 28 -64 l-3 -35 -105 0 -105 0 -3 28 c-2 17 7 45 22 72 21 36 33 85 62 272 19 125 42 269 50 318 52 328 51 324 24 355 -19 22 -27 79 -13 93 3 4 75 7 158 7 117 0 155 -3 164 -14z m531 -506 c5 -486 6 -517 24 -543 15 -22 17 -34 10 -55 l-9 -27 -130 -3 c-169 -4 -175 -2 -175 47 0 25 7 44 20 56 19 18 20 31 20 475 0 444 -1 457 -20 475 -20 18 -28 74 -13 89 4 3 66 5 137 4 l131 -3 5 -515z m1634 504 c3 -9 6 -65 6 -125 0 -60 3 -109 6 -109 3 0 20 11 38 25 74 56 165 71 222 36 17 -11 41 -39 53 -63 20 -43 21 -57 21 -413 0 -320 2 -371 16 -386 19 -22 22 -78 3 -90 -8 -5 -54 -9 -102 -9 -162 0 -157 -15 -157 435 0 340 -1 356 -20 375 -19 19 -40 18 -67 -3 -10 -7 -13 -90 -13 -352 0 -292 2 -344 15 -355 21 -17 20 -86 -1 -94 -20 -8 -258 -8 -278 0 -22 8 -21 72 2 97 16 18 17 55 17 479 l0 461 -22 15 c-22 14 -33 69 -16 85 3 4 66 7 139 7 111 0 133 -2 138 -16z m1406 -498 c0 -498 1 -514 20 -539 24 -30 27 -82 4 -91 -20 -8 -268 -8 -288 0 -25 10 -21 69 7 94 l22 21 0 459 0 460 -22 15 c-22 16 -33 72 -16 88 3 4 66 7 140 7 l133 0 0 -514z m-2562 329 c51 -22 81 -52 108 -110 54 -114 11 -226 -79 -208 -46 9 -62 45 -62 141 0 70 -3 87 -17 96 -13 8 -23 8 -35 0 -17 -10 -18 -41 -21 -382 -2 -360 -2 -372 18 -392 45 -45 93 15 107 135 l8 70 40 3 c66 6 81 -40 49 -149 -34 -117 -101 -173 -209 -174 -123 0 -213 91 -261 266 -26 92 -25 337 0 434 35 133 97 231 171 269 39 20 135 20 183 1z m630 -18 c129 -85 176 -205 176 -447 0 -213 -38 -337 -133 -429 -57 -55 -102 -75 -176 -75 -79 0 -129 19 -183 72 -93 90 -127 202 -126 417 0 208 31 319 114 409 65 70 109 88 207 83 67 -3 88 -8 121 -30z m1364 21 c52 -15 127 -83 160 -145 47 -86 61 -163 61 -323 -1 -217 -38 -337 -135 -431 -41 -40 -129 -79 -177 -79 -62 0 -133 31 -180 78 -89 89 -131 226 -131 422 0 242 78 417 212 475 40 17 137 19 190 3z m1588 -1141 c57 -29 61 -109 7 -135 -23 -11 -33 -10 -73 7 -58 26 -71 26 -84 2 -7 -14 -5 -24 8 -40 14 -17 30 -21 92 -23 l75 -3 3 -38 c2 -26 -3 -45 -17 -63 -20 -26 -21 -38 -21 -393 0 -358 0 -367 21 -384 14 -13 19 -27 17 -50 l-3 -32 -157 -3 -158 -3 0 37 c0 21 8 46 20 61 19 25 20 41 20 383 0 342 -1 358 -20 383 -12 15 -20 40 -20 62 0 28 5 38 20 42 16 4 20 14 20 45 0 65 46 130 106 148 44 13 116 11 144 -3z m399 -2 c31 -16 41 -33 41 -73 0 -59 -45 -80 -110 -51 -55 25 -84 22 -88 -9 -6 -41 14 -52 92 -52 43 0 77 -5 84 -12 19 -19 14 -60 -10 -86 -23 -23 -23 -26 -26 -391 -3 -359 -2 -368 18 -386 13 -12 20 -31 20 -56 0 -46 4 -45 -182 -41 l-138 3 0 38 c0 25 7 44 20 56 19 17 20 31 20 385 0 354 -1 368 -20 385 -14 12 -20 31 -20 57 0 31 4 41 20 45 13 3 20 14 20 28 0 105 74 173 188 175 24 0 56 -7 71 -15z m-3266 -14 c15 -1 17 -13 17 -111 0 -60 2 -110 5 -110 3 0 22 11 43 24 110 72 228 22 281 -119 44 -118 53 -469 16 -630 -28 -126 -91 -196 -182 -203 -47 -4 -60 -1 -103 26 -50 31 -60 31 -60 0 0 -10 -6 -18 -12 -19 -21 -1 -232 -1 -250 0 -27 1 -24 59 5 89 l22 24 0 465 0 466 -22 14 c-29 19 -33 80 -6 85 14 2 184 2 246 -1z m-969 -38 c11 -81 17 -193 11 -213 -5 -15 -15 -20 -39 -20 -42 0 -50 10 -71 90 -20 78 -31 100 -50 100 -13 0 -15 -64 -15 -470 l0 -470 25 -16 c20 -13 25 -24 25 -60 l0 -44 -184 0 -184 0 -6 25 c-7 29 3 52 33 77 21 18 21 24 21 488 0 453 -1 470 -19 470 -28 0 -38 -18 -51 -90 -6 -35 -16 -72 -21 -82 -12 -23 -74 -25 -87 -2 -9 15 -7 128 4 212 l5 42 299 0 298 0 6 -37z m2396 -270 c0 -192 4 -303 9 -297 20 20 131 295 124 307 -4 7 -17 20 -30 30 -25 20 -31 65 -11 85 16 16 210 16 226 0 23 -23 13 -59 -27 -97 -22 -20 -51 -60 -65 -90 l-25 -53 35 -137 c104 -402 117 -448 140 -482 24 -36 32 -83 14 -94 -5 -3 -60 -6 -121 -6 -81 -1 -115 3 -125 12 -7 8 -29 88 -49 179 -47 217 -47 216 -74 163 -17 -35 -21 -60 -21 -141 0 -71 4 -104 15 -118 8 -10 15 -36 15 -56 0 -30 -4 -38 -17 -38 -137 -3 -274 -1 -282 4 -18 11 -13 61 9 89 19 24 20 40 20 469 0 425 -1 444 -20 473 -11 17 -20 47 -20 68 l0 37 140 0 140 0 0 -307z m-1978 136 c97 -20 159 -70 186 -148 8 -23 12 -139 12 -371 0 -288 2 -339 15 -350 8 -7 15 -29 15 -50 0 -32 -4 -39 -30 -50 -18 -7 -58 -11 -101 -8 -67 4 -73 6 -105 41 -40 43 -44 44 -70 16 -55 -60 -171 -79 -235 -36 -19 12 -44 42 -56 67 -41 81 -51 268 -21 370 23 78 89 129 253 195 39 16 76 33 83 38 8 6 12 38 12 92 0 78 -1 82 -26 93 -17 8 -31 9 -44 2 -21 -11 -26 -24 -36 -94 -9 -62 -28 -81 -98 -97 -102 -23 -150 23 -133 128 20 123 199 199 379 162z m1458 -14 c57 -23 107 -68 131 -120 17 -36 19 -70 19 -380 0 -293 2 -344 16 -363 22 -32 14 -74 -16 -89 -14 -7 -56 -13 -94 -13 -67 0 -69 1 -109 41 -26 26 -46 38 -52 33 -72 -56 -111 -74 -162 -74 -87 0 -137 37 -169 127 -25 70 -25 269 -1 340 29 82 64 107 290 207 l58 25 -3 82 c-3 69 -6 84 -23 95 -16 11 -25 11 -45 1 -21 -10 -27 -24 -36 -80 -13 -78 -25 -91 -101 -107 -91 -19 -133 10 -133 92 0 75 40 133 118 173 76 38 227 43 312 10z m1399 -4 c147 -76 221 -289 192 -556 -19 -167 -63 -270 -146 -343 -50 -45 -98 -62 -169 -62 -76 0 -131 24 -184 81 -88 92 -117 196 -116 414 0 215 33 325 124 416 79 79 201 100 299 50z"/>
  <path fill="#242170" d="M5594 3195 c-12 -19 -15 -37 -10 -68 7 -47 37 -137 45 -137 29 2 71 74 71 120 0 32 -25 90 -44 102 -21 15 -46 8 -62 -17z"/>
  <path fill="#242170" d="M5416 2728 c-33 -47 -13 -153 55 -294 28 -56 48 -85 67 -95 37 -18 34 -18 60 -8 l23 9 -29 57 c-31 61 -95 225 -119 306 -15 52 -33 60 -57 25z"/>
  <path fill="#242170" d="M1070 2966 c0 -8 -13 -106 -30 -218 -16 -112 -32 -220 -35 -240 l-5 -38 75 0 c59 0 75 3 75 15 0 8 -13 110 -30 227 -16 117 -30 222 -30 235 0 12 -4 25 -10 28 -5 3 -10 0 -10 -9z"/>
  <path fill="#242170" d="M2744 2995 c-11 -28 -14 -99 -14 -365 0 -266 3 -337 14 -365 18 -41 47 -46 70 -13 14 19 16 73 16 381 0 228 -4 365 -10 378 -6 11 -21 19 -36 19 -19 0 -28 -8 -40 -35z"/>
  <path fill="#242170" d="M4159 3013 c-11 -13 -15 -88 -17 -372 -2 -385 0 -406 48 -406 48 0 50 20 48 413 -3 310 -5 364 -18 372 -23 14 -46 12 -61 -7z"/>
  <path fill="#242170" d="M3036 1628 c-14 -19 -16 -68 -16 -336 0 -197 4 -321 10 -333 7 -12 21 -19 40 -19 19 0 33 7 40 19 6 13 10 138 10 340 0 277 -2 322 -16 335 -22 22 -50 20 -68 -6z"/>
  <path fill="#242170" d="M2358 1367 c-46 -39 -51 -61 -52 -223 0 -136 2 -155 18 -173 25 -27 51 -27 70 1 13 19 16 57 16 220 0 214 -1 218 -52 175z"/>
  <path fill="#242170" d="M3755 1355 c-30 -32 -34 -42 -40 -121 -16 -186 6 -290 59 -282 39 6 46 42 46 246 0 216 -3 223 -65 157z"/>
  <path fill="#242170" d="M5168 1680 l-23 -18 -3 -353 c-3 -387 0 -409 48 -409 19 0 30 7 38 25 15 33 17 717 2 744 -15 28 -37 32 -62 11z"/>
 </g>
</svg>
