<?xml version="1.0" encoding="UTF-8" standalone="no"?>
<svg xmlns:dc="http://purl.org/dc/elements/1.1/" xmlns:cc="http://creativecommons.org/ns#" xmlns:rdf="http://www.w3.org/1999/02/22-rdf-syntax-ns#" xmlns:svg="http://www.w3.org/2000/svg" xmlns="http://www.w3.org/2000/svg" viewBox="200 85 350 105" height="100" width="280" xml:space="preserve" id="svg2" version="1.1">
	<metadata id="metadata8">
		<rdf:RDF>
			<cc:Work rdf:about="">
				<dc:format>image/svg+xml</dc:format>
				<dc:type rdf:resource="http://purl.org/dc/dcmitype/StillImage" />
			</cc:Work>
		</rdf:RDF>
	</metadata>
	<defs id="defs6" />
	<g transform="matrix(1.3333333,0,0,-1.3333333,0,1317.9067)" id="g10">
		<g transform="scale(0.1)" id="g12">
			<path id="path22" style="fill:#da144f;fill-opacity:1;fill-rule:nonzero;stroke:none" d="m 3084,8922.84 c -11.2,-55.87 -49.2,-163.71 -122.32,-167.75 -73.07,-4.1 -70.04,95.45 -38.6,165.55 0,0 38.6,99.52 101.58,113.7 62.98,14.24 70.5,-55.64 59.34,-111.5 z m -1009.16,21.9 c -12.21,-67.06 -42.17,-124.15 -67.29,-154.59 -25.12,-30.53 -73.65,-57.43 -107.16,-38.14 -35.01,24.4 -24.38,94.49 -18.28,116.54 6.11,22.13 25.92,93.19 84.55,134.09 64.96,43.65 121.35,25.38 108.18,-57.9 z m 1386,154.47 c -82.75,0.83 -106.16,-39.61 -106.16,-39.61 -3.56,14.71 -22.32,34.53 -48.22,39.08 -25.92,4.57 -47.22,-1.49 -55.35,-16.72 -8.12,-15.25 1.75,-41.38 25.38,-39.5 23.6,1.9 34.54,-6.23 37.07,-18.91 2.56,-12.71 2.04,-28.29 -15.67,-94.83 -5.89,-21.04 -16.78,-58.24 -25.44,-77.17 -33.2,-72.73 -68.02,-97.24 -102.16,-107.49 -32.45,-9.14 -61.92,13.19 -50.09,69.06 11.8,55.86 33.59,138.65 46.54,170.63 10.23,25.34 24.65,63.6 14.76,77.21 -2.63,3.56 -10.46,5.18 -19.95,5.18 -25.15,-1.54 -32.35,-23.49 -32.35,-23.49 -4.09,15.77 -38.53,52.65 -90.31,52.65 -51.83,0 -117.86,-44.7 -152.35,-111.91 -34.56,-67.23 -31.53,-80.53 -48.75,-143 -17.29,-62.46 -34.57,-98.53 -68.07,-104.63 -28.41,-4.1 -42.9,11.67 -38.29,42.92 4.04,26.4 17.48,81.52 38.07,163.78 15.25,83.81 -21.61,141.65 -97.23,146.26 -80.63,4.17 -124.81,-62.11 -124.81,-62.11 -14.85,29.34 -44.58,62.85 -104.75,68.3 -60.17,5.45 -108.13,-49.86 -108.13,-49.86 -23.15,51.89 -77.74,45.25 -93.33,38.53 -15.55,-6.68 -14.36,-37.25 -3.69,-45.28 10.67,-8.13 33.51,0.96 46.2,-20.42 5.84,-12.21 15.77,-22.36 -22.18,-124.08 -40.45,-109.32 -94.33,-150.54 -134.7,-147.86 -40.36,2.69 -36.02,61.95 -8.13,133.02 27.94,71.1 50.42,122.63 55.08,140.45 2.38,8.88 4.13,22.18 0,27.94 -4.08,5.71 -11.42,12.42 -27.01,10.49 -22.48,-3.82 -26.31,-20.94 -26.31,-20.94 -14.45,34.86 -44.18,46.46 -65.17,50.28 -21.09,3.82 -72.96,4.04 -131.11,-42.13 -58.1,-46.24 -90.87,-146.02 -100.01,-174.18 -9.13,-28.19 -22.61,-57.4 -62.71,-83.04 -40.14,-25.66 -44.44,-27.15 -42.12,-41.66 1.76,-11.65 11.68,-43.18 55.34,-21.09 30.44,16.25 49.49,39.11 49.49,39.11 6.86,-33.44 25.13,-80.74 90.66,-81.53 92.14,0 128.34,66.53 128.34,66.53 -3.48,-15.02 12.56,-61.14 71.98,-62.67 70.14,-0.48 110.24,65.52 113.18,71.82 -5.23,-11.26 -17.35,-44.32 -17.35,-44.32 -7.64,-30.44 27.5,-44.93 45.77,-22.58 22,26.88 44.01,143.94 73.21,222.83 31.45,85.07 52.05,110.41 96.71,120.33 44.71,9.98 76.12,-25.82 73.83,-73.07 -2.02,-39.57 -32.76,-137.08 -37.68,-156.53 -4.96,-19.42 -12.04,-44.36 -0.61,-56.21 9.88,-9.92 42.16,-15.06 52.83,20.76 7.02,22 14.49,56.61 21.61,83.88 14.49,55.61 35.8,158.25 103.21,172.84 67.36,14.57 80.1,-35.32 70.96,-86.36 -9.17,-51.03 -30,-101.01 -37.59,-172.64 -7.65,-71.66 58.15,-103.59 118.84,-80.26 52.52,21.29 67.99,81.26 67.99,81.26 -3.03,-15.26 17.51,-68.84 87.6,-73.4 85.3,-3.78 124.69,65.28 124.69,65.28 -1.23,-18.47 15.64,-81.37 78.14,-79.07 62.45,2.27 97.23,63.28 97.23,63.28 -5.27,-16.68 -17.69,-67.25 11.51,-73.08 22.8,-3.02 35.49,7.25 43.04,39.26 7.64,31.97 39.66,171.85 59.47,231.23 19.77,59.43 43.22,82.43 72.08,90.6 34.29,9.14 62.5,-4.35 71.58,-14.98 25.91,-29.96 53.32,-11.68 57.41,10.54 4.04,22.22 -26.88,71.28 -102.02,71.28" />
			<path id="path24" style="fill:#da144f;fill-opacity:1;fill-rule:nonzero;stroke:none" d="m 3743.85,8854.75 c -16.73,-40.36 -46.42,-114.03 -113.93,-112.05 -67.55,2.01 -59.6,96.38 -47.69,134.1 0,0 14.63,71.98 71.23,121.67 56.62,49.63 95.31,29.78 108.04,9.66 16.62,-29.96 3.48,-100.54 -17.65,-153.38 z m 140.51,-114.03 c -28.3,-2.51 -61.76,2.46 -73.75,42.76 -9.93,39.7 17.88,124.86 28.33,155.38 10.41,30.53 24.6,63.29 32.76,86.4 2.46,23.37 -22.35,31.27 -36.28,25.34 -13.88,-5.98 -15.36,-12.43 -20.32,-20.38 0,0 -15.42,57.1 -81.92,56.08 -66.54,-0.96 -125.12,-33.73 -167.82,-108.21 -42.68,-74.5 -41.73,-99.32 -78.48,-135.06 -27.77,-26.8 -41.42,-31.75 -50.91,-41.2 -14.84,-13.92 -3.95,-50.44 32.81,-42.47 23.81,6.99 38.96,22.09 52.84,40.98 0,0 -1.98,-106.27 101.32,-116.2 87.88,-6.71 133.08,75.48 135.06,90.37 0,0 4.21,-50.92 48.92,-74.77 44.66,-23.81 87.49,-17.08 100.54,0.74 12.99,17.93 5.23,42.7 -23.1,40.24" />
		</g>
	</g>
</svg>
