<?xml version="1.0" encoding="utf-8"?>
<!-- Generator: Adobe Illustrator 13.0.2, SVG Export Plug-In . SVG Version: 6.00 Build 14948)  -->
<!DOCTYPE svg PUBLIC "-//W3C//DTD SVG 1.1//EN" "http://www.w3.org/Graphics/SVG/1.1/DTD/svg11.dtd">
<svg version="1.1" id="Layer_1" xmlns="http://www.w3.org/2000/svg" xmlns:xlink="http://www.w3.org/1999/xlink" x="0px" y="0px"
	 width="350px" height="150px" viewBox="10 40 275 60">
<g id="Mon_Areon">
	<g display="inline">
		<g>
			<path d="M202.693,30.673L202.693,30.673c-2.501,0.133-4.189,2.588-5.552,4.604c0-0.018,0.013-0.051,0.013-0.066
				c0-2.584-1.563-4.008-4.406-4.008c-3.195,0-6.471,1.996-9.723,5.939c-1.754,2.145-2.986,4.205-3.738,6.143
				c-0.185,0.152-0.564,0.475-0.564,0.475l-1.555,1.287c-1.154,0.896-2.61,1.488-3.713,1.564c0.273-0.967,1.161-2.768,1.752-3.941
				c1.486-2.961,2.209-5.162,2.209-6.729c0-2.729-1.524-4.23-4.301-4.23c-1.232,0-2.566,0.434-4.083,1.314
				c-0.038,0.023-1.051,0.734-1.933,1.357c-0.184-0.609-0.448-1.146-0.87-1.559c-0.748-0.738-1.836-1.115-3.235-1.115
				c-1.207,0-2.728,0.57-4.642,1.746c-0.563,0.346-0.985,0.607-1.353,0.836c-0.316-2.941-1.854-3.617-3.174-3.617
				c-0.689,0-1.848,0.391-4.523,3.205c-1.819,1.91-2.932,3.785-2.891,4.818c0.008,0.193,0.239,0.66,0.754,0.662
				c0.703,0.004,1.814-0.574,2.455-1.229c-0.008,0.02-0.015,0.031-0.027,0.053l-1.221,2.197l-5.678,11.768l8.557-0.533l0.181-0.473
				l0.665-1.715c0.982-2.635,3.021-8.119,4.658-10.332c1.783-2.404,2.998-3.396,3.633-3.74c-0.004,1.295-0.858,4.709-2.219,7.535
				c-1.223,2.545-2.237,5.074-2.392,6.912c-0.06,0.721,0.493,2.242,0.493,2.242l9.213-0.629c0,0-2.789-1.285-2.885-2.121
				c0.005-0.146,0.158-0.975,1.729-4.939c1.61-4.078,2.11-4.838,2.211-4.982c0.879-1.283,1.391-1.641,2.299-2.523
				c1.066-1.068,1.608-1.434,1.859-1.568c0.003,0.035,0.018,0.053,0.018,0.088c0,0.063-0.006,0.125-0.018,0.184l-0.007,0.066
				l-0.002,0.074c0,1.512-0.709,3.635-2.108,6.307c-1.527,2.898-2.09,4.518-2.297,5.361c-0.07,0.283-0.104,0.561-0.104,0.836
				c0,0.703,0.227,1.358,0.668,1.902c0.777,0.951,2.166,1.5,3.813,1.5c1.881,0,3.45-0.332,4.676-1
				c0.83-0.416,1.879-1.313,3.149-2.678c0.205,2.541,1.883,3.979,4.88,3.979c2.229,0,4.604-1.393,7.248-4.252
				c1.803-1.963,3.379-4.172,4.691-6.563c0,0,0.031-0.057,0.062-0.102c0.406-0.26,1.341-0.889,2.104-1.646
				c0,0,0.516-0.555,0.947-1.021c-0.135,0.234-1.144,2.063-1.144,2.063L191.61,52.15l8.463-0.535l0.242-0.484
				c0.494-1,1.317-3.041,2.521-6.246c0.985-2.607,1.926-4.563,2.783-5.813c0.471-0.674,1.043-1.512,2.018-2.328
				c0.984-0.824,1.689-0.996,1.982-1.01c0.012,0.053,0.025,0.07,0.025,0.238c0,0.682-0.28,2.4-2.27,6.004
				c-1.644,2.979-2.233,4.363-2.347,5.506C205.01,47.65,205,47.812,205,47.967c0,1.176,0.463,1.932,0.875,2.375
				c0.766,0.82,1.992,1.254,3.549,1.254c1.901,0,3.476-0.338,4.68-1.004c4.431-2.439,5.422-5.615,5.576-6.23l0.16-0.646
				c0,0,0.232-0.961-0.399-1.049c-0.476-0.096-1.25,0.686-1.25,0.686c-0.908,0.881-3.419,3.107-6.09,3.234
				c0.329-0.828,1.233-2.615,1.894-3.912c1.502-2.965,2.235-5.166,2.235-6.734c0-2.729-1.53-4.23-4.308-4.23
				c-1.209,0-2.728,0.57-4.646,1.746c0,0-0.873,0.537-1.154,0.713c-0.154-1.043-0.47-1.963-1.08-2.576
				C204.409,30.955,203.575,30.63,202.693,30.673z M191.803,37.644V37.64c-0.459-0.361-0.69-0.707-0.69-1.029
				c0-0.383,0.438-0.787,0.8-1.057c0.602-0.445,1.145-0.686,1.563-0.686c0.214,0,0.366,0,0.366,0.676
				c0,0.271-0.057,0.795-0.328,1.736c-0.196,0.66-0.315,0.859-0.383,0.947C192.713,38.199,192.271,38.013,191.803,37.644z
				 M186.062,46.025c0-0.398,0.17-1.125,0.465-1.988c0.504-1.473,1.666-3.455,2.485-4.703c0.662,0.771,1.512,1.301,2.521,1.617
				c-2.438,4.172-4.28,5.131-5.417,5.131c0,0-0.029-0.004-0.051-0.006C186.063,46.054,186.062,46.025,186.062,46.025z"/>
			<path fill="#FFFFFF" d="M218.701,43.501c-1.094,1.051-3.863,3.65-7.096,3.5c-0.574-0.127-0.648-0.396-0.605-0.68
				c0.069-0.48,0.711-1.773,2.135-4.547c1.426-2.768,2.141-4.854,2.141-6.242c0-2.172-1.119-3.26-3.352-3.26
				c-1.012,0-2.393,0.525-4.135,1.58c-1.738,1.053-2.502,1.516-2.508,1.58c0.258-2.771-1.018-4.262-2.54-4.184
				c-2.698,0.135-4.458,3.92-6.043,5.861c-0.487,0.674-1.269,1.098-1.442,1.186c0.563-1.568,0.943-2.896,0.943-3.484
				c0-2.027-1.154-3.041-3.451-3.041c-2.906,0-5.896,1.84-8.973,5.521c-1.787,2.154-3.018,4.176-3.723,6.066
				c-0.916,0.76-1.857,1.561-2.297,1.889c-1.521,1.168-3.518,1.898-4.916,1.754c-0.233-0.023-0.478-0.174-0.465-0.508
				c0.037-0.867,0.953-2.719,1.969-4.719c1.41-2.768,2.113-4.854,2.113-6.242c0-2.172-1.113-3.26-3.344-3.26
				c-1.044,0-2.24,0.393-3.591,1.166c-1.185,0.811-2.228,1.539-3.142,2.188c0.033-2.232-1.094-3.354-3.391-3.354
				c-1.013,0-2.387,0.525-4.127,1.58c-1.74,1.053-2.574,1.58-2.51,1.58c-0.166,0-0.25-0.148-0.25-0.438
				c0-2.494-0.76-3.744-2.279-3.744c-0.609,0-1.988,0.809-3.83,2.715c-1.412,1.475-2.514,3.211-2.951,4.227
				c-0.059,0.096,0.043,0.438,0.383,0.252c0.478-0.26,1.3-1.152,1.816-1.697c0.896-0.938,1.412-1.41,1.547-1.41
				c0.307,0,0.459,0.264,0.459,0.781c0,0.42-0.271,1.107-0.813,2.066s-0.947,1.682-1.219,2.166l-4.969,10.172l6.324-0.393
				c0.376-0.711,3.163-9.029,5.401-12.02c2.164-2.879,3.861-4.234,4.847-4.234c1.33,0-0.153,5.564-1.784,8.906
				c-1.628,3.344-2.443,5.693-2.443,7.057c0,0.293,0.049,0.521,0.149,0.684l5.951-0.393c-0.847-0.387-1.058-0.857-1.058-1.41
				c0-0.484,0.596-2.221,1.793-5.209c1.195-2.982,1.98-4.699,2.354-5.156c0.636-0.809,1.429-1.668,2.375-2.576
				c1.279-1.268,2.177-1.9,2.681-1.9c1.045,0,0.808,1.406,0.808,1.406c0,1.652-0.742,3.865-2.216,6.646
				c-1.477,2.781-2.028,4.342-2.215,5.09c-0.461,1.865,1.146,3.059,3.445,3.059c1.721,0,3.122-0.291,4.207-0.869
				c0.776-0.387,1.789-1.25,3.039-2.59c0.76-0.809,1.373-1.496,1.771-2.066c-0.209,0.803-0.317,1.582-0.317,2.332
				c0,2.326,1.335,3.492,4.004,3.492c1.925,0,4.101-1.303,6.535-3.896c1.758-1.891,3.278-3.988,4.562-6.298l0.185-0.313
				c0,0,1.229-0.729,2.142-1.621c1.319-1.297,2.518-2.91,2.903-2.91c0.299,0,0.452,0.264,0.452,0.781c0,0.42-0.27,1.107-0.809,2.066
				l-1.218,2.166l-4.959,10.172l6.294-0.393c0.471-0.938,1.301-2.969,2.482-6.08c1.018-2.658,1.979-4.643,2.895-5.938
				c0.469-0.68,1.112-1.599,2.182-2.479c1.613-1.338,3.033-1.479,3.397-0.93c0,0,1.166,1.221-2.188,7.228
				c-1.539,2.759-2.139,4.104-2.236,5.089c-0.208,2.027,1.146,3.059,3.441,3.059c1.725,0,3.133-0.285,4.205-0.869
				c3.924-2.139,4.937-4.854,5.117-5.574C218.78,43.51,218.701,43.501,218.701,43.501z M186.116,46.466
				c-0.675,0-1.011-0.32-1.011-0.973c0-0.553,0.206-1.377,0.51-2.256c0.762-2.197,2.85-5.359,3.424-6.008
				c0.779,1.555,2.096,2.434,3.953,2.623C190.596,44.26,188.307,46.466,186.116,46.466z M193.25,38.738
				c-0.681,0-1.361-0.271-2.057-0.814c-0.691-0.543-1.036-1.121-1.036-1.729c0-0.608,0.388-1.199,1.169-1.773
				c0.787-0.578,1.498-0.861,2.146-0.861c0.885,0,1.33,0.523,1.33,1.58c0,0.479-0.123,1.137-0.367,1.969
				C194.125,38.13,193.803,38.738,193.25,38.738z"/>
		</g>
		<path d="M101.437,40.24L101.437,40.24c-5.744,7.592-8.119,11.961-10.863,17.018c0,0-0.138,0.252-0.284,0.521
			c-7.849-1.561-12.3,0.965-13.864,2.178c-3.374,2.607-5.309,6.57-5.309,10.865c0,1.516,0.236,3.051,0.697,4.563
			c1.285,4.174,3.403,6.568,4.844,8.018c-7.828,14.705-12.307,20.916-19.103,20.916c-2.815,0-3.935-1.1-4.022-1.498
			c0,0-0.009-0.076-0.018-0.148c0.129-0.043,0.42-0.141,1.123-0.241c2.994-0.302,8.237-2.622,8.555-9.386
			c0.009-0.215,0.014-0.424,0.014-0.633c0-3.906-1.729-7.156-4.809-8.975c-3.402-2.014-7.918-1.895-11.498,0.299
			c-4.38,2.68-6.66,7.869-6.266,14.232c0.216,3.449,2.106,14.678,17.398,14.324c9.454-0.223,16.33-6.942,25.119-24.522
			c6.381,3.229,11.681,1.936,14.935,0.686c0.197,4.328,1.285,10.982,5.63,16.186c9.347,11.191,22.902,10.578,49.759,4.973
			c20.979-4.385,43.679-5.916,59.248-4.002c10.595,1.301,16.77,7.287,18.172,10.754l1.502,3.721l2.41-3.211
			c4.13-5.504,5.057-11.227,2.605-16.117c-3.023-6.053-10.604-9.521-20.797-9.521c-0.064,0-0.138,0.01-0.206,0.01
			c1.013-0.086,3.738-0.311,3.738-0.311l2.528-6.213c1.771-4.49,5.063-12.823,6.246-14.565c1.111-1.635,1.646-2.174,3.168-3.627
			c1.307-1.25,2.172-1.646,2.615-1.777c0.023,0.225,0.043,0.451,0.043,0.691c0,2.166-0.916,5.029-2.729,8.535
			c-2.558,4.924-3.597,7.155-3.597,9.381c0,1.965,0.686,3.68,1.978,4.953c1.56,1.539,3.926,2.328,6.837,2.289
			c3.424-0.045,5.438-0.689,7.766-1.781c2.307-1.08,6.492-3.604,8.617-8.303c0.403-0.908,0.77-3.561-0.007-4.457
			c-0.991-0.996-3.437,1.469-3.437,1.469l-0.5,0.434c-0.887,0.869-3.369,3.236-7.137,3.402c0.438-0.986,1.246-2.748,2.662-5.625
			c2.064-4.182,3.078-7.504,3.078-10.11c0-0.395-0.021-0.773-0.07-1.141c-0.346-2.666-1.99-7.146-9.143-7.195
			c-2.518-0.012-5.729,0.941-8.809,2.621c0,0-0.803,0.492-1.576,0.965c-0.346-1.313-0.84-2.488-1.652-3.355
			c-1.408-1.513-3.348-2.197-5.758-2.045c-2.203,0.143-5.662,1.607-8.755,5.299c-0.289,0.344-0.585,0.785-0.88,1.24
			c-0.715-2.564-2.9-5.857-9.437-5.943c-4.015-0.053-11.428,1.498-18.673,11.228c0.176-0.755,0.332-1.511,0.332-2.298l-0.154-1.842
			c-0.841-4.979-4.146-7.75-9.307-7.801c-5.938-0.06-11.229,2.572-15.846,7.531c-0.008-0.055-0.021-0.225-0.021-0.225
			c-0.74-3.955-3.594-6.133-7.824-5.975c-2.867,0.102-7.363,2.664-10.414,4.627c-1.291-3.729-3.686-5.557-7.413-5.355
			c-5.489,0.301-9.122,5.057-12.329,9.26l-2,2.549c-0.098,0.105-0.24,0.229-0.342,0.34c1.998-9.051,5.309-20.254,12.737-35.209
			c0.472-0.947,0.703-1.787,0.703-2.563c0-0.635-0.157-1.217-0.468-1.732c-0.35-0.586-1.217-1.574-3.092-1.629
			C123.194,26.847,110.798,27.873,101.437,40.24z M107.014,45.941c3.185-3.924,5.809-5.951,8.391-7.182
			c-6.016,9.193-10.053,17.271-12.691,25.479c-1.474-1.355-3.146-2.555-5.201-3.76C99.74,56.417,102.51,51.482,107.014,45.941z
			 M79.885,73.134c0-1.189,0.375-2.322,1.115-3.361c1.049-1.279,2.305-1.416,3.455-1.232c-0.854,1.625-2.777,5.295-3.917,7.465
			C80.171,75.145,79.885,74.173,79.885,73.134z M91.129,72.458c0.434,0.457,0.95,1.053,1.599,1.887l0.69,0.887l2.92-0.039
			c0,0,1.916,0.039,3.275,0.066c-0.282,1.592-0.828,4.656-0.828,4.656c-0.003,0.012-0.047,0.313-0.096,0.609
			c-3.342,1.893-8.235,3.094-12.275,1.145C87.194,80.15,90.172,74.33,91.129,72.458z M126.082,69.371
			c0.402-0.543,0.723-0.955,1.008-1.313c-1.125,3.783-4.444,13.045-8.98,24.571c0,0-0.217,0.547-0.408,1.033
			c-1.418-3.766-1.721-8.211-1.721-11.223c0,0,0.094-2.375,0.121-3.082C121.555,75.412,124.396,71.644,126.082,69.371z
			 M132.199,94.896l0.71-0.049l0.547-1.383c6.139-18.105,9.043-23.344,11.752-25.94c0.268-0.252,0.509-0.457,0.761-0.678
			c-0.115,0.449-0.31,0.893-0.31,1.359l0.16,1.299c0.47,1.916,2.103,3.377,4.161,3.723c0.611,0.102,1.227,0.023,1.837-0.072
			c-1.231,3.043-1.879,6.061-1.879,9l0.229,3.197c0.502,3.424,2.643,9.098,11.362,8.695c5.86-0.271,11.291-3.514,16.208-9.396
			c0.395,3.086,2.301,8.051,10.545,7.746c4.252-0.156,8.768-2.799,13.428-7.85c3.01-3.266,5.528-6.844,7.535-10.614
			c0.827-0.414,2.066-1.113,3.067-2.143c0.009-0.008,0.121-0.133,0.271-0.299c-2.586,5.815-6.295,13.971-7.867,17.301
			c0,0-1.297,2.732-1.512,3.193c-16.58,1.617-34.834,5.559-46.813,8.164l-5.826,1.256c-12.828,2.703-20.781,3.143-28.639-1.963
			c-1.361-0.889-2.402-2.154-3.221-3.615C118.942,95.82,132.199,94.896,132.199,94.896z M174.955,62.98
			c0.021,0.084,0.049,0.195,0.049,0.195c0,0.004,0.07,0.818,0.07,0.818c0,1.896-1.109,3.902-3.398,6.127
			c-1.192,1.166-2.479,2.096-3.803,2.898c0.691-1.531,1.418-3.016,2.235-4.43C172.523,64.421,174.135,63.283,174.955,62.98z
			 M201.371,64.599c0.975-0.676,1.863-1.012,2.646-1.006c0.546,0.006,0.645,0.006,0.75,0.711c0.014,0.107,0.031,0.271,0.031,0.494
			c0,0.416-0.053,1.051-0.242,1.965c-0.077,0.387-0.174,0.629-0.262,0.807c-0.729-0.111-1.543-0.395-2.404-0.924h-0.004
			c-1.305-0.799-1.391-1.293-1.394-1.295C200.519,65.353,200.725,65.044,201.371,64.599z M175.539,76.719
			c-1.592,1.623-3.277,3.279-4.718,4.551c-1.956,1.717-4.014,2.607-6.118,2.766l-0.031-0.512c0-0.568,0.162-1.496,0.404-2.539
			C169.034,79.979,172.531,78.543,175.539,76.719z M192.914,80.615c0-3.928,2.064-7.526,3.688-9.793
			c1.358,1.143,2.961,1.988,4.797,2.525c-2.741,4.649-5.706,7.34-8.476,7.512C192.918,80.752,192.914,80.615,192.914,80.615z"/>
		
			<linearGradient id="SVGID_1_" gradientUnits="userSpaceOnUse" x1="-898.8789" y1="-583.2415" x2="-900.1103" y2="-540.1444" gradientTransform="matrix(-1 0 0 -1 -752.2012 -475.2974)">
			<stop  offset="0" style="stop-color:#B2B4B6"/>
			<stop  offset="0.0699" style="stop-color:#C6CBCF"/>
			<stop  offset="0.1759" style="stop-color:#E2EAEF"/>
			<stop  offset="0.2303" style="stop-color:#EEF9FE"/>
			<stop  offset="0.2749" style="stop-color:#E2ECF0"/>
			<stop  offset="0.3585" style="stop-color:#C1C9CC"/>
			<stop  offset="0.4722" style="stop-color:#8C9092"/>
			<stop  offset="0.6067" style="stop-color:#454545"/>
			<stop  offset="0.6613" style="stop-color:#565656"/>
			<stop  offset="0.7692" style="stop-color:#838383"/>
			<stop  offset="0.8708" style="stop-color:#B2B2B2"/>
			<stop  offset="1" style="stop-color:#000000"/>
		</linearGradient>
		<path fill="url(#SVGID_1_)" d="M102.34,40.166c-5.697,7.529-8.051,11.861-10.774,16.879c0,0-0.358,0.658-0.673,1.232
			c-7.834-1.814-12.231,0.625-13.777,1.816c-3.16,2.445-4.868,6.057-4.868,9.971c0,1.385,0.214,2.807,0.651,4.229
			c1.364,4.446,3.805,6.836,5.116,8.12c0,0,0.034,0.031,0.038,0.035c-7.996,15.086-12.733,22.246-20.499,22.246
			c-3.374,0-4.916-1.428-5.128-2.389c-0.109-0.482-0.093-0.828,0.044-1.025c0.153-0.225,0.626-0.531,2.001-0.734
			c2.656-0.264,7.309-2.32,7.589-8.313c0.175-3.758-1.369-6.881-4.241-8.578c-3.044-1.803-7.1-1.689-10.33,0.289
			c-4.01,2.455-6.095,7.268-5.725,13.199c0.199,3.191,1.961,13.588,16.242,13.26c9.111-0.211,15.862-7.039,24.648-24.896
			c7.141,4.121,12.863,2.078,16.524,0.521c0,0.021-0.001,0.029-0.001,0.047c0,3.912,0.691,11.436,5.406,17.082
			c8.973,10.748,22.26,10.102,48.656,4.586c21.091-4.406,43.935-5.943,59.619-4.014c11.078,1.359,17.582,7.746,19.082,11.453
			l0.752,1.857l1.204-1.605c3.857-5.143,4.746-10.441,2.501-14.932c-2.824-5.65-10.037-8.893-19.783-8.893
			c-19.075,0-44.685,5.57-59.979,8.895l-5.83,1.26c-13.139,2.766-21.305,3.195-29.499-2.123c-5.584-3.627-6.462-12.637-6.462-17.957
			c0-1.707,0.091-3.002,0.146-3.65c5.539-3.901,8.342-7.614,10.182-10.094c1.707-2.303,2.346-3.039,3.359-2.941
			c0.008-0.008,0.096,0.098,0.148,0.445c0.035,1.623-4.875,15.049-9.519,26.844l-0.657,1.668l13.615-0.943l0.284-0.719
			c6.188-18.274,9.188-23.625,12.021-26.34c3.361-3.223,5.816-4.004,7.009-3.969c-0.981,0.271-1.929,0.727-2.774,1.57
			c-1.451,1.443-1.863,2.809-1.863,3.895c0,0.381,0.047,0.727,0.123,1.031c0.361,1.477,1.635,2.604,3.248,2.873
			c1.313,0.221,2.629-0.154,3.813-0.984c-1.899,3.686-2.908,7.374-2.908,11.032c0,1.014,0.073,2.021,0.22,3.035
			c0.543,3.711,2.752,8.066,10.186,7.725c5.994-0.271,11.572-3.746,16.578-10.318c0,0,0.328-0.451,0.773-1.064
			c-0.021,0.346-0.096,0.703-0.096,1.043c0,0.617,0.037,1.225,0.105,1.82c0.388,3.277,2.334,7.133,9.406,6.873
			c3.936-0.148,8.188-2.666,12.631-7.486c3.049-3.307,5.584-6.904,7.563-10.694c0.647-0.307,2.048-1.041,3.065-2.084
			c0-0.002,2.64-2.912,2.64-2.912c0.668-0.793,1.588-1.873,2.188-2.371c-0.802,2.109-8.129,18.358-10.594,23.563l-0.841,1.781
			l14.462-1.205l2.268-5.57c1.91-4.834,5.104-12.93,6.358-14.776c1.175-1.721,1.771-2.32,3.321-3.805
			c1.893-1.811,3.107-2.127,3.66-2.154c0.522-0.039,0.75,0.037,0.853,0.885c0.326,2.488-0.616,5.854-2.797,10.061
			c-2.461,4.752-3.468,6.885-3.468,8.862c0,1.652,0.57,3.09,1.638,4.145c1.339,1.32,3.425,2,6.026,1.963
			c3.234-0.047,5.058-0.625,7.3-1.674c2.165-1.016,6.521-3.203,8.067-7.744c0.424-1.248,0.306-2.152-0.225-2.254
			c-0.521-0.104-1.457,0.602-1.457,0.602l-0.484,0.422c-0.974,0.957-3.937,3.873-8.576,3.732c-0.471-0.039-0.772-0.229-0.84-0.338
			c-0.03-0.049,0.014-0.166,0.031-0.215c0.028-0.074,0.739-1.865,3.152-6.762c2.275-4.611,3.223-8.08,2.896-10.604
			c-0.361-2.811-2.049-6.164-8.025-6.207c-2.334-0.012-5.342,0.893-8.258,2.48c-1.213,0.66-2.111,1.24-2.855,1.752
			c-0.135-1.393-0.563-3.104-1.742-4.367c-1.168-1.25-2.803-1.817-4.859-1.686c-1.969,0.129-5.094,1.479-7.961,4.896
			c-0.647,0.775-1.355,1.975-2.104,3.242c0,0-0.354,0.557-0.646,1.02c0.098-0.627,0.168-1.234,0.168-1.766
			c0-0.258-0.016-0.502-0.045-0.717c-0.401-2.729-2.211-5.992-8.564-6.076c-4.24-0.057-12.479,1.736-20.146,14.258
			c-0.276,0.307-6.351,7.028-10.476,10.653c-2.25,1.979-4.649,3.029-7.131,3.123c-0.33,0.012-0.71,0.023-0.858-1.061
			c-0.024-0.176-0.041-0.396-0.041-0.658c0-0.723,0.17-1.883,0.578-3.443c4.816-1.148,9.018-2.926,12.459-5.334
			c4.09-2.865,6.152-6.133,6.152-9.74c0-0.543-0.046-1.096-0.143-1.658c-0.748-4.438-3.584-6.807-8.196-6.854
			c-6.539-0.063-12.273,3.156-17.093,9.447c0.121-0.555,0.254-1.104,0.254-1.66c0-0.473-0.043-0.939-0.131-1.404
			c-0.635-3.393-3.004-5.186-6.67-5.051c-2.215,0.08-6.313,2.057-11.036,5.24c-0.986-4.275-3.07-6.168-6.771-5.969
			c-4.965,0.27-8.432,4.809-11.488,8.813l-2.01,2.561c-1.096,1.268-2.186,2.313-3.125,3.156c1.732-8.715,4.67-21.223,13.617-39.227
			c0.388-0.783,0.582-1.469,0.582-2.063c0-0.428-0.104-0.809-0.307-1.146c-0.282-0.477-0.884-1.043-2.152-1.08
			C123.338,27.228,111.385,28.219,102.34,40.166z M96.158,59.833c2.306-4.213,5.175-9.455,9.976-15.367
			c4.367-5.371,7.87-7.523,12.066-8.715c-7.535,11.038-12.15,20.2-15.006,29.784c-2.145-2.268-4.371-3.828-7.206-5.395
			C96.051,60.025,96.158,59.833,96.158,59.833z M86.146,66.998c-1.52,2.783-4.234,8.026-5.587,10.657
			c-0.805-1.191-1.807-3.106-1.807-5.276c0-1.285,0.362-2.662,1.327-4.02C82.112,65.873,84.75,66.435,86.146,66.998z M90.815,69.835
			c0.76,0.652,1.592,1.5,2.805,3.057l0.346,0.441l2.355-0.031c0,0,3.068,0.063,4.644,0.098c-0.321,1.801-1.063,5.961-1.063,5.961
			s-0.1,0.645-0.178,1.145c-4.342,2.631-10.357,3.813-14.861,0.957C85.973,79.229,89.004,73.167,90.815,69.835z M175.457,60.978
			c0.297,0,0.522,0.422,0.666,1.25c0.055,0.336,0.086,0.67,0.086,1.01c0,2.217-1.232,4.496-3.74,6.941
			c-2.127,2.072-4.441,3.596-6.891,4.564c0.932-2.41,2.059-4.895,3.549-7.473C172.135,62.07,174.229,60.978,175.457,60.978z
			 M201.297,66.857l-0.002-0.002c-1.158-0.707-1.819-1.434-1.92-2.092c-0.108-0.689,0.676-1.391,1.351-1.854
			c1.17-0.809,2.278-1.215,3.303-1.203c1.16,0.01,1.685,0.48,1.86,1.674c0.068,0.479,0.089,1.355-0.219,2.857
			c-0.268,1.287-0.774,1.762-0.892,1.811C203.771,68.037,202.567,67.638,201.297,66.857z M191.813,80.707L191.813,80.707
			c-0.021-0.285-0.031-0.566-0.031-0.85c0-4.859,2.93-9.297,4.626-11.473c1.718,1.799,4.005,2.98,6.761,3.492
			c-3.19,5.967-6.848,9.313-10.388,9.403C191.856,81.305,191.832,81.002,191.813,80.707z"/>
		
			<linearGradient id="SVGID_2_" gradientUnits="userSpaceOnUse" x1="-894.3906" y1="-591.886" x2="-908.657" y2="-504.5024" gradientTransform="matrix(-1 0 0 -1 -752.2012 -475.2974)">
			<stop  offset="0" style="stop-color:#B2B4B6"/>
			<stop  offset="0.0221" style="stop-color:#BCBDC0"/>
			<stop  offset="0.0805" style="stop-color:#D3D4D6"/>
			<stop  offset="0.1436" style="stop-color:#E5E6E7"/>
			<stop  offset="0.213" style="stop-color:#F2F2F3"/>
			<stop  offset="0.2933" style="stop-color:#FAFBFB"/>
			<stop  offset="0.4101" style="stop-color:#FFFFFF"/>
			<stop  offset="0.5084" style="stop-color:#FBFBFB"/>
			<stop  offset="0.6005" style="stop-color:#F0F0F0"/>
			<stop  offset="0.6902" style="stop-color:#DDDDDD"/>
			<stop  offset="0.7783" style="stop-color:#C2C2C2"/>
			<stop  offset="0.8645" style="stop-color:#A0A0A0"/>
			<stop  offset="0.9326" style="stop-color:#808080"/>
		</linearGradient>
		<path fill="url(#SVGID_2_)" d="M251.5,77.848c-0.347,0.215-3.812,4.5-9.687,4.322c-1.328-0.109-2.306-0.9-1.831-2.102
			c0.156-0.396,0.998-2.396,3.189-6.846c2.194-4.447,3.078-7.74,2.791-9.955c-0.444-3.451-2.738-5.193-6.91-5.221
			c-1.9-0.012-4.646,0.67-7.711,2.346c-3.061,1.668-4.522,3.016-4.522,3.016s1.013-7.594-5.399-7.182
			c-1.76,0.109-4.559,1.385-7.168,4.494c-1.139,1.357-2.684,4.512-3.935,6.127c-0.896,1.156-1.731,1.217-1.731,1.217
			c0.852-2.896,1.197-5.098,1.047-6.133c-0.488-3.34-2.971-5.049-7.459-5.105c-5.676-0.076-12.859,3.338-19.246,13.838
			c0,0-6.312,7.016-10.609,10.792c-2.479,2.178-5.129,3.303-7.836,3.404c-1.166,0.043-1.832-0.637-2.025-2.037
			c-0.168-1.219,0.07-2.955,0.709-5.176c5.066-1.125,9.332-2.944,12.76-5.342c4.299-3.012,6.201-6.391,5.545-10.283
			c-0.654-3.895-3.02-5.869-7.094-5.91c-6.277-0.063-11.867,3.027-16.623,9.504c-4.494,6.121-6.182,12.155-5.344,17.901
			c0.691,4.73,3.625,7.006,9.014,6.76c5.707-0.264,11.004-3.676,15.729-9.875c1.681-2.207,2.927-3.912,3.741-5.154
			c-0.891,2.629-1.211,5.145-0.93,7.504c0.481,4.086,3.174,6.063,8.238,5.873c3.653-0.135,7.654-2.586,11.84-7.119
			c2.967-3.217,5.514-6.805,7.457-10.561l0.142-0.246c0,0,1.868-0.785,3.053-1.996c2.313-2.221,4.47-5.582,5.796-5.869
			c0.85-0.188,1.133,0.451,1.053,1.273c-0.07,0.689-8.379,19.083-10.776,24.149c4.733-0.41,7.097-0.604,11.813-0.979
			c0.814-1.617,6.525-17.051,8.475-19.915c1.207-1.771,1.846-2.428,3.475-3.988c1.98-1.891,3.441-2.418,4.391-2.465
			c1.871-0.135,1.983,1.539,2.037,1.941c0.346,2.635-0.592,6.152-2.922,10.656c-2.334,4.5-3.339,6.598-3.339,8.338
			c0,3.059,2.245,5.033,6.511,4.977c3.198-0.045,4.881-0.648,6.834-1.564c2.66-1.248,5.885-3.582,7.517-7.188
			C251.607,77.945,251.666,77.691,251.5,77.848z M168.147,65.951c2.657-4.6,5.099-6.859,7.31-6.859c1.275,0,1.637,1.35,1.783,2.188
			c0.506,2.967-0.861,5.92-3.98,8.957c-2.851,2.783-6.057,4.688-9.611,5.584C164.66,72.673,166.17,69.369,168.147,65.951z
			 M192.809,81.656c-1.292,0.033-2.047-0.502-2.127-1.625c-0.5-6.856,4.719-13.028,5.666-14.118
			c1.908,2.611,4.924,4.063,8.552,4.361C201.287,77.637,196.996,81.552,192.809,81.656z M206.778,65.708
			c-0.343,1.682-1.178,2.705-1.911,2.705c-1.308,0-2.691-0.439-4.164-1.346c-1.479-0.906-2.296-1.873-2.449-2.891
			c-0.16-1.02,0.453-2.008,1.83-2.959c1.375-0.945,2.691-1.412,3.953-1.402c1.723,0.02,2.711,0.896,2.971,2.645
			C207.125,63.251,207.057,64.347,206.778,65.708z M216.615,91.99c-21.643,0-51.82,7.229-65.578,10.129
			c-12.524,2.637-21.457,3.494-30.348-2.281c-8.805-5.723-6.783-23.15-6.783-23.15c10.703-7.338,11.003-13.936,14.736-13.569
			c0.578,0.055,1.023,0.451,1.158,1.418c0.315,2.26-9.584,27.415-9.584,27.415c3.803-0.127,7.291-0.65,11.112-0.773
			c6.116-18.055,9.222-23.833,12.31-26.797c5.083-4.868,9.118-5.145,9.747-3.043c0.061,0.313,0.09,0.471,0.146,0.783
			c-1.496-0.221-2.856,0.273-4.071,1.486c-1.222,1.211-1.77,2.516-1.438,3.854c0.577,2.375,4.524,3.389,7.163-0.729
			c1.1-1.713,1.436-3.477,1.121-5.156c-0.193-1.045-0.906-4.299-5.514-4.129c-1.654,0.057-5.502,1.555-11.384,5.656
			c-0.33,0.008-0.543-0.256-0.646-0.791c-0.891-4.561-2.824-5.752-5.759-5.596c-5.489,0.301-9.168,6.74-12.69,10.969
			c-2.748,3.18-5.65,5.301-5.711,5.301c1.646-8.529,4.199-22.232,14.316-42.602c1.223-2.453-0.291-2.635-0.893-2.65
			c-4.885-0.131-16.136,0.939-24.783,12.363c-6.374,8.424-8.536,12.84-11.752,18.699c-7.318-1.947-11.695-0.092-13.679,1.439
			c-3.553,2.748-5.482,7.588-3.829,12.969c1.553,5.063,4.611,7.299,5.462,8.292c-8.196,15.523-13.191,23.576-21.891,23.576
			c-4.071,0-5.927-1.883-6.235-3.277c-0.445-2.002,0.643-2.779,2.988-3.123c1.973-0.197,6.361-1.711,6.619-7.25
			c0.584-12.443-19.092-12.066-18.03,4.896c0.304,4.875,3.036,12.475,15.084,12.197c8.001-0.186,14.49-5.275,24.202-25.326
			c8.239,5.402,14.371,1.912,18.182,0.365c-0.216,3.463-0.014,12.012,5.091,18.125c8.26,9.895,20.273,9.902,47.556,4.203
			c19.293-4.029,42.675-6.164,59.986-4.029c10.985,1.348,18.213,7.74,19.994,12.15C241.299,102.927,234.26,91.99,216.615,91.99z
			 M80.756,78.99c-1.299-1.246-5.297-6.896-1.584-12.075c3.377-4.184,8.211-1.371,8.541-1.166
			C86.062,68.642,80.756,78.99,80.756,78.99z M100.762,80.467c-4.697,3.018-12.035,4.764-17.367,0.648
			c0,0,5.094-10.303,7.082-13.764c1.256,0.938,2.267,1.816,4.037,4.086c2.416,0,3.338-0.16,7.795,0.104
			C101.664,74.369,101.313,76.93,100.762,80.467z M103.708,67.017c-2.825-3.457-5.518-5.211-9.252-7.201
			c2.521-4.568,5.439-10.223,10.801-16.818c5.637-6.938,9.909-8.717,15.531-9.779C110.873,47.314,106.361,57.257,103.708,67.017z"/>
		<path fill="#FFFFFF" d="M177.153,80.402c0.333-0.439,0.638-0.84,0.935-1.238c0.145-0.191,0.287-0.385,0.424-0.566
			c0.168-1.096,0.429-2.205,0.814-3.35c-0.814,1.242-2.058,2.947-3.742,5.154c-4.678,6.143-9.92,9.537-15.562,9.854
			c0.453,0.021,0.907,0.043,1.401,0.021C167.131,90.014,172.43,86.602,177.153,80.402z M120.217,91.949
			c3.803-0.127,7.291-0.65,11.112-0.773c6.116-18.055,9.222-23.833,12.31-26.797c0.331-0.313,0.656-0.609,0.977-0.889l0,0
			c0.084-0.07,0.166-0.137,0.25-0.205c0.006-0.006,0.014-0.008,0.02-0.016c0.317-0.271,0.631-0.521,0.939-0.75
			c0.005-0.004,0.007-0.006,0.01-0.01l0.001-0.002c0.22-0.164,0.438-0.326,0.651-0.475l0,0c0.082-0.055,0.16-0.104,0.24-0.156
			c0.002-0.002,0.007-0.006,0.009-0.008c0.214-0.141,0.426-0.277,0.632-0.4c0.003-0.002,0.009-0.008,0.011-0.008
			c0.053-0.027,0.104-0.057,0.151-0.088c0.249-0.143,0.494-0.273,0.731-0.396c0.033-0.02,0.068-0.033,0.105-0.053h0.002
			c0.252-0.127,0.496-0.232,0.73-0.324c0.009-0.004,0.02-0.008,0.025-0.01c0.002-0.002,0.002-0.002,0.006-0.002
			c0.492-0.193,0.951-0.332,1.371-0.406c0.004-0.002,0.006-0.002,0.006-0.002h0.006c-1.698-0.414-4.797,0.707-8.443,4.195
			c-3.086,2.965-6.189,8.742-12.307,26.797c-3.275,0.105-6.319,0.49-9.512,0.684C120.231,91.916,120.217,91.949,120.217,91.949z
			 M94.499,71.417c0.005,0.006,0.011,0.014,0.017,0.021c0.217,0,0.42-0.002,0.616-0.002c0.032,0,0.062-0.002,0.093-0.002
			c0.026-0.004,0.055-0.004,0.084-0.004c0.176-0.004,0.348-0.006,0.518-0.008c0.043-0.002,0.088-0.004,0.131-0.004
			c0.408-0.008,0.805-0.016,1.228-0.023C96.103,71.378,95.321,71.402,94.499,71.417z M207.642,70.699c0,0,1.868-0.785,3.053-1.996
			c0.274-0.266,0.547-0.545,0.819-0.838c0.07-0.074,0.14-0.15,0.207-0.23c0.207-0.225,0.412-0.449,0.615-0.686
			c0.01-0.01,0.019-0.023,0.024-0.033c0.028-0.025,0.054-0.055,0.076-0.084c1.625-1.875,3.063-3.783,4.052-3.998
			c0.174-0.041,0.307-0.021,0.436,0.004c0.006-0.004,0.019-0.014,0.022-0.02c0.002-0.002-1-0.383-2.121,0.371
			c-1.125,0.756-3.028,3.514-5.344,5.73c-1.187,1.215-3.408,1.777-3.408,1.777l-0.144,0.246c-1.942,3.756-4.489,7.344-7.457,10.561
			c-4.104,4.449-8.032,6.879-11.633,7.098c0.438,0.02,0.879,0.043,1.36,0.021c3.654-0.135,7.655-2.586,11.841-7.119
			c2.965-3.217,5.512-6.805,7.455-10.561L207.642,70.699z M199.137,67.068c1.473,0.904,2.854,1.346,4.162,1.346
			c0.14,0,0.281-0.047,0.427-0.119c-0.015-0.006-0.031-0.01-0.048-0.014c-0.012-0.002-0.021-0.004-0.031-0.006
			c-0.074-0.016-0.154-0.039-0.23-0.059c-0.371-0.088-0.746-0.211-1.129-0.359c-0.093-0.039-0.189-0.07-0.283-0.113
			c0-0.002,0-0.002,0-0.002c-0.117-0.051-0.231-0.104-0.349-0.156c-0.004,0-0.005-0.002-0.009-0.004
			c-0.311-0.15-0.622-0.318-0.941-0.514c-1.479-0.906-2.297-1.873-2.449-2.889c-0.16-1.021,0.451-2.01,1.83-2.959
			c0.308-0.211,0.606-0.393,0.91-0.555c0.114-0.063,0.229-0.117,0.35-0.174c0.011-0.006,0.021-0.01,0.031-0.016
			c0.312-0.148,0.617-0.273,0.922-0.371c0.004,0,0.004,0,0.006-0.002c0.138-0.043,0.271-0.076,0.406-0.105
			c0.158-0.041,0.317-0.086,0.479-0.107c-0.224-0.043-0.459-0.072-0.718-0.074c-1.262-0.01-2.581,0.457-3.954,1.404
			c-1.38,0.949-1.989,1.938-1.83,2.959C196.838,65.195,197.656,66.162,199.137,67.068z M244.396,63.269
			c0.285,2.215-0.598,5.508-2.792,9.955c-2.19,4.448-3.032,6.448-3.19,6.846c-0.473,1.199,0.508,1.99,1.832,2.102
			c0.446,0.018,0.877-0.006,1.295-0.041c-0.305-0.051-0.58-0.137-0.82-0.258l-0.002-0.002c-0.129-0.061-0.239-0.135-0.344-0.219
			l-0.002-0.002c-0.455-0.369-0.656-0.908-0.39-1.58c0.155-0.396,0.998-2.396,3.188-6.846c2.195-4.447,3.078-7.74,2.791-9.955
			c-0.443-3.451-2.737-5.193-6.908-5.221c-0.271-0.004-0.564,0.016-0.869,0.045C241.9,58.31,243.978,60.021,244.396,63.269z
			 M89.69,66.75c-1.99,3.463-7.861,14.366-7.861,14.366c2.443,1.881,5.307,2.527,8.147,2.395c-0.585-0.035-1.165-0.117-1.739-0.23
			c-0.05-0.012-0.103-0.021-0.156-0.029l0,0c-0.512-0.109-1.02-0.234-1.517-0.414c-0.003,0-0.005,0-0.007,0
			c-0.002-0.004-0.004-0.006-0.008-0.008c-0.566-0.195-1.119-0.457-1.658-0.756c-0.039-0.018-0.08-0.039-0.117-0.063h-0.003
			c-0.198-0.109-0.396-0.227-0.589-0.354c-0.266-0.166-0.531-0.344-0.787-0.539c0,0,5.094-10.303,7.082-13.764
			C90.121,67.042,90.065,67.031,89.69,66.75z M191.24,81.656c0.271-0.004,0.544-0.031,0.818-0.07c0,0,0,0-0.002,0l0,0
			c-0.139-0.025-0.252-0.078-0.369-0.127c-0.01-0.004-0.016-0.006-0.025-0.012c-0.572-0.242-0.928-0.693-0.98-1.416
			c-0.027-0.396-0.033-0.793-0.027-1.184c0,0,0-0.004,0-0.006c0.016-0.684,0.09-1.359,0.197-2.021
			c0.018-0.107,0.031-0.215,0.053-0.32c0-0.002,0.002-0.004,0.002-0.006c0.021-0.139,0.055-0.275,0.082-0.416
			c0.055-0.26,0.115-0.521,0.186-0.771c0.004-0.008,0.006-0.02,0.006-0.023c0.221-0.831,0.496-1.627,0.808-2.389
			c0-0.002,0.004-0.002,0.004-0.004c0,0,0,0,0-0.002c0.024-0.063,0.052-0.121,0.077-0.184c0.006-0.008,0.01-0.021,0.014-0.033
			c0.113-0.262,0.228-0.514,0.344-0.768c0.006-0.008,0.009-0.014,0.014-0.021c0.068-0.146,0.145-0.289,0.213-0.436
			c0.084-0.162,0.164-0.328,0.248-0.484c0.004-0.012,0.01-0.02,0.018-0.027c0.035-0.072,0.076-0.146,0.115-0.225
			c0.004-0.008,0.01-0.012,0.012-0.021c0.059-0.105,0.115-0.205,0.178-0.313c0.101-0.178,0.199-0.359,0.304-0.529
			c0.002-0.006,0.005-0.012,0.006-0.018c0.079-0.131,0.155-0.25,0.231-0.373c0.084-0.139,0.168-0.275,0.25-0.406
			c0.002-0.002,0.002-0.004,0.002-0.004c0.156-0.238,0.311-0.473,0.459-0.689c0.004-0.006,0.009-0.012,0.014-0.018
			c0.055-0.082,0.107-0.154,0.162-0.232c0.016-0.02,0.033-0.045,0.049-0.07c0.07-0.098,0.139-0.197,0.205-0.289
			c0.002-0.006,0.008-0.01,0.01-0.014c0.082-0.109,0.154-0.211,0.232-0.313c0.007-0.01,0.014-0.02,0.02-0.025
			c0.041-0.055,0.082-0.107,0.119-0.158c0.004-0.004,0.006-0.008,0.006-0.008c0.48-0.629,0.866-1.088,1.064-1.314
			c-0.277-0.297-0.387-0.369-0.631-0.703c-0.948,1.09-7.104,7.965-6.604,14.821C189.193,81.154,189.947,81.689,191.24,81.656z
			 M135.125,104.139L135.125,104.139L135.125,104.139L135.125,104.139z M133.239,104.052c-0.012,0-0.023-0.004-0.036-0.004h-0.001
			c-0.604-0.045-1.201-0.109-1.795-0.191c-0.028-0.004-0.059-0.006-0.086-0.01c-0.002,0-0.002,0-0.004,0
			c-0.594-0.084-1.182-0.188-1.766-0.313c-0.025-0.004-0.051-0.01-0.078-0.014c-0.002,0-0.003-0.002-0.006-0.002
			c-1.678-0.359-3.318-0.895-4.938-1.609c-0.006,0-0.009-0.002-0.012-0.004c-0.025-0.012-0.053-0.021-0.078-0.035
			c-0.538-0.238-1.074-0.502-1.608-0.785c-0.013-0.006-0.026-0.012-0.038-0.021c-0.072-0.035-0.143-0.072-0.211-0.105
			c-0.633-0.346-1.262-0.713-1.893-1.121c-8.805-5.723-6.783-23.15-6.783-23.15c0.639-0.438,1.232-0.871,1.799-1.305
			c0.179-0.133,0.336-0.268,0.51-0.396c0.163-0.129,0.314-0.258,0.475-0.385c0.207-0.168,0.43-0.338,0.628-0.502
			c0.171-0.146,0.331-0.291,0.496-0.438c0.136-0.115,0.261-0.229,0.391-0.346c0.184-0.162,0.371-0.324,0.544-0.486
			c0.145-0.133,0.287-0.27,0.428-0.404c0.299-0.285,0.59-0.57,0.865-0.852c0.108-0.111,0.214-0.221,0.318-0.328
			c0.004-0.002,0.004-0.006,0.006-0.008c0.298-0.313,0.58-0.613,0.845-0.912c0.058-0.063,0.116-0.129,0.173-0.193
			c0.51-0.572,0.957-1.125,1.374-1.648c0.116-0.146,0.24-0.297,0.347-0.438c0.072-0.088,0.131-0.172,0.197-0.256
			c1.353-1.768,2.268-3.145,3.214-3.938c0.001-0.002,0.001-0.002,0.001-0.002s0.002,0,0.006-0.002
			c0.156-0.135,0.316-0.246,0.477-0.346l0,0c0.009-0.006,0.018-0.012,0.026-0.014c0.161-0.096,0.324-0.176,0.495-0.234
			c-0.138-0.07-0.283-0.123-0.444-0.139c-3.733-0.365-4.032,6.229-14.735,13.569c0,0-2.025,17.43,6.784,23.15
			c5.095,3.313,10.207,4.438,15.999,4.303C134.487,104.127,133.86,104.1,133.239,104.052z M227.051,67.363
			c1.207-1.771,1.847-2.428,3.476-3.988c0.226-0.215,0.44-0.402,0.649-0.586c0.004-0.004,0.004-0.004,0.009-0.006
			c0.185-0.16,0.36-0.299,0.536-0.432c0.025-0.02,0.052-0.041,0.074-0.061h0.002c0.271-0.205,0.533-0.389,0.781-0.539
			c0.004-0.004,0.006-0.006,0.008-0.006c0.164-0.1,0.321-0.189,0.476-0.27c0,0,0.005-0.002,0.006-0.002
			c0.085-0.049,0.167-0.082,0.246-0.119c0.005-0.002,0.009-0.004,0.015-0.006c0.063-0.031,0.131-0.063,0.192-0.086
			c0.548-0.232,1.015-0.338,1.396-0.355c0.231-0.016,0.437-0.004,0.615,0.027h0.004c-0.242-0.084-2.953-0.686-6.373,2.23
			c-1.715,1.465-2.473,2.422-3.68,4.193c-1.947,2.863-7.658,18.297-8.475,19.915c-4.143,0.33-6.467,0.52-10.178,0.84
			c-0.023,0.047-0.049,0.096-0.066,0.141c4.734-0.412,7.097-0.604,11.813-0.979C219.394,85.66,225.104,70.226,227.051,67.363z
			 M90.106,58.466c-0.016-0.002-0.028-0.006-0.041-0.01c-0.004,0-0.01,0-0.012,0c-0.459-0.098-0.904-0.178-1.335-0.242
			c-0.091-0.014-0.183-0.021-0.273-0.037c-0.001,0-0.004,0-0.007,0c-0.361-0.051-0.714-0.096-1.058-0.127
			c-0.071-0.006-0.14-0.01-0.21-0.016c-0.012-0.002-0.025-0.004-0.04-0.004c-0.36-0.029-0.712-0.051-1.052-0.063
			c-0.046,0-0.095-0.002-0.141-0.002c-0.384-0.006-0.762-0.004-1.123,0.012c1.513,0.064,3.209,0.311,5.108,0.816
			C89.987,58.683,90.046,58.578,90.106,58.466z M80.756,78.99c-1.299-1.246-5.297-6.896-1.584-12.075
			c0.184-0.229,0.38-0.436,0.574-0.623h0.002c0.152-0.146,0.309-0.277,0.465-0.402c0.054-0.041,0.106-0.094,0.162-0.135v-0.002
			c0.551-0.41,1.119-0.688,1.685-0.859c0.022-0.004,0.042-0.01,0.06-0.02c0.002,0,0.002,0,0.004-0.002
			c0.305-0.086,0.605-0.146,0.905-0.186c-1.675-0.205-3.733,0.133-5.426,2.229c-3.708,5.182,1.417,11.557,2.717,12.799L80.756,78.99
			z M112.582,36.183c0.004-0.002,0.01-0.004,0.014-0.008c0.321-0.199,0.641-0.391,0.965-0.563c0.002-0.002,0.006-0.002,0.01-0.006
			c0.098-0.057,0.199-0.109,0.298-0.164c0.002,0,0.004,0,0.005,0c0.465-0.24,0.934-0.455,1.404-0.652
			c0.006-0.002,0.011-0.008,0.02-0.01c0.057-0.023,0.112-0.047,0.168-0.07c0.24-0.096,0.479-0.189,0.719-0.273
			c0-0.004,0-0.004,0.002-0.006c0.104-0.035,0.201-0.072,0.303-0.107c0.002,0,0.004-0.002,0.009-0.002
			c0.238-0.082,0.479-0.164,0.724-0.238c0.045-0.012,0.092-0.027,0.141-0.041c0.005-0.002,0.008-0.002,0.012-0.004
			c0.262-0.08,0.521-0.156,0.787-0.227c0.013-0.002,0.03-0.006,0.044-0.012c0,0,0.002,0,0.004,0
			c0.245-0.064,0.492-0.133,0.743-0.189c0.091-0.131,0.179-0.258,0.27-0.395c-5.619,1.063-9.892,2.844-15.529,9.779
			c-5.359,6.598-8.279,12.25-10.801,16.818c3.734,1.99,6.428,3.744,9.254,7.201c0.122-0.451,0.252-0.9,0.383-1.354
			c-0.033-0.037-0.068-0.064-0.1-0.104c-0.508-0.533-1.017-1.025-1.531-1.48c-0.076-0.064-0.149-0.141-0.225-0.203
			c-0.205-0.18-0.417-0.346-0.629-0.514c-0.131-0.107-0.264-0.215-0.4-0.32c-0.199-0.152-0.402-0.305-0.607-0.453
			c-0.154-0.107-0.309-0.219-0.463-0.324c-0.194-0.137-0.391-0.268-0.588-0.395c-0.174-0.113-0.35-0.225-0.528-0.338
			c-0.009-0.004-0.02-0.01-0.028-0.016c-0.182-0.113-0.365-0.23-0.551-0.342c-0.232-0.139-0.473-0.275-0.709-0.414
			c-0.156-0.088-0.305-0.176-0.463-0.268c-0.403-0.221-0.818-0.449-1.248-0.68c2.521-4.568,5.439-10.223,10.801-16.818
			c0.445-0.547,0.88-1.053,1.312-1.541c0-0.002,0.003-0.002,0.003-0.006c0.02-0.021,0.039-0.041,0.057-0.062
			c0.324-0.362,0.643-0.714,0.959-1.044c0.001-0.002,0.003-0.002,0.003-0.002c0.186-0.193,0.37-0.391,0.554-0.57
			c0.002-0.002,0.004-0.004,0.008-0.006c0.131-0.135,0.264-0.264,0.396-0.391c0,0,0.003-0.002,0.005-0.004
			c0.172-0.168,0.34-0.326,0.51-0.483c0.002-0.003,0.006-0.005,0.008-0.009c1.101-1.012,2.169-1.84,3.229-2.521
			C112.394,36.3,112.488,36.24,112.582,36.183z M56.871,108.492c0.369,0.01,0.721,0.031,1.11,0.021
			c7.904-0.184,14.688-5.891,24.202-25.326c-0.398-0.229-0.605-0.283-1.016-0.553C71.642,102.302,64.664,108.127,56.871,108.492z
			 M52.213,103.291c-0.003-0.004-0.005-0.008-0.009-0.01c-0.146-0.15-0.282-0.299-0.395-0.453v-0.002
			c-0.029-0.039-0.047-0.072-0.068-0.111c-0.208-0.313-0.355-0.627-0.422-0.92c-0.445-2.002,0.643-2.779,2.988-3.123
			c1.973-0.197,6.361-1.711,6.619-7.25c0.018-0.381,0.016-0.752-0.002-1.107c-0.008-0.129-0.029-0.248-0.039-0.373
			c-0.021-0.227-0.037-0.447-0.072-0.664c-0.023-0.145-0.061-0.277-0.088-0.416c-0.039-0.186-0.072-0.367-0.123-0.543
			c-0.041-0.146-0.092-0.281-0.141-0.42c-0.051-0.156-0.1-0.316-0.162-0.465c-0.059-0.146-0.129-0.281-0.195-0.42
			c-0.064-0.133-0.124-0.266-0.192-0.391c-0.079-0.143-0.167-0.275-0.253-0.41c-0.07-0.105-0.135-0.219-0.209-0.318
			c-0.102-0.145-0.211-0.271-0.322-0.404c-0.039-0.047-0.078-0.098-0.12-0.143c-0.03-0.035-0.057-0.074-0.09-0.105
			c-0.124-0.139-0.256-0.262-0.389-0.387c-0.065-0.063-0.132-0.129-0.2-0.188c-0.15-0.131-0.305-0.25-0.463-0.367
			c-0.059-0.043-0.119-0.09-0.182-0.131c-0.17-0.121-0.35-0.229-0.533-0.334c-0.047-0.025-0.092-0.055-0.141-0.082
			c-0.006-0.002-0.012-0.006-0.016-0.01c-0.193-0.104-0.396-0.197-0.599-0.287c-0.042-0.02-0.085-0.037-0.126-0.057
			c0,0-0.002,0-0.004,0c-0.218-0.094-0.447-0.174-0.674-0.246c-0.023-0.006-0.043-0.018-0.067-0.021
			c-0.006,0-0.013-0.004-0.024-0.006c-0.236-0.071-0.479-0.135-0.726-0.184c-0.011-0.002-0.015-0.004-0.023-0.004
			c-0.013-0.004-0.024-0.008-0.036-0.012c-0.26-0.051-0.522-0.09-0.785-0.113c-0.009-0.004-0.018-0.004-0.028-0.006h-0.004
			c-0.271-0.027-0.543-0.041-0.818-0.047h-0.011c-0.281-0.002-0.563,0.012-0.843,0.035h-0.001l0,0
			c3.943,0.348,7.385,3.314,7.136,8.625c-0.261,5.539-4.646,7.053-6.619,7.25c-2.345,0.344-3.433,1.121-2.988,3.123
			c0.31,1.396,2.161,3.277,6.235,3.277c0.262,0,0.514-0.033,0.773-0.049c-2.198-0.146-3.668-0.857-4.523-1.701
			C52.231,103.309,52.226,103.299,52.213,103.291z M127.353,30.384c-10.118,20.367-12.961,35.091-14.606,43.619
			c0.03,0,1.708-1.02,1.856-1.02c1.646-8.529,4.199-22.232,14.316-42.602c1.223-2.455-0.291-2.635-0.893-2.65
			c-0.229-0.004-0.482-0.004-0.734-0.004c-0.238,0-0.488,0.004-0.743,0.01l0,0C127.192,27.771,128.524,28.035,127.353,30.384z
			 M225.912,63.591l0.92-0.313c0.002-0.002,0.002-0.008,0.002-0.01c-0.002-0.16,0.033-1.352,0.027-1.535c0-0.006,0-0.016,0-0.021
			c-0.007-0.063-0.011-0.129-0.016-0.191c0-0.006-0.002-0.018-0.002-0.025c-0.01-0.115-0.021-0.229-0.031-0.354
			c-0.01-0.068-0.018-0.137-0.023-0.203c-0.021-0.152-0.047-0.313-0.076-0.475c-0.01-0.045-0.018-0.094-0.025-0.141
			c-0.021-0.107-0.053-0.219-0.08-0.326c-0.023-0.098-0.042-0.191-0.068-0.289c-0.018-0.049-0.033-0.104-0.051-0.152
			c-0.048-0.156-0.105-0.314-0.168-0.469c-0.021-0.061-0.048-0.121-0.072-0.178c-0.061-0.139-0.135-0.271-0.205-0.408
			c-0.021-0.039-0.037-0.082-0.063-0.121c-0.016-0.023-0.023-0.051-0.043-0.074c-0.113-0.191-0.243-0.373-0.389-0.549
			c-0.035-0.039-0.068-0.08-0.107-0.123c-0.12-0.135-0.248-0.262-0.391-0.383c-0.049-0.039-0.1-0.082-0.147-0.121
			c-0.175-0.139-0.36-0.266-0.571-0.375c-0.014-0.01-0.023-0.018-0.035-0.021c-0.111-0.061-0.244-0.096-0.367-0.146
			c-0.117-0.049-0.231-0.102-0.359-0.143c-0.07-0.021-0.146-0.039-0.221-0.055c-0.207-0.057-0.424-0.098-0.654-0.123
			c-0.084-0.012-0.174-0.023-0.264-0.031c-0.314-0.023-0.646-0.033-1.008-0.01c-0.094,0.006-0.199,0.027-0.297,0.041
			C226.114,56.888,225.912,63.591,225.912,63.591z M216.615,91.99c-0.334,0-0.68,0.006-1.02,0.01
			c16.551,0.223,23.479,10.203,16.729,20.695c0.004,0.008,0.006,0.016,0.008,0.02c0.123,0.205,0.239,0.406,0.34,0.605
			c0.002,0.002,0.002,0.002,0.004,0.004c0.119,0.232,0.228,0.459,0.314,0.68C241.299,102.927,234.26,91.99,216.615,91.99z
			 M251.5,77.848c-0.021,0.014-0.056,0.041-0.102,0.086c-0.02,0.021-0.053,0.051-0.079,0.078c-0.099,0.096-0.235,0.229-0.401,0.391
			c-0.129,0.121-0.276,0.262-0.447,0.41c-0.025,0.023-0.053,0.049-0.079,0.074c-0.197,0.174-0.425,0.357-0.671,0.555
			c-0.016,0.014-0.03,0.023-0.051,0.039c-0.256,0.195-0.531,0.398-0.838,0.604c-0.007,0.004-0.01,0.006-0.015,0.014
			c-0.011,0.008-0.019,0.014-0.032,0.018c-1.742,2.459-4.201,4.148-6.316,5.143c-1.764,0.828-3.318,1.398-5.957,1.529
			c0.232,0.014,0.447,0.037,0.691,0.035c3.198-0.045,4.881-0.648,6.834-1.564c2.66-1.248,5.885-3.582,7.516-7.188
			C251.607,77.945,251.666,77.691,251.5,77.848z M124.563,109.723h0.002c0.873,0.016,1.775,0.006,2.713-0.031
			c0.031,0,0.063,0,0.098-0.002c0.935-0.027,1.904-0.086,2.907-0.162c0.006,0,0.013,0,0.021-0.002
			c0.741-0.059,1.507-0.125,2.286-0.205c0.021-0.004,0.047-0.006,0.067-0.008c2.364-0.244,4.905-0.59,7.644-1.033
			c0.129-0.021,0.254-0.041,0.385-0.063c1.134-0.186,2.305-0.387,3.512-0.605c0.169-0.027,0.341-0.063,0.516-0.092
			c1.202-0.225,2.439-0.459,3.715-0.709c0.076-0.014,0.152-0.027,0.229-0.039c0.076-0.021,0.152-0.035,0.229-0.049
			c1.339-0.266,2.705-0.541,4.125-0.84c1.566-0.326,3.166-0.639,4.781-0.938c0.002,0,0.004,0,0.008,0
			c0.406-0.076,0.81-0.15,1.22-0.227c0.007,0,0.012-0.002,0.017-0.002c1.526-0.273,3.067-0.541,4.625-0.793
			c0.1-0.014,0.198-0.029,0.303-0.051c0.004,0,0.011-0.002,0.015-0.002c1.722-0.271,3.462-0.527,5.212-0.768
			c0.27-0.037,0.541-0.072,0.811-0.109c0.016,0,0.026-0.002,0.037-0.004c1.729-0.232,3.465-0.447,5.205-0.643h0.002
			c1.869-0.207,3.739-0.391,5.609-0.555c0.003,0,0.008-0.002,0.016-0.002c0.022-0.002,0.049-0.004,0.069-0.004
			c4.659-0.406,9.289-0.66,13.783-0.746c0.005,0,0.011,0,0.019,0c-14.104,0.127-29.701,1.998-43.294,4.84
			C140.128,108.244,131.447,109.621,124.563,109.723z M162.914,84.861c0.317-0.012,0.637-0.041,0.95-0.082
			c-0.155-0.039-0.293-0.109-0.424-0.188l-0.002-0.002c-0.015-0.006-0.026-0.014-0.039-0.021c-0.147-0.094-0.285-0.203-0.399-0.35
			c0,0,0,0,0-0.002c-0.067-0.076-0.123-0.18-0.183-0.275c-0.164-0.307-0.297-0.658-0.36-1.117c-0.17-1.219,0.069-2.955,0.709-5.176
			c5.065-1.125,9.33-2.944,12.76-5.342c4.297-3.012,6.201-6.391,5.545-10.283c-0.655-3.895-3.021-5.869-7.094-5.91
			c-0.397-0.002-0.797,0.006-1.191,0.031c3.834,0.154,6.083,2.113,6.716,5.879c0.657,3.895-1.245,7.271-5.546,10.283
			c-3.43,2.396-7.691,4.217-12.756,5.342c-0.641,2.221-0.881,3.957-0.713,5.176C161.082,84.225,161.75,84.904,162.914,84.861z
			 M208.064,61.933c0.152,1.035-0.193,3.236-1.045,6.133c0,0,0.867,0.209,1.566,0c0.103-0.354,0.198-0.697,0.287-1.025
			c0.057-0.275,0.107-0.512,0.143-0.561c0.263-1.045,0.447-1.967,0.551-2.732c0.001-0.008,0.002-0.018,0.003-0.023
			c0.048-0.354,0.074-0.672,0.088-0.951c0.002-0.049,0.002-0.092,0.002-0.139c0.009-0.268,0.003-0.51-0.026-0.699
			c-0.487-3.338-2.969-5.047-7.459-5.105c-0.358-0.006-0.726,0.006-1.099,0.027C205.254,57.031,207.592,58.718,208.064,61.933z
			 M168.147,65.951c0.325-0.57,0.649-1.1,0.974-1.596c0.151-0.234,0.297-0.436,0.447-0.65c0.167-0.244,0.337-0.5,0.501-0.723
			c0.229-0.313,0.455-0.58,0.679-0.855c0.082-0.096,0.164-0.209,0.246-0.305c0.272-0.314,0.541-0.592,0.807-0.854
			c0.031-0.029,0.063-0.064,0.093-0.096c0.296-0.279,0.587-0.523,0.873-0.738c0.003-0.004,0.005-0.008,0.009-0.008
			c0.875-0.646,1.721-0.98,2.533-1.021c0.014-0.002,0.029-0.01,0.044-0.016c-0.181-0.086-4.511-0.035-8.772,6.857
			c-2.076,3.357-3.486,6.953-4.5,10.096c0.6-0.15,1.567-0.229,1.567-0.229C164.66,72.673,166.17,69.369,168.147,65.951z
			 M154.738,61.574c0.314,1.682-0.023,3.443-1.12,5.156c-1.051,1.635-2.301,2.451-3.468,2.705c0.001,0,0.002,0,0.002,0
			c0.275,0.063,0.57,0.092,0.874,0.082c0.009,0,0.021,0,0.026-0.002c0.306-0.01,0.619-0.059,0.937-0.148
			c0.011-0.002,0.021-0.006,0.029-0.008c0.19-0.059,0.383-0.131,0.573-0.225c0.06-0.021,0.113-0.055,0.172-0.084
			c0.146-0.07,0.291-0.158,0.439-0.254c0.069-0.047,0.139-0.094,0.209-0.146c0.135-0.096,0.27-0.205,0.402-0.32
			c0.021-0.02,0.041-0.037,0.064-0.057c0.049-0.043,0.102-0.088,0.151-0.135c0.138-0.137,0.271-0.279,0.406-0.436
			c0.063-0.07,0.125-0.135,0.185-0.207c0.192-0.232,0.381-0.488,0.563-0.77c1.1-1.713,1.436-3.477,1.121-5.156
			c-0.193-1.045-0.906-4.299-5.514-4.129c-0.107,0.006-0.248,0.029-0.373,0.045C153.95,57.878,154.563,60.628,154.738,61.574z
			 M137.197,62.31c0.104,0.533,0.319,0.799,0.646,0.791c0.333-0.23,0.638-0.43,0.961-0.645c-0.015-0.051-0.03-0.092-0.042-0.146
			c-0.891-4.561-2.824-5.752-5.759-5.596c-0.095,0.005-0.187,0.027-0.282,0.035C134.94,57.01,136.44,58.455,137.197,62.31z"/>
	</g>
</g>
</svg>
