<?xml version="1.0" encoding="utf-8"?>
<!-- Generator: Adobe Illustrator 13.0.2, SVG Export Plug-In . SVG Version: 6.00 Build 14948)  -->
<!DOCTYPE svg PUBLIC "-//W3C//DTD SVG 1.1//EN" "http://www.w3.org/Graphics/SVG/1.1/DTD/svg11.dtd">
<svg version="1.1" id="Layer_1" xmlns="http://www.w3.org/2000/svg" xmlns:xlink="http://www.w3.org/1999/xlink" x="60px" y="60px"
	 width="250px" height="85px" viewBox="100 61 92 62">
<g id="Areon">
	<g display="inline">
		<path fill="#1E398D" d="M70.634,107.238c-0.805-0.873-1.877-1.313-3.177-1.313c-1.292,0-2.365,0.439-3.167,1.313
			c-0.81,0.871-1.208,2.021-1.208,3.422c0,1.396,0.397,2.539,1.208,3.41c0.805,0.873,1.875,1.307,3.167,1.307
			c0.858,0,1.615-0.191,2.264-0.567l1.34,1.055l0.092-0.108l0.656-0.77l-0.105-0.094c-0.025-0.025-0.108-0.093-0.26-0.222
			c-0.156-0.124-0.378-0.298-0.665-0.53l-0.122-0.096c0.79-0.871,1.186-2.006,1.184-3.385
			C71.843,109.26,71.444,108.109,70.634,107.238 M69.54,113.124l-0.017,0.017l-1.095-0.877l-0.747,0.938l0.114,0.091l0.709,0.563
			c-0.314,0.113-0.657,0.191-1.051,0.197c-0.865-0.006-1.542-0.311-2.072-0.927c-0.526-0.62-0.796-1.434-0.796-2.464
			c0-1.037,0.27-1.852,0.796-2.475c0.53-0.621,1.207-0.922,2.075-0.932c0.874,0.01,1.552,0.311,2.083,0.932
			c0.529,0.623,0.799,1.438,0.799,2.475C70.338,111.69,70.068,112.504,69.54,113.124 M82.419,106.161h-0.146v5.562
			c0,0.785-0.183,1.361-0.53,1.742c-0.348,0.386-0.856,0.58-1.562,0.586c-0.707-0.006-1.211-0.2-1.568-0.586
			c-0.347-0.381-0.532-0.957-0.532-1.742v-5.562h-0.738h-0.585h-0.145v5.651c-0.006,1.143,0.298,2.039,0.916,2.65
			c0.622,0.615,1.512,0.912,2.652,0.912c1.099,0,1.981-0.307,2.615-0.945c0.639-0.642,0.949-1.523,0.946-2.617v-5.651h-0.737H82.419
			z M92.295,106.161h-0.668h-0.102l-0.035,0.093l-3.356,8.889h0.822h0.604h0.101l0.914-2.521h3.263l0.886,2.521h0.734h0.632h0.209
			l-3.228-8.979L92.295,106.161L92.295,106.161z M91.053,111.292l1.186-3.269l1.138,3.269H91.053z M102.125,106.161h-0.737h-0.585
			h-0.143v8.979h0.143h5.725v-0.664v-0.521v-0.146h-4.403V106.161z M111.344,106.161h-0.146v0.149v8.83h0.737h0.588h0.147v-8.979
			h-0.74H111.344z M117.264,106.827v0.522v0.145h2.942v7.646h0.735h0.583h0.144v-7.646h2.94v-0.667v-0.517v-0.149h-7.344V106.827z
			 M134.809,106.161h-0.083l-2.421,4.081l-2.409-4.081h-0.775h-0.683h-0.262l3.398,5.401v3.578h0.734h0.583h0.149v-3.561
			l3.394-5.421h-0.949L134.809,106.161L134.809,106.161z M152.482,106.161h-3.211h-0.582h-0.147v0.149v8.83h0.737h0.582h0.146
			v-3.652c0.466-0.008,1.032-0.012,1.722-0.012h0.756c0.871,0,1.576-0.242,2.084-0.74c0.508-0.494,0.754-1.186,0.754-2.036
			c0-0.774-0.252-1.413-0.762-1.862C154.053,106.383,153.354,106.161,152.482,106.161 M153.441,109.832
			c-0.244,0.225-0.655,0.352-1.244,0.352h-2.189v-2.725h2.189c0.594,0,1.011,0.11,1.252,0.309c0.238,0.195,0.365,0.493,0.365,0.96
			C153.814,109.258,153.684,109.611,153.441,109.832 M161.713,111.188h4.729v-0.666v-0.517v-0.149h-4.729v-2.361h5.178v-0.667
			v-0.517v-0.149h-6.645v8.979h0.146h6.563v-0.664v-0.521v-0.146h-5.244L161.713,111.188L161.713,111.188z M179.124,114.441
			c-0.041-0.078-0.074-0.252-0.081-0.497l-0.048-1.587c-0.019-0.745-0.315-1.315-0.882-1.643c0.072-0.051,0.148-0.096,0.216-0.152
			c0.539-0.457,0.808-1.104,0.805-1.896c0.003-0.807-0.253-1.442-0.772-1.871c-0.52-0.43-1.25-0.636-2.196-0.636h-3.46h-0.583
			h-0.146v0.149v8.83h0.734h0.588h0.145v-3.745h2.646c0.548,0,0.916,0.111,1.119,0.306c0.204,0.193,0.336,0.531,0.349,1.055v0.002
			l0.024,0.686c0.021,0.371,0.043,0.705,0.073,1.01c0.031,0.306,0.06,0.482,0.104,0.599l0.039,0.091h1.688v-0.338v-0.092
			l-0.086-0.043C179.25,114.596,179.164,114.518,179.124,114.441 M177.298,109.77c-0.212,0.202-0.569,0.316-1.093,0.316h-2.764
			v-2.645h2.672c0.563-0.002,0.945,0.116,1.166,0.313c0.226,0.191,0.35,0.512,0.352,0.986
			C177.631,109.237,177.51,109.57,177.298,109.77 M184.325,115.141h0.146h0.59h0.586h0.145v-3.953h4.238v-0.666v-0.517v-0.149
			h-4.238v-2.361h4.842v-0.667v-0.517v-0.149h-6.307L184.325,115.141L184.325,115.141z M201.077,106.161h-0.147v5.562
			c0,0.785-0.185,1.361-0.531,1.742c-0.35,0.386-0.854,0.58-1.56,0.586c-0.709-0.006-1.218-0.2-1.567-0.586
			c-0.35-0.381-0.535-0.957-0.535-1.742v-5.562H196h-0.587h-0.146v5.651c-0.004,1.143,0.301,2.039,0.916,2.65
			c0.621,0.615,1.512,0.912,2.653,0.912c1.099,0,1.979-0.307,2.613-0.945c0.639-0.642,0.946-1.523,0.944-2.617v-5.651h-0.735
			H201.077z M214.354,106.161h-0.104l-2.354,7.084l-2.383-7.084h-0.953h-0.844h-0.146v8.979h0.721h0.566h0.146v-0.146v-6.445
			l2.207,6.592h0.68h0.563h0.104l2.201-6.612v6.612h0.723h0.564h0.145v-8.979H215.2H214.354z M222.908,113.811v-2.623h4.73v-0.666
			v-0.517v-0.149h-4.73v-2.361h5.179v-0.667v-0.517v-0.149h-6.649v8.979h0.149h6.565v-0.664v-0.521v-0.146L222.908,113.811
			L222.908,113.811z"/>
		<path fill="#1E398D" d="M83.843,68.246c-5.103,0.003-10.208,0.805-15.261,1.834l-1.36,8.488c3.742-1.321,8.281-2.523,12.254-2.523
			c0.904,0,2.323-0.003,2.323,1.545c0,3.326-18.718,0.234-18.718,12.27c0,4.357,3.003,8.543,10.776,8.543
			c1.309,0,2.61-0.113,3.914-0.285l2.44-7.908c-0.568,0.229-1.249,0.405-1.926,0.405c-0.853,0-1.818-0.233-1.818-1.266
			c0-1.723,4.087-2.239,5.563-2.813c-0.172,3.729-0.342,7.451-0.795,11.123H94.68c0.225-11.462,1.078-16.057,1.078-22.127
			C95.757,71.517,91.954,68.246,83.843,68.246 M118.471,68.246c-2.897,0-4.767,1.438-6.747,3.326v-2.583H98.728
			c0,14.337-0.509,21.099-1.191,28.669h13.729c-0.116-1.377-0.167-2.813-0.167-4.189c0-2.521,0.051-7.16,0.792-9.457
			c0.909-3.03,3.12-4.525,6.239-4.525c0.966,0,1.932,0.174,2.835,0.458l-0.396-11.465C119.885,68.359,119.212,68.246,118.471,68.246
			 M138.661,68.246c-15.151,0-17.135,11.292-17.135,16.229c0,13.926,13.445,13.926,17.93,13.926c3.513,0,6.974-0.396,10.437-1.029
			l1.646-9.805c-3.231,0.918-6.917,1.896-10.323,1.896c-2.835,0-6.301-0.405-6.301-4.072h18.779c0.283-1.49,0.455-2.926,0.455-4.356
			C154.146,71.517,147.055,68.246,138.661,68.246 M141.385,80.175h-6.188c0.231-2.009,1.08-4.133,3.406-4.133
			c1.931,0,2.782,1.321,2.782,3.101V80.175z M174.059,68.246c-9.473,0-18.096,5.333-18.096,15.713
			c0,7.162,5.16,14.439,17.588,14.439c9.529,0,17.867-4.755,17.867-15.307C191.418,73.007,183.137,68.246,174.059,68.246
			 M173.438,88.656c-2.605,0-3.742-2.291-3.742-4.818c0-2.856,1.188-5.846,4.307-5.846c2.498,0,3.688,2.183,3.688,4.646
			C177.689,85.389,176.499,88.656,173.438,88.656 M217.656,68.246c-5.559,0-8.79,2.353-10.268,3.778l0.229-3.036l-13.678,0.001
			c-0.226,9.577-0.565,19.15-1.873,28.669h14.017c0.28-4.355,0.228-8.832,1.074-13.188c0.46-2.292,1.53-5.331,4.315-5.331
			c2.721,0,2.721,3.554,2.721,5.619c0,4.3-0.45,8.603-0.737,12.9h13.847c0.055-8.603,0.848-18.692,0.848-20.989
			C228.15,71.975,225.482,68.246,217.656,68.246"/>
	</g>
</g>
</svg>
