<?xml version="1.0" encoding="utf-8"?>
<!-- Generator: Adobe Illustrator 13.0.2, SVG Export Plug-In . SVG Version: 6.00 Build 14948)  -->
<!DOCTYPE svg PUBLIC "-//W3C//DTD SVG 1.1//EN" "http://www.w3.org/Graphics/SVG/1.1/DTD/svg11.dtd">
<svg version="1.1" id="Layer_1" xmlns="http://www.w3.org/2000/svg" xmlns:xlink="http://www.w3.org/1999/xlink" x="0px" y="0px"
	 width="250px" height="60px" viewBox="80 65 135 46" >
<g>
	<path fill="#00793A" d="M87.435,94.711c-2.272,0.202-4.026,0.716-5.264,1.537c-1.24,0.828-1.858,1.879-1.858,3.164
		c0,1.011,0.291,1.813,0.88,2.396c0.595,0.59,1.392,0.879,2.396,0.879c1.226,0,2.255-0.398,3.087-1.195
		c0.504-0.51,0.759-1.315,0.759-2.426V94.711z M87.435,93.823v-2.714c0-1.673-0.313-2.835-0.943-3.47
		c-0.849-0.881-2-1.318-3.429-1.318c-1.945,0-2.91,0.818-2.91,2.447c0,0.482,0.097,1.034,0.289,1.658
		c0.091,0.26,0.142,0.49,0.155,0.699c0.015,0.263-0.13,0.388-0.435,0.388c-0.678,0-1.312-0.146-1.865-0.443
		c-0.558-0.289-0.851-0.611-0.851-0.96c0-0.908,0.492-1.892,1.48-2.938c1.314-1.42,3.064-2.116,5.258-2.116
		c1.986,0,3.542,0.433,4.643,1.324c1.094,0.885,1.643,2.135,1.643,3.745v8.614c0,1.36,0.168,2.333,0.496,2.915
		c0.336,0.574,0.887,0.863,1.656,0.863c0.229,0,0.406-0.016,0.529-0.04c0.261-0.06,0.438-0.097,0.534-0.097
		c0.249-0.012,0.365,0.087,0.354,0.305c-0.017,0.27-0.366,0.539-1.039,0.813c-0.68,0.267-1.34,0.404-1.983,0.404
		c-1.207,0-2.3-0.75-3.271-2.246c-2.124,1.619-4.086,2.43-5.904,2.43c-1.374,0-2.466-0.375-3.28-1.119
		c-0.811-0.737-1.215-1.729-1.215-2.981c0-1.688,0.764-2.998,2.301-3.921C81.185,95.131,83.776,94.384,87.435,93.823"/>
	<path fill="#00793A" d="M118.403,91.513h7.458c1.157,0,1.739-0.233,1.739-0.698c0-1.146-0.494-2.211-1.482-3.19
		c-0.985-0.981-2.067-1.478-3.228-1.478c-1.2,0-2.203,0.48-2.997,1.438C119.087,88.551,118.596,89.86,118.403,91.513 M118.271,92.73
		l-0.018,0.479c0,2.509,0.689,4.619,2.087,6.329c1.376,1.705,3.094,2.552,5.115,2.552c1.6,0,3.341-0.7,5.221-2.146
		c0.113-0.095,0.228-0.138,0.335-0.156c0.197-0.017,0.303,0.103,0.303,0.353c0,0.437-0.518,1.05-1.54,1.863
		c-1.91,1.48-3.924,2.229-6.044,2.229c-2.397,0-4.398-0.909-6.019-2.73c-1.622-1.805-2.428-4.055-2.428-6.75
		c0-2.535,0.832-4.77,2.507-6.68c1.67-1.918,3.625-2.869,5.868-2.869c2.453,0,4.405,1.017,5.875,3.061
		c0.35,0.494,0.705,1.169,1.08,2.023c0.367,0.854,0.552,1.438,0.552,1.778c0,0.483-0.483,0.728-1.436,0.728l-1.633-0.023
		l-1.495-0.037h-8.33V92.73z"/>
	<path fill="#00793A" d="M104.298,89.297l-3.707,7.813c-0.757,1.615-1.125,3.001-1.125,4.137c0,1.009,0.699,1.639,2.109,1.867
		c0.392,0.06,0.593,0.196,0.593,0.432c0,0.304-0.185,0.448-0.572,0.448c-0.19,0-0.458-0.017-0.812-0.066
		c-0.309-0.024-0.834-0.041-1.593-0.041c-1.514,0-2.509,0.021-3.012,0.067c-0.404,0.026-0.674,0.04-0.808,0.04
		c-0.35,0-0.519-0.125-0.511-0.365c0.021-0.19,0.329-0.395,0.932-0.628c0.6-0.235,1.168-0.91,1.69-2.021L104.655,86
		c0.173-0.361,0.416-0.55,0.726-0.55c0.366,0,0.635,0.207,0.813,0.624l6.377,14.491c0.584,1.325,1.391,2.175,2.395,2.549
		c0.31,0.12,0.47,0.262,0.47,0.452c0,0.303-0.212,0.442-0.661,0.442c-0.124,0-0.285-0.003-0.503-0.031
		c-0.714-0.092-2.054-0.136-3.994-0.136c-0.895,0-1.511,0.012-1.863,0.044c-0.488,0.041-0.816,0.067-0.986,0.067
		c-0.341,0.015-0.511-0.139-0.511-0.456c0-0.223,0.212-0.361,0.622-0.4c1.335-0.179,1.997-0.606,1.997-1.274
		c0-0.36-0.127-0.853-0.392-1.47L104.298,89.297z"/>
	<path fill="#00793A" d="M138.447,86.076v0.143v7.254v0.138h0.131c0.581,0.021,0.93,0.029,1.051,0.029
		c1.827,0,3.485-0.389,4.306-1.146c0.831-0.761,1.251-1.705,1.251-2.792c0-1.268-0.438-2.218-1.286-2.78
		c-0.83-0.563-2.489-0.846-4.293-0.846h-1.029H138.447z M139.978,94.719c-0.422,0-0.898,0.012-1.403,0.045l-0.127,0.002v0.133v7.55
		v0.108l0.094,0.028c0.665,0.229,1.469,0.351,2.38,0.351c1.593,0,3.121-0.387,3.904-1.145c0.785-0.743,1.188-1.74,1.188-2.927
		c0-1.333-0.523-2.372-1.534-3.087C143.469,95.071,141.75,94.719,139.978,94.719 M141.54,104.014h-8.542
		c-0.461,0-0.626-0.704,0.027-0.708c1.002-0.006,1.633-0.5,1.936-0.958c0.327-0.495,0.486-1.316,0.486-2.918v-9.912
		c0-2.08-0.119-2.44-0.227-2.623c-0.143-0.293-0.377-0.548-0.692-0.773c-0.273-0.209-0.778-0.458-1.531-0.483
		c-0.417,0-0.66-0.64,0.019-0.64h7.931c1.587,0,2.88,0.127,3.859,0.395c0.961,0.259,1.76,0.771,2.375,1.533
		c0.61,0.749,0.928,1.687,0.928,2.775c0,2.131-1.23,3.475-3.747,4.114l0.01,0.28c3.251,0.721,4.835,2.3,4.835,4.813
		c0,1.7-0.671,2.984-1.995,3.821C145.866,103.587,143.958,104.014,141.54,104.014"/>
	<path fill="#00793A" d="M69.232,100.878c-1.282,1.204-3.07,1.809-5.381,1.809c-1.791,0-3.117-0.137-3.976-0.398
		c-0.856-0.28-1.39-0.725-1.596-1.354l-0.128-0.862l0.039-1.007v-10.15c0-0.364,0.079-0.591,0.214-0.688
		c0.139-0.1,0.475-0.145,1.001-0.145h4.346c2.124,0,3.886,0.732,5.296,2.196c1.405,1.464,2.1,3.307,2.1,5.527
		C71.146,97.983,70.505,99.667,69.232,100.878 M72.797,89.833c-1.049-1.394-2.369-2.27-3.982-2.639
		c-0.072-0.013-0.141-0.029-0.204-0.04c0,0-1.479-0.496-5.94-0.614h-2.979c-0.661,0-1.08-0.063-1.245-0.195
		c-0.167-0.138-0.256-0.451-0.256-0.976v-8.806c0-0.918,0.163-1.519,0.482-1.8c0-0.008,0.003-0.008,0.015-0.008v-0.041h4.772
		c2.668,0,4.56,0.291,5.615,0.917c1,0.575,1.757,1.87,2.275,3.864c0.026,0.357,0.65,0.523,0.637-0.096
		c-0.05-1.126-0.188-4.032-0.249-5.395c-0.028-0.445-0.285-0.727-0.71-0.727c-2.906-0.011-14.284-0.021-14.284-0.021
		c-0.591,0.033-1.429,0.038-2.509,0.038c-0.776,0-1.383-0.005-1.827-0.038c-0.631-0.03-1.004-0.048-1.124-0.048
		c-0.585,0-0.875,0.171-0.875,0.494c0,0.317,0.296,0.475,0.898,0.475c1.205,0,2.095,0.459,2.663,1.373
		c0.571,0.922,0.861,2.349,0.861,4.293v17.009c0,1.559-0.116,2.862-0.334,3.929c-0.23,1.193-0.977,1.887-2.223,2.056
		c-0.433,0.063-0.653,0.216-0.653,0.456c0,0.316,0.202,0.472,0.613,0.472c0.296,0,0.792-0.042,1.491-0.132
		c0.487-0.061,1.074-0.087,1.759-0.087c0.695,0,1.623,0.041,2.796,0.116l1.782,0.103l2.047,0.096l1.696,0.057
		c3.063,0,5.586-0.869,7.572-2.621c1.987-1.756,2.986-3.976,2.986-6.666C74.361,92.822,73.835,91.226,72.797,89.833"/>
	<path fill="#00793A" d="M236.287,77.529c-2.952-2.833-6.719-4.261-11.321-4.261c-2.224,0-4.391,0.417-6.502,1.244
		c-2.118,0.826-3.868,1.947-5.243,3.365c-1.193,1.214-2.145,2.709-2.898,4.47c1.009-0.265,2-0.399,2.951-0.473
		c0.496-1.409,1.205-2.661,2.143-3.725c2.006-2.298,4.723-3.447,8.123-3.447c3.973,0,7.293,1.462,9.949,4.39
		c2.666,2.934,3.996,6.576,3.996,10.979c0,3.813-1.114,6.97-3.332,9.454c-2.221,2.481-5.037,3.729-8.445,3.729
		c-3.738,0-6.885-1.525-9.451-4.576c-1.012-1.199-1.809-2.503-2.424-3.912c-0.504,0.184-0.993,0.368-1.404,0.551
		c-0.25,0.101-0.572,0.241-0.933,0.39c-0.312,0.134-0.673,0.288-1.054,0.447c0.715,1.509,1.683,2.872,2.9,4.071
		c2.93,2.868,6.768,4.311,11.516,4.311c4.621,0,8.424-1.506,11.389-4.519c2.969-3.008,4.455-6.864,4.455-11.563
		C240.7,84.009,239.225,80.368,236.287,77.529"/>
	<path fill="#00793A" d="M178.818,100.878c-1.281,1.204-3.07,1.809-5.379,1.809c-1.793,0-3.121-0.137-3.975-0.398
		c-0.863-0.28-1.395-0.725-1.597-1.354l-0.144-0.862l0.051-1.007v-10.15c0-0.364,0.076-0.591,0.211-0.688
		c0.142-0.1,0.474-0.145,1-0.145h4.336c2.135,0,3.9,0.732,5.301,2.196c1.411,1.464,2.105,3.307,2.105,5.527
		C180.73,97.983,180.086,99.667,178.818,100.878 M182.389,89.833c-1.048-1.394-2.38-2.27-3.986-2.639
		c-0.074-0.013-0.143-0.029-0.211-0.04c0,0-1.479-0.496-5.938-0.614h-2.978c-0.655,0-1.08-0.063-1.25-0.195
		c-0.155-0.138-0.248-0.451-0.248-0.976v-8.806c0-0.918,0.156-1.519,0.481-1.8c0-0.008,0.005-0.008,0.005-0.008v-0.041h4.771
		c2.668,0,4.566,0.291,5.627,0.917c0.992,0.575,1.752,1.87,2.266,3.864c0.029,0.357,0.655,0.523,0.643-0.096
		c-0.049-1.126-0.189-4.032-0.245-5.395c-0.033-0.445-0.29-0.727-0.718-0.727c-2.903-0.011-14.283-0.021-14.283-0.021
		c-0.581,0.033-1.422,0.038-2.5,0.038c-0.785,0-1.393-0.005-1.831-0.038c-0.628-0.03-1.009-0.048-1.115-0.048
		c-0.594,0-0.89,0.171-0.89,0.494c0,0.317,0.299,0.475,0.902,0.475c1.207,0,2.088,0.459,2.666,1.373
		c0.571,0.922,0.858,2.349,0.858,4.293v17.009c0,1.559-0.112,2.862-0.324,3.929c-0.237,1.193-0.989,1.887-2.229,2.056
		c-0.438,0.063-0.66,0.216-0.66,0.456c0,0.316,0.195,0.472,0.613,0.472c0.297,0,0.795-0.042,1.502-0.132
		c0.479-0.061,1.063-0.087,1.756-0.087c0.688,0,1.619,0.041,2.797,0.116l1.779,0.103l2.041,0.096l1.692,0.057
		c3.071,0,5.587-0.869,7.577-2.621c1.984-1.756,2.986-3.976,2.986-6.666C183.945,92.822,183.426,91.226,182.389,89.833"/>
	<path fill="#00793A" d="M222.072,82.277c-0.385,0.317-0.934,0.645-1.694,0.828c-2.399,0.538-5.844-0.252-9.349,0.723
		c-0.971,0.282-1.832,0.738-2.579,1.338c-1.966,1.559-2.798,3.896-3.11,6.175c-0.318,2.406-0.091,2.304,1.258,0.326
		c2.248-3.267,5.324-4.183,8.608-4.629c-4.97,1.763-7.604,4.124-9.185,7.843c-0.834,1.949-0.871,2.537,1.975,0.883
		c0.708-0.414,3.27-1.469,4.385-1.946c3.564-1.53,10.653-2.677,10.391-11.293C222.702,81.703,222.375,82.045,222.072,82.277"/>
	<path fill="#A5CD39" d="M222.072,81.947c-0.385,0.306-0.934,0.636-1.694,0.799c-2.399,0.526-5.844-0.242-9.349,0.708
		c-0.971,0.276-1.832,0.712-2.579,1.297c-1.966,1.519-2.798,3.806-3.11,6.02c-0.318,2.331-0.091,2.235,1.258,0.318
		c2.248-3.18,5.324-4.083,8.608-4.507c-4.97,1.721-7.197,3.732-8.776,7.357c-0.832,1.897-1.277,2.736,1.566,1.132
		c0.708-0.399,3.27-1.423,4.385-1.88c3.564-1.497,10.653-2.619,10.391-11.005C222.702,81.385,222.375,81.716,222.072,81.947"/>
	<path fill="#00793A" d="M206.1,103.327c-0.804-0.072-1.738-0.308-2.183-1.555c-0.038-0.116-0.099-0.337-0.142-0.852h-0.002
		c-0.026-0.319-0.026-0.711-0.026-1.206v-4.19v-0.65v-5.236c0-0.507,0.041-0.854,0.041-0.854c0.052-1.063,0.409-2.114,1.265-2.343
		c0.281,0,0.37-0.537,0.037-0.537h-6.688c-0.506,0-0.396,0.495-0.104,0.521c0.817,0.072,1.861,0.322,2.312,1.563
		c0.021,0.053,0.152,0.587,0.16,0.789l-0.008-0.008l-9.135,10.108V98.25v-0.938v-4.918v-1.66v-1.537c0,0,0.148-1.07,0.195-1.21
		c0.462-1.239,1.404-1.489,2.218-1.563c0.297-0.026,0.401-0.521-0.106-0.521h-7.459c-0.336,0-0.244,0.537,0.035,0.537
		c0.854,0.229,1.672,0.896,1.901,1.709c0.062,0.199,0.235,0.647,0.235,2.585v8.98c0,0.806-0.043,1.451-0.143,1.947
		c-0.011,0.041-0.025,0.078-0.033,0.109c-0.449,1.247-1.396,1.481-2.197,1.555c-0.297,0.03-0.398,0.532,0.097,0.532h7.417
		c0.332,0,0.242-0.546-0.037-0.546c-0.852-0.223-1.66-0.896-1.891-1.705c-0.022-0.077-0.232-0.688-0.232-0.688v-0.386l9.087-10.056
		c0,0,0.035,6.446,0.056,6.438v1.729v1.066c0,0.454-0.021,0.855-0.056,1.206c0,0-0.134,0.592-0.167,0.688
		c-0.229,0.811-1.035,1.482-1.878,1.705c-0.274,0-0.362,0.546-0.035,0.546h7.36C206.497,103.859,206.396,103.357,206.1,103.327"/>
</g>
</svg>
