<?xml version="1.0" encoding="utf-8"?>
<!-- Generator: Adobe Illustrator 13.0.2, SVG Export Plug-In . SVG Version: 6.00 Build 14948)  -->
<!DOCTYPE svg PUBLIC "-//W3C//DTD SVG 1.1//EN" "http://www.w3.org/Graphics/SVG/1.1/DTD/svg11.dtd">
<svg version="1.1" id="Layer_1" xmlns="http://www.w3.org/2000/svg" xmlns:xlink="http://www.w3.org/1999/xlink" x="0px" y="0px"
	 width="160px" height="55px" viewBox="65 60 165 60" >
<g id="Beep_Beep">
	<g display="inline">
		<g>
			<path fill="#FFFFFF" d="M225.107,81.426c-0.916-1.315-2.683-2.887-5.879-2.887c-1.205,0-2.347,0.192-3.437,0.582l0.062-0.271
				H213.1h-4.018c-1.361-3.382-4.465-5.406-8.479-5.406c-4.297,0-8.158,2.088-10.873,5.746c-1.631-2.012-4.133-3.157-7.164-3.157
				c-2.49,0-4.809,0.679-6.84,1.945c0.291-1.337,0.672-4.001-0.846-6.182c-1.563-2.245-4.563-3.29-9.438-3.29h-8.879h-1.646
				l-0.425,1.749L148.7,94.107l-0.625,0.01c0.196-0.628,0.382-1.272,0.546-1.95c0.503-2.064,1.408-7.251-1.021-10.741
				c-0.916-1.315-2.68-2.887-5.876-2.887c-1.205,0-2.35,0.192-3.439,0.584l0.064-0.273h-2.754h-4.018
				c-1.36-3.382-4.466-5.406-8.481-5.406c-4.294,0-8.156,2.088-10.871,5.745c-1.63-2.014-4.131-3.156-7.165-3.156
				c-2.488,0-4.806,0.679-6.839,1.943c0.289-1.335,0.672-4.001-0.844-6.18c-1.564-2.245-4.562-3.29-9.436-3.29h-8.88h-1.646
				l-0.425,1.749l-7.115,29.276l-0.723,2.976h2.795h8.339c4.024,0,8.42-0.288,11.648-3.103c1.373,1.951,3.877,3.634,8.433,3.634
				c2.61,0,5.056-0.5,7.482-1.527l1.047-0.442l0.265-1.202l0.71-3.216c1.358,2.036,3.877,3.799,8.531,3.799
				c1.695,0,3.322-0.211,4.919-0.64l-2.563,10.543l-0.722,2.976h2.793h5.935h1.644h67.134h2.793h5.938h1.643l2.232-8.896
				c1.102,0.528,2.311,0.805,3.424,0.805c6.051,0,10.512-4.644,12.561-13.068C226.633,90.101,227.54,84.916,225.107,81.426z
				 M85.316,90.292c-0.406,1.672-1.115,2-2.202,2h-0.566l0.584-2.411h0.887c0.751,0,1.152,0.109,1.342,0.185
				C85.351,90.123,85.338,90.2,85.316,90.292z M85.581,79.808l0.31-1.271h0.76c0.155,0,0.286,0.006,0.394,0.014
				C86.872,79.163,86.578,79.663,85.581,79.808z M103.61,85.182c0.191-0.05,0.353-0.05,0.468-0.05c0.103,0,0.184,0.008,0.246,0.017
				c0.001,0.011,0.001,0.021,0.003,0.033H103.61z M121.646,82.592c0.19-0.048,0.352-0.048,0.466-0.048
				c0.105,0,0.187,0.008,0.247,0.018c0,0.01,0,0.021,0.002,0.03H121.646z M199.618,82.544c0.104,0,0.188,0.008,0.248,0.018
				c0.002,0.01,0.002,0.021,0.004,0.03h-0.72C199.342,82.544,199.504,82.544,199.618,82.544z M181.584,85.134
				c0.104,0,0.186,0.008,0.246,0.017c0,0.011,0,0.021,0.002,0.033h-0.715C181.309,85.134,181.471,85.134,181.584,85.134z
				 M163.396,78.538h0.76c0.154,0,0.285,0.006,0.396,0.014c-0.18,0.631-0.467,1.118-1.467,1.259L163.396,78.538z M160.639,89.881
				h0.887c0.752,0,1.152,0.109,1.343,0.185c-0.011,0.06-0.021,0.137-0.046,0.229c-0.403,1.672-1.114,2-2.2,2h-0.565L160.639,89.881z
				 M138.287,88.658c0.125,0,0.212,0.009,0.269,0.021c0.058,0.246,0.11,0.952-0.314,2.703c-0.196,0.806-0.625,2.021-1.235,2.907
				l-1.903,0.029c0.055-0.411,0.155-0.949,0.33-1.67C135.875,90.831,136.729,88.658,138.287,88.658z M215.745,91.388
				c-0.341,1.396-1.375,4.037-2.865,4.037c-0.142,0-0.237-0.012-0.303-0.022c-0.056-0.284-0.063-0.998,0.362-2.751
				c0.442-1.82,1.297-3.993,2.854-3.993c0.123,0,0.211,0.009,0.269,0.021C216.118,88.929,216.17,89.635,215.745,91.388z"/>
			<g>
				<path fill="#D9D9D9" d="M129.971,80.802h0.393c-0.31-0.647-0.721-1.221-1.22-1.709c0.037,0.08,0.067,0.165,0.102,0.248
					C129.544,79.784,129.785,80.272,129.971,80.802z M182.5,84.067c0.438,0,0.783,0.082,1.09,0.201
					c-0.018-0.11-0.037-0.219-0.063-0.318c-0.383-0.345-0.936-0.54-1.695-0.54c-2.303,0-3.543,1.79-4.229,3.726h0.928
					C179.258,85.471,180.461,84.067,182.5,84.067z M176.355,92.11c-0.272,1.099-0.228,1.957,0.058,2.62
					c0.172,0.163,0.364,0.305,0.584,0.425c-0.201-0.628-0.216-1.412,0.024-2.388h10.842c-0.053-0.212-0.094-0.435-0.127-0.657
					H176.355z M174.456,79.242c0.51-2.07,0.551-4.033-1.106-5.331c0.002,0.007,0.004,0.013,0.006,0.021
					c0.957,1.256,0.863,2.916,0.435,4.651c-0.781,3.162-2.908,5.273-5.668,6.187c0.338,0.152,0.647,0.341,0.938,0.548
					C171.684,84.357,173.7,82.295,174.456,79.242z M135.688,82.531l-0.062,0.263c0.101-0.089,0.201-0.179,0.303-0.263H135.688z
					 M117.517,92.562c-0.189-0.622-0.201-1.39,0.035-2.345h9.878l0.16-0.653h-10.705c-0.264,1.063-0.226,1.902,0.034,2.559
					C117.093,92.291,117.292,92.438,117.517,92.562z M133.963,97.208c-0.319-1.201,0.02-2.824,0.315-4.018
					c0.494-2,1.757-5.655,4.925-5.655c0.432,0,0.79,0.068,1.088,0.188c-0.021-0.101-0.047-0.193-0.076-0.287
					c-0.375-0.348-0.913-0.561-1.68-0.561c-3.168,0-4.431,3.655-4.925,5.655c-0.322,1.303-0.709,3.122-0.223,4.342
					C133.551,97.01,133.738,97.125,133.963,97.208z M195.021,92.562c-0.188-0.622-0.201-1.39,0.035-2.345h9.879l0.16-0.653h-10.705
					c-0.265,1.063-0.228,1.902,0.032,2.559C194.6,92.291,194.799,92.438,195.021,92.562z M211.471,97.208
					c-0.32-1.201,0.021-2.824,0.314-4.018c0.494-2,1.758-5.655,4.924-5.655c0.432,0,0.791,0.068,1.09,0.188
					c-0.021-0.101-0.047-0.193-0.076-0.287c-0.375-0.348-0.914-0.561-1.682-0.561c-3.166,0-4.432,3.655-4.924,5.655
					c-0.322,1.303-0.709,3.123-0.223,4.342C211.059,97.01,211.245,97.126,211.471,97.208z M200.536,81.519
					c0.438,0,0.789,0.083,1.098,0.203c-0.016-0.106-0.032-0.213-0.057-0.312c-0.384-0.353-0.938-0.55-1.709-0.55
					c-2.285,0-3.524,1.764-4.214,3.686h0.931C197.311,82.899,198.514,81.519,200.536,81.519z M213.193,82.531l-0.062,0.264
					c0.103-0.09,0.201-0.18,0.306-0.264H213.193z M188.689,81.862c0.271,0.396,0.494,0.834,0.674,1.302
					c0.058-0.123,0.111-0.245,0.171-0.365c-0.272-0.451-0.601-0.86-0.978-1.224C188.602,81.67,188.648,81.764,188.689,81.862z
					 M159.911,88.74h2.53c0.91,0,1.639,0.142,2.201,0.402c-0.015-0.102-0.035-0.195-0.062-0.288
					c-0.583-0.514-1.528-0.771-2.81-0.771h-2.529l-1.521,6.163h0.827L159.911,88.74z M162.668,77.576h2.406
					c0.537,0,0.994,0.059,1.369,0.175c0.006-0.115,0.002-0.223-0.008-0.326c-0.443-0.34-1.119-0.506-2.029-0.506H162l-1.207,4.884
					h0.83L162.668,77.576z M207.479,80.802h0.395c-0.313-0.647-0.723-1.221-1.221-1.711c0.035,0.082,0.066,0.166,0.102,0.248
					C207.051,79.782,207.292,80.272,207.479,80.802z M123.028,81.519c0.44,0,0.79,0.083,1.098,0.203
					c-0.016-0.106-0.033-0.213-0.056-0.312c-0.382-0.354-0.939-0.55-1.709-0.55c-2.286,0-3.525,1.764-4.213,3.686h0.93
					C119.805,82.899,121.006,81.519,123.028,81.519z M126.827,92.699c-0.179,0.1-0.362,0.199-0.535,0.296l-0.929,4.138
					c-2.191,0.914-4.387,1.351-6.712,1.351c-2.504,0-4.432-0.564-5.761-1.648c1.313,1.509,3.463,2.307,6.428,2.307
					c2.156,0,4.199-0.394,6.23-1.175L126.827,92.699z M111.183,81.862c0.271,0.396,0.494,0.834,0.674,1.303
					c0.056-0.124,0.111-0.246,0.169-0.366c-0.273-0.451-0.599-0.86-0.977-1.224C111.095,81.67,111.142,81.764,111.183,81.862z
					 M184.836,99.681c-2.191,0.912-4.389,1.349-6.713,1.349c-2.523,0-4.455-0.577-5.785-1.677c1.309,1.524,3.469,2.333,6.453,2.333
					c2.324,0,4.521-0.437,6.713-1.35l1.188-5.308c-0.32,0.173-0.629,0.345-0.93,0.512L184.836,99.681z M131.486,100.558
					c-0.109,0.854-0.287,1.737-0.487,2.548l-1.987,8.049h-5.104l-0.162,0.657h5.935l1.987-8.049c0.188-0.76,0.349-1.578,0.46-2.383
					c-0.134-0.155-0.255-0.319-0.36-0.496C131.663,100.783,131.576,100.671,131.486,100.558z M146.052,83.337
					c0.028,0.063,0.045,0.128,0.072,0.19c1.503,2.129,1.396,5.615,0.677,8.528c-1.204,4.869-4.074,11.137-10.49,11.137
					c-1.142,0-2.544-0.426-3.567-1.217c0.988,1.212,2.811,1.874,4.234,1.874c6.417,0,9.286-6.268,10.491-11.14
					C148.291,89.378,148.341,85.271,146.052,83.337z M223.561,83.338c0.027,0.063,0.045,0.128,0.07,0.19
					c1.504,2.13,1.395,5.614,0.676,8.527c-1.203,4.869-4.074,11.137-10.49,11.137c-1.143,0-2.545-0.426-3.564-1.218
					c0.984,1.213,2.813,1.875,4.232,1.875c6.416,0,9.287-6.268,10.488-11.14C225.797,89.379,225.848,85.273,223.561,83.338z
					 M208.993,100.558c-0.109,0.854-0.285,1.737-0.486,2.548l-1.985,8.049h-5.106l-0.16,0.657h5.935l1.988-8.049
					c0.188-0.76,0.348-1.578,0.461-2.384c-0.136-0.155-0.257-0.319-0.363-0.495C209.17,100.783,209.083,100.671,208.993,100.558z
					 M204.333,92.699c-0.179,0.1-0.36,0.199-0.535,0.296l-0.928,4.138c-2.188,0.914-4.386,1.351-6.711,1.351
					c-2.507,0-4.433-0.564-5.763-1.648c1.313,1.509,3.463,2.307,6.431,2.307c2.153,0,4.194-0.394,6.228-1.175L204.333,92.699z
					 M158.042,100.507h-7.509l-0.161,0.658h8.337c5.063,0,9.241-0.552,11.749-4.173c-0.17-0.309-0.319-0.637-0.44-0.987
					C167.536,99.927,163.256,100.507,158.042,100.507z M85.161,77.576h2.406c0.539,0,0.994,0.059,1.372,0.176
					c0.004-0.113,0.001-0.223-0.008-0.327c-0.444-0.339-1.12-0.506-2.031-0.506h-2.406l-1.206,4.884h0.83L85.161,77.576z
					 M104.993,84.067c0.437,0,0.784,0.082,1.09,0.201c-0.016-0.11-0.037-0.219-0.063-0.318c-0.382-0.345-0.933-0.54-1.695-0.54
					c-2.303,0-3.543,1.79-4.229,3.726h0.928C101.75,85.471,102.954,84.067,104.993,84.067z M82.404,88.74h2.532
					c0.911,0,1.637,0.142,2.201,0.402c-0.014-0.102-0.035-0.195-0.06-0.288c-0.584-0.514-1.529-0.771-2.809-0.771h-2.531
					l-1.523,6.163h0.83L82.404,88.74z M98.847,92.11c-0.27,1.099-0.224,1.957,0.058,2.621c0.173,0.162,0.367,0.305,0.585,0.425
					c-0.202-0.63-0.216-1.413,0.024-2.389h10.841c-0.051-0.212-0.093-0.435-0.128-0.657H98.847z M107.328,99.681
					c-2.19,0.912-4.386,1.349-6.712,1.349c-2.522,0-4.455-0.577-5.785-1.677c1.31,1.524,3.469,2.333,6.453,2.333
					c2.326,0,4.521-0.437,6.712-1.35l1.191-5.308c-0.324,0.173-0.63,0.345-0.93,0.512L107.328,99.681z M80.535,100.507h-7.51
					l-0.162,0.658h8.339c5.06,0,9.241-0.552,11.75-4.172c-0.171-0.31-0.321-0.638-0.442-0.989
					C90.03,99.927,85.748,100.507,80.535,100.507z M96.948,79.242c0.511-2.07,0.552-4.033-1.107-5.331
					c0.002,0.005,0.004,0.012,0.005,0.02c0.958,1.258,0.863,2.918,0.434,4.653c-0.781,3.162-2.909,5.272-5.667,6.187
					c0.336,0.152,0.648,0.34,0.941,0.548C94.175,84.357,96.192,82.295,96.948,79.242z"/>
			</g>
			<path d="M141.382,80.492c-2.606,0-4.799,1.105-6.832,3.36l0.702-3.053h-5.571c-0.624-3.275-3.052-5.404-6.927-5.404
				c-4.695,0-8.832,2.896-11.081,8.167c-0.573-3.374-3.013-5.578-6.955-5.578c-5.014,0-9.393,3.301-11.513,9.271
				c-0.877-1.845-2.806-2.987-5.124-3.074c3.679-0.456,6.651-2.791,7.608-6.726c0.889-3.66,0.374-6.999-8.091-6.999H78.72
				l-7.114,29.276h8.339c5.405,0,9.815-0.621,12.248-5.021c0.571,3.606,3.223,5.552,7.833,5.552c2.327,0,4.522-0.441,6.713-1.37
				l1.191-5.396c-2.033,1.104-3.509,2.211-5.754,2.211c-2.847,0-4.71-1.236-3.917-4.51h11.87c0.243,4.2,2.943,6.474,7.933,6.474
				c2.327,0,4.522-0.44,6.712-1.368l1.191-5.396c-2.032,1.104-3.507,2.21-5.753,2.21c-2.846,0-4.711-1.238-3.916-4.51h11.525
				l-5.331,21.939h5.934l1.987-8.179c0.216-0.885,0.412-1.854,0.518-2.786c0.631,1.857,3.031,2.874,4.794,2.874
				c6.417,0,9.287-6.366,10.49-11.314C147.328,86.548,147.035,80.492,141.382,80.492z M87.046,90.496
				c-0.578,2.378-1.908,3.75-4.272,3.75h-3.361l1.735-7.136h2.532C86.333,87.11,87.602,88.207,87.046,90.496z M84.593,81.802h-2.157
				l1.468-6.034h2.406c2.074,0,2.996,0.819,2.518,2.789C88.26,80.889,86.751,81.802,84.593,81.802z M105.823,87.135h-6.616
				c0.6-2.3,1.842-4.772,4.529-4.772C106.181,82.361,106.5,84.352,105.823,87.135z M123.859,84.548h-6.617
				c0.6-2.3,1.842-4.773,4.529-4.773C124.216,79.772,124.535,81.76,123.859,84.548z M139.968,91.589
				c-0.43,1.77-1.889,5.791-4.937,5.791c-3.248,0-2.538-3.581-2.011-5.747c0.494-2.031,1.757-5.747,4.925-5.747
				C141.194,85.885,140.43,89.688,139.968,91.589z M218.889,80.492c-2.605,0-4.799,1.105-6.832,3.36l0.701-3.053h-5.568
				c-0.625-3.275-3.055-5.404-6.93-5.404c-4.693,0-8.83,2.896-11.08,8.167c-0.572-3.374-3.012-5.578-6.955-5.578
				c-5.012,0-9.392,3.302-11.512,9.271c-0.877-1.844-2.805-2.987-5.124-3.074c3.679-0.456,6.652-2.791,7.608-6.726
				c0.89-3.66,0.373-6.999-8.092-6.999h-8.879l-7.113,29.276h8.338c5.406,0,9.814-0.621,12.248-5.021
				c0.57,3.606,3.224,5.552,7.834,5.552c2.324,0,4.521-0.441,6.713-1.37l1.189-5.396c-2.033,1.104-3.508,2.211-5.754,2.211
				c-2.85,0-4.711-1.236-3.916-4.51h11.869c0.24,4.2,2.941,6.474,7.934,6.474c2.326,0,4.521-0.44,6.713-1.368l1.188-5.396
				c-2.031,1.104-3.506,2.21-5.752,2.21c-2.848,0-4.711-1.238-3.918-4.51h11.527l-5.332,21.939h5.934l1.988-8.179
				c0.217-0.885,0.412-1.854,0.516-2.786c0.633,1.857,3.031,2.874,4.795,2.874c6.416,0,9.287-6.366,10.488-11.314
				C224.834,86.548,224.542,80.492,218.889,80.492z M164.553,90.496c-0.578,2.378-1.908,3.75-4.273,3.75h-3.358l1.733-7.136h2.529
				C163.84,87.11,165.107,88.207,164.553,90.496z M162.102,81.802h-2.158l1.469-6.034h2.404c2.074,0,2.994,0.819,2.52,2.789
				C165.768,80.889,164.258,81.802,162.102,81.802z M183.331,87.135h-6.617c0.601-2.3,1.845-4.772,4.529-4.772
				C183.688,82.361,184.006,84.352,183.331,87.135z M201.366,84.548h-6.617c0.601-2.3,1.844-4.773,4.528-4.773
				C201.723,79.772,202.043,81.76,201.366,84.548z M217.475,91.589c-0.43,1.77-1.889,5.791-4.936,5.791
				c-3.248,0-2.539-3.581-2.012-5.747c0.494-2.031,1.758-5.747,4.924-5.747C218.702,85.885,217.938,89.688,217.475,91.589z"/>
			<g>
				<path d="M134.409,111.744l-0.538-0.974c-0.039,0-0.086,0-0.133,0c-1.606,0-2.166-1.156-1.7-2.896
					c0.466-1.74,1.646-2.896,3.26-2.896c1.614,0,2.174,1.153,1.708,2.896c-0.331,1.235-1.034,2.191-2.006,2.635l0.86,1.234
					L134.409,111.744L134.409,111.744z M135.706,107.9c0.188-0.704,0.319-1.922-0.684-1.922c-0.987,0-1.51,1.218-1.698,1.922
					c-0.175,0.65-0.318,1.859,0.685,1.859C135.027,109.762,135.531,108.552,135.706,107.9z"/>
				<path d="M139.896,105.118l-0.876,3.271c-0.229,0.851-0.134,1.347,0.572,1.347c0.759,0,1.003-0.53,1.223-1.347l0.876-3.271h1.221
					l-0.945,3.53c-0.396,1.479-1.32,2.122-2.661,2.122c-1.435,0-1.925-0.825-1.578-2.122l0.945-3.53H139.896z"/>
				<path d="M145.735,110.666l-0.049-1.104h-1.952l-0.648,1.104h-1.23l3.373-5.563h1.371l0.444,5.563H145.735z M145.557,106.857
					c-0.011-0.229,0.005-0.399,0.043-0.602h-0.015c-0.07,0.2-0.157,0.384-0.287,0.602l-0.935,1.617h1.262L145.557,106.857z"/>
				<path d="M147.582,110.666l1.492-5.563h1.221l-1.201,4.485h1.834l-0.289,1.078H147.582z"/>
				<path d="M151.389,110.666l1.491-5.563h1.224l-1.492,5.563H151.389z"/>
				<path d="M155.771,106.18h-1.315l0.289-1.079h3.894l-0.287,1.079h-1.354l-1.203,4.484h-1.224L155.771,106.18z"/>
				<path d="M159.521,108.526l-0.808-3.426h1.363l0.343,1.791c0.051,0.252,0.051,0.461,0.02,0.627
					c0.063-0.166,0.172-0.375,0.356-0.627l1.334-1.791h1.229l-2.608,3.393l-0.583,2.173h-1.225L159.521,108.526z"/>
				<path d="M166.18,105.101h1.855c0.471,0,0.752,0.032,0.966,0.198c0.278,0.219,0.544,0.66,0.312,1.53
					c-0.342,1.271-1.291,1.836-2.201,1.836h-0.666l-0.533,1.999h-1.225L166.18,105.101z M167.145,107.665
					c0.439,0,0.734-0.274,0.879-0.814c0.141-0.521-0.018-0.759-0.457-0.759h-0.43l-0.424,1.573H167.145z"/>
				<path d="M169.137,110.666l1.492-5.563h3.077l-0.283,1.061h-1.858l-0.309,1.157h1.691l-0.285,1.07h-1.691l-0.318,1.183h1.904
					l-0.293,1.095L169.137,110.666L169.137,110.666z"/>
				<path d="M174.717,105.101h1.951c0.299,0,0.697,0.032,0.91,0.198c0.279,0.219,0.531,0.557,0.342,1.271
					c-0.186,0.687-0.773,1.304-1.398,1.354c0.369,0.09,0.453,0.356,0.484,0.854l0.137,1.887h-1.348l-0.072-1.514
					c-0.018-0.399-0.053-0.678-0.477-0.678h-0.211l-0.588,2.189h-1.223L174.717,105.101z M175.708,107.484
					c0.399,0,0.729-0.235,0.853-0.688c0.144-0.528-0.056-0.704-0.463-0.704h-0.425l-0.373,1.395L175.708,107.484L175.708,107.484z"
					/>
				<path d="M180.197,106.188l-0.299,1.121h1.582l-0.285,1.067h-1.584l-0.612,2.287h-1.224l1.492-5.563h2.867l-0.291,1.088H180.197z
					"/>
				<path d="M184.221,105.118l-0.875,3.271c-0.229,0.851-0.135,1.347,0.57,1.347c0.762,0,1.004-0.53,1.225-1.347l0.875-3.271h1.223
					l-0.945,3.53c-0.396,1.479-1.316,2.122-2.66,2.122c-1.436,0-1.924-0.825-1.576-2.122l0.945-3.53H184.221z"/>
				<path d="M188.37,105.101h1.926l-0.045,3.393c-0.004,0.182-0.033,0.417-0.095,0.729c0.099-0.313,0.21-0.495,0.31-0.688
					l1.808-3.436h1.904l-1.492,5.563h-1.19l0.903-3.374c0.121-0.453,0.226-0.782,0.328-1.104h-0.047
					c-0.091,0.241-0.326,0.722-0.531,1.104l-1.838,3.374h-1.104l0.01-3.374c0-0.207,0.014-0.65,0.063-1.104h-0.039
					c-0.031,0.232-0.154,0.693-0.264,1.104l-0.904,3.374h-1.191L188.37,105.101z"/>
				<path d="M193.848,110.666l1.492-5.563h3.078l-0.285,1.061h-1.855l-0.311,1.157h1.693l-0.287,1.07h-1.691l-0.318,1.183h1.904
					l-0.293,1.095L193.848,110.666L193.848,110.666z"/>
			</g>
		</g>
	</g>
</g>
</svg>
