<?xml version="1.0" standalone="no"?>
<!DOCTYPE svg PUBLIC "-//W3C//DTD SVG 20010904//EN" "http://www.w3.org/TR/2001/REC-SVG-20010904/DTD/svg10.dtd">
<svg version="1.0" xmlns="http://www.w3.org/2000/svg" width="1594.000000pt" height="334.000000pt" viewBox="0 0 1594.000000 334.000000" preserveAspectRatio="xMidYMid meet">
 <g transform="translate(0.000000,334.000000) scale(0.100000,-0.100000)" fill="#000000" stroke="none">
  <path d="M0 1670 l0 -1670 7970 0 7970 0 0 1670 0 1670 -7970 0 -7970 0 0 -1670z m6104 1185 c185 -39 327 -116 466 -255 78 -77 104 -111 138 -180 83 -168 102 -299 102 -725 0 -465 -21 -613 -108 -780 -43 -81 -157 -206 -247 -270 -206 -146 -468 -202 -747 -160 -176 26 -318 88 -451 195 -180 144 -264 305 -297 563 -13 106 -13 758 0 867 30 247 121 417 295 557 135 108 305 179 480 202 97 12 275 6 369 -14z m8841 0 c140 -37 282 -126 369 -232 297 -359 180 -901 -235 -1097 -110 -52 -187 -70 -309 -70 -311 0 -579 194 -676 490 -26 81 -29 101 -29 224 1 121 4 143 28 214 78 222 246 390 462 460 113 36 276 41 390 11z m-13405 -6 c357 -44 615 -237 715 -534 42 -124 47 -181 52 -558 3 -234 1 -409 -6 -481 -41 -416 -256 -664 -661 -763 -54 -13 -156 -17 -618 -20 l-552 -4 0 1179 c0 648 3 1182 7 1186 10 10 977 5 1063 -5z m2461 -21 c344 -93 550 -336 566 -668 13 -280 -116 -498 -370 -627 l-68 -34 19 -32 c11 -18 70 -124 132 -237 62 -113 177 -323 256 -466 79 -144 144 -264 144 -268 0 -3 -135 -5 -301 -4 l-300 3 -55 105 c-30 58 -139 266 -241 463 l-186 357 -159 0 -158 0 0 -465 0 -465 -260 0 -260 0 0 1186 0 1185 573 -3 572 -4 96 -26z m4365 22 c214 -27 367 -96 499 -225 116 -114 183 -251 206 -421 19 -148 -3 -278 -73 -424 -34 -70 -56 -101 -132 -176 -104 -103 -191 -154 -341 -200 -89 -28 -94 -28 -412 -32 l-323 -3 0 -440 0 -439 -262 2 -263 3 -3 1160 c-1 638 0 1170 3 1183 l5 22 508 0 c282 0 543 -4 588 -10z m2404 -1175 l0 -1185 -260 0 -260 0 0 1185 0 1185 260 0 260 0 0 -1185z m1430 553 c239 -348 451 -656 470 -685 19 -28 36 -50 38 -48 2 1 4 308 5 681 l2 679 263 3 262 2 0 -1185 0 -1185 -232 0 -233 0 -241 353 c-132 193 -344 502 -470 686 l-229 334 -3 -686 -2 -687 -260 0 -260 0 0 1185 0 1185 228 0 228 0 434 -632z"/>
  <path d="M5760 2416 c-153 -44 -241 -144 -271 -306 -18 -99 -20 -710 -3 -835 31 -234 165 -355 393 -355 135 0 220 37 304 130 56 62 83 139 96 275 10 97 7 690 -3 740 -4 17 -11 51 -16 78 -23 114 -110 217 -218 258 -71 27 -216 35 -282 15z"/>
  <path d="M14700 2718 c-284 -36 -507 -302 -486 -579 12 -152 64 -268 167 -370 270 -268 720 -191 888 151 80 164 80 325 -1 490 -86 177 -249 290 -443 309 -38 3 -95 3 -125 -1z m6 -313 l79 -165 60 0 60 0 0 162 0 163 83 3 82 3 0 -426 0 -427 -203 4 -203 3 -60 30 c-168 86 -188 331 -34 425 22 14 40 29 40 34 0 5 -41 87 -90 182 l-90 174 98 0 99 0 79 -165z"/>
  <path d="M14743 2090 c-60 -6 -89 -28 -104 -80 -17 -55 9 -104 65 -125 42 -16 204 -18 199 -2 -2 4 -3 52 -3 106 l0 99 -52 4 c-29 1 -76 1 -105 -2z"/>
  <path d="M1000 1676 l0 -736 218 0 c119 0 236 5 260 10 72 17 135 52 188 105 99 99 118 199 117 640 -1 343 -10 426 -60 524 -34 66 -108 130 -190 162 -54 22 -75 24 -295 27 l-238 4 0 -736z"/>
  <path d="M3280 2125 l0 -286 273 3 c269 3 273 3 327 29 110 52 164 135 164 254 0 119 -54 202 -164 254 -54 26 -58 26 -327 29 l-273 3 0 -286z"/>
  <path d="M7790 2115 l0 -296 273 3 c259 3 274 4 322 26 108 50 165 138 165 258 0 133 -46 211 -158 266 l-66 33 -268 3 -268 3 0 -296z"/>
 </g>
</svg>
