<?xml version="1.0" standalone="no"?>
<!DOCTYPE svg PUBLIC "-//W3C//DTD SVG 20010904//EN" "http://www.w3.org/TR/2001/REC-SVG-20010904/DTD/svg10.dtd">
<svg version="1.0" xmlns="http://www.w3.org/2000/svg" width="2011.000000pt" height="284.000000pt" viewBox="0 0 2011.000000 284.000000" preserveAspectRatio="xMidYMid meet">
 <g transform="translate(0.000000,284.000000) scale(0.100000,-0.100000)" fill="#000000" stroke="none">
  <path fill="#0976bb" d="M1390 2385 l0 -445 610 0 610 0 0 445 0 445 -610 0 -610 0 0 -445z"/>
  <path fill="#0976bb" d="M2760 2075 l0 -635 610 0 610 0 0 635 0 635 -610 0 -610 0 0 -635z"/>
  <path fill="#0976bb" d="M10 1865 l0 -785 615 0 615 0 0 785 0 785 -615 0 -615 0 0 -785z"/>
  <path fill="#514f50" d="M4785 2138 c-3 -7 -4 -330 -3 -718 l3 -705 240 -3 c449 -6 604 30 757 176 97 92 154 204 184 362 18 95 18 305 0 390 -44 201 -150 352 -301 426 -137 66 -270 84 -643 84 -177 0 -234 -3 -237 -12z m644 -172 c89 -25 156 -63 210 -121 90 -96 131 -219 130 -400 0 -307 -107 -484 -334 -551 -48 -14 -99 -18 -250 -18 l-190 -1 -3 545 c-1 300 0 551 3 559 8 19 357 9 434 -13z"/>
  <path fill="#514f50" d="M11170 2065 l0 -85 95 0 95 0 0 85 0 85 -95 0 -95 0 0 -85z"/>
  <path fill="#0976bb" d="M14190 1430 l0 -710 105 0 105 0 0 643 1 642 243 -640 244 -640 102 0 102 0 52 135 c29 74 137 358 241 630 104 272 192 499 197 504 4 6 8 -279 8 -632 l0 -642 100 0 100 0 0 710 0 710 -169 0 -169 0 -10 -27 c-5 -16 -98 -260 -207 -543 -108 -283 -207 -553 -220 -600 -12 -47 -25 -78 -28 -70 -3 8 -16 51 -27 95 -17 61 -305 828 -417 1108 l-15 37 -169 0 -169 0 0 -710z"/>
  <path fill="#0976bb" d="M17200 1430 l0 -710 95 0 95 0 0 88 1 87 21 -30 c95 -132 216 -183 386 -164 241 27 364 221 349 554 -7 169 -39 256 -131 353 -77 82 -171 122 -287 122 -114 0 -209 -46 -293 -142 l-46 -53 0 303 0 302 -95 0 -95 0 0 -710z m593 141 c56 -27 107 -89 139 -169 19 -49 22 -76 23 -192 0 -117 -3 -144 -24 -204 -42 -123 -127 -186 -250 -186 -160 0 -267 134 -286 355 -21 246 107 433 290 423 36 -2 79 -13 108 -27z"/>
  <path fill="#0976bb" d="M18350 2065 l0 -75 95 0 95 0 0 75 0 75 -95 0 -95 0 0 -75z"/>
  <path fill="#0976bb" d="M18790 1430 l0 -710 95 0 95 0 0 710 0 710 -95 0 -95 0 0 -710z"/>
  <path fill="#0976bb" d="M1390 900 l0 -890 610 0 610 0 0 890 0 890 -610 0 -610 0 0 -890z"/>
  <path fill="#514f50" d="M7633 1716 c-64 -21 -125 -60 -171 -110 l-42 -46 0 76 0 75 -97 -3 -98 -3 0 -495 0 -495 98 -3 97 -3 0 305 c0 313 6 378 41 448 78 154 306 185 400 55 50 -68 52 -89 56 -459 l5 -348 94 0 94 0 0 348 c0 276 -3 360 -15 405 -32 122 -90 198 -184 240 -58 26 -215 34 -278 13z"/>
  <path fill="#514f50" d="M8587 1715 c-73 -18 -107 -36 -148 -77 -35 -36 -63 -90 -77 -156 l-10 -42 98 0 98 0 7 37 c17 93 68 133 176 141 83 6 146 -14 183 -59 29 -34 41 -76 51 -170 l6 -67 -103 -6 c-265 -17 -381 -41 -455 -95 -60 -44 -91 -90 -110 -165 -20 -83 -8 -166 35 -235 53 -87 179 -137 327 -129 103 5 176 38 249 111 l54 53 5 -56 c10 -94 6 -91 116 -88 58 2 95 7 94 13 -13 78 -23 288 -23 482 0 305 -11 365 -83 441 -54 56 -121 74 -287 78 -103 3 -161 -1 -203 -11z m380 -587 c-8 -105 -20 -145 -60 -205 -44 -66 -117 -103 -202 -103 -77 0 -159 38 -193 90 -20 29 -23 45 -20 95 5 81 32 119 113 156 71 34 142 46 274 48 l94 1 -6 -82z"/>
  <path fill="#514f50" d="M9803 1715 c-64 -19 -127 -60 -167 -106 l-35 -41 -3 68 -3 69 -97 3 -98 3 0 -501 0 -501 98 3 97 3 5 340 c5 328 6 342 28 390 45 97 124 154 215 155 94 0 163 -47 199 -139 21 -53 22 -74 26 -403 l4 -348 93 0 94 0 3 338 c3 320 5 340 26 392 63 159 253 212 373 103 65 -59 69 -85 69 -485 l0 -348 101 0 100 0 -3 383 -3 382 -33 67 c-36 73 -86 123 -161 160 -39 19 -62 23 -151 23 -99 0 -110 -2 -171 -32 -62 -31 -122 -84 -159 -141 l-15 -24 -39 56 c-70 102 -158 147 -285 145 -36 0 -85 -6 -108 -14z"/>
  <path fill="#514f50" d="M11910 1716 c-116 -31 -236 -127 -293 -233 -108 -202 -81 -494 59 -644 82 -87 183 -132 326 -145 142 -12 293 37 363 118 37 44 70 121 81 188 l7 40 -86 0 -85 0 -12 -50 c-16 -66 -61 -127 -113 -151 -67 -30 -179 -26 -248 9 -102 51 -147 143 -156 318 -13 244 68 402 222 434 145 30 264 -47 299 -192 6 -28 7 -28 92 -28 l87 0 -5 44 c-12 105 -91 213 -191 260 -98 45 -248 59 -347 32z"/>
  <path fill="#514f50" d="M12885 1726 c-5 -2 -34 -12 -64 -21 -69 -21 -135 -66 -166 -113 -60 -91 -54 -220 13 -294 46 -51 68 -62 246 -120 82 -26 169 -60 193 -74 111 -64 111 -188 2 -261 -55 -36 -166 -45 -235 -18 -58 22 -101 79 -110 146 l-7 49 -90 0 -90 0 6 -54 c11 -113 75 -199 174 -236 173 -64 394 -43 511 50 120 94 142 281 44 383 -43 46 -81 64 -236 117 -240 82 -286 113 -286 195 0 84 74 135 195 135 54 0 79 -5 109 -23 43 -24 76 -76 76 -119 l0 -28 91 0 92 0 -7 47 c-13 99 -94 193 -194 224 -35 11 -246 23 -267 15z"/>
  <path fill="#0976bb" d="M16361 1710 c-171 -45 -280 -157 -326 -335 -19 -76 -19 -250 0 -334 30 -126 114 -240 217 -292 107 -55 311 -68 428 -29 214 72 322 248 324 525 1 166 -36 268 -129 359 -115 111 -327 154 -514 106z m277 -126 c95 -47 158 -160 169 -303 16 -209 -67 -398 -195 -448 -55 -21 -149 -23 -206 -4 -51 18 -112 74 -140 130 -67 134 -70 365 -5 498 51 106 126 151 255 152 57 1 80 -4 122 -25z"/>
  <path fill="#0976bb" d="M19510 1712 c-211 -55 -339 -247 -340 -508 0 -89 26 -207 60 -275 29 -55 103 -134 158 -166 144 -85 380 -88 517 -8 82 49 154 148 170 238 l7 37 -90 0 -89 0 -13 -45 c-28 -98 -94 -154 -202 -170 -100 -15 -219 48 -271 143 -29 53 -62 185 -53 209 4 10 74 13 371 13 l365 0 0 41 c0 120 -40 264 -96 346 -93 136 -299 196 -494 145z m226 -117 c91 -27 156 -117 170 -238 l7 -57 -273 0 -273 0 6 50 c8 66 60 163 109 202 70 55 161 71 254 43z"/>
  <path fill="#514f50" d="M6103 1693 c2 -10 93 -232 202 -493 109 -261 198 -479 198 -485 0 -5 -37 -100 -83 -210 -45 -110 -84 -206 -87 -212 -4 -10 18 -13 90 -13 l94 0 283 698 c156 383 285 705 288 715 4 16 -3 18 -89 15 l-93 -3 -150 -392 c-83 -216 -153 -393 -156 -393 -3 0 -72 178 -154 395 l-150 395 -99 0 c-90 0 -99 -2 -94 -17z"/>
  <path fill="#514f50" d="M11170 1210 l0 -501 98 3 97 3 0 495 0 495 -97 3 -98 3 0 -501z"/>
  <path fill="#0976bb" d="M18350 1210 l0 -490 95 0 95 0 0 490 0 490 -95 0 -95 0 0 -490z"/>
  <path fill="#0976bb" d="M2760 770 l0 -520 610 0 610 0 0 520 0 520 -610 0 -610 0 0 -520z"/>
  <path fill="#0976bb" d="M10 555 l0 -375 615 0 615 0 0 375 0 375 -615 0 -615 0 0 -375z"/>
 </g>
</svg>
