<?xml version="1.0" standalone="no"?>
<!DOCTYPE svg PUBLIC "-//W3C//DTD SVG 20010904//EN" "http://www.w3.org/TR/2001/REC-SVG-20010904/DTD/svg10.dtd">
<svg version="1.0" xmlns="http://www.w3.org/2000/svg" width="549.000000pt" height="180.000000pt" viewBox="0 0 549.000000 180.000000" preserveAspectRatio="xMidYMid meet">
 <g transform="translate(0.000000,180.000000) scale(0.100000,-0.100000)" fill="#000000" stroke="none">
  <path d="M1090 1712 l0 -72 -477 0 c-362 0 -484 -3 -503 -13 -54 -27 -60 -58 -59 -334 l1 -253 73 0 74 0 3 91 3 90 406 0 407 0 6 22 c3 12 6 46 6 75 l0 52 -415 0 -415 0 0 63 c0 60 1 64 22 61 13 -1 213 -3 446 -3 l422 -1 0 -220 0 -221 256 -124 c141 -69 260 -125 265 -125 4 0 123 56 264 124 l255 125 0 230 0 231 141 0 141 0 149 -81 c82 -44 149 -82 149 -84 0 -3 -167 -95 -404 -221 l-130 -69 137 -3 138 -3 196 102 197 102 197 -101 197 -102 1086 0 1086 0 0 65 0 65 -1067 0 -1066 0 -126 67 c-69 37 -139 73 -154 81 -16 8 -27 15 -25 17 4 4 181 100 318 173 63 33 140 75 170 91 l55 31 -138 0 -138 0 -198 -102 -197 -102 -201 102 -201 102 -156 0 -156 0 0 72 0 72 -70 -69 -70 -69 0 -233 0 -233 -377 2 -378 3 -1 228 -1 229 -72 71 -71 72 0 -73z"/>
  <path d="M1317 1633 c-3 -5 -4 -37 -3 -73 l1 -65 295 0 295 0 3 73 3 72 -295 0 c-162 0 -297 -3 -299 -7z"/>
  <path fill="#f5f300" d="M30 815 l0 -25 728 1 727 0 -54 25 -54 24 -673 0 -674 0 0 -25z"/>
  <path fill="#f5f300" d="M1790 815 l-45 -24 1843 -1 1842 0 0 25 0 25 -1797 0 -1798 -1 -45 -24z"/>
  <path d="M50 400 c0 -277 6 -316 49 -339 14 -8 187 -10 568 -9 l548 3 0 228 0 227 393 0 392 0 0 -40 0 -40 -347 -2 -348 -3 -3 -44 c-2 -25 -1 -55 3 -68 l5 -23 345 0 345 0 0 -120 0 -120 588 0 c548 0 590 1 604 17 24 27 38 90 38 173 0 87 -13 143 -41 171 -18 18 -37 19 -444 19 l-425 0 0 43 0 42 486 -5 486 -5 -2 -172 c0 -97 4 -190 10 -213 20 -72 -3 -70 640 -70 l570 0 0 233 0 232 395 0 395 0 0 -42 0 -43 -350 0 -350 0 0 -70 0 -70 303 0 302 0 44 -120 44 -120 63 0 63 0 -40 112 c-22 62 -42 114 -44 117 -3 2 10 11 28 20 46 23 59 71 55 203 -3 97 -5 109 -27 132 l-24 26 -489 0 -488 0 0 -235 0 -235 -490 0 -490 0 0 160 0 160 391 2 c215 2 393 -1 396 -5 3 -5 6 -24 8 -43 l2 -34 -348 0 c-191 0 -350 -3 -352 -7 -2 -5 -2 -36 1 -70 l4 -63 379 0 c362 0 380 1 398 19 27 27 33 70 29 201 -3 103 -5 113 -27 131 -22 18 -54 19 -1027 19 l-1003 0 -28 -24 c-27 -24 -28 -27 -31 -141 -3 -77 0 -127 8 -146 25 -60 15 -59 477 -59 l423 0 0 -50 0 -50 -489 0 -490 0 -3 199 c-3 184 -5 202 -24 228 -11 15 -32 31 -45 34 -41 12 -850 10 -891 -2 -62 -17 -68 -39 -68 -259 l0 -190 -450 0 -450 0 0 230 0 230 -75 0 -75 0 0 -260z"/>
 </g>
</svg>
