<?xml version="1.0" encoding="UTF-8" standalone="no"?>
<svg xmlns:dc="http://purl.org/dc/elements/1.1/" xmlns:cc="http://creativecommons.org/ns#" xmlns:rdf="http://www.w3.org/1999/02/22-rdf-syntax-ns#" xmlns:svg="http://www.w3.org/2000/svg" xmlns="http://www.w3.org/2000/svg" viewBox="0 0 226.77333 151.18668" height="151.18668" width="226.77333" xml:space="preserve" id="svg2" version="1.1">
 <metadata id="metadata8">
  <rdf:RDF>
   <cc:Work rdf:about="">
   	<dc:format>image/svg+xml</dc:format>
   	<dc:type rdf:resource="http://purl.org/dc/dcmitype/StillImage" />
   </cc:Work>
  </rdf:RDF>
 </metadata>
 <defs id="defs6" />
 <g transform="matrix(1.3333333,0,0,-1.3333333,0,151.18667)" id="g10">
  <g transform="scale(0.1)" id="g12">
  <path id="path14" style="fill:#ffffff;fill-opacity:1;fill-rule:nonzero;stroke:none" d="M 0,0 H 1700.8 V 1133.9 H 0 Z" />
   <path id="path16" style="fill:#fdeaf1;fill-opacity:1;fill-rule:nonzero;stroke:none" d="m 141.742,144.879 h 1417.31 V 995.274 H 141.742 Z" />
   <path id="path18" style="fill:#302d2e;fill-opacity:1;fill-rule:nonzero;stroke:none" d="m 412.066,463.781 h 6.57813 V 689.433 H 412.066 Z" />
   <path id="path20" style="fill:#302d2e;fill-opacity:1;fill-rule:nonzero;stroke:none" d="m 494.34,420.715 60.797,298.719 h 6.718 L 501.207,420.715 h -6.867" />
   <path id="path22" style="fill:#302d2e;fill-opacity:1;fill-rule:nonzero;stroke:none" d="m 711.508,689.434 v -6.575 H 670.586 V 463.781 h -6.578 v 219.078 h -41.063 v 6.575 h 88.563" />
   <path id="path24" style="fill:#302d2e;fill-opacity:1;fill-rule:nonzero;stroke:none" d="m 794.285,689.434 h 88.559 v -6.575 H 800.867 V 580.117 h 81.977 v -6.582 H 800.867 V 470.363 h 81.977 v -6.582 h -88.559 v 225.653" />
   <path id="path26" style="fill:#302d2e;fill-opacity:1;fill-rule:nonzero;stroke:none" d="m 1244.44,689.434 c 11.9,0 21.92,-4.239 30.1,-12.715 9.45,-9.449 14.18,-22.555 14.18,-39.313 v -3.359 H 1282 v 3.359 c 0,14.516 -4,25.969 -11.97,34.348 -7.03,7.398 -15.55,11.105 -25.59,11.105 -10.04,0 -18.55,-3.707 -25.58,-11.105 -8.09,-8.379 -12.13,-19.832 -12.13,-34.348 v -6.136 c 0,-14.422 3.85,-25.188 11.56,-32.297 4.77,-4.395 13.83,-8.817 27.17,-13.301 14.04,-4.676 23.79,-9.5 29.24,-14.473 9.35,-8.476 14.02,-20.894 14.02,-37.261 v -18.262 c 0,-16.676 -4.73,-29.785 -14.18,-39.317 -8.18,-8.379 -18.2,-12.578 -30.1,-12.578 -11.79,0 -21.83,4.199 -30.11,12.578 -9.44,9.532 -14.16,22.641 -14.16,39.317 v 3.359 h 6.56 v -3.359 c 0,-14.531 4.04,-25.938 12.13,-34.199 7.03,-7.422 15.54,-11.114 25.58,-11.114 10.14,0 18.71,3.692 25.73,11.114 7.89,8.476 11.83,19.863 11.83,34.199 v 18.262 c 0,14.511 -3.85,25.289 -11.54,32.292 -4.69,4.286 -13.69,8.68 -27.03,13.153 -13.95,4.777 -23.69,9.648 -29.24,14.621 -9.36,8.379 -14.02,20.801 -14.02,37.266 v 6.136 c 0,16.758 4.72,29.864 14.16,39.313 8.28,8.476 18.32,12.715 30.11,12.715" />
   <path id="path28" style="fill:#302d2e;fill-opacity:1;fill-rule:nonzero;stroke:none" d="m 1112.43,689.668 -0.47,0.145 h -2.63 l -0.06,-0.145 v -0.012 l -67.62,-217.066 -0.02,0.039 -0.14,-0.391 v -0.019 l -67.635,217.058 v 0.008 l -0.039,0.149 h -2.656 l -0.469,-0.149 h -3.378 v -225.64 h 6.582 v 23.886 h -0.04 v 179.676 l 63.435,-203.562 h 8.42 l 63.56,203.941 V 487.902 h -0.02 v -23.886 h 6.58 v 225.652 h -3.4" />
  </g>
 </g>
</svg>
