<?xml version="1.0" standalone="no"?>
<!DOCTYPE svg PUBLIC "-//W3C//DTD SVG 20010904//EN" "http://www.w3.org/TR/2001/REC-SVG-20010904/DTD/svg10.dtd">
<svg version="1.0" xmlns="http://www.w3.org/2000/svg" width="1035.000000pt" height="276.000000pt" viewBox="0 0 1035.000000 276.000000" preserveAspectRatio="xMidYMid meet">
 <g transform="translate(0.000000,276.000000) scale(0.100000,-0.100000)" fill="#000000" stroke="none">
  <path fill="#bd1a8d" d="M6356 2586 c10 -169 8 -1228 -3 -1456 -4 -96 -8 -209 -8 -250 l0 -75 171 0 170 -1 -4 443 c-4 429 -4 443 14 442 32 0 432 -486 642 -779 l77 -108 115 5 c63 2 160 0 215 -5 55 -5 101 -8 103 -7 1 1 -48 62 -110 136 -148 176 -641 790 -636 792 1 1 43 15 91 31 169 56 317 167 372 280 14 29 33 88 42 132 21 102 8 198 -42 301 -60 127 -151 195 -310 230 -68 15 -141 17 -493 19 l-413 2 7 -132z m762 -91 c74 -33 132 -94 151 -156 18 -60 16 -168 -3 -227 -33 -98 -155 -193 -283 -220 -28 -6 -103 -14 -165 -18 -93 -5 -117 -4 -129 8 -12 12 -14 66 -11 332 l3 317 187 -4 c181 -3 189 -4 250 -32z"/>
  <path fill="#bd1a8d" d="M60 1460 l0 -1231 153 3 152 3 2 425 c1 234 3 438 3 453 0 27 6 23 103 -67 279 -260 665 -524 977 -669 495 -229 1009 -313 1459 -237 69 11 126 22 126 23 1 1 0 21 -3 45 l-4 42 -117 1 c-64 0 -123 2 -131 3 -8 2 -55 6 -105 10 -189 15 -504 86 -699 157 -417 153 -801 381 -1165 693 l-95 81 165 6 c142 5 175 9 249 33 286 93 466 273 527 525 24 101 22 277 -5 374 -65 231 -229 402 -474 497 -135 52 -213 59 -689 60 l-429 0 0 -1230z m940 1025 c188 -48 322 -184 359 -363 19 -90 15 -276 -8 -364 -11 -42 -27 -92 -37 -110 -76 -152 -237 -254 -407 -260 -77 -2 -435 11 -499 18 l-48 6 0 544 0 544 163 2 c291 5 408 1 477 -17z"/>
  <path fill="#bd1a8d" d="M2535 2434 c-259 -58 -469 -222 -590 -465 -80 -158 -108 -302 -93 -476 34 -398 398 -717 845 -740 446 -24 826 292 904 751 23 139 -8 342 -74 471 -106 210 -303 365 -562 441 -116 34 -321 42 -430 18z m237 -145 c210 -45 428 -245 528 -485 85 -205 80 -442 -12 -617 -108 -203 -372 -324 -600 -276 -279 59 -535 355 -588 681 -21 132 -2 277 53 392 107 225 375 357 619 305z"/>
  <path fill="#bd1a8d" d="M9225 2436 c-324 -63 -588 -319 -676 -656 -28 -107 -30 -280 -5 -384 76 -315 340 -554 691 -627 441 -91 858 152 1006 587 97 287 34 591 -169 806 -117 124 -245 200 -428 253 -110 33 -308 42 -419 21z m289 -166 c104 -40 178 -90 271 -184 206 -209 293 -475 239 -733 -24 -118 -67 -196 -154 -283 -243 -244 -595 -222 -856 51 -239 252 -310 603 -177 876 71 146 208 249 398 297 11 3 65 3 120 2 74 -3 115 -9 159 -26z"/>
  <path fill="#bd1a8d" d="M4052 2350 c-152 -40 -260 -122 -316 -240 -29 -61 -31 -72 -31 -185 0 -116 1 -123 33 -187 54 -110 120 -158 347 -254 224 -95 277 -145 283 -268 3 -63 0 -77 -25 -126 -64 -121 -199 -170 -338 -122 -66 23 -115 63 -172 140 -45 61 -47 63 -87 60 l-40 -3 -12 -77 c-7 -43 -19 -98 -27 -123 l-16 -44 35 -31 c109 -95 323 -140 504 -106 222 41 388 189 435 387 28 121 13 227 -47 321 -58 92 -138 147 -324 221 -145 59 -187 81 -234 123 -45 41 -63 87 -62 160 0 79 40 137 122 180 46 24 162 25 207 1 48 -25 100 -84 119 -132 15 -41 17 -43 57 -41 l40 1 32 96 c18 52 37 105 44 116 9 19 6 25 -27 51 -121 96 -322 128 -500 82z"/>
  <path fill="#bd1a8d" d="M4844 2235 c8 -141 8 -1095 0 -1286 l-7 -146 440 0 440 -1 -5 107 c-2 58 -6 107 -7 109 -1 2 -31 -2 -66 -8 -35 -6 -166 -13 -291 -17 l-228 -6 0 267 0 266 158 0 c87 0 207 -5 266 -11 59 -6 109 -9 111 -7 2 2 -1 26 -7 55 -7 34 -7 70 0 108 l9 58 -121 -6 c-66 -4 -188 -10 -270 -13 l-149 -7 6 144 c4 79 7 182 7 228 l0 84 218 -7 c119 -3 252 -9 294 -12 l77 -6 -14 46 c-9 30 -12 68 -8 109 l5 62 -432 0 -433 0 7 -110z"/>
  <path fill="#bd1a8d" d="M8119 2343 l-117 -4 2 -527 c0 -290 -2 -570 -6 -622 -16 -215 -21 -403 -10 -396 15 9 240 9 275 1 l29 -8 -6 99 c-3 55 -8 160 -11 234 -3 74 -8 177 -11 229 -4 89 9 595 22 862 l6 126 -23 6 c-13 4 -26 6 -29 5 -3 -1 -57 -4 -121 -5z"/>
 </g>
</svg>
