<?xml version="1.0" encoding="UTF-8" standalone="no"?>
<!-- Generator: Adobe Illustrator 19.0.0, SVG Export Plug-In . SVG Version: 6.00 Build 0)  -->

<svg
   xmlns:dc="http://purl.org/dc/elements/1.1/"
   xmlns:cc="http://creativecommons.org/ns#"
   xmlns:rdf="http://www.w3.org/1999/02/22-rdf-syntax-ns#"
   xmlns:svg="http://www.w3.org/2000/svg"
   xmlns="http://www.w3.org/2000/svg"
   xmlns:sodipodi="http://sodipodi.sourceforge.net/DTD/sodipodi-0.dtd"
   xmlns:inkscape="http://www.inkscape.org/namespaces/inkscape"
   version="1.1"
   id="Layer_1"
   x="0px"
   y="0px"
   viewBox="-63 359.89 469 123"
   width="469px"
   height="123px"
   enable-background="new -63 359.89 469 123"
   xml:space="preserve"
   sodipodi:docname="logo_white.svg"
   inkscape:version="0.92.1 r15371"><metadata
     id="metadata4895"><rdf:RDF><cc:Work
         rdf:about=""><dc:format>image/svg+xml</dc:format><dc:type
           rdf:resource="http://purl.org/dc/dcmitype/StillImage" /></cc:Work></rdf:RDF></metadata><defs
     id="defs4893" /><sodipodi:namedview
     pagecolor="#ffffff"
     bordercolor="#666666"
     borderopacity="1"
     objecttolerance="10"
     gridtolerance="10"
     guidetolerance="10"
     inkscape:pageopacity="0"
     inkscape:pageshadow="2"
     inkscape:window-width="1920"
     inkscape:window-height="1016"
     id="namedview4891"
     showgrid="false"
     inkscape:zoom="2.8614072"
     inkscape:cx="234.15052"
     inkscape:cy="61.5"
     inkscape:window-x="0"
     inkscape:window-y="27"
     inkscape:window-maximized="1"
     inkscape:current-layer="Layer_1" /><g
     id="logo__item--business"
     transform="matrix(1.00601,0,0,1.0448938,-2.4359796,-19.465261)"><g
       transform="matrix(1.5125088,0,0,1.5125088,122.32813,61.326692)"
       id="g4746"><g
         enable-background="new    "
         id="g4712"><path
           d="m -32.468,216.823 c 2.197,0 4.117,0.24 5.76,0.72 1.643,0.48 3.018,1.168 4.128,2.064 1.109,0.896 1.941,1.99 2.496,3.28 0.555,1.291 0.832,2.747 0.832,4.368 0,1.579 -0.267,3.024 -0.8,4.336 -0.534,1.312 -1.323,2.437 -2.368,3.376 -1.045,0.939 -2.341,1.67 -3.888,2.192 -1.547,0.523 -3.323,0.784 -5.328,0.784 h -6.976 v -16.96 c 0,-0.96 -0.134,-1.733 -0.4,-2.32 -0.267,-0.587 -0.88,-0.88 -1.84,-0.88 h -0.32 v -0.96 z m 0.415,1.28 c -0.32,0 -0.624,0.011 -0.912,0.032 -0.288,0.022 -0.549,0.054 -0.784,0.096 -0.256,0.043 -0.491,0.075 -0.704,0.096 v 18.112 c 0.213,0.043 0.448,0.086 0.704,0.128 0.448,0.064 1.013,0.096 1.696,0.096 h 0.32 c 1.109,0 2.133,-0.213 3.072,-0.64 0.938,-0.427 1.749,-1.04 2.432,-1.84 0.682,-0.8 1.216,-1.776 1.6,-2.928 0.384,-1.152 0.576,-2.443 0.576,-3.872 0,-1.408 -0.187,-2.682 -0.56,-3.824 -0.374,-1.141 -0.901,-2.117 -1.584,-2.928 -0.683,-0.811 -1.499,-1.434 -2.448,-1.872 -0.949,-0.437 -2,-0.656 -3.152,-0.656 z"
           id="path4710"
           inkscape:connector-curvature="0"
           style="fill:#fbfbfb" /></g><g
         enable-background="new    "
         id="g4716"><path
           d="m -7.573,216.823 h 4.16 v 16.96 c 0,0.96 0.133,1.734 0.4,2.32 0.266,0.587 0.88,0.88 1.84,0.88 h 0.32 v 0.96 h -3.84 c -0.555,0 -1.019,-0.064 -1.392,-0.192 -0.374,-0.128 -0.672,-0.352 -0.896,-0.672 -0.224,-0.32 -0.379,-0.747 -0.464,-1.28 -0.086,-0.533 -0.128,-1.205 -0.128,-2.016 z"
           id="path4714"
           inkscape:connector-curvature="0"
           style="fill:#fbfbfb" /></g><g
         enable-background="new    "
         id="g4720"><path
           d="m 16.363,238.487 c -0.875,0 -1.744,-0.086 -2.608,-0.256 -0.864,-0.171 -1.637,-0.421 -2.32,-0.752 -0.683,-0.331 -1.238,-0.736 -1.664,-1.216 -0.427,-0.48 -0.64,-1.019 -0.64,-1.616 v -3.744 h 0.96 c 0.339,2.219 1.023,3.797 2.051,4.736 1.028,0.939 2.433,1.408 4.214,1.408 1.208,0 2.178,-0.261 2.91,-0.784 0.732,-0.523 1.097,-1.296 1.097,-2.32 0,-0.917 -0.293,-1.68 -0.88,-2.288 -0.587,-0.608 -1.392,-1.221 -2.416,-1.84 l -3.936,-2.368 c -1.451,-0.853 -2.475,-1.728 -3.072,-2.624 -0.597,-0.896 -0.896,-1.931 -0.896,-3.104 0,-1.685 0.645,-3.018 1.936,-4 1.29,-0.981 3.035,-1.472 5.232,-1.472 0.875,0 1.744,0.086 2.608,0.256 0.864,0.171 1.637,0.422 2.32,0.752 0.682,0.331 1.237,0.736 1.664,1.216 0.426,0.48 0.64,1.019 0.64,1.616 v 3.744 h -0.96 c -0.361,-2.218 -1.039,-3.797 -2.034,-4.736 -0.996,-0.938 -2.3,-1.408 -3.91,-1.408 -1.145,0 -2.051,0.277 -2.719,0.832 -0.667,0.555 -1.001,1.312 -1.001,2.272 0,0.448 0.08,0.848 0.24,1.2 0.16,0.352 0.384,0.677 0.672,0.976 0.288,0.299 0.634,0.587 1.04,0.864 0.405,0.278 0.864,0.566 1.376,0.864 l 3.936,2.336 c 1.45,0.854 2.512,1.691 3.184,2.512 0.672,0.822 1.008,1.819 1.008,2.992 0,1.835 -0.693,3.285 -2.08,4.352 -1.388,1.066 -3.371,1.6 -5.952,1.6 z"
           id="path4718"
           inkscape:connector-curvature="0"
           style="fill:#fbfbfb" /></g><g
         enable-background="new    "
         id="g4724"><path
           d="m 51.851,216.823 v 1.44 h -6.688 v 19.68 h -4.16 v -19.68 H 38.73 c -1.131,0 -2.027,0.283 -2.688,0.848 -0.662,0.565 -0.992,1.563 -0.992,2.992 h -0.96 v -2.72 c 0,-0.32 0.037,-0.634 0.112,-0.944 0.075,-0.309 0.213,-0.581 0.416,-0.816 0.202,-0.234 0.48,-0.426 0.832,-0.576 0.352,-0.149 0.805,-0.224 1.36,-0.224 z"
           id="path4722"
           inkscape:connector-curvature="0"
           style="fill:#fbfbfb" /></g><g
         enable-background="new    "
         id="g4728"><path
           d="m 62.507,216.823 h 4.16 v 16.96 c 0,0.96 0.133,1.734 0.4,2.32 0.267,0.587 0.88,0.88 1.84,0.88 h 0.32 v 0.96 h -3.84 c -0.555,0 -1.019,-0.064 -1.392,-0.192 -0.373,-0.128 -0.672,-0.352 -0.896,-0.672 -0.224,-0.32 -0.379,-0.747 -0.464,-1.28 -0.086,-0.533 -0.128,-1.205 -0.128,-2.016 z"
           id="path4726"
           inkscape:connector-curvature="0"
           style="fill:#fbfbfb" /></g><g
         enable-background="new    "
         id="g4732"><path
           d="m 95.882,231.543 v -14.72 h 1.6 v 21.216 H 96.01 L 82.442,222.103 v 15.84 h -1.6 v -17.28 c 0,-0.405 -0.043,-0.784 -0.128,-1.136 -0.086,-0.352 -0.24,-0.656 -0.464,-0.912 -0.224,-0.256 -0.523,-0.458 -0.896,-0.608 -0.373,-0.149 -0.837,-0.224 -1.392,-0.224 h -0.159 v -0.96 h 2.24 c 1.216,0 2.202,0.16 2.96,0.48 0.757,0.32 1.381,0.8 1.872,1.44 z"
           id="path4730"
           inkscape:connector-curvature="0"
           style="fill:#fbfbfb" /></g><g
         enable-background="new    "
         id="g4736"><path
           d="m 127.049,223.639 c -0.405,-1.941 -1.147,-3.429 -2.224,-4.464 -1.078,-1.035 -2.502,-1.552 -4.272,-1.552 -0.981,0 -1.899,0.16 -2.752,0.48 -0.854,0.32 -1.6,0.87 -2.24,1.648 -0.64,0.779 -1.142,1.814 -1.504,3.104 -0.363,1.291 -0.544,2.907 -0.544,4.848 0,1.216 0.128,2.395 0.384,3.536 0.256,1.142 0.666,2.149 1.232,3.024 0.565,0.875 1.291,1.573 2.177,2.096 0.885,0.523 1.968,0.784 3.248,0.784 1.472,0 2.837,-0.389 4.096,-1.168 1.258,-0.779 2.272,-1.915 3.04,-3.408 l 1.12,0.864 c -1.003,1.771 -2.229,3.072 -3.68,3.904 -1.451,0.832 -3.295,1.248 -5.536,1.248 -1.685,0 -3.184,-0.277 -4.496,-0.832 -1.312,-0.554 -2.416,-1.322 -3.312,-2.304 -0.896,-0.981 -1.579,-2.133 -2.048,-3.456 -0.469,-1.323 -0.704,-2.752 -0.704,-4.288 0,-1.621 0.267,-3.13 0.8,-4.528 0.533,-1.397 1.269,-2.613 2.208,-3.648 0.938,-1.034 2.053,-1.85 3.344,-2.448 1.291,-0.597 2.693,-0.896 4.208,-0.896 2.005,0 3.621,0.261 4.848,0.784 1.226,0.523 2.138,1.126 2.736,1.808 0.427,0.555 0.672,1.269 0.736,2.144 0.064,0.875 0.096,1.782 0.096,2.72 z"
           id="path4734"
           inkscape:connector-curvature="0"
           style="fill:#fbfbfb" /></g><g
         enable-background="new    "
         id="g4740"><path
           d="m 155.849,216.823 v 1.44 h -6.688 v 19.68 H 145 v -19.68 h -2.272 c -1.131,0 -2.027,0.283 -2.688,0.848 -0.661,0.565 -0.992,1.563 -0.992,2.992 h -0.96 v -2.72 c 0,-0.32 0.037,-0.634 0.112,-0.944 0.075,-0.309 0.213,-0.581 0.416,-0.816 0.202,-0.234 0.48,-0.426 0.832,-0.576 0.353,-0.149 0.805,-0.224 1.36,-0.224 z"
           id="path4738"
           inkscape:connector-curvature="0"
           style="fill:#fbfbfb" /></g><g
         enable-background="new    "
         id="g4744"><path
           d="m 180.073,233.91 c 0.384,0.939 0.854,1.685 1.408,2.24 0.555,0.555 1.194,0.875 1.92,0.96 v 0.8 c -0.171,0.043 -0.411,0.08 -0.72,0.112 -0.31,0.032 -0.582,0.048 -0.816,0.048 -0.512,0 -1.061,-0.048 -1.648,-0.144 -0.587,-0.096 -1.163,-0.288 -1.728,-0.576 -0.566,-0.288 -1.099,-0.704 -1.6,-1.248 -0.502,-0.544 -0.944,-1.275 -1.328,-2.192 l -0.74,-1.792 h -8.558 l -2.638,5.824 h -1.601 l 9.44,-21.12 h 1.44 z m -13.134,-3.231 h 7.271 l -3.54,-8.352 z"
           id="path4742"
           inkscape:connector-curvature="0"
           style="fill:#fbfbfb" /></g></g></g><g
     id="logo__item--tagline_1"
     transform="matrix(1.00601,0,0,1.0448938,-2.4359796,-19.465261)"><g
       transform="matrix(1.0985858,-0.00788244,0.00788244,1.0985858,130.62192,97.292628)"
       id="g4853"><g
         enable-background="new    "
         id="g4751"><path
           d="m -58.272,315.284 2.34,0.001 v 9.54 c 0,0.54 0.075,0.975 0.225,1.305 0.15,0.33 0.495,0.495 1.035,0.495 h 0.18 v 0.54 l -2.16,10e-4 c -0.312,0 -0.573,-0.036 -0.783,-0.108 -0.21,-0.073 -0.378,-0.198 -0.504,-0.378 -0.126,-0.18 -0.213,-0.42 -0.261,-0.72 -0.048,-0.3 -0.072,-0.679 -0.072,-1.135 z"
           id="path4749"
           inkscape:connector-curvature="0"
           style="fill:#fbfbfb" /></g><g
         enable-background="new    "
         id="g4755"><path
           d="m -45.912,319.389 c -0.384,0 -0.717,0.054 -0.999,0.163 -0.282,0.108 -0.501,0.242 -0.657,0.398 0.012,0.072 0.03,0.158 0.054,0.253 0.024,0.085 0.042,0.187 0.054,0.307 0.012,0.121 0.018,0.253 0.018,0.398 v 6.256 l -2.34,0.001 v -6.121 c 0,-0.263 -0.015,-0.506 -0.045,-0.728 -0.03,-0.222 -0.087,-0.414 -0.171,-0.575 -0.084,-0.161 -0.21,-0.285 -0.378,-0.369 -0.168,-0.084 -0.384,-0.126 -0.648,-0.126 h -0.18 v -0.54 h 1.782 c 0.408,-0.001 0.729,0.051 0.963,0.153 0.234,0.102 0.416,0.273 0.549,0.513 0.108,-0.096 0.237,-0.195 0.387,-0.297 0.15,-0.102 0.33,-0.192 0.54,-0.27 0.21,-0.078 0.453,-0.144 0.729,-0.198 0.276,-0.054 0.6,-0.081 0.972,-0.081 1.128,-0.001 1.98,0.261 2.556,0.783 0.576,0.522 0.864,1.364 0.864,2.529 v 5.328 l -2.34,-10e-4 v -5.371 c 0,-0.88 -0.162,-1.5 -0.486,-1.861 -0.324,-0.363 -0.732,-0.544 -1.224,-0.544 z"
           id="path4753"
           inkscape:connector-curvature="0"
           style="fill:#fbfbfb" /></g><g
         enable-background="new    "
         id="g4759"><path
           d="m -34.074,318.705 h 1.98 v 0.811 h -1.98 v 5.31 c 0,0.672 0.081,1.124 0.243,1.359 0.162,0.233 0.393,0.35 0.693,0.351 0.192,0 0.375,-0.024 0.549,-0.072 0.174,-0.049 0.327,-0.103 0.459,-0.163 0.144,-0.072 0.282,-0.155 0.414,-0.251 l 0.252,0.504 c -0.156,0.144 -0.342,0.276 -0.558,0.396 -0.192,0.095 -0.435,0.186 -0.729,0.269 -0.294,0.084 -0.645,0.126 -1.053,0.126 -0.816,0 -1.455,-0.221 -1.917,-0.665 -0.462,-0.444 -0.693,-1.098 -0.693,-1.962 v -5.202 h -1.08 v -0.81 h 1.08 v -1.621 l 0.9,-1.08 1.44,10e-4 z"
           id="path4757"
           inkscape:connector-curvature="0"
           style="fill:#fbfbfb" /></g><g
         enable-background="new    "
         id="g4763"><path
           d="m -23.424,326.536 c 0.624,0 1.131,-0.144 1.521,-0.433 0.39,-0.288 0.741,-0.642 1.053,-1.062 l 0.558,0.414 c -0.132,0.204 -0.291,0.418 -0.477,0.639 -0.186,0.222 -0.414,0.426 -0.684,0.612 -0.27,0.186 -0.588,0.339 -0.954,0.459 -0.366,0.12 -0.795,0.18 -1.287,0.18 -0.636,0 -1.209,-0.111 -1.719,-0.333 -0.51,-0.222 -0.946,-0.531 -1.305,-0.927 -0.36,-0.396 -0.636,-0.861 -0.828,-1.395 -0.192,-0.534 -0.288,-1.119 -0.288,-1.755 0,-0.72 0.102,-1.356 0.306,-1.908 0.204,-0.551 0.483,-1.011 0.837,-1.376 0.354,-0.366 0.771,-0.645 1.251,-0.837 0.48,-0.191 1.002,-0.288 1.566,-0.288 0.564,0 1.086,0.088 1.566,0.262 0.48,0.173 0.897,0.416 1.251,0.729 0.354,0.312 0.633,0.689 0.837,1.133 0.203,0.444 0.306,0.936 0.306,1.476 0,0.132 -0.003,0.267 -0.009,0.404 -0.006,0.139 -0.015,0.261 -0.027,0.37 -0.012,0.132 -0.024,0.252 -0.036,0.36 h -5.418 c 0,1.188 0.183,2.032 0.549,2.529 0.366,0.497 0.843,0.746 1.431,0.747 z m 1.08,-4.087 c 0,-0.6 -0.039,-1.098 -0.117,-1.494 -0.078,-0.396 -0.183,-0.713 -0.315,-0.953 -0.132,-0.24 -0.291,-0.411 -0.477,-0.513 -0.186,-0.102 -0.393,-0.153 -0.621,-0.153 -0.204,-0.001 -0.399,0.05 -0.585,0.152 -0.186,0.103 -0.348,0.273 -0.486,0.513 -0.138,0.241 -0.249,0.558 -0.333,0.954 -0.084,0.396 -0.126,0.894 -0.126,1.494 z"
           id="path4761"
           inkscape:connector-curvature="0"
           style="fill:#fbfbfb" /></g><g
         enable-background="new    "
         id="g4767"><path
           d="m -15.186,317.626 c 0,-0.54 -0.075,-0.975 -0.225,-1.306 -0.15,-0.329 -0.495,-0.495 -1.035,-0.495 h -0.18 v -0.54 l 2.16,-0.001 c 0.312,0 0.573,0.04 0.783,0.118 0.21,0.078 0.378,0.206 0.504,0.387 0.126,0.18 0.213,0.42 0.261,0.72 0.048,0.3 0.072,0.673 0.072,1.116 v 9.54 h -2.34 z"
           id="path4765"
           inkscape:connector-curvature="0"
           style="fill:#fbfbfb" /></g><g
         enable-background="new    "
         id="g4771"><path
           d="m -7.543,317.625 c 0,-0.54 -0.075,-0.975 -0.225,-1.305 -0.15,-0.33 -0.495,-0.495 -1.035,-0.495 h -0.18 v -0.54 h 2.16 c 0.312,0 0.573,0.039 0.783,0.117 0.21,0.079 0.378,0.207 0.504,0.387 0.126,0.18 0.213,0.421 0.261,0.72 0.048,0.301 0.072,0.673 0.072,1.116 v 9.54 h -2.34 z"
           id="path4769"
           inkscape:connector-curvature="0"
           style="fill:#fbfbfb" /></g><g
         enable-background="new    "
         id="g4775"><path
           d="m 4.026,326.535 c 0.624,0 1.131,-0.144 1.521,-0.432 0.39,-0.288 0.741,-0.643 1.053,-1.063 l 0.558,0.415 c -0.132,0.204 -0.291,0.417 -0.477,0.638 -0.186,0.223 -0.414,0.426 -0.684,0.612 -0.27,0.187 -0.588,0.339 -0.954,0.459 -0.366,0.12 -0.795,0.18 -1.287,0.18 -0.636,0 -1.209,-0.111 -1.719,-0.332 -0.51,-0.222 -0.946,-0.531 -1.305,-0.928 -0.36,-0.395 -0.636,-0.861 -0.828,-1.395 -0.192,-0.534 -0.288,-1.119 -0.288,-1.754 0,-0.72 0.102,-1.357 0.306,-1.908 0.204,-0.552 0.483,-1.011 0.837,-1.377 0.354,-0.365 0.771,-0.644 1.251,-0.837 0.48,-0.191 1.002,-0.288 1.566,-0.287 0.564,0 1.086,0.087 1.566,0.261 0.48,0.174 0.897,0.417 1.251,0.729 0.354,0.312 0.633,0.69 0.837,1.133 0.203,0.444 0.306,0.936 0.306,1.476 0,0.132 -0.003,0.268 -0.009,0.405 -0.006,0.138 -0.015,0.261 -0.027,0.37 -0.012,0.132 -0.024,0.251 -0.036,0.36 H 2.046 c 0,1.188 0.183,2.031 0.549,2.528 0.365,0.498 0.843,0.748 1.431,0.747 z m 1.08,-4.086 c 0,-0.6 -0.039,-1.097 -0.117,-1.493 -0.078,-0.396 -0.183,-0.714 -0.315,-0.954 -0.132,-0.24 -0.291,-0.41 -0.477,-0.513 -0.186,-0.102 -0.393,-0.153 -0.621,-0.153 -0.204,0 -0.399,0.051 -0.585,0.153 -0.186,0.102 -0.348,0.273 -0.486,0.513 -0.138,0.24 -0.249,0.557 -0.333,0.954 -0.084,0.396 -0.126,0.893 -0.126,1.493 z"
           id="path4773"
           inkscape:connector-curvature="0"
           style="fill:#fbfbfb" /></g><g
         enable-background="new    "
         id="g4779"><path
           d="m 16.349,319.335 c -0.636,0 -1.155,0.294 -1.557,0.881 -0.402,0.587 -0.603,1.494 -0.603,2.718 0,2.4 0.749,3.599 2.25,3.599 0.624,10e-4 1.131,-0.143 1.521,-0.432 0.39,-0.288 0.741,-0.642 1.053,-1.062 l 0.558,0.414 c -0.132,0.204 -0.291,0.417 -0.477,0.638 -0.186,0.223 -0.417,0.427 -0.693,0.613 -0.276,0.186 -0.603,0.339 -0.981,0.459 -0.378,0.121 -0.825,0.18 -1.341,0.18 -0.72,0 -1.35,-0.116 -1.89,-0.35 -0.54,-0.234 -0.99,-0.552 -1.35,-0.955 -0.36,-0.401 -0.63,-0.869 -0.81,-1.403 -0.18,-0.535 -0.27,-1.101 -0.27,-1.702 0,-0.599 0.09,-1.167 0.27,-1.701 0.18,-0.534 0.45,-1.001 0.811,-1.403 0.36,-0.402 0.81,-0.72 1.35,-0.954 0.54,-0.233 1.17,-0.352 1.89,-0.352 0.684,0 1.262,0.049 1.737,0.144 0.474,0.097 0.825,0.258 1.053,0.487 0.228,0.228 0.36,0.533 0.396,0.918 0.036,0.384 0.054,0.918 0.054,1.602 h -0.54 c -0.048,-0.768 -0.285,-1.35 -0.711,-1.746 -0.427,-0.395 -1,-0.593 -1.72,-0.593 z"
           id="path4777"
           inkscape:connector-curvature="0"
           style="fill:#fbfbfb" /></g><g
         enable-background="new    "
         id="g4783"><path
           d="m 26.837,318.705 h 1.98 v 0.811 h -1.98 v 5.31 c 0,0.672 0.081,1.125 0.243,1.359 0.162,0.234 0.393,0.351 0.693,0.351 0.192,0 0.375,-0.024 0.549,-0.072 0.174,-0.048 0.327,-0.103 0.459,-0.162 0.144,-0.072 0.282,-0.156 0.414,-0.252 l 0.252,0.504 c -0.156,0.144 -0.342,0.276 -0.558,0.396 -0.192,0.095 -0.435,0.186 -0.729,0.269 -0.294,0.084 -0.645,0.126 -1.053,0.127 -0.816,-10e-4 -1.455,-0.222 -1.917,-0.666 -0.462,-0.444 -0.693,-1.098 -0.693,-1.962 v -5.201 h -1.08 v -0.811 h 1.08 v -1.62 l 0.9,-1.08 h 1.44 z"
           id="path4781"
           inkscape:connector-curvature="0"
           style="fill:#fbfbfb" /></g><g
         enable-background="new    "
         id="g4787"><path
           d="m 33.67,321.045 c 0,-0.54 -0.075,-0.974 -0.225,-1.304 -0.15,-0.33 -0.495,-0.495 -1.035,-0.495 h -0.18 v -0.54 h 2.16 c 0.312,0 0.573,0.04 0.783,0.118 0.211,0.078 0.379,0.207 0.504,0.387 0.126,0.18 0.213,0.42 0.261,0.72 0.048,0.3 0.072,0.672 0.072,1.115 v 3.006 c 0,0.924 0.133,1.569 0.397,1.935 0.263,0.366 0.641,0.55 1.134,0.549 0.276,-10e-4 0.512,-0.06 0.711,-0.181 0.198,-0.119 0.363,-0.252 0.495,-0.396 0.156,-0.168 0.294,-0.367 0.413,-0.594 v -6.66 h 2.341 l 0.001,8.46 h -1.531 l -0.63,-0.809 -0.09,-10e-4 c -0.18,0.193 -0.378,0.36 -0.594,0.504 -0.193,0.132 -0.427,0.246 -0.702,0.342 -0.277,0.096 -0.594,0.144 -0.955,0.144 -1.127,0 -1.964,-0.261 -2.51,-0.783 -0.546,-0.521 -0.819,-1.365 -0.819,-2.529 z"
           id="path4785"
           inkscape:connector-curvature="0"
           style="fill:#fbfbfb" /></g><g
         enable-background="new    "
         id="g4791"><path
           d="m 49.882,318.525 c 1.176,0 2.085,0.313 2.727,0.936 0.642,0.624 0.963,1.572 0.964,2.844 v 4.861 h -1.531 l -0.63,-0.81 h -0.09 c -0.132,0.192 -0.3,0.36 -0.504,0.504 -0.168,0.132 -0.39,0.246 -0.666,0.342 -0.277,0.096 -0.606,0.144 -0.99,0.144 -0.996,0 -1.755,-0.225 -2.277,-0.675 -0.521,-0.45 -0.783,-1.035 -0.783,-1.755 0,-0.432 0.073,-0.813 0.216,-1.143 0.144,-0.33 0.399,-0.612 0.765,-0.846 0.366,-0.234 0.861,-0.411 1.485,-0.531 0.624,-0.12 1.422,-0.18 2.393,-0.18 h 0.27 c 10e-4,-1.08 -0.15,-1.83 -0.45,-2.25 -0.3,-0.42 -0.72,-0.63 -1.26,-0.63 -0.204,0 -0.398,0.021 -0.584,0.063 -0.186,0.042 -0.357,0.123 -0.513,0.243 -0.156,0.12 -0.295,0.286 -0.414,0.495 -0.12,0.211 -0.216,0.483 -0.288,0.819 h -0.99 c 0,-0.312 0.021,-0.63 0.063,-0.954 0.042,-0.323 0.171,-0.606 0.387,-0.845 0.216,-0.24 0.573,-0.405 1.071,-0.495 0.498,-0.091 1.042,-0.136 1.629,-0.137 z m 1.35,4.5 h -0.27 c -0.864,0 -1.485,0.158 -1.862,0.474 -0.378,0.315 -0.568,0.794 -0.568,1.437 0,0.509 0.106,0.894 0.315,1.154 0.21,0.261 0.494,0.391 0.854,0.391 0.276,0 0.507,-0.06 0.694,-0.182 0.186,-0.121 0.344,-0.254 0.477,-0.4 0.144,-0.17 0.264,-0.37 0.36,-0.6 z"
           id="path4789"
           inkscape:connector-curvature="0"
           style="fill:#fbfbfb" /></g><g
         enable-background="new    "
         id="g4795"><path
           d="m 58.66,317.625 c 0,-0.54 -0.075,-0.975 -0.224,-1.305 -0.151,-0.33 -0.495,-0.495 -1.036,-0.495 h -0.18 l -10e-4,-0.54 2.16,-0.001 c 0.312,0 0.573,0.04 0.783,0.118 0.21,0.078 0.378,0.206 0.504,0.386 0.126,0.18 0.213,0.421 0.262,0.72 0.048,0.301 0.072,0.673 0.072,1.117 v 9.54 l -2.341,-0.001 v -9.539 z"
           id="path4793"
           inkscape:connector-curvature="0"
           style="fill:#fbfbfb" /></g><g
         enable-background="new    "
         id="g4799"><path
           d="m 77.872,315.285 c 0.263,-0.001 0.57,0.012 0.918,0.036 0.347,0.024 0.702,0.081 1.062,0.171 0.36,0.09 0.711,0.213 1.053,0.368 0.341,0.156 0.651,0.369 0.927,0.64 0.275,0.27 0.494,0.6 0.657,0.99 0.162,0.39 0.243,0.861 0.243,1.413 0,0.516 -0.082,0.959 -0.243,1.332 -0.163,0.372 -0.376,0.687 -0.64,0.945 -0.263,0.259 -0.557,0.465 -0.882,0.621 -0.324,0.156 -0.645,0.276 -0.963,0.359 -0.318,0.084 -0.618,0.139 -0.9,0.162 -0.283,0.024 -0.513,0.036 -0.694,0.036 H 76.7 v 4.806 h -2.34 v -9.54 c -0.001,-0.54 -0.076,-0.975 -0.225,-1.305 -0.15,-0.33 -0.495,-0.495 -1.035,-0.495 h -0.18 v -0.54 z m 0,0.72 c -0.144,0 -0.288,0.006 -0.432,0.017 -0.144,0.012 -0.27,0.031 -0.378,0.054 -0.133,0.025 -0.252,0.043 -0.36,0.054 v 5.508 h 1.08 c 0.3,0 0.597,-0.042 0.891,-0.126 0.294,-0.083 0.555,-0.233 0.784,-0.449 0.227,-0.216 0.41,-0.507 0.549,-0.873 0.138,-0.365 0.207,-0.824 0.207,-1.376 0,-0.552 -0.069,-1.009 -0.207,-1.369 -0.139,-0.36 -0.318,-0.648 -0.54,-0.863 -0.222,-0.217 -0.471,-0.366 -0.747,-0.45 -0.277,-0.085 -0.559,-0.127 -0.847,-0.127 z"
           id="path4797"
           inkscape:connector-curvature="0"
           style="fill:#fbfbfb" /></g><g
         enable-background="new    "
         id="g4803"><path
           d="m 91.762,318.525 c 0.528,0 0.954,0.121 1.277,0.36 0.108,0.072 0.198,0.156 0.27,0.252 0.072,0.097 0.135,0.186 0.189,0.27 0.054,0.084 0.104,0.18 0.153,0.288 l -0.918,0.702 c -0.084,-0.12 -0.192,-0.234 -0.324,-0.342 -0.108,-0.096 -0.238,-0.179 -0.388,-0.252 -0.15,-0.072 -0.327,-0.108 -0.531,-0.108 -0.384,0 -0.708,0.054 -0.972,0.161 -0.264,0.108 -0.475,0.241 -0.63,0.396 0.012,0.084 0.025,0.174 0.036,0.27 0.012,0.085 0.021,0.177 0.027,0.278 0.005,0.102 0.009,0.207 0.008,0.316 v 6.048 h -2.34 l -0.001,-6.12 c 0,-0.264 -0.015,-0.507 -0.045,-0.729 -0.03,-0.222 -0.087,-0.413 -0.171,-0.576 -0.084,-0.161 -0.21,-0.285 -0.379,-0.369 -0.167,-0.084 -0.384,-0.126 -0.648,-0.126 h -0.18 l -10e-4,-0.54 h 1.782 c 0.408,0 0.729,0.051 0.963,0.154 0.234,0.101 0.417,0.272 0.549,0.512 0.216,-0.192 0.513,-0.38 0.891,-0.567 0.384,-0.184 0.843,-0.278 1.383,-0.278 z"
           id="path4801"
           inkscape:connector-curvature="0"
           style="fill:#fbfbfb" /></g><g
         enable-background="new    "
         id="g4807"><path
           d="m 97.192,322.935 c 0,-0.612 0.099,-1.188 0.297,-1.728 0.199,-0.54 0.483,-1.008 0.855,-1.404 0.371,-0.396 0.825,-0.708 1.359,-0.936 0.534,-0.228 1.137,-0.342 1.809,-0.343 0.672,0 1.275,0.114 1.809,0.343 0.533,0.228 0.986,0.54 1.359,0.936 0.371,0.396 0.657,0.863 0.855,1.404 0.198,0.54 0.297,1.116 0.297,1.728 0,0.612 -0.099,1.189 -0.297,1.729 -0.198,0.54 -0.484,1.008 -0.855,1.404 -0.373,0.396 -0.826,0.708 -1.36,0.936 -0.534,0.227 -1.137,0.342 -1.809,0.342 -0.672,10e-4 -1.275,-0.114 -1.808,-0.342 -0.534,-0.228 -0.988,-0.54 -1.36,-0.936 -0.372,-0.396 -0.657,-0.863 -0.855,-1.404 -0.197,-0.541 -0.296,-1.116 -0.296,-1.729 z m 6.209,0 c 0,-0.516 -0.039,-0.993 -0.117,-1.431 -0.078,-0.438 -0.195,-0.819 -0.351,-1.143 -0.156,-0.324 -0.354,-0.576 -0.594,-0.755 -0.24,-0.18 -0.516,-0.27 -0.828,-0.27 -0.312,0 -0.587,0.089 -0.827,0.27 -0.241,0.18 -0.439,0.432 -0.595,0.756 -0.156,0.323 -0.273,0.705 -0.35,1.143 -0.079,0.438 -0.118,0.915 -0.118,1.43 0.001,0.516 0.039,0.993 0.118,1.431 0.078,0.438 0.195,0.819 0.351,1.143 0.156,0.324 0.353,0.576 0.594,0.756 0.241,0.18 0.515,0.27 0.827,0.27 0.312,0 0.588,-0.09 0.829,-0.27 0.24,-0.181 0.438,-0.432 0.594,-0.757 0.156,-0.324 0.273,-0.705 0.35,-1.143 0.078,-0.437 0.118,-0.914 0.117,-1.43 z"
           id="path4805"
           inkscape:connector-curvature="0"
           style="fill:#fbfbfb" /></g><g
         enable-background="new    "
         id="g4811"><path
           d="m 115.24,318.525 c 0.624,0 1.173,0.114 1.647,0.342 0.474,0.227 0.87,0.54 1.188,0.937 0.317,0.395 0.555,0.863 0.71,1.402 0.156,0.541 0.235,1.116 0.235,1.728 0,0.612 -0.079,1.189 -0.235,1.728 -0.156,0.541 -0.396,1.009 -0.719,1.405 -0.324,0.396 -0.729,0.708 -1.215,0.935 -0.486,0.227 -1.053,0.343 -1.701,0.342 -0.3,0.001 -0.564,-0.027 -0.792,-0.081 -0.228,-0.054 -0.426,-0.117 -0.593,-0.189 -0.192,-0.072 -0.361,-0.162 -0.504,-0.27 v 3.781 h -2.34 v -9.54 c 0,-0.264 -0.015,-0.507 -0.045,-0.729 -0.03,-0.222 -0.087,-0.413 -0.171,-0.575 -0.084,-0.162 -0.21,-0.285 -0.378,-0.369 -0.168,-0.085 -0.384,-0.126 -0.648,-0.126 h -0.18 v -0.54 l 1.782,-0.001 c 0.407,0.001 0.729,0.055 0.963,0.163 0.233,0.107 0.416,0.305 0.549,0.593 0.108,-0.096 0.237,-0.198 0.387,-0.306 0.15,-0.108 0.324,-0.21 0.521,-0.307 0.199,-0.095 0.426,-0.174 0.684,-0.234 0.258,-0.059 0.543,-0.09 0.855,-0.089 z m -0.36,0.81 c -0.457,0 -0.822,0.085 -1.099,0.253 -0.276,0.168 -0.491,0.33 -0.648,0.485 0.012,0.084 0.03,0.169 0.054,0.252 0.024,0.085 0.042,0.175 0.054,0.271 0.012,0.095 0.018,0.209 0.018,0.341 v 5.059 c 0.132,0.108 0.276,0.198 0.432,0.27 0.132,0.072 0.291,0.135 0.477,0.188 0.186,0.055 0.393,0.081 0.621,0.082 0.336,0 0.618,-0.091 0.846,-0.27 0.228,-0.18 0.414,-0.433 0.558,-0.756 0.144,-0.323 0.245,-0.705 0.306,-1.144 0.06,-0.437 0.09,-0.915 0.089,-1.431 0,-0.516 -0.029,-0.992 -0.089,-1.431 -0.061,-0.438 -0.159,-0.819 -0.298,-1.143 -0.138,-0.325 -0.315,-0.577 -0.531,-0.756 -0.214,-0.18 -0.478,-0.27 -0.79,-0.27 z"
           id="path4809"
           inkscape:connector-curvature="0"
           style="fill:#fbfbfb" /></g><g
         enable-background="new    "
         id="g4815"><path
           d="m 127.762,326.535 c 0.624,0 1.131,-0.144 1.521,-0.432 0.39,-0.288 0.741,-0.642 1.053,-1.062 l 0.558,0.414 c -0.132,0.204 -0.291,0.417 -0.477,0.638 -0.186,0.223 -0.414,0.426 -0.684,0.612 -0.27,0.187 -0.588,0.34 -0.954,0.46 -0.367,0.12 -0.796,0.18 -1.288,0.18 -0.636,0 -1.209,-0.112 -1.719,-0.333 -0.51,-0.222 -0.946,-0.531 -1.305,-0.928 -0.36,-0.395 -0.637,-0.861 -0.828,-1.394 -0.191,-0.533 -0.288,-1.119 -0.288,-1.755 0,-0.72 0.102,-1.356 0.306,-1.908 0.204,-0.552 0.483,-1.011 0.837,-1.376 0.354,-0.366 0.772,-0.645 1.251,-0.837 0.48,-0.192 1.002,-0.288 1.566,-0.288 0.564,0 1.087,0.087 1.566,0.261 0.48,0.174 0.897,0.417 1.251,0.729 0.354,0.312 0.633,0.69 0.837,1.133 0.204,0.444 0.306,0.936 0.306,1.476 0,0.132 -0.003,0.268 -0.008,0.405 -0.006,0.139 -0.015,0.261 -0.028,0.37 -0.012,0.131 -0.024,0.251 -0.035,0.36 h -5.418 c -10e-4,1.188 0.182,2.031 0.548,2.528 0.367,0.498 0.844,0.747 1.432,0.747 z m 1.08,-4.086 c 10e-4,-0.6 -0.038,-1.098 -0.116,-1.494 -0.078,-0.396 -0.183,-0.713 -0.315,-0.953 -0.133,-0.24 -0.291,-0.411 -0.477,-0.514 -0.186,-0.102 -0.394,-0.152 -0.621,-0.153 -0.204,0 -0.399,0.051 -0.585,0.153 -0.187,0.103 -0.348,0.273 -0.485,0.513 -0.139,0.24 -0.249,0.558 -0.334,0.954 -0.084,0.396 -0.126,0.893 -0.125,1.493 z"
           id="path4813"
           inkscape:connector-curvature="0"
           style="fill:#fbfbfb" /></g><g
         enable-background="new    "
         id="g4819"><path
           d="m 140.428,318.525 c 0.528,0 0.954,0.121 1.277,0.36 0.108,0.072 0.198,0.156 0.27,0.252 0.072,0.097 0.135,0.187 0.189,0.271 0.054,0.084 0.104,0.179 0.153,0.287 l -0.918,0.702 c -0.084,-0.12 -0.191,-0.234 -0.324,-0.342 -0.108,-0.096 -0.237,-0.179 -0.387,-0.252 -0.151,-0.072 -0.327,-0.108 -0.532,-0.108 -0.384,0 -0.708,0.054 -0.972,0.162 -0.264,0.107 -0.475,0.24 -0.63,0.396 0.011,0.084 0.024,0.174 0.035,0.27 0.012,0.085 0.021,0.177 0.027,0.279 0.005,0.102 0.009,0.207 0.009,0.315 v 6.048 h -2.341 v -6.12 c 0,-0.263 -0.015,-0.507 -0.045,-0.729 -0.03,-0.221 -0.087,-0.413 -0.171,-0.575 -0.084,-0.161 -0.21,-0.285 -0.378,-0.369 -0.168,-0.084 -0.384,-0.126 -0.648,-0.126 h -0.18 l -0.001,-0.54 h 1.782 c 0.407,0 0.729,0.051 0.962,0.154 0.234,0.101 0.417,0.272 0.549,0.512 0.216,-0.191 0.513,-0.38 0.891,-0.567 0.384,-0.187 0.842,-0.28 1.383,-0.28 z"
           id="path4817"
           inkscape:connector-curvature="0"
           style="fill:#fbfbfb" /></g><g
         enable-background="new    "
         id="g4823"><path
           d="m 149.17,318.705 h 1.98 v 0.811 h -1.98 v 5.31 c 0.001,0.672 0.081,1.124 0.243,1.359 0.162,0.233 0.393,0.35 0.694,0.351 0.191,0 0.374,-0.024 0.548,-0.072 0.175,-0.049 0.328,-0.103 0.46,-0.163 0.144,-0.072 0.282,-0.155 0.413,-0.252 l 0.252,0.504 c -0.157,0.145 -0.342,0.277 -0.558,0.396 -0.192,0.096 -0.434,0.186 -0.729,0.27 -0.294,0.084 -0.645,0.126 -1.053,0.126 -0.816,0 -1.454,-0.221 -1.916,-0.665 -0.462,-0.444 -0.693,-1.098 -0.694,-1.962 v -5.202 h -1.08 v -0.81 h 1.08 v -1.621 l 0.9,-1.08 1.44,10e-4 z"
           id="path4821"
           inkscape:connector-curvature="0"
           style="fill:#fbfbfb" /></g><g
         enable-background="new    "
         id="g4827"><path
           d="m 159.962,328.335 c -0.18,0.492 -0.371,0.893 -0.576,1.207 -0.203,0.311 -0.419,0.557 -0.648,0.738 -0.227,0.18 -0.476,0.306 -0.747,0.378 -0.27,0.072 -0.561,0.108 -0.873,0.108 h -0.72 v -0.63 c 0.312,0 0.597,-0.027 0.855,-0.081 0.258,-0.054 0.495,-0.148 0.711,-0.279 0.216,-0.132 0.408,-0.309 0.576,-0.531 0.168,-0.222 0.317,-0.507 0.45,-0.855 l 0.378,-0.972 -3.24,-7.092 c -0.396,-0.875 -0.954,-1.355 -1.674,-1.44 v -0.36 h 1.584 c 0.54,0 1.014,0.129 1.422,0.387 0.407,0.258 0.714,0.61 0.918,1.053 l 2.071,4.536 2.195,-5.796 0.954,10e-4 z"
           id="path4825"
           inkscape:connector-curvature="0"
           style="fill:#fbfbfb" /></g><g
         enable-background="new    "
         id="g4831"><path
           d="m 184.702,324.897 c 0.216,0.528 0.479,0.947 0.792,1.26 0.312,0.312 0.672,0.492 1.08,0.54 v 0.45 c -0.096,0.023 -0.231,0.045 -0.406,0.063 -0.173,0.018 -0.326,0.027 -0.458,0.027 -0.288,0 -0.598,-0.027 -0.927,-0.08 -0.33,-0.055 -0.654,-0.163 -0.973,-0.324 -0.317,-0.162 -0.618,-0.396 -0.899,-0.702 -0.282,-0.306 -0.531,-0.717 -0.747,-1.233 l -0.417,-1.007 -4.814,-0.001 -1.485,3.277 h -0.9 l 5.31,-11.88 h 0.81 z m -7.388,-1.818 h 4.09 l -1.991,-4.698 z"
           id="path4829"
           inkscape:connector-curvature="0"
           style="fill:#fbfbfb" /></g><g
         enable-background="new    "
         id="g4835"><path
           d="m 189.843,321.333 c 0,-0.516 0.098,-0.954 0.297,-1.313 0.198,-0.36 0.474,-0.651 0.829,-0.873 0.354,-0.222 0.765,-0.381 1.233,-0.477 0.468,-0.095 0.972,-0.144 1.512,-0.144 h 3.779 v 0.486 l -1.619,0.217 c 0.504,0.191 0.914,0.486 1.232,0.882 0.317,0.395 0.477,0.803 0.477,1.223 0,0.516 -0.092,0.951 -0.28,1.306 -0.186,0.354 -0.446,0.639 -0.782,0.855 -0.336,0.216 -0.74,0.372 -1.214,0.468 -0.474,0.096 -1.006,0.144 -1.593,0.144 -0.54,0 -0.974,0.03 -1.305,0.09 -0.331,0.06 -0.495,0.21 -0.495,0.45 -10e-4,0.204 0.164,0.333 0.495,0.388 0.329,0.053 0.765,0.086 1.305,0.098 0.611,0.012 1.184,0.078 1.719,0.198 0.533,0.12 0.998,0.297 1.394,0.531 0.396,0.234 0.712,0.529 0.946,0.882 0.233,0.354 0.351,0.764 0.351,1.233 0,0.528 -0.112,0.969 -0.334,1.323 -0.222,0.354 -0.531,0.639 -0.927,0.856 -0.395,0.216 -0.863,0.372 -1.403,0.467 -0.54,0.097 -1.123,0.144 -1.746,0.144 -0.636,10e-4 -1.221,-0.048 -1.755,-0.143 -0.534,-0.097 -0.999,-0.253 -1.395,-0.469 -0.397,-0.215 -0.705,-0.501 -0.927,-0.855 -0.222,-0.354 -0.333,-0.795 -0.333,-1.323 0,-0.324 0.072,-0.615 0.216,-0.873 0.143,-0.258 0.333,-0.482 0.567,-0.674 0.235,-0.192 0.495,-0.355 0.783,-0.487 0.288,-0.131 0.576,-0.233 0.864,-0.306 -0.228,-0.072 -0.421,-0.186 -0.576,-0.342 -0.155,-0.156 -0.234,-0.371 -0.234,-0.648 -0.001,-0.407 0.24,-0.708 0.719,-0.9 -0.504,-0.181 -0.93,-0.489 -1.278,-0.927 -0.348,-0.44 -0.522,-0.935 -0.522,-1.487 z m 3.169,4.536 c -0.397,0.168 -0.709,0.417 -0.936,0.747 -0.229,0.331 -0.343,0.782 -0.342,1.358 0,0.684 0.18,1.185 0.54,1.503 0.36,0.318 0.839,0.477 1.44,0.477 0.6,0 1.079,-0.159 1.44,-0.477 0.36,-0.318 0.539,-0.819 0.54,-1.503 -10e-4,-0.54 -0.168,-0.984 -0.504,-1.332 -0.336,-0.348 -0.781,-0.576 -1.332,-0.684 z m 2.142,-4.536 c 0,-0.684 -0.135,-1.203 -0.406,-1.557 -0.269,-0.354 -0.615,-0.531 -1.034,-0.531 -0.42,0 -0.766,0.165 -1.036,0.495 -0.269,0.331 -0.404,0.861 -0.404,1.593 0,0.745 0.135,1.272 0.405,1.584 0.27,0.312 0.615,0.468 1.036,0.468 0.42,0 0.764,-0.155 1.035,-0.468 0.268,-0.312 0.404,-0.84 0.404,-1.584 z"
           id="path4833"
           inkscape:connector-curvature="0"
           style="fill:#fbfbfb" /></g><g
         enable-background="new    "
         id="g4839"><path
           d="m 206.54,326.535 c 0.624,0 1.132,-0.144 1.52,-0.432 0.391,-0.288 0.742,-0.642 1.054,-1.062 l 0.558,0.414 c -0.132,0.204 -0.291,0.417 -0.477,0.639 -0.186,0.222 -0.414,0.426 -0.684,0.612 -0.27,0.186 -0.588,0.339 -0.954,0.459 -0.366,0.12 -0.796,0.18 -1.288,0.18 -0.636,0 -1.209,-0.112 -1.719,-0.333 -0.51,-0.222 -0.945,-0.531 -1.305,-0.927 -0.36,-0.396 -0.637,-0.862 -0.828,-1.395 -0.192,-0.534 -0.288,-1.119 -0.288,-1.755 0,-0.72 0.102,-1.356 0.305,-1.908 0.205,-0.552 0.484,-1.011 0.837,-1.376 0.354,-0.366 0.771,-0.645 1.251,-0.837 0.48,-0.192 1.001,-0.288 1.566,-0.288 0.564,0 1.087,0.087 1.566,0.261 0.481,0.174 0.897,0.417 1.251,0.729 0.354,0.312 0.633,0.69 0.837,1.134 0.204,0.443 0.306,0.936 0.306,1.476 0,0.132 -0.002,0.267 -0.008,0.404 -0.006,0.139 -0.015,0.261 -0.027,0.37 -0.012,0.132 -0.025,0.252 -0.036,0.36 h -5.418 c -0.001,1.188 0.183,2.031 0.549,2.529 0.367,0.497 0.844,0.746 1.432,0.746 z m 1.08,-4.086 c 0,-0.6 -0.039,-1.098 -0.116,-1.494 -0.078,-0.396 -0.183,-0.713 -0.316,-0.953 -0.132,-0.24 -0.29,-0.411 -0.476,-0.513 -0.187,-0.102 -0.394,-0.153 -0.621,-0.153 -0.204,-0.001 -0.399,0.05 -0.585,0.152 -0.186,0.103 -0.349,0.273 -0.486,0.513 -0.137,0.24 -0.248,0.558 -0.332,0.954 -0.085,0.396 -0.126,0.893 -0.126,1.493 z"
           id="path4837"
           inkscape:connector-curvature="0"
           style="fill:#fbfbfb" /></g><g
         enable-background="new    "
         id="g4843"><path
           d="m 218.937,319.389 c -0.385,0 -0.717,0.054 -0.999,0.164 -0.283,0.108 -0.501,0.241 -0.657,0.397 0.011,0.073 0.029,0.158 0.053,0.253 0.024,0.085 0.042,0.187 0.054,0.308 0.012,0.12 0.018,0.253 0.018,0.397 v 6.257 h -2.34 v -6.12 c 0,-0.263 -0.015,-0.507 -0.045,-0.729 -0.03,-0.221 -0.088,-0.413 -0.171,-0.575 -0.084,-0.161 -0.21,-0.284 -0.378,-0.369 -0.168,-0.084 -0.384,-0.125 -0.648,-0.126 h -0.18 v -0.54 l 1.782,-0.001 c 0.408,0 0.729,0.051 0.962,0.154 0.235,0.102 0.417,0.273 0.549,0.513 0.107,-0.096 0.237,-0.196 0.387,-0.298 0.15,-0.102 0.329,-0.191 0.541,-0.27 0.209,-0.078 0.452,-0.144 0.729,-0.197 0.276,-0.055 0.6,-0.082 0.971,-0.082 1.128,0 1.98,0.261 2.557,0.784 0.576,0.522 0.864,1.364 0.864,2.528 v 5.328 h -2.341 v -5.371 c 0,-0.88 -0.162,-1.501 -0.485,-1.862 -0.323,-0.362 -0.732,-0.543 -1.223,-0.543 z"
           id="path4841"
           inkscape:connector-curvature="0"
           style="fill:#fbfbfb" /></g><g
         enable-background="new    "
         id="g4847"><path
           d="m 232.214,319.336 c -0.636,0 -1.156,0.294 -1.557,0.881 -0.401,0.588 -0.602,1.494 -0.602,2.718 0,2.4 0.748,3.6 2.249,3.599 0.624,0 1.131,-0.144 1.52,-0.432 0.391,-0.288 0.741,-0.642 1.054,-1.062 l 0.557,0.414 c -0.131,0.204 -0.29,0.417 -0.477,0.639 -0.186,0.222 -0.417,0.425 -0.693,0.612 -0.276,0.186 -0.602,0.339 -0.98,0.459 -0.379,0.12 -0.826,0.18 -1.342,0.18 -0.72,0 -1.349,-0.116 -1.888,-0.35 -0.541,-0.234 -0.991,-0.552 -1.351,-0.954 -0.36,-0.403 -0.63,-0.87 -0.81,-1.404 -0.181,-0.534 -0.27,-1.102 -0.27,-1.702 0,-0.6 0.089,-1.167 0.27,-1.701 0.18,-0.534 0.45,-1.002 0.81,-1.403 0.36,-0.402 0.81,-0.72 1.35,-0.954 0.539,-0.234 1.169,-0.352 1.889,-0.352 0.684,0 1.264,0.049 1.737,0.144 0.474,0.097 0.826,0.258 1.053,0.487 0.227,0.229 0.361,0.533 0.396,0.918 0.036,0.384 0.054,0.918 0.054,1.602 h -0.54 c -0.048,-0.768 -0.285,-1.351 -0.711,-1.746 -0.426,-0.396 -0.998,-0.593 -1.718,-0.593 z"
           id="path4845"
           inkscape:connector-curvature="0"
           style="fill:#fbfbfb" /></g><g
         enable-background="new    "
         id="g4851"><path
           d="m 244.123,328.335 c -0.18,0.492 -0.371,0.893 -0.576,1.206 -0.203,0.312 -0.419,0.558 -0.648,0.738 -0.227,0.181 -0.476,0.307 -0.747,0.379 -0.27,0.072 -0.561,0.108 -0.873,0.108 l -0.72,-0.001 v -0.63 c 0.312,0 0.597,-0.026 0.855,-0.081 0.258,-0.053 0.495,-0.147 0.711,-0.278 0.216,-0.133 0.408,-0.309 0.576,-0.531 0.168,-0.222 0.317,-0.507 0.45,-0.855 l 0.378,-0.972 -3.24,-7.092 c -0.396,-0.876 -0.954,-1.355 -1.674,-1.44 v -0.36 h 1.584 c 0.54,-0.001 1.014,0.129 1.422,0.387 0.407,0.258 0.714,0.61 0.918,1.053 l 2.071,4.536 2.196,-5.796 h 0.954 z"
           id="path4849"
           inkscape:connector-curvature="0"
           style="fill:#fbfbfb" /></g></g></g><g
     id="logo__item--logo_0"
     transform="matrix(1.00601,0,0,1.0448938,-2.4359796,-19.465261)"><g
       transform="matrix(0.83612773,-0.3949156,0.3949156,0.83612773,-41.161971,38.541916)"
       id="g4870"><g
         id="g4868"><g
           id="g4858"><path
             d="m -145.221,404.921 c -0.7,1.4 -0.9,2.6 -0.6,2.7 0.3,0.2 1,-1 1.4,-2.4 0.4,-1.5 0.6,-2.6 0.6,-2.7 -0.1,0 -0.7,1 -1.4,2.4 z m -1.9,8.8 c -0.5,1.4 -0.2,2.8 0.5,3 0.7,0.1 1.5,-1 1.7,-2.5 0.2,-1.5 0,-2.8 -0.5,-2.9 -0.4,-0.1 -1.2,1 -1.7,2.4 z m 0.7,9.3 c -0.2,1.5 0.4,2.9 1.6,2.9 1.1,0.1 2,-1.1 2,-2.7 0,-1.5 -0.7,-2.8 -1.6,-2.8 -0.9,0.1 -1.8,1.1 -2,2.6 z m 3.2,9.2 c 0,1.5 1.2,2.7 2.7,2.7 1.5,0 2.5,-1.6 2.3,-3 -0.2,-1.5 -1.4,-2.5 -2.7,-2.5 -1.2,0 -2.3,1.3 -2.3,2.8 z m 5.7,8.6 c 0.2,1.5 1.9,2.6 3.7,2.2 1.8,-0.4 3,-2 2.5,-3.5 -0.4,-1.5 -2.1,-2.3 -3.7,-1.9 -1.5,0.3 -2.6,1.6 -2.5,3.2 z m 8.1,7.5 c 0.4,1.5 2.5,2.2 4.6,1.4 2.2,-0.7 3.3,-2.7 2.7,-4 -0.6,-1.4 -2.6,-1.8 -4.5,-1.1 -1.9,0.6 -3.1,2.2 -2.8,3.7 z m 10.3,5.8 c 0.6,1.4 3,1.7 5.4,0.5 2.3,-1.3 3.5,-3.5 2.6,-4.8 -0.8,-1.3 -3.2,-1.3 -5.2,-0.1 -2.1,1 -3.3,3 -2.8,4.4 z m 12.2,3.7 c 0.8,1.3 3.6,1.1 6,-0.7 2.5,-1.8 3.5,-4.3 2.5,-5.5 -1,-1.1 -3.5,-0.6 -5.7,1 -2.3,1.7 -3.6,3.9 -2.8,5.2 z m -9.4,-26.2 c 1,1.2 2.9,1.1 4.3,-0.2 1.3,-1.4 1.4,-3.3 0.3,-4.3 -1.2,-1 -3,-0.8 -4.1,0.4 -1.2,1 -1.4,2.9 -0.5,4.1 z m 13.2,12.2 c 0.5,0.6 1.7,0.3 2.6,-0.5 0.9,-0.9 1.2,-2.1 0.6,-2.6 -0.6,-0.5 -1.7,-0.2 -2.5,0.7 -0.9,0.7 -1.2,1.8 -0.7,2.4 z m -2.3,-10.3 c 1.1,1 3.3,0.6 4.7,-1.3 1.4,-1.8 1.4,-4 0.1,-4.8 -1.3,-0.8 -3.2,-0.1 -4.4,1.5 -1.3,1.5 -1.6,3.5 -0.4,4.6 z m -17.8,-20.6 c 1.2,0.9 2.7,0.8 3.4,-0.2 0.5,-1 -0.2,-2.4 -1.6,-3 -1.4,-0.6 -2.8,-0.5 -3.2,0.3 -0.6,0.7 0.1,2 1.4,2.9 z m 15.6,8.6 c 0.6,0.4 1.6,0.1 2,-0.7 0.5,-0.8 0.2,-1.8 -0.5,-2.1 -0.7,-0.4 -1.5,0 -1.9,0.7 -0.4,0.8 -0.2,1.7 0.4,2.1 z m -6,-7.6 c 1.3,0.7 3.1,0.2 3.6,-1.3 0.5,-1.4 -0.2,-2.9 -1.7,-3.4 -1.4,-0.4 -3,0.2 -3.4,1.3 -0.4,1.3 0.1,2.7 1.5,3.4 z m -23.7,-12.4 c 1.4,0.5 2.6,0.6 2.8,0.2 0.1,-0.4 -1.1,-0.8 -2.6,-1.1 -1.5,-0.2 -2.7,-0.3 -2.7,-0.2 -0.2,0.1 1,0.6 2.5,1.1 z m 17.2,4.5 c 0.7,0.2 1.4,0 1.6,-0.6 0.2,-0.5 -0.4,-1.1 -1.1,-1.2 -0.8,-0.1 -1.4,0.1 -1.5,0.6 -0.2,0.5 0.3,1 1,1.2 z m -8.3,-3.8 c 1.5,0.3 2.9,-0.1 2.9,-0.9 0,-0.8 -1.1,-1.4 -2.7,-1.4 -1.5,0 -2.8,0.4 -2.8,0.9 0,0.5 1.1,1.1 2.6,1.4 z m -8.7,-2.5 c 0.8,0 1.4,-0.1 1.4,-0.3 0,-0.2 -0.6,-0.2 -1.3,-0.2 -0.8,0.1 -1.4,0.2 -1.4,0.3 -0.1,0.1 0.5,0.2 1.3,0.2 z m 8.1,4.8 c -0.7,-0.2 -1.4,-0.2 -1.5,0 -0.1,0.3 0.4,0.7 1.1,1 0.7,0.3 1.3,0.3 1.5,0 0.1,-0.3 -0.4,-0.7 -1.1,-1 z m -8.7,-2.2 c -0.7,-0.4 -1.2,-0.5 -1.3,-0.5 -0.1,0.1 0.4,0.5 1.1,0.9 0.6,0.4 1.2,0.6 1.3,0.5 0.1,-0.1 -0.5,-0.6 -1.1,-0.9 z m 19.5,16.4 c -0.4,0.5 -0.2,1.4 0.3,1.8 0.6,0.5 1.4,0.4 1.8,-0.2 0.4,-0.6 0.3,-1.4 -0.3,-1.8 -0.6,-0.4 -1.4,-0.3 -1.8,0.2 z m -12.4,-11 c -1.3,-0.8 -2.5,-1.1 -2.8,-0.8 -0.2,0.4 0.3,1.5 1.5,2.6 1.1,1 2.5,1.5 2.9,0.8 0.4,-0.6 -0.3,-1.7 -1.6,-2.6 z m 3.3,7.9 c -0.4,0.3 -0.2,1 0.3,1.6 0.5,0.6 1.2,0.7 1.6,0.4 0.4,-0.4 0.2,-1.1 -0.3,-1.7 -0.6,-0.5 -1.3,-0.6 -1.6,-0.3 z m -11.2,-12.1 c -1.2,-1 -2.2,-1.7 -2.2,-1.6 -0.1,0 0.6,1.1 1.6,2.3 1,1.2 1.9,1.9 2.3,1.7 0.1,-0.4 -0.6,-1.4 -1.7,-2.4 z m 24.6,35.8 c -0.8,0.6 -1.2,1.6 -0.8,2.2 0.4,0.6 1.5,0.6 2.4,0 0.9,-0.7 1.2,-1.7 0.7,-2.3 -0.4,-0.6 -1.5,-0.5 -2.3,0.1 z m -7.8,-14.9 c -1,-1.1 -2.6,-1.4 -3.6,-0.7 -1,0.8 -1.2,2.3 -0.4,3.6 0.8,1.3 2.5,1.8 3.7,0.8 1.2,-0.8 1.3,-2.5 0.3,-3.7 z m -12,-13.2 c -0.5,-0.6 -1.1,-1 -1.3,-0.8 -0.2,0.2 -0.1,0.8 0.4,1.5 0.4,0.6 1,1 1.3,0.8 0.2,-0.3 0,-0.9 -0.4,-1.5 z m 9.7,23.9 c -0.8,0.4 -1.1,1.2 -0.8,1.9 0.3,0.7 1.3,0.9 2.1,0.5 0.8,-0.5 1.1,-1.4 0.7,-2 -0.3,-0.6 -1.2,-0.8 -2,-0.4 z m -6.2,-15.5 c -0.8,-1.3 -2.1,-2 -2.8,-1.5 -0.8,0.3 -0.9,1.8 -0.3,3.2 0.6,1.4 1.9,2.1 2.9,1.7 0.9,-0.6 1.1,-2.1 0.2,-3.4 z m -9.8,-15 c -0.4,-0.7 -0.8,-1.1 -0.8,-1.1 -0.1,0 0.1,0.6 0.4,1.3 0.3,0.7 0.7,1.2 0.9,1.2 0.1,-0.1 -0.1,-0.7 -0.5,-1.4 z m 7.8,24.4 c -0.6,0.2 -0.9,1 -0.7,1.7 0.2,0.7 1,1.1 1.6,0.9 0.7,-0.2 1,-1 0.7,-1.7 -0.2,-0.7 -1,-1.1 -1.6,-0.9 z m -4.6,-16 c -0.6,-1.4 -1.5,-2.3 -2,-2.2 -0.4,0.2 -0.5,1.5 -0.1,2.9 0.4,1.5 1.3,2.5 2,2.2 0.8,0 0.8,-1.5 0.1,-2.9 z m -1.4,8.4 c -0.4,0.2 -0.7,0.7 -0.6,1.5 0.1,0.7 0.7,1.4 1.2,1.2 0.5,-0.1 0.8,-0.8 0.6,-1.6 -0.3,-0.7 -0.8,-1.2 -1.2,-1.1 z m -3,-16.2 c -0.4,-1.5 -0.9,-2.7 -1,-2.6 -0.1,0 -0.1,1.2 0.1,2.8 0.2,1.5 0.6,2.7 1,2.6 0.4,-0.1 0.4,-1.3 -0.1,-2.8 z m -0.1,9.1 c -0.1,-0.8 -0.4,-1.3 -0.7,-1.3 -0.3,0 -0.5,0.6 -0.5,1.4 0,0.8 0.3,1.4 0.7,1.4 0.4,-0.1 0.6,-0.8 0.5,-1.5 z m -1.8,-8.9 c 0,-0.8 0,-1.4 -0.1,-1.4 -0.1,0 -0.2,0.6 -0.3,1.4 -0.1,0.8 0,1.3 0.1,1.3 0.2,0.1 0.3,-0.5 0.3,-1.3 z"
             id="path4856"
             inkscape:connector-curvature="0"
             style="fill:#fbfbfb" /></g><g
           id="g4862"><path
             d="m -146.021,395.021 c -0.9,-1.2 -1.8,-2.1 -2.1,-1.9 -0.3,0.3 0.4,1.3 1.4,2.4 1.1,1.1 2,1.9 2.1,1.8 0,0.1 -0.6,-1 -1.4,-2.3 z m -6.8,-6 c -1,-1.1 -2.3,-1.6 -2.8,-1 -0.6,0.5 0.1,1.8 1.3,2.7 1.2,0.9 2.4,1.3 2.8,1 0.3,-0.4 -0.3,-1.6 -1.3,-2.7 z m -8.4,-4.1 c -1.2,-1 -2.7,-1 -3.4,-0.1 -0.6,1 0,2.4 1.3,3.1 1.3,0.7 2.8,0.8 3.2,0 0.6,-0.6 0.1,-2 -1.1,-3 z m -9.6,-1.8 c -1.3,-0.8 -3,-0.4 -3.7,1 -0.7,1.3 0,2.9 1.4,3.5 1.4,0.5 2.9,0 3.5,-1.1 0.6,-1.1 0.1,-2.6 -1.2,-3.4 z m -10.3,0.7 c -1.4,-0.6 -3.1,0.3 -3.7,2.1 -0.5,1.8 0.3,3.6 1.8,3.9 1.5,0.3 3,-0.7 3.5,-2.2 0.5,-1.5 -0.2,-3.2 -1.6,-3.8 z m -10.5,3.3 c -1.4,-0.4 -3.2,1 -3.5,3.3 -0.4,2.2 0.6,4.2 2.2,4.3 1.5,0.1 2.9,-1.4 3.3,-3.4 0.2,-1.9 -0.5,-3.8 -2,-4.2 z m -10.2,6 c -1.5,-0.2 -2.9,1.8 -3.1,4.5 -0.1,2.7 1.3,4.7 2.8,4.6 1.6,-0.1 2.6,-2.1 2.7,-4.4 0.2,-2.4 -0.9,-4.5 -2.4,-4.7 z m -9.2,8.7 c -1.5,0 -2.8,2.5 -2.4,5.5 0.4,3 2,5.2 3.5,4.9 1.5,-0.3 2.3,-2.7 2,-5.5 -0.3,-2.8 -1.5,-5 -3.1,-4.9 z m 27.4,5 c -1.5,0.2 -2.5,1.9 -2,3.8 0.4,1.9 2.1,2.9 3.6,2.4 1.4,-0.5 2.1,-2.1 1.8,-3.7 -0.5,-1.7 -2,-2.8 -3.4,-2.5 z m -17.2,5.2 c -0.7,0.2 -1.1,1.3 -0.8,2.6 0.3,1.3 1.2,2.1 1.9,1.9 0.7,-0.2 1.1,-1.4 0.8,-2.5 -0.3,-1.3 -1.2,-2.1 -1.9,-2 z m 10.1,3.2 c -1.5,0.4 -2,2.6 -1.2,4.7 0.9,2.1 2.8,3.2 4.2,2.5 1.3,-0.7 1.7,-2.7 0.9,-4.6 -0.8,-1.9 -2.5,-3.1 -3.9,-2.6 z m 26.7,-5.2 c -1.4,0.6 -2.1,2 -1.5,3 0.5,1 2.1,1 3.3,0.1 1.2,-0.9 1.8,-2.2 1.4,-2.9 -0.4,-0.7 -1.8,-0.8 -3.2,-0.2 z m -15.3,9.3 c -0.7,0.4 -0.8,1.3 -0.4,2.1 0.5,0.8 1.4,1.1 2,0.7 0.6,-0.4 0.8,-1.3 0.4,-2.1 -0.5,-0.7 -1.4,-1 -2,-0.7 z m 9.6,-1.4 c -1.3,0.8 -1.6,2.5 -0.7,3.7 1,1.2 2.7,1.2 3.8,0.2 1.1,-1.1 1.3,-2.6 0.5,-3.6 -0.7,-1 -2.4,-1.1 -3.6,-0.3 z m 22.7,-14.4 c -1.1,1 -1.9,2.1 -1.6,2.3 0.3,0.3 1.3,-0.5 2.2,-1.7 0.9,-1.2 1.6,-2.2 1.6,-2.3 -0.2,0 -1.1,0.7 -2.2,1.7 z m -12.7,12.7 c -0.6,0.5 -0.7,1.2 -0.3,1.6 0.4,0.4 1.1,0.2 1.6,-0.4 0.5,-0.6 0.6,-1.3 0.3,-1.6 -0.3,-0.3 -1,-0.1 -1.6,0.4 z m 7.5,-5.2 c -1,1.2 -1.3,2.4 -0.7,2.9 0.6,0.4 1.8,-0.3 2.5,-1.6 0.8,-1.3 1,-2.6 0.6,-2.9 -0.2,-0.3 -1.4,0.4 -2.4,1.6 z m 6.6,-6.3 c -0.4,0.7 -0.6,1.3 -0.4,1.3 0.1,0.1 0.5,-0.4 0.8,-1.1 0.3,-0.7 0.5,-1.3 0.4,-1.3 0,-0.1 -0.4,0.5 -0.8,1.1 z m -8.3,4.5 c 0.6,-0.5 0.9,-1.1 0.7,-1.3 -0.2,-0.2 -0.8,-0.1 -1.4,0.4 -0.6,0.4 -0.9,1 -0.8,1.3 0.2,0.4 0.9,0.1 1.5,-0.4 z m 6.3,-6.4 c 0.6,-0.4 1.1,-0.8 1.1,-0.9 0,-0.1 -0.7,0.2 -1.3,0.5 -0.7,0.4 -1.1,0.7 -1.1,0.9 0.1,0.1 0.6,-0.1 1.3,-0.5 z m -24,8.7 c -0.2,-0.6 -1,-0.9 -1.7,-0.7 -0.7,0.3 -1.1,1 -0.9,1.7 0.3,0.7 1.1,0.9 1.8,0.6 0.7,-0.2 1,-1 0.8,-1.6 z m 15.7,-5.2 c 1.3,-0.7 2.3,-1.6 2.1,-2 -0.1,-0.5 -1.4,-0.5 -2.9,0 -1.5,0.4 -2.4,1.4 -2.2,2.1 0.3,0.6 1.7,0.6 3,-0.1 z m -8.4,-1.1 c -0.1,-0.5 -0.8,-0.7 -1.6,-0.5 -0.7,0.2 -1.2,0.7 -1.1,1.2 0.1,0.5 0.8,0.8 1.5,0.6 0.8,-0.3 1.3,-0.9 1.2,-1.3 z m 16.1,-3.6 c 1.4,-0.5 2.5,-1 2.6,-1.1 0,-0.1 -1.3,0 -2.8,0.2 -1.5,0.2 -2.7,0.7 -2.6,1.1 0.1,0.4 1.4,0.3 2.8,-0.2 z m -43.3,3.3 c -0.2,-1 -0.8,-1.8 -1.5,-1.8 -0.7,0 -1.4,1 -1.2,2.1 0.1,1.1 0.9,1.9 1.6,1.8 0.7,-0.1 1.2,-1.1 1.1,-2.1 z m 16.7,0.7 c 1.5,-0.3 2.6,-1.5 2.4,-2.8 -0.2,-1.2 -1.3,-2.2 -2.9,-2.2 -1.5,0 -2.8,1.3 -2.6,2.8 0.3,1.6 1.6,2.5 3.1,2.2 z m 17.5,-3.8 c 0.8,-0.1 1.3,-0.4 1.3,-0.7 -0.1,-0.3 -0.7,-0.5 -1.4,-0.4 -0.8,0 -1.4,0.4 -1.3,0.7 0,0.4 0.7,0.6 1.4,0.4 z m -25.5,-3.5 c 0.1,-0.8 -0.5,-1.6 -1.3,-1.6 -0.8,-0.1 -1.4,0.6 -1.5,1.5 -0.1,0.9 0.6,1.6 1.4,1.6 0.7,0.1 1.3,-0.6 1.4,-1.5 z m 16.5,2.4 c 1.5,-0.1 2.7,-0.9 2.7,-1.7 0.1,-0.9 -1.1,-1.7 -2.6,-1.9 -1.5,-0.2 -2.8,0.6 -2.9,1.7 -0.1,1.1 1.3,2 2.8,1.9 z m 17.8,-1 c 0.8,0 1.3,-0.1 1.4,-0.2 0,-0.1 -0.6,-0.2 -1.3,-0.3 -0.8,-0.1 -1.4,0 -1.4,0.2 -0.1,0.2 0.5,0.3 1.3,0.3 z m -24.9,-5.4 c 0.1,-0.6 -0.4,-1.3 -1.2,-1.5 -0.7,-0.2 -1.4,0.3 -1.6,1 -0.1,0.7 0.4,1.4 1.1,1.5 0.9,0 1.6,-0.4 1.7,-1 z m 16,3.9 c 1.5,0.1 2.8,-0.2 2.9,-0.6 0,-0.5 -1,-1.2 -2.5,-1.6 -1.4,-0.4 -2.9,-0.2 -2.9,0.6 -0.1,0.8 1,1.5 2.5,1.6 z m -6.5,-5.4 c 0.2,-0.4 -0.3,-1 -1,-1.3 -0.7,-0.3 -1.4,-0.1 -1.6,0.4 -0.2,0.5 0.3,1.1 1.1,1.3 0.7,0.2 1.3,0 1.5,-0.4 z m 15.6,5.6 c 1.5,0.3 2.7,0.6 2.7,0.4 0.1,-0.1 -1.1,-0.6 -2.5,-1.3 -1.4,-0.6 -2.6,-0.8 -2.8,-0.5 0,0.4 1.1,1 2.6,1.4 z m -7.9,-4.7 c 0.7,0.3 1.4,0.4 1.5,0.1 0.1,-0.2 -0.3,-0.8 -1,-1.1 -0.7,-0.4 -1.3,-0.4 -1.5,-0.1 -0.2,0.3 0.3,0.8 1,1.1 z m 8.6,3 c 0.6,0.4 1.2,0.7 1.2,0.6 0.1,-0.1 -0.4,-0.5 -1,-0.9 -0.6,-0.5 -1.2,-0.7 -1.3,-0.6 0,0.1 0.4,0.5 1.1,0.9 z"
             id="path4860"
             inkscape:connector-curvature="0"
             style="fill:#fbfbfb" /></g><g
           id="g4866"><path
             d="m -137.121,399.221 c 1.5,-0.1 2.6,-0.5 2.6,-0.9 0,-0.4 -1.4,-0.4 -2.8,0 -1.5,0.4 -2.6,0.7 -2.6,0.9 0,0.1 1.3,0.1 2.8,0 z m 8.5,-2.8 c 1.5,-0.3 2.6,-1.2 2.4,-1.9 -0.3,-0.7 -1.6,-0.8 -3,-0.2 -1.4,0.6 -2.5,1.4 -2.3,1.9 0.2,0.4 1.4,0.5 2.9,0.2 z m 7.8,-5.2 c 1.5,-0.5 2.3,-1.8 1.8,-2.8 -0.4,-1.1 -2,-1.2 -3.3,-0.4 -1.3,0.8 -2,2 -1.6,2.8 0.3,0.7 1.7,0.9 3.1,0.4 z m 6.3,-7.4 c 1.3,-0.7 1.8,-2.4 1,-3.7 -0.9,-1.2 -2.6,-1.4 -3.8,-0.5 -1.2,1 -1.6,2.5 -0.8,3.5 0.7,1.2 2.3,1.4 3.6,0.7 z m 4.6,-9.3 c 1.2,-0.9 1.3,-2.9 0,-4.3 -1.2,-1.4 -3.2,-1.6 -4.3,-0.5 -1,1.1 -0.9,2.9 0.2,4.1 1.1,1.3 2.9,1.6 4.1,0.7 z m 2.4,-10.7 c 1.1,-1.1 0.6,-3.2 -1.1,-4.7 -1.8,-1.4 -4,-1.5 -4.8,-0.3 -0.9,1.3 -0.3,3.2 1.3,4.5 1.5,1.3 3.5,1.6 4.6,0.5 z m -0.1,-11.8 c 0.9,-1.2 0,-3.5 -2.3,-4.9 -2.2,-1.4 -4.7,-1.3 -5.4,0.1 -0.7,1.3 0.5,3.3 2.5,4.6 2,1.2 4.3,1.4 5.2,0.2 z m -2.8,-12.4 c 0.7,-1.3 -0.8,-3.5 -3.6,-4.8 -2.8,-1.2 -5.5,-0.8 -6,0.6 -0.5,1.5 1.2,3.4 3.8,4.4 2.5,1.2 5,1.2 5.8,-0.2 z m -18.1,21.2 c 0.5,-1.4 -0.4,-3.2 -2.3,-3.6 -1.8,-0.5 -3.6,0.4 -3.8,1.9 -0.3,1.5 0.8,3 2.3,3.4 1.6,0.4 3.3,-0.2 3.8,-1.7 z m 4,-17.5 c 0.2,-0.7 -0.6,-1.6 -1.8,-2 -1.3,-0.3 -2.4,0 -2.6,0.7 -0.2,0.7 0.6,1.6 1.8,1.9 1.3,0.4 2.4,0.1 2.6,-0.6 z m -7.7,7.1 c 0.3,-1.5 -1.2,-3 -3.5,-3.4 -2.3,-0.3 -4.2,0.9 -4.2,2.4 -0.1,1.5 1.5,2.8 3.5,3.1 1.9,0.3 3.8,-0.6 4.2,-2.1 z m -8.9,25.8 c 0.1,-1.5 -0.7,-2.9 -1.8,-2.8 -1.1,0.1 -1.9,1.3 -1.8,2.8 0.1,1.5 1,2.7 1.8,2.7 0.8,-0.1 1.6,-1.1 1.8,-2.7 z m -0.4,-17.9 c 0,-0.8 -0.7,-1.4 -1.6,-1.4 -0.9,0 -1.6,0.7 -1.6,1.4 0,0.8 0.8,1.4 1.6,1.3 0.9,0 1.6,-0.5 1.6,-1.3 z m -3.6,9 c -0.1,-1.6 -1.4,-2.7 -2.9,-2.4 -1.5,0.2 -2.4,1.7 -2.1,3.2 0.4,1.5 1.6,2.4 2.9,2.3 1.2,-0.3 2.2,-1.6 2.1,-3.1 z m 1.1,26.8 c -0.3,-1.5 -0.8,-2.6 -1.2,-2.6 -0.3,0.2 -0.2,1.4 0.4,2.8 0.6,1.4 1.1,2.6 1.2,2.5 0,0.1 -0.1,-1.2 -0.4,-2.7 z m -4.7,-17.2 c -0.2,-0.7 -0.8,-1.2 -1.3,-1.1 -0.5,0.2 -0.7,0.9 -0.5,1.6 0.2,0.7 0.8,1.2 1.2,1 0.6,-0.1 0.8,-0.8 0.6,-1.5 z m 0.8,9.1 c -0.5,-1.4 -1.5,-2.4 -2.2,-2.1 -0.7,0.3 -0.6,1.6 0.2,3 0.7,1.3 1.7,2.2 2.1,2 0.4,-0.2 0.4,-1.5 -0.1,-2.9 z m 2.2,8.8 c -0.4,-0.7 -0.8,-1.1 -0.9,-1.1 -0.1,0.1 0.1,0.7 0.6,1.3 0.4,0.6 0.8,1 0.9,1 0.1,0 -0.2,-0.5 -0.6,-1.2 z m 0.1,-9.5 c 0.1,0.7 0.5,1.3 0.8,1.3 0.3,0 0.4,-0.7 0.4,-1.4 -0.1,-0.8 -0.4,-1.3 -0.8,-1.3 -0.3,0 -0.5,0.7 -0.4,1.4 z m 2.6,8.7 c 0,0.8 0.2,1.4 0.2,1.4 0.1,0 0.2,-0.6 0.2,-1.4 0,-0.8 -0.1,-1.4 -0.2,-1.4 -0.2,0.1 -0.3,0.7 -0.2,1.4 z m 4.4,-25.1 c 0.6,0.1 1.3,-0.4 1.4,-1.2 0.1,-0.7 -0.3,-1.4 -1,-1.6 -0.7,-0.2 -1.4,0.5 -1.4,1.2 -0.2,0.8 0.3,1.4 1,1.6 z m -3.3,16.2 c -0.1,1.6 0.3,2.7 0.8,2.8 0.5,0.1 1.1,-1.1 1.5,-2.6 0.3,-1.5 0,-2.7 -0.7,-2.9 -0.9,-0.1 -1.6,1.2 -1.6,2.7 z m 5.1,-6.7 c 0.4,0.1 1,-0.4 1.3,-1.1 0.2,-0.7 0,-1.4 -0.5,-1.5 -0.5,-0.1 -1.1,0.3 -1.2,1.1 -0.2,0.6 0,1.3 0.4,1.5 z m -4.9,15.7 c -0.3,1.5 -0.4,2.7 -0.3,2.8 0.1,0 0.6,-1.1 1.2,-2.5 0.5,-1.4 0.7,-2.8 0.3,-2.8 -0.4,-0.1 -0.9,1 -1.2,2.5 z m 18.8,-39.2 c 0.9,0.4 2,0.3 2.3,-0.4 0.3,-0.7 -0.2,-1.6 -1.2,-2.1 -1,-0.5 -2.1,-0.2 -2.4,0.5 -0.3,0.7 0.3,1.6 1.3,2 z m -9.1,14.2 c -0.5,1.5 0.1,2.9 1.2,3.4 1.1,0.6 2.6,-0.1 3.4,-1.4 0.7,-1.3 0.2,-3 -1.1,-3.6 -1.4,-0.6 -3,0.1 -3.5,1.6 z m -5.4,17 c -0.3,0.7 -0.3,1.3 0,1.5 0.2,0.1 0.7,-0.3 1.1,-1 0.3,-0.7 0.4,-1.4 0.1,-1.5 -0.4,-0.2 -0.9,0.3 -1.2,1 z m 15.8,-20.4 c 0.7,0.4 1.7,0.3 2.1,-0.3 0.4,-0.6 0.2,-1.5 -0.6,-2 -0.8,-0.5 -1.7,-0.3 -2.1,0.3 -0.4,0.7 -0.1,1.6 0.6,2 z m -10.3,13.1 c -0.7,1.3 -0.6,2.8 0.1,3.2 0.8,0.4 2,-0.1 3,-1.3 0.9,-1.2 1,-2.8 0,-3.4 -1,-0.5 -2.4,0.1 -3.1,1.5 z m -8.1,15.9 c -0.4,0.7 -0.6,1.3 -0.6,1.3 0.1,0 0.5,-0.4 0.9,-1.1 0.4,-0.6 0.7,-1.2 0.5,-1.3 0,0 -0.4,0.5 -0.8,1.1 z m 17.3,-18.8 c 0.5,0.5 1.3,0.4 1.8,-0.2 0.5,-0.6 0.5,-1.4 0,-1.9 -0.6,-0.4 -1.4,-0.3 -1.9,0.3 -0.5,0.6 -0.5,1.4 0.1,1.8 z m -11.6,11.9 c -0.9,1.2 -1.3,2.5 -0.9,2.8 0.3,0.4 1.5,-0.3 2.6,-1.3 1.1,-1.1 1.5,-2.3 0.9,-2.9 -0.5,-0.4 -1.7,0.2 -2.6,1.4 z m 8,-2.9 c 0.3,0.3 1,0.2 1.6,-0.2 0.6,-0.5 0.8,-1.2 0.4,-1.6 -0.4,-0.4 -1.1,-0.3 -1.6,0.2 -0.5,0.6 -0.7,1.3 -0.4,1.6 z m -12.6,10.7 c -1,1.1 -1.8,2 -1.7,2.2 0.1,0.1 1.1,-0.6 2.3,-1.5 1.2,-0.9 2,-1.9 1.8,-2.2 -0.2,-0.3 -1.3,0.4 -2.4,1.5 z m 8,-4.5 c -0.6,0.5 -1,1 -0.8,1.2 0.1,0.2 0.8,0.1 1.4,-0.3 0.6,-0.4 1,-1 0.9,-1.3 -0.3,-0.1 -0.9,0 -1.5,0.4 z m -6.8,6 c -0.7,0.4 -1.2,0.7 -1.2,0.8 0,0.1 0.6,-0.1 1.3,-0.4 0.7,-0.3 1.2,-0.6 1.1,-0.8 0,-0.2 -0.6,0 -1.2,0.4 z"
             id="path4864"
             inkscape:connector-curvature="0"
             style="fill:#fbfbfb" /></g></g></g></g><g
     id="logo__item--logo_0-copy"
     transform="matrix(1.00601,0,0,1.0448938,-2.4359796,-19.465261)"><g
       transform="matrix(0.57898382,0.43266395,-0.43266395,0.57898382,44.476894,-12.261579)"
       id="g4887"><g
         id="g4885"><g
           id="g4875"><path
             d="m 310.836,533.132 c -0.7,1.4 -0.9,2.6 -0.6,2.7 0.3,0.2 1,-1 1.4,-2.4 0.4,-1.5 0.6,-2.6 0.6,-2.7 -0.1,0 -0.7,1 -1.4,2.4 z m -1.9,8.8 c -0.5,1.4 -0.2,2.8 0.5,3 0.7,0.1 1.5,-1 1.7,-2.5 0.2,-1.5 0,-2.8 -0.5,-2.9 -0.4,-0.1 -1.2,1 -1.7,2.4 z m 0.7,9.3 c -0.2,1.5 0.4,2.9 1.6,2.9 1.1,0.1 2,-1.1 2,-2.7 0,-1.5 -0.7,-2.8 -1.6,-2.8 -0.9,0.1 -1.8,1.1 -2,2.6 z m 3.2,9.2 c 0,1.5 1.2,2.7 2.7,2.7 1.5,0 2.5,-1.6 2.3,-3 -0.2,-1.5 -1.4,-2.5 -2.7,-2.5 -1.2,0 -2.3,1.3 -2.3,2.8 z m 5.7,8.6 c 0.2,1.5 1.9,2.6 3.7,2.2 1.8,-0.4 3,-2 2.5,-3.5 -0.4,-1.5 -2.1,-2.3 -3.7,-1.9 -1.5,0.3 -2.6,1.6 -2.5,3.2 z m 8.1,7.5 c 0.4,1.5 2.5,2.2 4.6,1.4 2.2,-0.7 3.3,-2.7 2.7,-4 -0.6,-1.4 -2.6,-1.8 -4.5,-1.1 -1.9,0.6 -3.1,2.2 -2.8,3.7 z m 10.3,5.8 c 0.6,1.4 3,1.7 5.4,0.5 2.3,-1.3 3.5,-3.5 2.6,-4.8 -0.8,-1.3 -3.2,-1.3 -5.2,-0.1 -2.1,1 -3.3,3 -2.8,4.4 z m 12.2,3.7 c 0.8,1.3 3.6,1.1 6,-0.7 2.5,-1.8 3.5,-4.3 2.5,-5.5 -1,-1.1 -3.5,-0.6 -5.7,1 -2.3,1.7 -3.6,3.9 -2.8,5.2 z m -9.4,-26.2 c 1,1.2 2.9,1.1 4.3,-0.2 1.3,-1.4 1.4,-3.3 0.3,-4.3 -1.2,-1 -3,-0.8 -4.1,0.4 -1.2,1 -1.4,2.9 -0.5,4.1 z m 13.2,12.2 c 0.5,0.6 1.7,0.3 2.6,-0.5 0.9,-0.9 1.2,-2.1 0.6,-2.6 -0.6,-0.5 -1.7,-0.2 -2.5,0.7 -0.9,0.7 -1.2,1.8 -0.7,2.4 z m -2.3,-10.3 c 1.1,1 3.3,0.6 4.7,-1.3 1.4,-1.8 1.4,-4 0.1,-4.8 -1.3,-0.8 -3.2,-0.1 -4.4,1.5 -1.3,1.5 -1.6,3.5 -0.4,4.6 z m -17.8,-20.6 c 1.2,0.9 2.7,0.8 3.4,-0.2 0.5,-1 -0.2,-2.4 -1.6,-3 -1.4,-0.6 -2.8,-0.5 -3.2,0.3 -0.6,0.7 0.1,2 1.4,2.9 z m 15.6,8.6 c 0.6,0.4 1.6,0.1 2,-0.7 0.5,-0.8 0.2,-1.8 -0.5,-2.1 -0.7,-0.4 -1.5,0 -1.9,0.7 -0.4,0.8 -0.2,1.7 0.4,2.1 z m -6,-7.6 c 1.3,0.7 3.1,0.2 3.6,-1.3 0.5,-1.4 -0.2,-2.9 -1.7,-3.4 -1.4,-0.4 -3,0.2 -3.4,1.3 -0.4,1.3 0.1,2.7 1.5,3.4 z m -23.7,-12.4 c 1.4,0.5 2.6,0.6 2.8,0.2 0.1,-0.4 -1.1,-0.8 -2.6,-1.1 -1.5,-0.2 -2.7,-0.3 -2.7,-0.2 -0.2,0.1 1,0.6 2.5,1.1 z m 17.2,4.5 c 0.7,0.2 1.4,0 1.6,-0.6 0.2,-0.5 -0.4,-1.1 -1.1,-1.2 -0.8,-0.1 -1.4,0.1 -1.5,0.6 -0.2,0.5 0.3,1 1,1.2 z m -8.3,-3.8 c 1.5,0.3 2.9,-0.1 2.9,-0.9 0,-0.8 -1.1,-1.4 -2.7,-1.4 -1.5,0 -2.8,0.4 -2.8,0.9 0,0.5 1.1,1.1 2.6,1.4 z m -8.7,-2.5 c 0.8,0 1.4,-0.1 1.4,-0.3 0,-0.2 -0.6,-0.2 -1.3,-0.2 -0.8,0.1 -1.4,0.2 -1.4,0.3 -0.1,0.1 0.5,0.2 1.3,0.2 z m 8.1,4.8 c -0.7,-0.2 -1.4,-0.2 -1.5,0 -0.1,0.3 0.4,0.7 1.1,1 0.7,0.3 1.3,0.3 1.5,0 0.1,-0.3 -0.4,-0.7 -1.1,-1 z m -8.7,-2.2 c -0.7,-0.4 -1.2,-0.5 -1.3,-0.5 -0.1,0.1 0.4,0.5 1.1,0.9 0.6,0.4 1.2,0.6 1.3,0.5 0.1,-0.1 -0.5,-0.6 -1.1,-0.9 z m 19.5,16.4 c -0.4,0.5 -0.2,1.4 0.3,1.8 0.6,0.5 1.4,0.4 1.8,-0.2 0.4,-0.6 0.3,-1.4 -0.3,-1.8 -0.6,-0.4 -1.4,-0.3 -1.8,0.2 z m -12.4,-11 c -1.3,-0.8 -2.5,-1.1 -2.8,-0.8 -0.2,0.4 0.3,1.5 1.5,2.6 1.1,1 2.5,1.5 2.9,0.8 0.4,-0.6 -0.3,-1.7 -1.6,-2.6 z m 3.3,7.9 c -0.4,0.3 -0.2,1 0.3,1.6 0.5,0.6 1.2,0.7 1.6,0.4 0.4,-0.4 0.2,-1.1 -0.3,-1.7 -0.6,-0.5 -1.3,-0.6 -1.6,-0.3 z m -11.2,-12.1 c -1.2,-1 -2.2,-1.7 -2.2,-1.6 -0.1,0 0.6,1.1 1.6,2.3 1,1.2 1.9,1.9 2.3,1.7 0.1,-0.4 -0.6,-1.4 -1.7,-2.4 z m 24.6,35.8 c -0.8,0.6 -1.2,1.6 -0.8,2.2 0.4,0.6 1.5,0.6 2.4,0 0.9,-0.7 1.2,-1.7 0.7,-2.3 -0.4,-0.6 -1.5,-0.5 -2.3,0.1 z m -7.8,-14.9 c -1,-1.1 -2.6,-1.4 -3.6,-0.7 -1,0.8 -1.2,2.3 -0.4,3.6 0.8,1.3 2.5,1.8 3.7,0.8 1.2,-0.8 1.3,-2.5 0.3,-3.7 z m -12,-13.2 c -0.5,-0.6 -1.1,-1 -1.3,-0.8 -0.2,0.2 -0.1,0.8 0.4,1.5 0.4,0.6 1,1 1.3,0.8 0.2,-0.3 0,-0.9 -0.4,-1.5 z m 9.7,23.9 c -0.8,0.4 -1.1,1.2 -0.8,1.9 0.3,0.7 1.3,0.9 2.1,0.5 0.8,-0.5 1.1,-1.4 0.7,-2 -0.3,-0.6 -1.2,-0.8 -2,-0.4 z m -6.2,-15.5 c -0.8,-1.3 -2.1,-2 -2.8,-1.5 -0.8,0.3 -0.9,1.8 -0.3,3.2 0.6,1.4 1.9,2.1 2.9,1.7 0.9,-0.6 1.1,-2.1 0.2,-3.4 z m -9.8,-15 c -0.4,-0.7 -0.8,-1.1 -0.8,-1.1 -0.1,0 0.1,0.6 0.4,1.3 0.3,0.7 0.7,1.2 0.9,1.2 0.1,-0.1 -0.1,-0.7 -0.5,-1.4 z m 7.8,24.4 c -0.6,0.2 -0.9,1 -0.7,1.7 0.2,0.7 1,1.1 1.6,0.9 0.7,-0.2 1,-1 0.7,-1.7 -0.2,-0.7 -1,-1.1 -1.6,-0.9 z m -4.6,-16 c -0.6,-1.4 -1.5,-2.3 -2,-2.2 -0.4,0.2 -0.5,1.5 -0.1,2.9 0.4,1.5 1.3,2.5 2,2.2 0.8,0 0.8,-1.5 0.1,-2.9 z m -1.4,8.4 c -0.4,0.2 -0.7,0.7 -0.6,1.5 0.1,0.7 0.7,1.4 1.2,1.2 0.5,-0.1 0.8,-0.8 0.6,-1.6 -0.3,-0.7 -0.8,-1.2 -1.2,-1.1 z m -3,-16.2 c -0.4,-1.5 -0.9,-2.7 -1,-2.6 -0.1,0 -0.1,1.2 0.1,2.8 0.2,1.5 0.6,2.7 1,2.6 0.4,-0.1 0.4,-1.3 -0.1,-2.8 z m -0.1,9.1 c -0.1,-0.8 -0.4,-1.3 -0.7,-1.3 -0.3,0 -0.5,0.6 -0.5,1.4 0,0.8 0.3,1.4 0.7,1.4 0.4,-0.1 0.6,-0.8 0.5,-1.5 z m -1.8,-8.9 c 0,-0.8 0,-1.4 -0.1,-1.4 -0.1,0 -0.2,0.6 -0.3,1.4 -0.1,0.8 0,1.3 0.1,1.3 0.2,0.1 0.3,-0.5 0.3,-1.3 z"
             id="path4873"
             inkscape:connector-curvature="0"
             style="fill:#fbfbfb" /></g><g
           id="g4879"><path
             d="m 310.036,523.232 c -0.9,-1.2 -1.8,-2.1 -2.1,-1.9 -0.3,0.3 0.4,1.3 1.4,2.4 1.1,1.1 2,1.9 2.1,1.8 0,0.1 -0.6,-1 -1.4,-2.3 z m -6.8,-6 c -1,-1.1 -2.3,-1.6 -2.8,-1 -0.6,0.5 0.1,1.8 1.3,2.7 1.2,0.9 2.4,1.3 2.8,1 0.3,-0.4 -0.3,-1.6 -1.3,-2.7 z m -8.4,-4.1 c -1.2,-1 -2.7,-1 -3.4,-0.1 -0.6,1 0,2.4 1.3,3.1 1.3,0.7 2.8,0.8 3.2,0 0.6,-0.6 0.1,-2 -1.1,-3 z m -9.6,-1.8 c -1.3,-0.8 -3,-0.4 -3.7,1 -0.7,1.3 0,2.9 1.4,3.5 1.4,0.5 2.9,0 3.5,-1.1 0.6,-1.1 0.1,-2.6 -1.2,-3.4 z m -10.3,0.7 c -1.4,-0.6 -3.1,0.3 -3.7,2.1 -0.5,1.8 0.3,3.6 1.8,3.9 1.5,0.3 3,-0.7 3.5,-2.2 0.5,-1.5 -0.2,-3.2 -1.6,-3.8 z m -10.5,3.3 c -1.4,-0.4 -3.2,1 -3.5,3.3 -0.4,2.2 0.6,4.2 2.2,4.3 1.5,0.1 2.9,-1.4 3.3,-3.4 0.201,-1.9 -0.5,-3.8 -2,-4.2 z m -10.2,6 c -1.5,-0.2 -2.9,1.8 -3.1,4.5 -0.1,2.7 1.3,4.7 2.8,4.6 1.6,-0.1 2.6,-2.1 2.7,-4.4 0.2,-2.4 -0.9,-4.5 -2.4,-4.7 z m -9.2,8.7 c -1.5,0 -2.8,2.5 -2.4,5.5 0.4,3 2,5.2 3.5,4.9 1.5,-0.3 2.3,-2.7 2,-5.5 -0.299,-2.8 -1.5,-5 -3.1,-4.9 z m 27.4,5 c -1.5,0.2 -2.5,1.9 -2,3.8 0.4,1.9 2.1,2.9 3.6,2.4 1.4,-0.5 2.1,-2.1 1.8,-3.7 -0.5,-1.7 -2,-2.8 -3.4,-2.5 z m -17.2,5.2 c -0.7,0.2 -1.1,1.3 -0.8,2.6 0.3,1.3 1.2,2.1 1.9,1.9 0.7,-0.2 1.1,-1.4 0.8,-2.5 -0.3,-1.3 -1.2,-2.1 -1.9,-2 z m 10.1,3.2 c -1.5,0.4 -2,2.6 -1.2,4.7 0.9,2.1 2.8,3.2 4.2,2.5 1.3,-0.7 1.7,-2.7 0.9,-4.6 -0.8,-1.9 -2.5,-3.1 -3.9,-2.6 z m 26.7,-5.2 c -1.4,0.6 -2.1,2 -1.5,3 0.5,1 2.1,1 3.3,0.1 1.2,-0.9 1.8,-2.2 1.4,-2.9 -0.4,-0.7 -1.8,-0.8 -3.2,-0.2 z m -15.3,9.3 c -0.7,0.4 -0.8,1.3 -0.4,2.1 0.5,0.8 1.4,1.1 2,0.7 0.6,-0.4 0.8,-1.3 0.4,-2.1 -0.5,-0.7 -1.4,-1 -2,-0.7 z m 9.6,-1.4 c -1.3,0.8 -1.6,2.5 -0.7,3.7 1,1.2 2.7,1.2 3.8,0.2 1.1,-1.1 1.3,-2.6 0.5,-3.6 -0.7,-1 -2.4,-1.1 -3.6,-0.3 z m 22.7,-14.4 c -1.1,1 -1.9,2.1 -1.6,2.3 0.3,0.3 1.3,-0.5 2.2,-1.7 0.9,-1.2 1.6,-2.2 1.6,-2.3 -0.2,0 -1.1,0.7 -2.2,1.7 z m -12.7,12.7 c -0.6,0.5 -0.7,1.2 -0.3,1.6 0.4,0.4 1.1,0.2 1.6,-0.4 0.5,-0.6 0.6,-1.3 0.3,-1.6 -0.3,-0.3 -1,-0.1 -1.6,0.4 z m 7.5,-5.2 c -1,1.2 -1.3,2.4 -0.7,2.9 0.6,0.4 1.8,-0.3 2.5,-1.6 0.8,-1.3 1,-2.6 0.6,-2.9 -0.2,-0.3 -1.4,0.4 -2.4,1.6 z m 6.6,-6.3 c -0.4,0.7 -0.6,1.3 -0.4,1.3 0.1,0.1 0.5,-0.4 0.8,-1.1 0.3,-0.7 0.5,-1.3 0.4,-1.3 0,-0.1 -0.4,0.5 -0.8,1.1 z m -8.3,4.5 c 0.6,-0.5 0.9,-1.1 0.7,-1.3 -0.2,-0.2 -0.8,-0.1 -1.4,0.4 -0.6,0.4 -0.9,1 -0.8,1.3 0.2,0.4 0.9,0.1 1.5,-0.4 z m 6.3,-6.4 c 0.6,-0.4 1.1,-0.8 1.1,-0.9 0,-0.1 -0.7,0.2 -1.3,0.5 -0.7,0.4 -1.1,0.7 -1.1,0.9 0.1,0.1 0.6,-0.1 1.3,-0.5 z m -24,8.7 c -0.2,-0.6 -1,-0.9 -1.7,-0.7 -0.7,0.3 -1.1,1 -0.9,1.7 0.3,0.7 1.1,0.9 1.8,0.6 0.7,-0.2 1,-1 0.8,-1.6 z m 15.7,-5.2 c 1.3,-0.7 2.3,-1.6 2.1,-2 -0.1,-0.5 -1.4,-0.5 -2.9,0 -1.5,0.4 -2.4,1.4 -2.2,2.1 0.3,0.6 1.7,0.6 3,-0.1 z m -8.4,-1.1 c -0.1,-0.5 -0.8,-0.7 -1.6,-0.5 -0.7,0.2 -1.2,0.7 -1.1,1.2 0.1,0.5 0.8,0.8 1.5,0.6 0.8,-0.3 1.3,-0.9 1.2,-1.3 z m 16.1,-3.6 c 1.4,-0.5 2.5,-1 2.6,-1.1 0,-0.1 -1.3,0 -2.8,0.2 -1.5,0.2 -2.7,0.7 -2.6,1.1 0.1,0.4 1.4,0.3 2.8,-0.2 z m -43.3,3.3 c -0.2,-1 -0.8,-1.8 -1.5,-1.8 -0.7,0 -1.4,1 -1.2,2.1 0.1,1.1 0.9,1.9 1.6,1.8 0.7,-0.1 1.201,-1.1 1.1,-2.1 z m 16.7,0.7 c 1.5,-0.3 2.6,-1.5 2.4,-2.8 -0.2,-1.2 -1.3,-2.2 -2.9,-2.2 -1.5,0 -2.8,1.3 -2.6,2.8 0.3,1.6 1.6,2.5 3.1,2.2 z m 17.5,-3.8 c 0.8,-0.1 1.3,-0.4 1.3,-0.7 -0.1,-0.3 -0.7,-0.5 -1.4,-0.4 -0.8,0 -1.4,0.4 -1.3,0.7 0,0.4 0.7,0.6 1.4,0.4 z m -25.5,-3.5 c 0.1,-0.8 -0.5,-1.6 -1.3,-1.6 -0.8,-0.1 -1.4,0.6 -1.5,1.5 -0.1,0.9 0.6,1.6 1.4,1.6 0.7,0.1 1.301,-0.6 1.4,-1.5 z m 16.5,2.4 c 1.5,-0.1 2.7,-0.9 2.7,-1.7 0.1,-0.9 -1.1,-1.7 -2.6,-1.9 -1.5,-0.2 -2.8,0.6 -2.9,1.7 -0.1,1.1 1.3,2 2.8,1.9 z m 17.8,-1 c 0.8,0 1.3,-0.1 1.4,-0.2 0,-0.1 -0.6,-0.2 -1.3,-0.3 -0.8,-0.1 -1.4,0 -1.4,0.2 -0.1,0.2 0.5,0.3 1.3,0.3 z m -24.899,-5.4 c 0.1,-0.6 -0.4,-1.3 -1.2,-1.5 -0.7,-0.2 -1.4,0.3 -1.6,1 -0.1,0.7 0.4,1.4 1.1,1.5 0.899,0 1.599,-0.4 1.7,-1 z m 15.999,3.9 c 1.5,0.1 2.8,-0.2 2.9,-0.6 0,-0.5 -1,-1.2 -2.5,-1.6 -1.4,-0.4 -2.9,-0.2 -2.9,0.6 -0.1,0.8 1,1.5 2.5,1.6 z m -6.5,-5.4 c 0.2,-0.4 -0.3,-1 -1,-1.3 -0.7,-0.3 -1.4,-0.1 -1.6,0.4 -0.2,0.5 0.3,1.1 1.1,1.3 0.7,0.2 1.3,0 1.5,-0.4 z m 15.6,5.6 c 1.5,0.3 2.7,0.6 2.7,0.4 0.1,-0.1 -1.1,-0.6 -2.5,-1.3 -1.4,-0.6 -2.6,-0.8 -2.8,-0.5 0,0.4 1.1,1 2.6,1.4 z m -7.9,-4.7 c 0.7,0.3 1.4,0.4 1.5,0.1 0.1,-0.2 -0.3,-0.8 -1,-1.1 -0.7,-0.4 -1.3,-0.4 -1.5,-0.1 -0.2,0.3 0.3,0.8 1,1.1 z m 8.6,3 c 0.6,0.4 1.2,0.7 1.2,0.6 0.1,-0.1 -0.4,-0.5 -1,-0.9 -0.6,-0.5 -1.2,-0.7 -1.3,-0.6 0,0.1 0.4,0.5 1.1,0.9 z"
             id="path4877"
             inkscape:connector-curvature="0"
             style="fill:#fbfbfb" /></g><g
           id="g4883"><path
             d="m 318.936,527.432 c 1.5,-0.1 2.6,-0.5 2.6,-0.9 0,-0.4 -1.4,-0.4 -2.8,0 -1.5,0.4 -2.6,0.7 -2.6,0.9 0,0.1 1.3,0.1 2.8,0 z m 8.5,-2.8 c 1.5,-0.3 2.6,-1.2 2.4,-1.9 -0.3,-0.7 -1.6,-0.8 -3,-0.2 -1.4,0.6 -2.5,1.4 -2.3,1.9 0.2,0.4 1.4,0.5 2.9,0.2 z m 7.8,-5.2 c 1.5,-0.5 2.3,-1.8 1.8,-2.8 -0.4,-1.1 -2,-1.2 -3.3,-0.4 -1.3,0.8 -2,2 -1.6,2.8 0.3,0.7 1.7,0.9 3.1,0.4 z m 6.3,-7.4 c 1.3,-0.7 1.8,-2.4 1,-3.7 -0.9,-1.2 -2.6,-1.4 -3.8,-0.5 -1.2,1 -1.6,2.5 -0.8,3.5 0.7,1.2 2.3,1.4 3.6,0.7 z m 4.6,-9.3 c 1.2,-0.9 1.3,-2.9 0,-4.3 -1.2,-1.4 -3.2,-1.6 -4.3,-0.5 -1,1.1 -0.9,2.9 0.2,4.1 1.1,1.3 2.9,1.6 4.1,0.7 z m 2.4,-10.7 c 1.1,-1.1 0.6,-3.2 -1.1,-4.7 -1.8,-1.4 -4,-1.5 -4.8,-0.3 -0.9,1.3 -0.3,3.2 1.3,4.5 1.5,1.3 3.5,1.6 4.6,0.5 z m -0.1,-11.8 c 0.9,-1.2 0,-3.5 -2.3,-4.9 -2.2,-1.4 -4.7,-1.3 -5.4,0.1 -0.7,1.3 0.5,3.3 2.5,4.6 2,1.2 4.3,1.4 5.2,0.2 z m -2.8,-12.4 c 0.7,-1.3 -0.8,-3.5 -3.6,-4.8 -2.8,-1.2 -5.5,-0.8 -6,0.6 -0.5,1.5 1.2,3.4 3.8,4.4 2.5,1.2 5,1.2 5.8,-0.2 z m -18.1,21.2 c 0.5,-1.4 -0.4,-3.2 -2.3,-3.6 -1.8,-0.5 -3.6,0.4 -3.8,1.9 -0.3,1.5 0.8,3 2.3,3.4 1.6,0.4 3.3,-0.2 3.8,-1.7 z m 4,-17.5 c 0.2,-0.7 -0.6,-1.6 -1.8,-2 -1.3,-0.3 -2.4,0 -2.6,0.7 -0.2,0.7 0.6,1.6 1.8,1.9 1.3,0.4 2.4,0.1 2.6,-0.6 z m -7.7,7.1 c 0.3,-1.5 -1.2,-3 -3.5,-3.4 -2.3,-0.3 -4.2,0.9 -4.2,2.4 -0.1,1.5 1.5,2.8 3.5,3.1 1.9,0.3 3.8,-0.6 4.2,-2.1 z m -8.9,25.8 c 0.1,-1.5 -0.7,-2.9 -1.8,-2.8 -1.1,0.1 -1.9,1.3 -1.8,2.8 0.1,1.5 1,2.7 1.8,2.7 0.8,-0.1 1.6,-1.1 1.8,-2.7 z m -0.4,-17.9 c 0,-0.8 -0.7,-1.4 -1.6,-1.4 -0.9,0 -1.6,0.7 -1.6,1.4 0,0.8 0.8,1.4 1.6,1.3 0.9,0 1.6,-0.5 1.6,-1.3 z m -3.6,9 c -0.1,-1.6 -1.4,-2.7 -2.9,-2.4 -1.5,0.2 -2.4,1.7 -2.1,3.2 0.4,1.5 1.6,2.4 2.9,2.3 1.2,-0.3 2.2,-1.6 2.1,-3.1 z m 1.1,26.8 c -0.3,-1.5 -0.8,-2.6 -1.2,-2.6 -0.3,0.2 -0.2,1.4 0.4,2.8 0.6,1.4 1.1,2.6 1.2,2.5 0,0.1 -0.1,-1.2 -0.4,-2.7 z m -4.7,-17.2 c -0.2,-0.7 -0.8,-1.2 -1.3,-1.1 -0.5,0.2 -0.7,0.9 -0.5,1.6 0.2,0.7 0.8,1.2 1.2,1 0.6,-0.1 0.8,-0.8 0.6,-1.5 z m 0.8,9.1 c -0.5,-1.4 -1.5,-2.4 -2.2,-2.1 -0.7,0.3 -0.6,1.6 0.2,3 0.7,1.3 1.7,2.2 2.1,2 0.4,-0.2 0.4,-1.5 -0.1,-2.9 z m 2.2,8.8 c -0.4,-0.7 -0.8,-1.1 -0.9,-1.1 -0.1,0.1 0.1,0.7 0.6,1.3 0.4,0.6 0.8,1 0.9,1 0.1,0 -0.2,-0.5 -0.6,-1.2 z m 0.1,-9.5 c 0.1,0.7 0.5,1.3 0.8,1.3 0.3,0 0.4,-0.7 0.4,-1.4 -0.1,-0.8 -0.4,-1.3 -0.8,-1.3 -0.3,0 -0.5,0.7 -0.4,1.4 z m 2.6,8.7 c 0,0.8 0.2,1.4 0.2,1.4 0.1,0 0.2,-0.6 0.2,-1.4 0,-0.8 -0.1,-1.4 -0.2,-1.4 -0.2,0.1 -0.3,0.7 -0.2,1.4 z m 4.4,-25.1 c 0.6,0.1 1.3,-0.4 1.4,-1.2 0.1,-0.7 -0.3,-1.4 -1,-1.6 -0.7,-0.2 -1.4,0.5 -1.4,1.2 -0.2,0.8 0.3,1.4 1,1.6 z m -3.3,16.2 c -0.1,1.6 0.3,2.7 0.8,2.8 0.5,0.1 1.1,-1.1 1.5,-2.6 0.3,-1.5 0,-2.7 -0.7,-2.9 -0.9,-0.1 -1.6,1.2 -1.6,2.7 z m 5.1,-6.7 c 0.4,0.1 1,-0.4 1.3,-1.1 0.2,-0.7 0,-1.4 -0.5,-1.5 -0.5,-0.1 -1.1,0.3 -1.2,1.1 -0.2,0.6 0,1.3 0.4,1.5 z m -4.9,15.7 c -0.3,1.5 -0.4,2.7 -0.3,2.8 0.1,0 0.6,-1.1 1.2,-2.5 0.5,-1.4 0.7,-2.8 0.3,-2.8 -0.4,-0.1 -0.9,1 -1.2,2.5 z m 18.8,-39.2 c 0.9,0.4 2,0.3 2.3,-0.4 0.3,-0.7 -0.2,-1.6 -1.2,-2.1 -1,-0.5 -2.1,-0.2 -2.4,0.5 -0.3,0.7 0.3,1.6 1.3,2 z m -9.1,14.2 c -0.5,1.5 0.1,2.9 1.2,3.4 1.1,0.6 2.6,-0.1 3.4,-1.4 0.7,-1.3 0.2,-3 -1.1,-3.6 -1.4,-0.6 -3,0.1 -3.5,1.6 z m -5.4,17 c -0.3,0.7 -0.3,1.3 0,1.5 0.2,0.1 0.7,-0.3 1.1,-1 0.3,-0.7 0.4,-1.4 0.1,-1.5 -0.4,-0.2 -0.9,0.3 -1.2,1 z m 15.8,-20.4 c 0.7,0.4 1.7,0.3 2.1,-0.3 0.4,-0.6 0.2,-1.5 -0.6,-2 -0.8,-0.5 -1.7,-0.3 -2.1,0.3 -0.4,0.7 -0.1,1.6 0.6,2 z m -10.3,13.1 c -0.7,1.3 -0.6,2.8 0.1,3.2 0.8,0.4 2,-0.1 3,-1.3 0.9,-1.2 1,-2.8 0,-3.4 -1,-0.5 -2.4,0.1 -3.1,1.5 z m -8.1,15.9 c -0.4,0.7 -0.6,1.3 -0.6,1.3 0.1,0 0.5,-0.4 0.9,-1.1 0.4,-0.6 0.7,-1.2 0.5,-1.3 0,0 -0.4,0.5 -0.8,1.1 z m 17.3,-18.8 c 0.5,0.5 1.3,0.4 1.8,-0.2 0.5,-0.6 0.5,-1.4 0,-1.9 -0.6,-0.4 -1.4,-0.3 -1.9,0.3 -0.5,0.6 -0.5,1.4 0.1,1.8 z m -11.6,11.9 c -0.9,1.2 -1.3,2.5 -0.9,2.8 0.3,0.4 1.5,-0.3 2.6,-1.3 1.1,-1.1 1.5,-2.3 0.9,-2.9 -0.5,-0.4 -1.7,0.2 -2.6,1.4 z m 8,-2.9 c 0.3,0.3 1,0.2 1.6,-0.2 0.6,-0.5 0.8,-1.2 0.4,-1.6 -0.4,-0.4 -1.1,-0.3 -1.6,0.2 -0.5,0.6 -0.7,1.3 -0.4,1.6 z m -12.6,10.7 c -1,1.1 -1.8,2 -1.7,2.2 0.1,0.1 1.1,-0.6 2.3,-1.5 1.2,-0.9 2,-1.9 1.8,-2.2 -0.2,-0.3 -1.3,0.4 -2.4,1.5 z m 8,-4.5 c -0.6,0.5 -1,1 -0.8,1.2 0.1,0.2 0.8,0.1 1.4,-0.3 0.6,-0.4 1,-1 0.9,-1.3 -0.3,-0.1 -0.9,0 -1.5,0.4 z m -6.8,6 c -0.7,0.4 -1.2,0.7 -1.2,0.8 0,0.1 0.6,-0.1 1.3,-0.4 0.7,-0.3 1.2,-0.6 1.1,-0.8 0,-0.2 -0.6,0 -1.2,0.4 z"
             id="path4881"
             inkscape:connector-curvature="0"
             style="fill:#fbfbfb" /></g></g></g></g></svg>
