<?xml version="1.0" encoding="utf-8"?>
<!-- Generator: Adobe Illustrator 13.0.2, SVG Export Plug-In . SVG Version: 6.00 Build 14948)  -->
<!DOCTYPE svg PUBLIC "-//W3C//DTD SVG 1.1//EN" "http://www.w3.org/Graphics/SVG/1.1/DTD/svg11.dtd">
<svg version="1.1" id="Layer_1" xmlns="http://www.w3.org/2000/svg" xmlns:xlink="http://www.w3.org/1999/xlink" x="0px" y="0px"
	 width="160px" height="168px" viewBox="72 0 161 168" >
<g id="Areon_Nature">
	<g display="inline">
		<g>
			<path d="M158.059,14.54c0.094,0,0.059,0.209,0.17,0.16c0.908-0.516,1.91-3.937,3.254-3.518c0.522,0.147,0.287,1.018,0.522,1.372
				c0.449,0.152,0.874-0.801,0.69-1.615c-0.146-0.576-0.76-0.832-1.307-0.68c-1.344,0.354-2.488,3.07-3.291,4.138
				C158.074,14.404,158.047,14.451,158.059,14.54 M134.594,156.217c2.858-0.107,5.879,0.686,8.167,1.518
				c0.821,0.301,1.56,0.811,2.354,0.723c-0.016-0.139,0.078-0.166,0.068-0.299c-5.356-3.042-16.752-3.945-21.584,0.23
				c1.309-0.497,2.131-1.33,3.874-1.518c2.125-0.225,3.45,0.492,4.712,1.223c0.979,0.567,1.806,1.405,2.622,1.808
				c2.22,1.024,3.892-1.209,2.34-2.735C136.56,156.549,135.576,156.544,134.594,156.217 M147.242,156.549
				c-0.387-0.125-0.686,0.545-0.952,0.929c-0.272,0.407-0.581,0.754-0.858,1.144c-0.403,0.563-1.059,1.997-1.78,1.149
				c-0.136-0.151-0.193-0.911-0.382-1.07c-0.393-0.313-0.707,0.442-0.607,1.312c0.293,0.826,0.921,1.146,1.686,0.762
				c0.748-0.365,1.701-2.191,2.334-3.146C146.92,157.266,147.252,157.075,147.242,156.549 M170.441,14.87
				c-2.854,0.125-5.869-0.686-8.162-1.513c-0.821-0.285-1.569-0.793-2.36-0.707c0.017,0.131-0.075,0.15-0.056,0.288
				c5.339,3.055,16.742,3.945,21.574-0.23c-1.311,0.498-2.129,1.33-3.863,1.52c-2.131,0.225-3.463-0.487-4.715-1.221
				c-0.982-0.569-1.815-1.409-2.625-1.801c-2.226-1.034-3.901,1.204-2.348,2.733C168.479,14.535,169.458,14.54,170.441,14.87
				 M85.175,16.991c-1.052,1.423-2.073,2.971-2.893,4.902c0.547-0.685,0.998-1.638,1.552-2.458c1.607-2.372,3.581-4.665,5.753-5.892
				c0.565-0.322,1.22-0.743,1.817-0.992c4.57-1.954,9.852-0.783,14.527,0.688c2.319,0.717,4.711,1.298,7.052,1.979
				c2.34,0.696,4.686,1.719,6.968,2.238c5,1.107,10.376,1.316,15.438,1.369c4.722,0.047,8.722-1.34,12.279-3.45
				c0.484-0.267,1.12-1.071,1.477-1.071c0.545,0,1.369,0.882,1.644,1.382c-0.417,1.024-1.283,1.013-1.813,0.694
				c-0.393-0.246-0.684-0.89-1.031-0.772c0,0.513,0.367,0.887,0.688,1.149c0.814,0.707,2.277,0.66,3.031,0
				c0.484,0.419,0.634,1.431,1.076,1.911c0.123-0.608,0.273-1.812,0.734-1.911c0.271-0.058,0.664,0.445,0.953,0.54
				c1.359,0.436,2.495-0.728,3.295-1.921c7.6,4.505,18.086,4.583,27.113,2.45c0.646-0.146,1.286-0.354,1.945-0.528
				c4.801-1.359,9.308-2.809,14.189-3.898c1.377-0.324,2.77-0.733,4.152-0.926c1.402-0.183,2.838-0.526,4.188-0.458
				c1.478,0.089,2.918,0.636,4.24,1.228c3.659,1.654,6.689,4.36,8.963,8.339c0.196,0.356,0.332,0.936,0.646,1.073
				c-0.266-1.107-0.846-1.979-1.332-2.759c-2.688-4.104-5.588-7.064-9.664-8.713c-5.818-2.374-12.493-0.646-18.197,1.063
				c-4.156,1.235-8.255,2.436-12.367,3.439c-6.156,1.5-13.099,3.271-19.433,1.16c-0.992-0.345-1.992-0.793-2.944-1.238
				c-0.916-0.416-1.846-0.892-2.642-1.751c0.142-0.615,0.782-1.128,0.653-1.688c-0.481-0.505-0.377,0.481-0.524,0.845
				c-0.179,0.466-0.774,0.862-1.16,1.155c-0.479,0.34-0.976,0.688-1.424,0.753c-0.165-0.471-0.278-0.895-0.215-1.61
				c0.251-2.947,2.772-2.251,4.052-1.604c0.467,0.238,1.027,1,1.301,0.309c-0.373-0.513-0.957-0.811-1.518-1.076
				c-0.846-0.408-1.768-0.903-2.891-0.678c-0.42,0.074-0.908,0.678-1.304,0.605c-0.364-0.076-0.567-0.861-0.899-0.846
				c-0.303,0.141-0.563,0.979-0.992,1.002c-0.243,0-0.537-0.395-0.822-0.539c-1.131-0.568-2.497,0.021-3.379,0.539
				c-0.453,0.259-1.012,0.471-1.254,1.144c0.335,0.11,0.715-0.435,1.168-0.689c0.402-0.224,0.924-0.397,1.387-0.453
				c1.631-0.238,3.285,1.448,2.459,3.896c-0.705-0.753-2.48-0.749-2.723-2.141c-0.059-0.359,0.061-0.759,0-0.919
				c-0.249-0.044-0.354,0.181-0.553,0.241c-0.017,0.728,0.658,1.306,0.686,1.979c-2.503,2.039-5.771,3.274-9.041,3.672
				c-2.534,0.314-5.172-0.136-7.743-0.524c-2.513-0.392-4.983-0.895-7.397-1.62c-2.377-0.707-4.785-1.146-7.224-1.908
				c-4.696-1.474-9.371-3.123-14.486-3.756c-2.706-0.33-5.135-0.646-7.617,0c-1.183,0.316-2.266,0.746-3.324,1.312
				c-1.073,0.549-2.162,1.453-3.031,2.057C87.458,14.218,86.233,15.551,85.175,16.991 M156.027,14.169
				c0.504-0.053,1.004,0.724,1.377,1.143c-0.61,0.906-2.207,1.795-2.887,0.376C154.634,15.284,155.666,14.2,156.027,14.169
				 M153.257,11.255c0.075,1.076-0.356,0.992-0.519,1.987c-0.232,1.39,0.419,2.104,0.396,2.989c-0.053,1.134-0.812,0.893-0.997,0
				c0-0.813,0.366-1.334,0.43-2.063c0.093-1.241-0.404-1.908-0.564-2.914C152.294,10.554,152.984,10.486,153.257,11.255
				 M162.005,158.551c-0.235,0.354,0,1.22-0.522,1.369c-1.344,0.419-2.346-3.02-3.254-3.515c-0.109-0.063-0.076,0.144-0.17,0.144
				c-0.009,0.1,0.017,0.149,0.041,0.156c0.801,1.053,1.947,3.775,3.291,4.131c0.547,0.158,1.162-0.104,1.301-0.682
				C162.881,159.35,162.455,158.385,162.005,158.551 M145.185,12.938c0.008-0.138-0.084-0.157-0.068-0.288
				c-0.796-0.086-1.534,0.421-2.355,0.707c-2.288,0.828-5.309,1.639-8.167,1.513c0.982-0.33,1.966-0.335,2.555-0.932
				c1.552-1.529-0.121-3.769-2.34-2.733c-0.816,0.39-1.644,1.23-2.622,1.801c-1.262,0.732-2.586,1.444-4.712,1.221
				c-1.743-0.188-2.565-1.021-3.874-1.52C128.433,16.885,139.829,15.993,145.185,12.938 M221.811,151.204
				c0.504-0.777,1.086-1.659,1.352-2.765c-0.313,0.146-0.449,0.713-0.645,1.066c-2.273,3.973-5.307,6.695-8.965,8.357
				c-1.322,0.59-2.766,1.129-4.238,1.217c-1.354,0.069-2.787-0.271-4.189-0.463c-1.387-0.186-2.775-0.6-4.152-0.913
				c-4.884-1.097-9.391-2.542-14.189-3.913c-0.66-0.184-1.297-0.377-1.946-0.531c-9.024-2.121-19.515-2.053-27.114,2.455
				c-0.799-1.189-1.935-2.359-3.295-1.924c-0.287,0.104-0.681,0.594-0.953,0.544c-0.461-0.099-0.605-1.301-0.731-1.915
				c-0.444,0.494-0.593,1.505-1.078,1.915c-0.754-0.667-2.215-0.709-3.031,0c-0.317,0.271-0.687,0.649-0.687,1.146
				c0.349,0.135,0.64-0.521,1.031-0.766c0.527-0.312,1.396-0.34,1.813,0.693c-0.271,0.495-1.098,1.385-1.643,1.377
				c-0.355,0-1.004-0.801-1.478-1.07c-3.557-2.105-7.557-3.5-12.279-3.439c-5.062,0.043-10.438,0.248-15.438,1.369
				c-2.282,0.516-4.627,1.547-6.968,2.219c-2.34,0.686-4.732,1.271-7.052,2.002c-4.675,1.461-9.957,2.641-14.527,0.686
				c-0.597-0.262-1.251-0.666-1.817-0.994c-2.172-1.225-4.146-3.52-5.75-5.896c-0.558-0.815-1.008-1.774-1.555-2.457
				c0.819,1.938,1.843,3.474,2.893,4.905c1.058,1.438,2.283,2.767,3.591,3.672c0.869,0.605,1.958,1.511,3.031,2.073
				c1.058,0.558,2.142,0.981,3.324,1.296c2.482,0.644,4.911,0.334,7.617,0c5.104-0.629,9.79-2.271,14.486-3.752
				c2.439-0.766,4.842-1.193,7.224-1.916c2.414-0.721,4.884-1.214,7.397-1.601c2.571-0.405,5.209-0.853,7.743-0.547
				c3.272,0.413,6.538,1.651,9.041,3.678c-0.03,0.683-0.7,1.253-0.687,1.981c0.199,0.06,0.305,0.282,0.554,0.245
				c0.049-0.167-0.056-0.563,0-0.918c0.233-1.397,2.019-1.385,2.722-2.139c0.83,2.437-0.824,4.128-2.457,3.906
				c-0.464-0.081-0.984-0.236-1.388-0.474c-0.453-0.246-0.833-0.796-1.168-0.693c0.233,0.69,0.801,0.896,1.254,1.167
				c0.882,0.5,2.248,1.078,3.379,0.525c0.272-0.148,0.582-0.546,0.822-0.525c0.429,0.003,0.69,0.84,0.991,0.981
				c0.332,0.016,0.537-0.771,0.9-0.84c0.395-0.078,0.885,0.533,1.303,0.604c1.123,0.228,2.045-0.264,2.892-0.682
				c0.56-0.263,1.144-0.563,1.519-1.072c-0.271-0.695-0.836,0.069-1.302,0.32c-1.278,0.636-3.806,1.33-4.052-1.623
				c-0.063-0.704,0.05-1.133,0.21-1.597c0.454,0.06,0.952,0.401,1.433,0.754c0.381,0.288,0.98,0.687,1.156,1.155
				c0.148,0.353,0.043,1.345,0.525,0.83c0.131-0.559-0.514-1.059-0.654-1.668c0.796-0.877,1.725-1.359,2.645-1.773
				c0.949-0.439,1.949-0.891,2.941-1.214c6.334-2.12,13.275-0.354,19.434,1.144c4.111,1.003,8.211,2.196,12.367,3.442
				c5.703,1.712,12.379,3.437,18.196,1.065C216.241,158.264,219.141,155.313,221.811,151.204 M153.257,159.853
				c-0.272,0.764-0.963,0.694-1.257,0c0.16-1.018,0.66-1.673,0.564-2.916c-0.063-0.733-0.428-1.251-0.428-2.071
				c0.186-0.896,0.945-1.133,1,0c0.02,0.886-0.633,1.608-0.398,3C152.9,158.853,153.333,158.756,153.257,159.853 M156.027,156.937
				c-0.361-0.036-1.395-1.128-1.523-1.526c0.693-1.418,2.293-0.529,2.9,0.375C157.031,156.209,156.535,156.98,156.027,156.937
				 M159.854,158.156c-0.01,0.133,0.082,0.16,0.067,0.299c0.788,0.088,1.536-0.422,2.358-0.723c2.293-0.832,5.311-1.625,8.16-1.518
				c-0.979,0.327-1.959,0.332-2.563,0.947c-1.542,1.526,0.136,3.762,2.356,2.735c0.813-0.4,1.646-1.238,2.627-1.808
				c1.25-0.729,2.584-1.445,4.713-1.223c1.736,0.187,2.556,1.02,3.863,1.516C176.605,154.211,165.202,155.114,159.854,158.156
				 M143.266,12.396c0.191-0.165,0.249-0.919,0.385-1.065c0.72-0.856,1.377,0.582,1.78,1.144c0.277,0.395,0.586,0.749,0.858,1.146
				c0.268,0.387,0.564,1.047,0.952,0.921c0.011-0.513-0.321-0.722-0.56-1.063c-0.636-0.953-1.587-2.774-2.335-3.143
				c-0.765-0.393-1.377-0.076-1.686,0.769C142.559,11.949,142.876,12.708,143.266,12.396 M79.676,116.847
				c3.872-5.204,3.037-17.451,0.186-23.205c-0.11-0.015-0.131,0.095-0.254,0.074c-0.089,0.853,0.395,1.646,0.663,2.526
				c0.771,2.471,1.512,5.711,1.408,8.774c-0.314-1.052-0.319-2.11-0.879-2.743c-1.416-1.668-3.502,0.141-2.539,2.525
				c0.359,0.869,1.144,1.764,1.683,2.822c0.675,1.344,1.337,2.771,1.133,5.049C80.903,114.549,80.126,115.443,79.676,116.847
				 M224.07,79.802c0.078,0.013,0.136-0.008,0.136-0.044c0.983-0.856,3.526-2.087,3.854-3.532c0.14-0.578-0.101-1.242-0.645-1.395
				c-0.764-0.203-1.652,0.27-1.503,0.738c0.333,0.257,1.146,0,1.288,0.561c0.382,1.45-2.805,2.518-3.285,3.479
				C223.868,79.746,224.07,79.711,224.07,79.802 M227.173,104.802c0.958-2.387-1.116-4.193-2.541-2.525
				c-0.563,0.633-0.567,1.691-0.868,2.743c-0.119-3.063,0.635-6.306,1.399-8.774c0.272-0.883,0.743-1.676,0.675-2.526
				c-0.136,0.021-0.154-0.089-0.279-0.074c-2.834,5.754-3.668,18.001,0.205,23.205c-0.453-1.403-1.229-2.3-1.406-4.175
				c-0.209-2.275,0.449-3.705,1.146-5.049C226.027,106.564,226.813,105.672,227.173,104.802 M80.44,153.393
				c-0.293-0.618-0.688-1.313-0.927-1.953c-1.817-4.913-0.725-10.588,0.642-15.613c0.675-2.5,1.204-5.063,1.848-7.578
				c0.644-2.523,1.586-5.041,2.068-7.483c1.052-5.387,1.243-11.153,1.296-16.59c0.023-5.076-1.262-9.392-3.22-13.213
				c-0.265-0.503-0.992-1.194-0.998-1.571c-0.005-0.582,0.812-1.468,1.291-1.772c0.95,0.442,0.929,1.377,0.636,1.953
				c-0.22,0.427-0.833,0.73-0.705,1.117c0.458,0,0.812-0.405,1.061-0.745c0.654-0.872,0.625-2.456,0-3.262
				c0.382-0.516,1.322-0.684,1.78-1.152c-0.576-0.139-1.688-0.298-1.78-0.798c-0.058-0.294,0.406-0.698,0.497-1.021
				c0.422-1.461-0.686-2.686-1.782-3.526c4.19-8.188,4.264-19.456,2.279-29.146c-0.138-0.707-0.321-1.408-0.497-2.097
				c-1.267-5.154-2.607-10.007-3.633-15.247c-0.28-1.478-0.675-2.979-0.859-4.46c-0.167-1.513-0.492-3.063-0.429-4.51
				c0.079-1.589,0.6-3.146,1.147-4.559c1.539-3.937,4.067-7.185,7.758-9.612c0.335-0.219,0.867-0.369,1.005-0.709
				c-1.036,0.288-1.842,0.898-2.575,1.442c-3.822,2.88-6.575,6-8.109,10.366c-2.198,6.261-0.602,13.443,0.995,19.574
				c1.152,4.45,2.267,8.853,3.212,13.289c1.398,6.604,3.036,14.059,1.065,20.883c-0.319,1.07-0.725,2.115-1.134,3.16
				c-0.395,0.976-0.84,1.979-1.644,2.828c-0.573-0.143-1.049-0.839-1.57-0.695c-0.472,0.51,0.463,0.41,0.785,0.56
				c0.429,0.191,0.812,0.833,1.065,1.251c0.324,0.513,0.659,1.055,0.715,1.542c-0.438,0.168-0.841,0.274-1.495,0.228
				c-2.753-0.27-2.1-2.984-1.502-4.382c0.227-0.489,0.95-1.099,0.282-1.387c-0.458,0.416-0.743,1.031-0.992,1.625
				c-0.385,0.914-0.851,1.919-0.633,3.115c0.07,0.458,0.633,0.989,0.564,1.396c-0.067,0.402-0.809,0.622-0.787,0.97
				c0.12,0.333,0.911,0.62,0.926,1.071c0.005,0.256-0.369,0.573-0.5,0.887c-0.518,1.223,0.023,2.688,0.5,3.631
				c0.241,0.484,0.445,1.094,1.071,1.348c0.097-0.355-0.401-0.773-0.646-1.251c-0.209-0.438-0.364-0.99-0.424-1.487
				c-0.212-1.754,1.351-3.533,3.636-2.654c-0.709,0.771-0.696,2.668-1.992,2.927c-0.34,0.068-0.704-0.056-0.859,0
				c-0.037,0.28,0.162,0.392,0.218,0.609c0.683,0.008,1.217-0.722,1.85-0.745c1.89,2.697,3.05,6.188,3.414,9.724
				c0.298,2.717-0.125,5.549-0.487,8.313c-0.369,2.698-0.837,5.358-1.495,7.949c-0.672,2.555-1.076,5.141-1.792,7.756
				c-1.367,5.055-2.903,10.08-3.484,15.566c-0.312,2.906-0.607,5.521,0,8.188c0.291,1.272,0.696,2.435,1.207,3.589
				c0.524,1.141,1.374,2.306,1.926,3.242c0.833,1.414,2.081,2.723,3.414,3.859c1.33,1.125,2.769,2.238,4.56,3.112
				c-0.633-0.595-1.519-1.079-2.275-1.687C83.722,157.853,81.573,155.717,80.44,153.393 M81.008,81.988
				c-0.047-0.536,0.681-1.075,1.076-1.479c0.84,0.657,1.678,2.377,0.356,3.115C82.061,83.5,81.047,82.387,81.008,81.988
				 M81.008,85.705c-1.146-0.107-1.762,0.44-2.707,0.605c-0.646-0.313-0.715-1.052,0-1.346c1.013-0.091,0.926,0.383,1.854,0.563
				c1.301,0.252,1.958-0.458,2.779-0.418c1.058,0.044,0.835,0.866,0,1.076C82.176,86.166,81.697,85.779,81.008,85.705
				 M227.977,94.548c-0.34-0.79-2.026-1.835-2.904-2.516c-0.331-0.254-0.525-0.618-1.002-0.604c-0.115,0.41,0.496,0.738,0.865,1.025
				c0.363,0.299,0.685,0.626,1.057,0.938c0.527,0.427,1.865,1.116,1.068,1.895c-0.154,0.14-0.842,0.197-0.996,0.414
				c-0.301,0.419,0.418,0.76,1.205,0.654C228.047,96.032,228.361,95.361,227.977,94.548 M225.764,54.683
				c-3.873,5.188-3.039,17.454-0.205,23.192c0.125,0.008,0.146-0.089,0.279-0.066c0.068-0.853-0.402-1.664-0.675-2.531
				c-0.765-2.479-1.519-5.717-1.399-8.779c0.301,1.063,0.307,2.104,0.868,2.758c1.425,1.66,3.499-0.131,2.541-2.526
				c-0.36-0.877-1.146-1.777-1.672-2.832c-0.694-1.353-1.354-2.771-1.146-5.062C224.533,56.96,225.311,56.091,225.764,54.683
				 M77.454,94.548c-0.364,0.813-0.058,1.484,0.707,1.808c0.799,0.104,1.516-0.235,1.215-0.654c-0.157-0.217-0.854-0.274-1-0.414
				c-0.788-0.776,0.544-1.468,1.063-1.895c0.375-0.313,0.709-0.641,1.073-0.938c0.356-0.287,0.969-0.615,0.848-1.024
				c-0.466-0.015-0.665,0.352-0.987,0.604C79.485,92.713,77.794,93.758,77.454,94.548 M78.26,66.729
				c-0.963,2.396,1.123,4.188,2.539,2.526c0.56-0.652,0.565-1.694,0.879-2.758c0.104,3.063-0.636,6.302-1.408,8.779
				c-0.268,0.867-0.752,1.681-0.663,2.531c0.123-0.021,0.144,0.074,0.254,0.066c2.851-5.74,3.686-18.006-0.186-23.192
				c0.451,1.407,1.228,2.275,1.4,4.152c0.204,2.29-0.458,3.709-1.133,5.062C79.404,64.951,78.619,65.852,78.26,66.729
				 M77.383,76.225c0.327,1.445,2.866,2.676,3.839,3.532c0.011,0.036,0.058,0.057,0.136,0.044c0.005-0.092,0.204-0.057,0.152-0.191
				c-0.469-0.963-3.657-2.028-3.277-3.479c0.16-0.561,0.953-0.304,1.28-0.561c0.162-0.471-0.738-0.941-1.497-0.738
				C77.475,74.982,77.247,75.646,77.383,76.225 M228.35,139.252c-0.601-5.486-2.123-10.514-3.494-15.566
				c-0.719-2.615-1.121-5.201-1.789-7.758c-0.668-2.589-1.127-5.251-1.487-7.947c-0.369-2.767-0.791-5.599-0.503-8.313
				c0.38-3.534,1.527-7.024,3.432-9.724c0.62,0.023,1.159,0.753,1.842,0.745c0.057-0.222,0.239-0.329,0.229-0.609
				c-0.152-0.056-0.534,0.068-0.867,0c-1.29-0.259-1.29-2.154-2-2.927c2.283-0.879,3.85,0.898,3.643,2.654
				c-0.059,0.495-0.211,1.05-0.424,1.487c-0.25,0.478-0.738,0.896-0.652,1.251c0.635-0.254,0.839-0.861,1.076-1.348
				c0.479-0.942,1.019-2.408,0.494-3.631c-0.132-0.313-0.506-0.631-0.494-0.887c0.017-0.451,0.789-0.738,0.924-1.071
				c0.025-0.35-0.717-0.565-0.784-0.97c-0.062-0.404,0.487-0.938,0.571-1.396c0.213-1.196-0.254-2.201-0.644-3.115
				c-0.243-0.594-0.521-1.209-0.991-1.625c-0.662,0.288,0.057,0.896,0.284,1.387c0.604,1.396,1.251,4.112-1.503,4.382
				c-0.662,0.049-1.061-0.06-1.5-0.228c0.063-0.487,0.391-1.029,0.723-1.542c0.26-0.418,0.644-1.06,1.063-1.251
				c0.332-0.147,1.266-0.05,0.781-0.56c-0.524-0.144-0.98,0.555-1.557,0.694c-0.813-0.851-1.242-1.854-1.65-2.827
				c-0.401-1.045-0.813-2.091-1.133-3.16c-1.972-6.824-0.328-14.278,1.076-20.883c0.924-4.438,2.039-8.841,3.2-13.289
				c1.593-6.13,3.201-13.313,0.992-19.574c-1.537-4.366-4.285-7.486-8.117-10.366c-0.722-0.544-1.539-1.154-2.565-1.444
				c0.139,0.342,0.662,0.492,0.996,0.709c3.694,2.431,6.233,5.679,7.775,9.614c0.547,1.414,1.055,2.968,1.135,4.559
				c0.057,1.446-0.258,2.996-0.436,4.51c-0.168,1.479-0.563,2.982-0.852,4.46c-1.022,5.24-2.375,10.093-3.637,15.247
				c-0.168,0.688-0.355,1.39-0.498,2.097c-1.98,9.688-1.908,20.956,2.277,29.146c-1.1,0.843-2.193,2.065-1.779,3.526
				c0.086,0.32,0.557,0.727,0.502,1.021c-0.086,0.5-1.212,0.659-1.779,0.798c0.457,0.471,1.387,0.639,1.779,1.152
				c-0.628,0.806-0.66,2.39,0,3.262c0.246,0.34,0.598,0.745,1.063,0.745c0.131-0.387-0.487-0.69-0.701-1.117
				c-0.307-0.576-0.322-1.511,0.645-1.953c0.465,0.307,1.278,1.19,1.278,1.772c-0.007,0.377-0.745,1.068-1.005,1.571
				c-1.955,3.821-3.24,8.137-3.196,13.213c0.026,5.437,0.236,11.203,1.274,16.59c0.475,2.442,1.428,4.96,2.07,7.483
				c0.637,2.514,1.176,5.078,1.857,7.578c1.354,5.025,2.439,10.7,0.623,15.613c-0.229,0.642-0.615,1.335-0.924,1.953
				c-1.135,2.322-3.279,4.46-5.497,6.166c-0.737,0.605-1.628,1.092-2.257,1.687c1.787-0.874,3.223-1.987,4.55-3.112
				c1.343-1.139,2.589-2.445,3.421-3.859c0.557-0.938,1.402-2.104,1.934-3.242c0.514-1.154,0.922-2.314,1.209-3.589
				C228.954,144.771,228.65,142.158,228.35,139.252 M223.352,80.51c0.397,0.403,1.115,0.942,1.078,1.479
				c-0.041,0.398-1.049,1.512-1.421,1.637C221.674,82.887,222.518,81.167,223.352,80.51 M222.494,86.186
				c-0.827-0.21-1.053-1.032,0-1.076c0.82-0.04,1.492,0.67,2.798,0.418c0.919-0.18,0.835-0.651,1.849-0.563
				c0.705,0.294,0.643,1.031,0,1.346c-0.953-0.165-1.568-0.715-2.709-0.605C223.75,85.779,223.252,86.166,222.494,86.186"/>
			<path d="M215.611,121.168c-0.934-4.508-1.385-8.942-1.385-13.188c0-5.92,0.891-11.449,2.666-16.186
				c-0.992-1.98-1.23-4.162-1.236-5.938c0-0.099,0-0.229,0.006-0.282c-0.006-0.11-0.006-0.218-0.006-0.333
				c0.006-1.782,0.244-3.971,1.236-5.946c-1.775-4.731-2.666-10.259-2.666-16.19c0-4.229,0.451-8.679,1.385-13.187
				c0.16-0.728,4.918-15.999,5.07-22.202c-1.43-1.825-1.93-2.971-2.324-3.987c-1.185-3.251-6.162-6.766-9.717-6.69
				c-4.027-0.042-16.16,4.554-21.98,5.813c-6.457,1.346-11.583,2.016-15.87,2.016c-4.97,0.005-8.826-0.927-12.136-2.775
				c-1.697,0.9-3.559,1.23-5.357,1.23c-0.217,0-0.422-0.01-0.555-0.013c-0.209,0.002-0.42,0.013-0.61,0.013
				c-1.803,0-3.672-0.335-5.354-1.23c-3.317,1.85-7.17,2.78-12.146,2.775c-4.277,0-9.417-0.676-15.873-2.016
				c-5.811-1.258-17.935-5.854-21.972-5.813c-3.549-0.074-8.533,3.439-9.713,6.701c-0.391,1-0.877,2.157-2.333,3.992
				c0.157,6.194,4.913,21.464,5.083,22.192c0.917,4.502,1.372,8.952,1.372,13.182c0,5.934-0.887,11.459-2.654,16.19
				c0.995,1.981,1.215,4.182,1.22,5.952v0.301v0.293c-0.005,1.78-0.23,3.975-1.22,5.952c1.767,4.729,2.654,10.269,2.654,16.192
				c0,4.237-0.455,8.674-1.372,13.194c-0.17,0.723-4.92,15.979-5.083,22.181c1.456,1.841,1.942,2.987,2.333,4.008
				c1.18,3.252,6.164,6.759,9.713,6.678c4.037,0.055,16.161-4.555,21.972-5.787c6.465-1.357,11.596-2.041,15.878-2.041
				c4.969,0,8.815,0.938,12.14,2.784c1.691-0.901,3.563-1.229,5.357-1.229c0.195,0,0.407,0.009,0.543,0.021
				c0.191-0.012,0.396-0.021,0.605-0.021c1.795,0,3.673,0.319,5.376,1.229c3.307-1.849,7.159-2.784,12.13-2.784
				c4.281,0,9.406,0.682,15.87,2.041c5.819,1.232,17.952,5.842,21.983,5.787c3.551,0.081,8.529-3.426,9.713-6.678
				c0.396-1.028,0.896-2.167,2.328-4C220.527,137.18,215.773,121.914,215.611,121.168z"/>
			<path fill="#FFFFFF" d="M155.296,95.645c1.175-2.68,2.636-4.604,5.019-6.177c-1.508,0.782-2.894,1.894-4.072,3.565
				c-1.125,1.58-1.578,2.086-1.614,1.309c0.231-0.053,0.67-0.613,1.419-1.662c1.965-2.78,4.475-4.078,7.211-4.767
				c0.735-0.322,1.518-0.634,2.368-0.921c-3.858,0.499-7.474,1.563-10.112,5.308c-1.604,2.249-1.863,2.368-1.494-0.385
				c0.369-2.614,1.362-5.309,3.664-7.083c0.881-0.681,1.891-1.209,3.049-1.527c4.123-1.122,8.179-0.209,11.002-0.818
				c0.896-0.209,1.551-0.595,2.014-0.953c0.346-0.271,0.73-0.67,0.807,0.28c0.307,9.873-8.041,11.195-12.242,12.938
				c-1.314,0.553-4.326,1.754-5.168,2.215C153.793,98.879,154.318,97.885,155.296,95.645z"/>
			<path fill="#FFFFFF" d="M163.039,95.503c-1.301,0.547-4.324,1.741-5.158,2.22c-2.033,1.152-2.634,1.222-2.568,0.615
				c0.321,0.065,1.008-0.199,2.369-0.975c0.838-0.48,3.854-1.666,5.168-2.221c4.195-1.762,12.551-3.079,12.235-12.947
				c0-0.102-0.034-0.136-0.047-0.203c0.112,0.028,0.226,0.156,0.246,0.563C175.59,92.427,167.24,93.739,163.039,95.503z"/>
			<path fill="#FFFFFF" d="M166.743,110.927c-0.274,0-0.683-0.241-0.687-0.563V99.192c0-0.003,0.066-0.257,0.221-0.257
				c0.111-0.023,0.193-0.028,0.315-0.06c0.107,0,0.419-0.22,0.392-0.474c-0.057-0.422-0.371-0.46-0.571-0.466l-0.453,0.016
				c-0.267,0.021-0.651,0.021-1.052,0.021c-0.489,0-1.025,0-1.422-0.033c-0.237-0.003-0.584,0.188-0.584,0.499
				c0.078,0.48,0.453,0.495,0.766,0.503c0.066,0,0.249,0.181,0.249,0.249v5.855c-0.006,3.442-2.229,5.104-4.039,5.112
				c-2.034-0.05-3.015-1.042-3.071-3.938V100.9c-0.217-1.057-1.701-1.152-2.139-0.411c-0.002,6.432-0.018,6.321-0.018,6.479
				c0.004,1.301,0.44,5.098,4.979,5.104c2.148-0.034,3.57-1.351,4.288-2.293v0.793c0.056,0.209-0.149,0.942,0.575,1.324
				c0.109,0.035,0.195,0.029,0.257,0.029c0.021,0,0.036,0,0.056,0.006c0.227,0,0.479-0.021,0.627-0.021h1.4
				c0.148-0.008,0.497,0.006,0.57-0.463C167.402,111.161,167.046,110.927,166.743,110.927 M185.775,105.044
				c1.649,0,2.578,0.036,3.599,0.036c0.397,0,1.155-0.186,1.167-0.957c-0.005-2.456-1.34-6.128-5.52-6.133
				c-1.75-0.009-3.332,0.298-4.727,1.661c-1.466,1.396-2.12,3.583-2.125,5.589c0.012,4.57,3.455,6.877,6.852,6.887
				c0.775,0,1.888-0.071,2.912-0.523c0.771-0.482,2.039-0.979,2.217-1.904c0-0.471,0.148-1.158,0.227-1.515
				c0.008-0.037,0.039-0.118,0.042-0.247c-0.003-0.064,0.005-0.17-0.094-0.313c-0.104-0.139-0.289-0.184-0.375-0.176
				c-0.791,0.221-0.794,0.906-1.578,1.615c-0.688,0.707-1.662,1.385-3.245,1.39c-2.604-0.026-4.441-1.759-4.551-5.41h0.074H185.775z
				 M184.704,99.552c2.506,0.033,3.461,1.486,3.503,3.486c-0.018,0.113-0.003,0.094-0.018,0.113c-0.029,0.023-0.239,0.07-0.6,0.064
				h-6.831C181.074,101.637,182.241,99.537,184.704,99.552 M126.81,110.936c-0.277-0.018-0.348-0.125-0.348-0.154v-7.518
				c-0.008-0.688-0.071-5.323-5.382-5.326c-2.07,0.055-3.62,1.479-4.395,2.455v-1.01c0-0.107,0.005-0.366-0.044-0.628
				c-0.055-0.22-0.112-0.655-0.649-0.715c-0.021-0.011-0.149-0.034-0.295-0.034c-0.369,0-0.757,0.068-1.139,0.068
				c-0.157,0-0.307-0.002-0.406-0.026c-0.121-0.026-0.222-0.024-0.272-0.024c-0.201,0.008-0.549,0.037-0.607,0.485
				c0.076,0.489,0.437,0.505,0.694,0.521c0.133,0,0.578,0.236,0.578,0.568v11.077c-0.008,0.12-0.06,0.337-0.249,0.364
				c-0.065-0.011-0.202,0.015-0.319,0.057c-0.094,0.074-0.277-0.004-0.374,0.438c0.052,0.393,0.309,0.405,0.39,0.434
				c0.118,0.029,0.233,0.031,0.396,0.031c0.33-0.047,0.813-0.064,1.271-0.064c0.461,0,0.945,0.02,1.218,0.064
				c0.225,0,0.348-0.007,0.463-0.044c0.083-0.052,0.288-0.013,0.361-0.421c-0.118-0.467-0.285-0.354-0.38-0.438
				c-0.096-0.037-0.204-0.06-0.321-0.062c-0.225-0.089-0.32-0.228-0.314-0.255v-5.748c0.008-3.318,2.429-5.111,4.376-5.111
				c1.885,0.047,3.207,0.905,3.259,3.938v6.814c-0.013,0.146-0.06,0.251-0.144,0.251c-0.358,0.139-0.625,0.016-0.782,0.592
				c0.178,0.596,0.484,0.426,0.782,0.479c0.33-0.047,0.814-0.064,1.272-0.064c0.466,0,0.924,0.02,1.219,0.064
				c0.223,0,0.351-0.007,0.474-0.047c0.095-0.039,0.322-0.075,0.369-0.434C127.325,110.915,127.074,111.077,126.81,110.936
				 M151.365,108.619c-0.447,0.035-0.559,0.432-0.559,0.729c0,0.28-0.463,1.055-1.313,1.055c-1.251-0.003-1.433-1.191-1.455-2.748
				v-7.981h2.961c0.013-0.003,0.022-0.003,0.042-0.003c0.05,0.003,0.12,0.003,0.223-0.026c0.141-0.018,0.348-0.265,0.321-0.45
				l-0.106-0.602c-0.021-0.268-0.221-0.5-0.603-0.529h-2.838v-3.151c-0.005-0.12-0.013-0.251-0.108-0.394
				c-0.101-0.146-0.3-0.224-0.431-0.212c-0.271,0.011-0.453,0.124-0.701,0.3c-0.824,0.563-0.908,1.151-0.9,1.264v1.154
				c-0.071,1.078-0.333,0.974-1.055,1.055c-0.265,0-0.561-0.016-0.838-0.016c-0.356,0-0.688,0.239-0.696,0.604l-0.097,0.447
				c-0.034,0.27,0.178,0.513,0.319,0.528c0.097,0.029,0.167,0.026,0.217,0.026c0.016,0,0.031,0,0.048,0.003h2.102v6.491
				c0,0.377-0.056,1.053-0.056,1.787c0.006,1.674,0.427,4.047,3.165,4.053h0.24c1.179-0.113,1.556-0.332,1.629-0.379
				c0.521-0.199,1.005-0.574,1.024-1.173v-1.154C151.9,109.047,151.779,108.635,151.365,108.619 M141.531,111.08
				c-0.136-0.039-0.209-0.029-0.265-0.034c-0.262,0.005-0.411-0.157-0.558-0.743c-0.123-0.55-0.131-1.34-0.131-2.089v-5.065
				c0-1.506-0.355-2.808-1.209-3.738c-0.861-0.937-2.18-1.435-3.942-1.435c-1.442,0-2.702,0.341-4.439,1.21
				c-0.107,0.104-0.286,0.197-0.312,0.552v0.087l0.029,0.057h-0.003c0.013,0.058,0.024,0.213,0.024,0.396
				c0,0.51-0.05,1.183-0.05,1.379c0.194,0.408,0.071,0.445,0.573,0.609c0.22,0.02,0.445-0.221,0.456-0.344
				c0.031-0.135,0.026-0.207,0.029-0.268c0.131-1.651,2.128-2.17,3.588-2.172c2.604,0.002,3,2.318,3.029,3.557
				c0,0.096,0,0.186-0.005,0.246c-0.579-0.037-1.165-0.053-1.712-0.053c-3.947,0.011-6.897,1.139-6.903,4.684
				c0.006,2.931,2.581,4.101,4.421,4.104c1.751-0.005,3.136-0.9,4.235-1.826c0.007,0.424-0.003,0.876,0.055,1.293
				c-0.008,0.002,0.013,0.141,0.131,0.262c0.122,0.123,0.291,0.17,0.456,0.164h0.96c0.27,0,0.869,0.102,1.068,0.107h0.061
				c0.063,0,0.148-0.005,0.24-0.015c0.086-0.053,0.388,0.031,0.498-0.474C141.881,111.344,141.672,111.099,141.531,111.08
				 M131.43,101.578v-0.006l0.01-0.01L131.43,101.578z M138.335,108.002c0.026,0.036-0.417,0.691-1.068,1.164
				c-0.633,0.506-1.453,0.948-1.981,1.011c-0.16,0.032-0.395,0.05-0.505,0.05c-1.363-0.018-2.693-0.82-2.698-2.521
				c0.016-1.447,0.675-2.071,1.678-2.479c1.01-0.395,2.356-0.429,3.468-0.429h0.013h0.039c0.094,0,0.364,0.011,0.623,0.034
				c0.251,0.016,0.439,0.109,0.453,0.099c0.01,0,0.018,0.065,0.01,0.09c0,0.374,0.037,0.688,0.037,1.355
				C138.403,107.183,138.356,107.614,138.335,108.002 M175.961,98.393c-0.193-0.138-0.695-0.361-2.232-0.369
				c-3.191,0.152-3.709,2.767-3.666,4.489c0,0.634,0.051,1.187,0.051,1.521v6.586l-0.008-0.005
				c-0.063,0.115-0.324,0.338-0.521,0.371c-0.184,0.039-0.413,0.27-0.395,0.477c-0.01,0.12,0.06,0.335,0.225,0.437
				c0.15,0.097,0.259,0.081,0.335,0.083c0.048,0,0.155,0,0.288-0.023c0.175-0.021,0.438-0.047,0.738-0.047
				c0.611,0,1.338,0.053,1.806,0.053c0.257-0.055,0.556,0.107,0.728-0.482c-0.072-0.427-0.313-0.533-0.728-0.589
				c-0.06,0-0.271-0.112-0.271-0.267v-8.185c0.03-1.492,0.278-2.694,1.652-2.698c1.534,0.004,2.15,1.457,2.15,1.633
				c0.021,0.377,0.207,0.67,0.623,0.709c0.08,0.006,0.279-0.037,0.389-0.186c0.096-0.146,0.096-0.26,0.1-0.35
				c0-0.042,0-0.119-0.018-0.205c0.021-0.262,0.104-1.201,0.104-1.771v-0.061l-0.021-0.062
				C177.027,98.883,176.383,98.578,175.961,98.393 M144.604,77.842c-0.199,0.211-0.477,0.336-0.529,0.32
				c-0.437,0.01-0.858,0.137-0.911,0.636c0.065,0.524,0.506,0.602,0.911,0.61c1.23-0.249,3.411-0.254,4.633-0.254
				c0.006-0.003,5.405,0.013,6.229,0.24l0.101-0.096l-0.032,0.107c0.029,0.005,0.079,0.021,0.17,0.025
				c0.914-0.059,1.168-0.949,1.307-1.76c0.144-0.852,0.141-1.846,0.141-2.542c-0.037-0.396,0.059-0.841-0.563-0.979
				c-0.189-0.006-0.44,0.06-0.574,0.264c-0.121,0.196-0.104,0.35-0.106,0.467c-0.067,0.999,0.123,2.02-2.095,2.308h-4.34
				c-0.637-0.081-1.07-0.159-1.082-0.848V67.08c0.539-0.008,1.475-0.047,2.451-0.047c0.521,0,0.979,0.026,1.504,0.026
				c1.857,0.116,1.479,0.325,1.611,1.107c0.051,0.383-0.037,0.848,0.615,0.995c0.676-0.196,0.539-0.62,0.605-1.235
				c0-0.377,0.023-0.628,0.023-0.974c0-1.008,0.182-1.937,0.184-2.455c0-0.375-0.307-0.589-0.539-0.589
				c-0.368,0.055-0.391,0.204-0.563,0.387c-0.405,0.638-2.776,0.875-4.464,0.842c-0.568,0-1.081-0.018-1.43-0.021v-0.11v-7.892
				h4.486c1.787,0.317,1.473,0.571,1.564,1.565c0.059,0.417-0.008,0.837,0.615,0.979c0.636-0.157,0.58-0.592,0.631-1.235
				c0.113-1.272,0.298-2.021,0.304-2.568c0.002-0.271-0.062-0.584-0.327-0.775c-0.257-0.175-0.519-0.18-0.838-0.183
				c-0.912,0.217-8.756,0.222-8.764,0.228l-1.976-0.092c-0.344,0-0.581,0.259-0.581,0.519c-0.003,0.392,0.441,0.636,1.083,0.636
				c0.087-0.008,0.356,0.125,0.553,0.332c0.204,0.191,0.324,0.456,0.312,0.519v20.278C144.936,77.369,144.81,77.646,144.604,77.842
				 M206.314,55.06c-0.16,0-0.346,0.021-0.599,0.069c-1.134-0.005-2.364-0.005-3.337-0.005c-0.179-0.042-0.363-0.066-0.533-0.066
				c-0.174,0.01-0.535-0.018-0.619,0.468c0.166,0.566,0.453,0.542,0.789,0.592v0.002c0.526,0.139,0.743,0.786,0.729,0.869
				c0,0.246,0.395,16.003,0.395,16.71v0.097c-2.453-2.547-16.816-18.53-16.836-18.548c-0.3-0.39-0.517-0.66-0.953-0.704
				c-0.269,0-0.498,0.301-0.498,0.515c0.002,0.116,0.035,0.217,0.078,0.317c0.039,0.374,0.209,0.995,0.199,1.125
				c0,0.227-0.299,19.99-0.299,20.744c-0.059,0.659-0.104,0.79-0.594,0.826c-0.383,0.022-0.807,0.022-0.914,0.596
				c0.137,0.625,0.595,0.604,1.152,0.648c0.838,0,1.871-0.104,2.729-0.104c0.43,0,0.814,0.028,1.089,0.099
				c0.495-0.015,0.935-0.074,1.015-0.615c-0.08-0.542-0.515-0.607-0.922-0.621c-0.43-0.012-1.105-0.201-1.105-0.826
				c0-1.285-0.121-13.395-0.155-16.53l17.017,18.854h0.168c0.129-0.003,0.274,0.014,0.467-0.05c0.199-0.048,0.428-0.337,0.399-0.584
				V78.87l-0.016-0.051c-0.224-0.675-0.22-1.086-0.22-1.572c0-1.453,0.258-19.76,0.258-20.257c0.015-0.508,0.236-0.618,0.691-0.854
				c0.213-0.01,0.404-0.049,0.563-0.108c0.157-0.11,0.36-0.056,0.466-0.513C206.781,54.973,206.46,55.094,206.314,55.06
				 M170.13,79.473c6.873,0,11.981-5.697,11.99-12.333c-0.009-6.646-4.729-12.281-11.99-12.297
				c-6.659,0.01-12.151,5.615-12.153,12.297C157.986,74.139,163.115,79.466,170.13,79.473 M169.46,56.952
				c5.376,0.01,9.5,5.421,9.513,10.952c-0.015,5.34-3.425,9.747-8.701,9.75c-4.625-0.014-9.229-5.374-9.24-11.028
				C161.053,61.237,164.35,56.955,169.46,56.952 M115.69,77.754c0.005,0.193-0.115,0.299-0.579,0.489
				c-0.246,0.044-0.414,0.246-0.419,0.481c0,0.352,0.432,0.521,0.705,0.521h0.12c0.335-0.023,1.633-0.094,2.594-0.094
				c0.73,0,0.929,0.067,1.549,0.067c0.654-0.044,1.065-0.052,1.194-0.632c-0.11-0.568-0.5-0.539-0.728-0.568
				c-0.212-0.004-1.217-0.021-1.594-0.988c-0.479-0.947-8.842-21.343-8.971-21.67c-0.144-0.296-0.128-0.563-0.607-0.654
				c-0.529,0.123-0.448,0.372-0.613,0.659c-0.12,0.349-2.256,5.667-4.384,10.892c-1.063,2.615-2.128,5.216-2.942,7.176
				c-0.403,0.979-0.749,1.798-0.995,2.38c-0.126,0.287-0.225,0.521-0.296,0.678c-0.034,0.081-0.063,0.141-0.082,0.18
				c-0.005,0.01-0.007,0.019-0.01,0.021c-0.005,0.008-0.005,0.011-0.011,0.014v0.002l0.008,0.006
				c-0.676,1.078-1.092,1.324-1.594,1.332c-0.555,0.068-0.979,0.02-1.144,0.656c0.11,0.563,0.519,0.521,0.843,0.545
				c0.651-0.028,1.16-0.165,1.625-0.162c2.157,0.021,2.078,0.18,2.895,0.186c0.314-0.003,0.746-0.026,0.819-0.545
				c-0.113-0.523-0.435-0.641-0.824-0.703c-0.205-0.116-0.319-0.255-0.33-0.658c-0.031-0.905,1.097-3.256,2.746-7.599h7.805
				c0.003,0.008,0.005,0.014,0.008,0.019c1.701,4.128,3.164,7.758,3.167,7.764C115.677,77.641,115.69,77.725,115.69,77.754
				 M108.54,67.781h-3.052c1.257-3.552,2.594-7.042,2.968-7.976c0.377,0.932,1.759,4.34,3.188,7.976H108.54z M141.431,78.186
				c-1.56-0.018-2.298-0.438-3.393-1.492c-0.761-0.723-2.324-2.821-3.654-4.79c-0.67-0.989-1.288-1.95-1.735-2.706
				c-0.228-0.372-0.409-0.691-0.529-0.938c-0.018-0.041-0.039-0.079-0.055-0.115c1.875-0.375,4.843-2.903,4.903-6.241
				c0.011-3.46-2.418-6.581-6.263-6.845c-0.283-0.024-0.697-0.024-1.068-0.024c-1.458,0-3.031,0.115-4.795,0.115
				c-0.445,0-2.073-0.101-2.372-0.18c-0.521-0.002-0.945,0.133-1,0.63c0.086,0.555,0.532,0.569,0.909,0.584
				c0.068-0.015,0.479,0.144,0.772,0.388c0.317,0.235,0.519,0.563,0.495,0.675v19.813c0.037,0.487-0.552,1.015-0.791,1.015
				c-0.026,0-0.288-0.025-0.379-0.025c-0.615,0.165-0.484,0.481-0.542,0.639c0.063,0.426,0.348,0.432,0.466,0.473
				c0.152,0.031,0.328,0.042,0.54,0.042c0.576,0,1.065-0.044,1.576-0.044c0.806,0,1.96,0.021,2.408,0.021
				c0.24-0.063,0.565,0.129,0.749-0.49c0-0.029,0.008-0.123-0.042-0.264c-0.026-0.12-0.228-0.359-0.495-0.35
				c-0.078,0.004-0.351-0.072-0.539-0.209c-0.194-0.136-0.293-0.293-0.286-0.41V68.35c0.642,0.047,1.785,0.164,2.45,0.186
				c1.285,1.625,4.916,7.758,6.429,9.027c1.717,1.413,3.714,1.799,4.995,1.799c0.162,0,0.505-0.023,0.851-0.082
				c0.324-0.139,0.696,0.076,0.921-0.623c0.003-0.06-0.023-0.262-0.188-0.382C141.609,78.177,141.512,78.191,141.431,78.186
				 M126.31,66.433v-9.098c0.055-0.377-0.018-0.207,0.186-0.301c0.537-0.084,1.565-0.131,2.052-0.131
				c3.89,0.026,5.552,2.319,5.57,4.693c-0.007,2.382-1.657,4.848-4.832,5.047C128.066,66.645,126.985,66.587,126.31,66.433"/>
			<path fill="#FFFFFF" d="M140.704,42.692c-0.126-0.233-0.534-0.615-0.534-0.615c-13.666,0.079-36.604,0.277-36.604,0.586
				c0,0.314,23.532,0.5,37.13,0.583C140.696,43.247,140.829,42.915,140.704,42.692 M148.09,43.283
				c0.235-0.455,0.355-0.869,0.322-1.249c-0.705,0.008-1.596,0.008-2.642,0.011c0.146,0.34,0.302,0.724,0.324,1.233
				C146.855,43.278,147.521,43.283,148.09,43.283 M145.907,38.637c-0.885,0.058-1.419,0.898-1.902,1.605
				c-0.553-0.34-1.178-0.729-1.897-0.717c-1.084,0.021-1.738,0.832-2.131,1.853c-0.147,0.018-0.275-0.113-0.411-0.147
				c-1.139-0.311-2.474,0.105-3.701,0.125c-0.369,0-0.707-0.052-1.05-0.065c-0.256-0.01-0.523-0.104-0.728-0.173
				c-0.209-0.086-0.379-0.313-0.565-0.283c0.157,0.353,0.497,0.502,0.814,0.628c0.312,0.128,0.683,0.261,1.024,0.298
				c1.554,0.233,3.167-0.686,4.578-0.144c-0.006,0.076,0.013,0.144,0.013,0.223h0.165c0.008-0.05,0-0.094,0.008-0.128
				c0.505,0.146,1.471,1.219,1.039,1.938c-0.243,0.06-0.419-0.044-0.547-0.173c-0.021-0.02-0.037-0.052-0.047-0.065h-0.199
				c0.103,0.17,0.226,0.298,0.351,0.377c0.267,0.185,0.639,0.055,0.691-0.354c0.028-0.303-0.079-0.667-0.182-0.861
				c-0.232-0.487-0.719-0.813-1.06-1.134c0.302-1.963,2.701-1.732,3.626-0.711c-0.063,0.269-0.11,0.604-0.139,0.958h0.114
				c0.024-0.408,0.115-0.777,0.233-0.803c0.019-0.016,0.052-0.016,0.063,0c0.578,0.479,1.631,1.573,1.458,2.958
				c-0.167,0.272-0.29,0.479-0.539,0.526c-0.403,0.026-0.743-0.364-0.963-0.854h-0.155c0.029,0.069,0.05,0.152,0.076,0.223
				c0.236,0.419,0.662,0.924,1.157,0.796c0.346-0.084,0.597-0.531,0.589-1.155c0-0.748-0.354-1.178-0.544-1.727
				c-0.045-0.068-0.383-0.576-0.607-0.838c-0.098-0.112-0.335-0.308-0.338-0.416c-0.021-0.291,0.561-0.751,0.732-0.869
				c1.473-0.89,2.777,0.181,2.809,0.214c0.55,0.502,1.011,1.304,1.095,2.22c0.136,1.518-1.55,3.059-1.55,3.083
				c-0.12,0.146,0.824-0.225,0.941-0.33c0.488-0.446,0.871-1.325,0.813-2.437c-0.023-0.887-0.277-1.5-0.573-2.034
				C148.389,40.132,147.383,38.535,145.907,38.637 M157.484,42.035c-0.025,0.38,0.095,0.793,0.33,1.249
				c0.549,0,1.229-0.005,1.988-0.005c0.02-0.511,0.168-0.895,0.336-1.233C159.082,42.042,158.186,42.042,157.484,42.035
				 M158.609,45.045c0-0.024-1.688-1.566-1.549-3.083c0.086-0.916,0.549-1.717,1.094-2.22c0.027-0.034,1.336-1.104,2.802-0.214
				c0.187,0.118,0.772,0.578,0.739,0.869c-0.008,0.108-0.24,0.304-0.323,0.416c-0.229,0.262-0.578,0.77-0.62,0.838
				c-0.186,0.549-0.533,0.979-0.545,1.727c0,0.624,0.246,1.071,0.592,1.155c0.48,0.128,0.93-0.377,1.151-0.796
				c0.036-0.068,0.053-0.152,0.075-0.223h-0.145c-0.22,0.49-0.566,0.882-0.951,0.854c-0.261-0.047-0.392-0.254-0.554-0.526
				c-0.171-1.385,0.876-2.479,1.446-2.958c0.006-0.016,0.053-0.016,0.059,0c0.131,0.024,0.221,0.395,0.256,0.803h0.107
				c-0.023-0.354-0.064-0.688-0.145-0.958c0.926-1.021,3.328-1.251,3.627,0.711c-0.34,0.32-0.826,0.646-1.072,1.134
				c-0.09,0.193-0.197,0.56-0.159,0.861c0.045,0.407,0.409,0.537,0.685,0.354c0.127-0.079,0.252-0.207,0.352-0.377h-0.201
				c-0.023,0.016-0.023,0.047-0.031,0.065c-0.131,0.128-0.328,0.231-0.553,0.173c-0.439-0.72,0.523-1.791,1.033-1.938v0.128h0.171
				c0-0.079,0.01-0.146,0.01-0.223c1.417-0.542,3.031,0.377,4.584,0.144c0.343-0.038,0.704-0.17,1.021-0.298
				c0.313-0.126,0.668-0.276,0.83-0.628c-0.199-0.029-0.371,0.196-0.565,0.283c-0.224,0.068-0.496,0.163-0.747,0.173
				c-0.332,0.015-0.672,0.065-1.044,0.065c-1.224-0.021-2.552-0.437-3.692-0.125c-0.145,0.034-0.275,0.165-0.42,0.147
				c-0.394-1.021-1.035-1.832-2.131-1.853c-0.73-0.013-1.343,0.377-1.91,0.717c-0.469-0.707-1.003-1.549-1.885-1.606
				c-1.479-0.103-2.497,1.494-2.564,1.606c-0.299,0.534-0.551,1.147-0.586,2.034c-0.054,1.109,0.338,1.989,0.815,2.437
				C157.783,44.82,158.738,45.189,158.609,45.045 M165.195,42.692c-0.119,0.223,0.009,0.555,0.009,0.555
				c13.618-0.083,37.138-0.27,37.138-0.583c0-0.309-22.947-0.508-36.611-0.586C165.73,42.077,165.307,42.459,165.195,42.692
				 M161.303,42.052c-0.246,0.361-0.447,0.775-0.51,1.219c1.031-0.005,3.298-0.018,3.298-0.018c0.011-0.327,0.084-0.649,0.193-0.869
				c0.053-0.125,0.146-0.207,0.228-0.312C163.359,42.063,162.275,42.063,161.303,42.052 M144.583,42.052
				c-0.958,0.012-2.031,0.012-3.183,0.021c0.084,0.104,0.162,0.186,0.22,0.312c0.103,0.219,0.188,0.542,0.188,0.869
				c0,0,2.259,0.013,3.293,0.018C145.048,42.828,144.858,42.415,144.583,42.052 M149.473,42.25c0.012,0.364-0.014,0.707-0.082,1.042
				h0.479c0.021-0.377,0.128-0.754,0.326-1.111v-0.146h-0.734C149.459,42.113,149.473,42.179,149.473,42.25 M156.456,42.035h-0.748
				v0.146c0.196,0.357,0.306,0.734,0.321,1.111h0.484c-0.06-0.335-0.107-0.678-0.082-1.042
				C156.432,42.179,156.438,42.113,156.456,42.035 M151.954,45.398c0.293-0.555,1.097-2.115,1.097-3.083
				c0.159,1.212-0.396,2.769-0.566,3.233c0.154,0.049,0.328,0.063,0.47,0.063c0.912,0,2.112-0.723,2.28-2.288
				c0.277-2.518-3.325-5.015-3.325-5.015s1.432,1.49-0.735,4.211C150.042,43.925,150.898,44.974,151.954,45.398 M149.395,128.644
				c0.066,0.32,0.094,0.662,0.076,1.029c0,0.073-0.01,0.146-0.01,0.222h0.732v-0.141c-0.198-0.371-0.303-0.751-0.326-1.131
				C149.74,128.625,149.577,128.644,149.395,128.644 M156.031,128.625c-0.016,0.38-0.127,0.76-0.323,1.131v0.141h0.748
				c-0.017-0.076-0.019-0.146-0.019-0.222c-0.028-0.367,0.019-0.709,0.076-1.029C156.316,128.644,156.166,128.625,156.031,128.625
				 M153.954,126.529c-0.304,0.56-1.112,2.114-1.112,3.072c-0.16-1.203,0.4-2.769,0.578-3.232c-0.154-0.031-0.316-0.053-0.466-0.053
				c-0.899,0-2.117,0.721-2.288,2.291c-0.282,2.513,3.335,5.007,3.335,5.007s-1.446-1.499,0.728-4.206
				C155.852,127.997,155.01,126.953,153.954,126.529 M165.199,129.232c0.109,0.225,0.531,0.611,0.531,0.611
				c13.664-0.071,36.615-0.271,36.615-0.577c0-0.319-23.521-0.507-37.139-0.581C165.208,128.686,165.079,129.005,165.199,129.232
				 M171.57,130.461c-0.322-0.129-0.68-0.241-1.026-0.303c-1.553-0.229-3.167,0.682-4.578,0.145c0-0.061-0.016-0.136-0.016-0.217
				h-0.171v0.136c-0.508-0.157-1.471-1.23-1.03-1.945c0.222-0.063,0.419,0.044,0.55,0.181c0.01,0.021,0.01,0.042,0.031,0.055h0.201
				c-0.098-0.162-0.223-0.298-0.35-0.377c-0.271-0.172-0.639-0.06-0.687,0.354c-0.033,0.304,0.071,0.681,0.161,0.874
				c0.244,0.487,0.73,0.8,1.07,1.131c-0.295,1.955-2.701,1.729-3.625,0.715c0.082-0.273,0.115-0.616,0.143-0.962h-0.107
				c-0.031,0.404-0.121,0.778-0.256,0.813c-0.003,0.008-0.05,0.008-0.053,0c-0.576-0.487-1.623-1.6-1.452-2.981
				c0.162-0.262,0.293-0.479,0.556-0.505c0.387-0.04,0.731,0.353,0.949,0.834h0.145c-0.021-0.064-0.037-0.141-0.075-0.217
				c-0.222-0.416-0.664-0.922-1.149-0.785c-0.345,0.073-0.594,0.521-0.594,1.149c0.012,0.741,0.359,1.173,0.545,1.73
				c0.044,0.05,0.391,0.575,0.62,0.824c0.083,0.108,0.321,0.302,0.33,0.429c0.026,0.291-0.562,0.752-0.746,0.861
				c-1.461,0.902-2.772-0.18-2.796-0.203c-0.547-0.511-1.014-1.322-1.094-2.209c-0.146-1.537,1.543-3.079,1.543-3.113
				c0.129-0.13-0.823,0.233-0.944,0.33c-0.479,0.455-0.868,1.34-0.815,2.453c0.037,0.877,0.287,1.489,0.584,2.028
				c0.067,0.107,1.086,1.715,2.564,1.604c0.882-0.058,1.416-0.896,1.885-1.604c0.567,0.346,1.182,0.728,1.91,0.714
				c1.096-0.021,1.738-0.839,2.131-1.86c0.145-0.005,0.275,0.11,0.422,0.157c1.141,0.312,2.475-0.113,3.695-0.123
				c0.367,0,0.707,0.058,1.042,0.058c0.248,0.013,0.521,0.099,0.744,0.188c0.194,0.076,0.37,0.307,0.569,0.267
				C172.232,130.725,171.876,130.58,171.57,130.461 M160.795,128.646c0.064,0.447,0.262,0.861,0.508,1.225
				c0.975-0.01,2.059-0.01,3.209-0.014c-0.078-0.104-0.175-0.198-0.228-0.313c-0.106-0.223-0.181-0.555-0.188-0.866
				C164.096,128.677,161.83,128.665,160.795,128.646 M148.416,129.89c0.029-0.372-0.09-0.798-0.325-1.246
				c-0.565,0.003-1.235,0.003-1.995,0.003c-0.021,0.505-0.178,0.896-0.324,1.225C146.818,129.89,147.708,129.89,148.416,129.89
				 M141.4,129.857c1.149,0.004,2.225,0.004,3.183,0.014c0.277-0.361,0.466-0.773,0.519-1.225c-1.034,0.019-3.293,0.029-3.293,0.029
				c0,0.313-0.084,0.646-0.188,0.866C141.562,129.659,141.484,129.756,141.4,129.857 M157.49,129.89c0.695,0,1.594,0,2.648-0.021
				c-0.166-0.327-0.313-0.72-0.332-1.225c-0.764,0-1.439,0-1.99-0.003C157.582,129.094,157.463,129.518,157.49,129.89
				 M147.29,126.871c0,0.034,1.687,1.576,1.549,3.113c-0.086,0.887-0.544,1.698-1.094,2.209c-0.031,0.023-1.335,1.105-2.812,0.203
				c-0.172-0.109-0.753-0.57-0.732-0.861c0.003-0.127,0.24-0.318,0.338-0.429c0.225-0.249,0.563-0.774,0.609-0.824
				c0.188-0.56,0.545-0.989,0.545-1.73c0.005-0.631-0.249-1.076-0.592-1.149c-0.495-0.137-0.921,0.369-1.159,0.785
				c-0.026,0.076-0.045,0.15-0.071,0.217h0.152c0.22-0.481,0.56-0.874,0.963-0.834c0.251,0.023,0.372,0.243,0.539,0.505
				c0.173,1.384-0.88,2.494-1.458,2.981c-0.011,0.008-0.044,0.008-0.06,0c-0.121-0.034-0.21-0.408-0.236-0.813h-0.114
				c0.03,0.346,0.078,0.688,0.141,0.962c-0.927,1.016-3.324,1.24-3.628-0.715c0.341-0.331,0.827-0.644,1.063-1.131
				c0.1-0.193,0.21-0.57,0.179-0.874c-0.053-0.411-0.425-0.523-0.691-0.354c-0.125,0.079-0.246,0.215-0.351,0.377h0.199
				c0.01-0.013,0.026-0.034,0.044-0.055c0.134-0.137,0.307-0.243,0.553-0.181c0.429,0.715-0.534,1.788-1.045,1.943
				c-0.005-0.048,0-0.097-0.005-0.134h-0.165c0,0.081-0.019,0.156-0.011,0.217c-1.413,0.537-3.026-0.371-4.58-0.145
				c-0.343,0.062-0.712,0.174-1.024,0.303c-0.317,0.119-0.657,0.266-0.814,0.619c0.186,0.04,0.356-0.188,0.565-0.267
				c0.205-0.089,0.471-0.176,0.725-0.188c0.348,0,0.683-0.058,1.055-0.058c1.225,0.01,2.56,0.435,3.702,0.123
				c0.136-0.047,0.261-0.162,0.408-0.157c0.393,1.021,1.044,1.841,2.131,1.86c0.722,0.014,1.345-0.368,1.9-0.714
				c0.48,0.704,1.013,1.547,1.899,1.604c1.475,0.11,2.481-1.495,2.562-1.604c0.295-0.539,0.549-1.151,0.575-2.028
				c0.058-1.113-0.325-1.998-0.813-2.453C148.111,127.104,147.169,126.741,147.29,126.871 M140.704,129.232
				c0.125-0.229-0.008-0.547-0.008-0.547c-13.598,0.074-37.13,0.262-37.13,0.581c0,0.309,22.94,0.506,36.604,0.577
				C140.169,129.846,140.578,129.457,140.704,129.232"/>
		</g>
	</g>
</g>
</svg>
