<?xml version="1.0" encoding="utf-8"?>
<!-- Generator: Adobe Illustrator 13.0.2, SVG Export Plug-In . SVG Version: 6.00 Build 14948)  -->
<!DOCTYPE svg PUBLIC "-//W3C//DTD SVG 1.1//EN" "http://www.w3.org/Graphics/SVG/1.1/DTD/svg11.dtd">
<svg version="1.1" id="Layer_1" xmlns="http://www.w3.org/2000/svg" xmlns:xlink="http://www.w3.org/1999/xlink" x="0px" y="0px"
	 width="310px" height="80px" viewBox="8 75 260 70" >
<g id="Balev">
	<g display="inline">
		<path fill="#EF4135" d="M25.127,78.262l6.542,11.341h4.911l-4.084-7.094h61.457l-4.101,7.094h4.924l6.523-11.343L25.127,78.262
			L25.127,78.262z M69.095,125.552l-5.887,10.192l-11.294-19.582l-4.253,1.138l15.547,26.96l21.214-36.753l-5.813,1.545
			L69.095,125.552z"/>
		<path fill="#0055A4" d="M10.024,92.435l11.139,17.001l99.807-17.001H10.024z M22.015,111.694l5.3,8.048l94.475-25.057
			L22.015,111.694z"/>
		<g>
			<path fill="#0055A4" d="M136.959,96.982c1.13,0,2.003,0.19,2.612,0.598c0.609,0.369,0.911,0.966,0.911,1.698
				c0,0.743-0.302,1.308-0.911,1.706c-0.609,0.428-1.482,0.6-2.612,0.6h-1.894v-4.602H136.959z M136.55,86.783
				c0.934,0,1.617,0.157,2.104,0.519c0.48,0.323,0.716,0.822,0.716,1.473c0,0.674-0.236,1.191-0.716,1.533
				c-0.487,0.345-1.17,0.524-2.104,0.524h-1.485v-4.049H136.55L136.55,86.783z M139.487,108.688c3.894,0,6.822-0.69,8.832-2.05
				c1.984-1.393,2.994-3.366,2.994-6.09c0-1.891-0.535-3.4-1.605-4.521c-1.038-1.127-2.652-1.87-4.811-2.275
				c1.584-0.354,2.825-1.023,3.686-2.056c0.85-1.049,1.3-2.341,1.3-3.916c0-2.474-0.905-4.408-2.737-5.76
				c-1.824-1.394-4.354-2.103-7.612-2.103H124.38v28.768L139.487,108.688L139.487,108.688z"/>
			<path fill="#0055A4" d="M167.33,94.969c0.458-1.646,0.807-2.93,0.977-3.801c0.166-0.908,0.271-1.738,0.318-2.521h0.197
				c0.062,0.782,0.158,1.612,0.305,2.521c0.193,0.871,0.512,2.152,0.998,3.801l0.967,3.262h-4.748L167.33,94.969z M163.466,108.688
				l0.976-3.61h8.599l1.024,3.61h12.254L175.23,79.934h-12.707l-11.297,28.754H163.466z"/>
			<polygon fill="#0055A4" points="199.417,79.935 188.039,79.935 188.039,108.688 234.029,108.688 234.029,101.126 
				199.417,101.126 			"/>
			<rect x="209.859" y="90.516" fill="#0055A4" width="24.41" height="7.351"/>
			<path fill="#0055A4" d="M258.191,79.935l-3.539,10.63c-0.43,1.26-0.772,2.425-1.029,3.495c-0.271,1.101-0.473,2.108-0.625,3.064
				h-0.223c-0.065-0.913-0.201-1.886-0.479-2.938c-0.218-1.044-0.591-2.34-1.06-3.843l-3.371-10.408h-38.01v7.768h28.961
				l8.808,20.986h10.612l12.041-28.754H258.191z"/>
		</g>
		<g>
			<path fill="#333333" d="M131.674,113.87c-0.716-0.731-1.715-1.188-2.759-1.188c-1.988,0-3.602,1.743-3.602,3.713
				c0,1.965,1.621,3.725,3.637,3.725c1.009,0,2.007-0.484,2.724-1.205v1.229c-0.785,0.577-1.75,0.896-2.691,0.896
				c-2.532,0-4.684-2.073-4.684-4.582c0-2.608,2.119-4.687,4.684-4.687c0.996,0,1.871,0.26,2.691,0.861V113.87z"/>
			<path fill="#333333" d="M137.564,112.682c2.065,0,3.673,1.688,3.673,3.713c0,2.021-1.634,3.725-3.673,3.725
				c-2.033,0-3.666-1.701-3.666-3.725C133.898,114.37,135.519,112.682,137.564,112.682z M137.564,111.771
				c-2.561,0-4.667,2.076-4.667,4.644c0,2.563,2.106,4.625,4.667,4.625c2.571,0,4.694-2.063,4.694-4.625
				C142.259,113.848,140.135,111.771,137.564,111.771z"/>
			<path fill="#333333" d="M144.603,112.836h0.292c1.203,0,2.292,0.148,2.292,1.63c0,1.389-1.144,1.596-2.292,1.596h-0.292V112.836z
				 M144.603,116.943h0.247l2.71,3.936h1.221l-2.842-4.018c1.375-0.125,2.25-1.092,2.25-2.465c0-2.033-1.592-2.494-3.293-2.494
				h-1.311v8.977h1.019L144.603,116.943L144.603,116.943z"/>
			<path fill="#333333" d="M151.053,112.836h0.37c1.163,0,2.331,0.107,2.331,1.591c0,1.274-0.93,1.591-2.033,1.591h-0.668V112.836z
				 M151.053,116.943h0.711c0.768,0,1.545-0.082,2.135-0.583c0.58-0.468,0.867-1.21,0.867-1.926c0-0.811-0.348-1.582-1.013-2.054
				c-0.651-0.449-1.462-0.479-2.228-0.479h-1.481v8.977h1.009V116.943L151.053,116.943z"/>
			<path fill="#333333" d="M160.26,112.682c2.071,0,3.695,1.688,3.695,3.721c0,2.016-1.659,3.717-3.695,3.717
				c-2.035,0-3.673-1.701-3.673-3.717C156.587,114.37,158.197,112.682,160.26,112.682z M160.26,111.771
				c-2.548,0-4.678,2.076-4.678,4.644c0,2.563,2.13,4.625,4.678,4.625c2.574,0,4.682-2.063,4.682-4.625
				C164.941,113.848,162.834,111.771,160.26,111.771z"/>
			<path fill="#333333" d="M167.298,112.836h0.298c1.207,0,2.295,0.148,2.295,1.63c0,1.389-1.14,1.596-2.291,1.596h-0.302V112.836z
				 M167.298,116.943h0.257l2.721,3.936h1.205l-2.836-4.018c1.367-0.125,2.25-1.092,2.25-2.465c0-2.033-1.601-2.494-3.299-2.494
				h-1.293v8.977h0.995V116.943L167.298,116.943z"/>
			<path fill="#333333" d="M177.535,117.407h-3.033l1.525-3.592L177.535,117.407z M177.928,118.325l1.069,2.554h1.103l-4.033-9.385
				l-4.157,9.385h1.104l1.077-2.554H177.928z"/>
			<path fill="#333333" d="M182.493,120.879h-1.002v-8.043h-2.162v-0.934h5.36v0.934h-2.196V120.879z"/>
			<path fill="#333333" d="M186.727,120.879h-1.002v-8.977h1.002V120.879z"/>
			<path fill="#333333" d="M192.779,112.682c2.064,0,3.695,1.688,3.695,3.721c0,2.016-1.652,3.717-3.695,3.717
				c-2.032,0-3.68-1.701-3.68-3.717C189.1,114.37,190.721,112.682,192.779,112.682z M192.779,111.771
				c-2.569,0-4.68,2.076-4.68,4.644c0,2.563,2.108,4.625,4.68,4.625c2.541,0,4.681-2.063,4.681-4.625
				C197.459,113.848,195.32,111.771,192.779,111.771z"/>
			<path fill="#333333" d="M198.893,111.545l6.974,7.338v-6.979h1.009v9.378l-6.986-7.319v6.918h-0.994v-9.336H198.893z"/>
		</g>
	</g>
</g>
</svg>
