<?xml version="1.0" encoding="utf-8"?>
<!-- Generator: Adobe Illustrator 13.0.2, SVG Export Plug-In . SVG Version: 6.00 Build 14948)  -->
<!DOCTYPE svg PUBLIC "-//W3C//DTD SVG 1.1//EN" "http://www.w3.org/Graphics/SVG/1.1/DTD/svg11.dtd">
<svg version="1.1" id="Layer_1" xmlns="http://www.w3.org/2000/svg" xmlns:xlink="http://www.w3.org/1999/xlink" x="0px" y="0px"
	 width="240px" height="75px" viewBox="20 50 250 70" >
<g id="Bamboo_Cup">
	<path display="inline" fill="#663700" d="M42.184,94.717c-1.07-0.734-2.611-1.351-4.625-1.848c2.533-0.801,4.29-1.843,5.27-3.129
		c0.982-1.291,1.472-2.645,1.472-4.066c0-1.128-0.312-2.195-0.936-3.207c-0.625-1.006-1.487-1.77-2.592-2.281
		c-1.102-0.513-2.801-0.771-5.094-0.771h-9.514v28.167H36.55c2.36,0,4.106-0.296,5.24-0.884c1.135-0.593,2.027-1.438,2.677-2.534
		c0.649-1.098,0.977-2.279,0.977-3.548c0-1.166-0.278-2.258-0.828-3.275C44.065,96.328,43.253,95.452,42.184,94.717z M31.796,83.277
		h1.048c1.845,0,3.093,0.137,3.74,0.41c0.648,0.271,1.103,0.655,1.366,1.148c0.262,0.494,0.393,1.079,0.393,1.751
		c0,1.271-0.441,2.345-1.317,3.229c-0.88,0.88-2.205,1.323-3.975,1.323h-1.255V83.277z M38.753,101.893
		c-0.377,0.594-0.933,1.022-1.67,1.29s-2.125,0.397-4.162,0.397h-1.125v-8.678h1.011c1.882,0,3.439,0.484,4.665,1.459
		c1.227,0.969,1.843,2.154,1.843,3.547C39.314,100.634,39.127,101.293,38.753,101.893z M56.676,79.414l-10.968,28.167h4.268
		l2.927-7.517h11.66l2.926,7.517h6.024L62.552,79.414H56.676z M54.364,96.313l4.373-11.228l4.369,11.228H54.364z M90.281,99.225
		l-6.802-19.813h-7.747v28.167h4.607V86.036l6.748,19.662H91.8l6.883-19.375v21.258h5.406V79.414h-6.812L90.281,99.225z
		 M124.736,94.717c-1.071-0.734-2.612-1.351-4.627-1.848c2.532-0.801,4.29-1.843,5.271-3.129c0.982-1.291,1.472-2.645,1.472-4.066
		c0-1.128-0.312-2.195-0.936-3.207c-0.624-1.006-1.487-1.77-2.591-2.281c-1.103-0.513-2.804-0.771-5.097-0.771h-9.514v28.167h10.388
		c2.359,0,4.104-0.296,5.24-0.884c1.136-0.593,2.027-1.438,2.676-2.534c0.65-1.098,0.977-2.279,0.977-3.548
		c0-1.166-0.278-2.258-0.828-3.275C126.618,96.328,125.806,95.452,124.736,94.717z M114.348,83.277h1.049
		c1.845,0,3.09,0.137,3.738,0.41c0.649,0.271,1.104,0.655,1.366,1.148c0.262,0.494,0.392,1.079,0.392,1.751
		c0,1.271-0.439,2.345-1.317,3.229c-0.879,0.88-2.205,1.323-3.975,1.323h-1.253V83.277z M121.303,101.893
		c-0.375,0.594-0.932,1.022-1.667,1.29c-0.739,0.268-2.126,0.397-4.163,0.397h-1.125v-8.678h1.012c1.883,0,3.437,0.484,4.665,1.459
		c1.226,0.969,1.841,2.154,1.841,3.547C121.866,100.634,121.679,101.293,121.303,101.893z M201.494,101.244
		c-1.656-1.992-2.482-4.601-2.482-7.823c0-3.068,0.729-5.646,2.186-7.726c1.463-2.08,3.808-3.121,7.046-3.121
		c0.823,0,1.651,0.058,2.479,0.172c0.834,0.113,1.711,0.29,2.641,0.521c0.925,0.232,2.115,0.605,3.574,1.113v-4.59
		c-3.028-0.721-6.078-1.082-9.135-1.082c-5.174,0-8.974,1.384-11.389,4.148c-2.418,2.766-3.628,6.312-3.628,10.639
		c0,4.305,1.21,7.842,3.632,10.619c2.426,2.779,6.102,4.166,11.021,4.166c1.131,0,2.273-0.063,3.438-0.195
		c1.16-0.132,2.199-0.299,3.111-0.5s1.984-0.57,3.215-1.109v-4.32c-2.813,1.382-5.59,2.075-8.314,2.075
		C205.616,104.231,203.15,103.235,201.494,101.244z M238.158,97.106c0,2.871-0.491,4.808-1.477,5.81
		c-0.98,1.004-2.307,1.505-3.968,1.505c-1.688,0-3.063-0.508-4.116-1.521c-1.063-1.02-1.597-3.086-1.597-6.209V79.414h-5.856v17.244
		c0,3.259,0.486,5.636,1.463,7.125c0.979,1.492,2.307,2.614,3.98,3.37c1.674,0.754,3.678,1.13,6.012,1.13
		c2.373,0,4.332-0.406,5.885-1.215c1.541-0.813,2.727-1.928,3.545-3.342c0.822-1.415,1.229-3.755,1.229-7.014v-17.3h-5.103
		L238.158,97.106L238.158,97.106z M263.516,80.299c-1.146-0.588-3.125-0.885-5.943-0.885h-9.686v28.167h5.748v-11.04h2.387
		c3.338,0,5.994-0.822,7.979-2.471c1.982-1.652,2.977-4.048,2.977-7.199c0-1.636-0.285-2.992-0.871-4.07
		C265.521,81.723,264.659,80.889,263.516,80.299z M259.484,91.127c-1.004,1.037-2.588,1.555-4.746,1.555h-1.104v-9.402h2.205
		c1.468,0,2.538,0.184,3.207,0.553c0.665,0.365,1.157,0.869,1.478,1.51c0.315,0.645,0.478,1.357,0.478,2.145
		C261,88.879,260.497,90.094,259.484,91.127z M152.469,75.176l3.055,1.653l9.504-3.922l-4.307-1.905L152.469,75.176z
		 M163.248,68.106c0,0-1.911,5.337,6.693,2.158c8.604-3.18,12.393-4.634,12.393-4.634S169.826,60.53,163.248,68.106z
		 M165.068,49.227c-9.746,13.384-5.754,21.708-5.754,21.708C166.232,65.076,165.068,49.227,165.068,49.227z M153.803,74.002
		c4.156-4.722-1.23-14.237-1.23-14.237C148.143,69.554,153.803,74.002,153.803,74.002z M182.995,80.674
		c-2.183-1.229-4.724-1.855-7.623-1.877c-2.914-0.021-5.474,0.568-7.668,1.769c-2.197,1.195-3.871,2.939-5.022,5.224
		c-1.147,2.283-1.73,4.861-1.752,7.734c-0.021,2.893,0.526,5.48,1.643,7.771c1.115,2.293,2.761,4.058,4.927,5.285
		c2.17,1.232,4.72,1.86,7.657,1.878c2.941,0.022,5.496-0.564,7.679-1.767c2.181-1.197,3.845-2.938,4.993-5.213
		c1.146-2.276,1.732-4.858,1.754-7.746c0.021-2.877-0.525-5.466-1.645-7.765C186.822,83.67,185.173,81.906,182.995,80.674z
		 M167.876,88.932c0.101-0.322,0.213-0.636,0.334-0.943c0.437-0.783,1.179-1.303,2.026-1.303c1.342,0,2.428,1.291,2.428,2.879
		c0,1.596-1.086,2.886-2.428,2.886s-2.424-1.29-2.424-2.886C167.813,89.347,167.835,89.135,167.876,88.932z M181.287,101.293
		c-1.344,2.215-3.381,3.313-6.104,3.293c-2.733-0.021-4.76-1.146-6.074-3.381c-1.313-2.229-1.957-4.778-1.938-7.644
		c0.001-0.247,0.016-0.484,0.023-0.729c0.848,2.156,2.939,3.684,5.394,3.684c3.2,0,5.798-2.598,5.798-5.797
		s-2.598-5.795-5.798-5.795c-1.28,0-2.459,0.419-3.421,1.122c0.021-0.032,0.039-0.066,0.061-0.103
		c1.354-2.203,3.394-3.293,6.117-3.271c2.707,0.021,4.725,1.143,6.045,3.357c1.316,2.219,1.971,4.77,1.948,7.649
		C183.318,96.545,182.637,99.082,181.287,101.293z M157.596,101.259c1.148-2.272,1.732-4.854,1.754-7.744
		c0.022-2.879-0.523-5.463-1.642-7.761c-1.116-2.307-2.765-4.066-4.944-5.297c-0.941-0.533-1.963-0.93-3.037-1.233l4.19-1.729
		l-2.515-1.778l-5.681,2.872c0.009,0.01,0.009,0.021,0.013,0.025c-0.201-0.005-0.388-0.032-0.592-0.037
		c-2.912-0.018-5.468,0.57-7.668,1.771c-2.197,1.196-3.872,2.938-5.018,5.223c-1.151,2.284-1.735,4.864-1.755,7.739
		c-0.022,2.889,0.525,5.479,1.641,7.771c1.119,2.294,2.76,4.055,4.926,5.282c2.168,1.232,4.719,1.857,7.66,1.881
		c2.941,0.022,5.498-0.568,7.677-1.766C154.784,105.272,156.445,103.536,157.596,101.259z M144.956,104.363
		c-2.736-0.021-4.763-1.146-6.074-3.375c-1.316-2.232-1.958-4.782-1.939-7.648v-0.044c1.126,2.026,3.283,3.397,5.767,3.397
		c3.644,0,6.595-2.953,6.595-6.594c0-3.644-2.951-6.597-6.595-6.597c-0.706,0-1.389,0.112-2.026,0.319
		c1.193-0.922,2.666-1.386,4.431-1.373c2.71,0.02,4.728,1.14,6.043,3.362c1.324,2.218,1.971,4.767,1.953,7.645
		c-0.023,2.868-0.707,5.406-2.051,7.619C149.713,103.288,147.682,104.383,144.956,104.363z M140.28,88.637
		c0-1.596,1.09-2.885,2.429-2.885c1.342,0,2.428,1.289,2.428,2.885c0,1.592-1.086,2.882-2.428,2.882
		C141.37,91.519,140.28,90.229,140.28,88.637z M163.73,115.514c-0.897-0.896-2.104-2.157-2.547-4.406
		c2.041-0.213,3.947-0.955,5.092-2.402c-2.99-3.697-11.818-3.645-12.881,0.293c1.373,1.26,3.564,1.999,5.82,2.146
		c0.438,1.258,0.782,3.143-0.501,4.322c-0.993,0.973-7.271,2.488-10.032-1.201c0,0-0.185,1.951,2.76,3.689
		c2.938,1.736,7.209-0.407,8.557-1.728c0.502-0.513,0.77-1.079,0.941-1.652c0.537,0.729,0.912,1.722,1.449,2.261
		c6.391,6.391,10.91-2.339,10.984-2.326C173.374,114.51,167.854,119.641,163.73,115.514z M183.303,69.585
		c-3.246,0-5.994,2.516-6.955,5.993c5.029,0.734,10.188,3.666,12.961,7.699c0.826-1.41,1.313-3.122,1.313-4.977
		C190.623,73.486,187.346,69.585,183.303,69.585z M144.16,73.456c-0.964-3.479-3.712-5.996-6.955-5.996
		c-4.046,0-7.324,3.907-7.324,8.722c0,1.854,0.49,3.563,1.316,4.975C133.971,77.122,139.129,74.192,144.16,73.456z"/>
</g>
</svg>
