<?xml version="1.0" standalone="no"?>
<!DOCTYPE svg PUBLIC "-//W3C//DTD SVG 20010904//EN"
 "http://www.w3.org/TR/2001/REC-SVG-20010904/DTD/svg10.dtd">
<svg version="1.0" xmlns="http://www.w3.org/2000/svg"
 width="735.000000pt" height="486.000000pt" viewBox="0 0 735.000000 486.000000"
 preserveAspectRatio="xMidYMid meet">
<metadata>
Created by potrace 1.14, written by Peter Selinger 2001-2017
</metadata>
<g transform="translate(0.000000,486.000000) scale(0.100000,-0.100000)"
fill="#000000" stroke="none">
<path d="M4138 4793 c-32 -38 -172 -297 -195 -360 -36 -100 -41 -185 -15 -269
29 -93 55 -129 213 -292 100 -104 144 -157 171 -208 71 -135 98 -278 98 -516
0 -71 4 -128 9 -128 16 0 59 47 79 86 57 113 110 347 97 433 -11 77 -68 178
-195 346 -126 167 -189 278 -215 380 -21 84 -19 232 5 330 24 99 25 148 3 186
-20 33 -34 36 -55 12z"/>
<path d="M3357 4201 c-36 -111 -50 -201 -45 -285 9 -141 59 -207 266 -348 75
-51 164 -120 197 -153 94 -93 162 -239 180 -387 7 -57 60 -124 76 -96 19 34
39 136 39 199 0 161 -64 262 -279 443 -81 68 -162 142 -179 164 -71 89 -114
217 -131 391 -10 103 -30 144 -73 149 -24 3 -28 -3 -51 -77z"/>
<path d="M5261 4189 c-86 -34 -297 -234 -333 -316 -16 -36 -19 -61 -16 -122 3
-65 11 -91 51 -178 73 -156 73 -207 -2 -413 -21 -58 -41 -124 -44 -148 -5 -40
-4 -42 16 -36 70 22 189 140 240 238 30 58 32 67 31 166 0 66 -8 145 -22 213
-39 193 -25 324 43 409 67 83 87 117 92 157 5 36 3 41 -13 40 -11 0 -30 -5
-43 -10z"/>
<path d="M6268 3329 c-251 -31 -538 -152 -791 -333 -48 -34 -159 -123 -245
-198 -247 -212 -328 -269 -450 -317 l-52 -21 -16 25 c-8 13 -22 45 -30 71 -29
95 -68 124 -171 124 -113 -1 -203 -69 -203 -153 0 -81 43 -122 174 -167 46
-15 99 -35 118 -44 l35 -17 18 -134 c17 -132 16 -238 -3 -257 -14 -14 -44 16
-265 267 -276 314 -346 363 -528 373 -72 4 -91 1 -126 -16 -97 -50 -153 -134
-153 -230 0 -109 62 -170 185 -180 75 -6 77 -2 49 81 -15 44 -15 49 1 73 12
19 21 23 38 18 75 -23 126 -110 154 -264 23 -131 25 -535 3 -595 -14 -36 -19
-40 -45 -37 -97 9 -99 9 -117 -28 -38 -76 -12 -161 62 -204 26 -16 53 -21 104
-21 68 0 68 0 107 44 96 108 108 290 45 665 -21 120 -35 220 -33 222 2 2 37
-25 78 -60 83 -71 191 -193 299 -336 39 -52 86 -108 103 -123 33 -29 115 -72
123 -64 2 2 11 35 19 73 18 92 21 208 11 514 l-8 255 91 22 c150 36 308 118
631 328 306 200 461 281 625 331 82 25 105 27 260 28 153 1 177 -1 237 -22
126 -44 207 -149 215 -282 7 -110 -44 -170 -144 -170 -42 0 -43 -1 -43 -32 0
-99 77 -199 181 -234 126 -42 269 -15 349 65 108 108 155 327 106 496 -65 221
-292 391 -603 451 -100 19 -296 26 -395 13z"/>
<path d="M6365 2864 c-123 -30 -213 -84 -251 -152 -15 -26 -40 -67 -56 -92
l-30 -45 -132 0 c-129 0 -133 -1 -199 -33 -78 -39 -168 -118 -232 -206 l-46
-62 -79 40 c-71 35 -88 39 -153 39 -62 0 -81 -4 -126 -29 -123 -67 -211 -243
-211 -423 0 -104 10 -144 53 -208 48 -72 119 -104 241 -111 82 -4 102 -2 145
17 69 29 78 27 86 -16 17 -95 74 -176 150 -216 62 -32 182 -35 265 -7 150 50
243 142 276 271 12 48 13 70 4 111 -21 102 -78 161 -257 266 -184 109 -213
139 -213 226 0 82 74 141 190 152 30 3 61 1 68 -4 17 -11 31 -73 32 -132 0
-63 10 -74 56 -67 56 9 84 35 126 113 20 38 43 73 50 78 20 12 169 -65 224
-116 54 -50 71 -101 50 -151 -31 -75 -121 -103 -171 -52 -21 20 -25 34 -25 87
0 93 -7 109 -39 102 -58 -14 -101 -47 -126 -98 -30 -59 -32 -115 -6 -171 55
-122 211 -165 352 -98 126 60 199 154 199 257 -1 99 -48 163 -178 242 -185
112 -212 139 -212 207 0 70 66 117 164 117 67 0 80 -16 70 -88 -7 -58 9 -78
57 -68 73 14 119 81 119 172 0 60 -25 111 -63 131 -31 16 -135 26 -172 17z
m-1091 -747 c-1 -22 -10 -51 -21 -65 -19 -28 -87 -66 -135 -77 -40 -10 -48 30
-17 92 31 62 79 95 134 91 40 -3 40 -3 39 -41z m250 -101 c39 -30 112 -78 161
-106 140 -80 175 -121 175 -205 0 -103 -86 -174 -175 -145 -46 15 -62 47 -70
140 -13 157 -16 161 -90 115 -51 -31 -66 -31 -95 0 -13 14 -29 25 -36 25 -6 0
-34 -18 -60 -41 -77 -63 -103 -73 -185 -70 -29 1 -69 61 -69 103 0 23 10 29
90 58 105 37 195 94 229 145 13 19 30 35 39 35 8 0 47 -24 86 -54z"/>
<path d="M1944 2622 c-62 -22 -101 -51 -137 -104 -60 -90 -62 -104 -62 -545
l0 -402 -30 -31 c-16 -18 -73 -54 -125 -80 -52 -26 -104 -57 -114 -69 -19 -21
-19 -21 15 -35 19 -8 79 -19 134 -26 55 -6 104 -16 110 -21 15 -14 13 -329 -2
-354 l-12 -20 -6 20 c-61 188 -182 325 -371 421 l-73 37 77 26 c190 64 297
188 330 384 32 191 -32 384 -176 527 -128 128 -269 180 -491 180 -259 0 -435
-73 -617 -255 -273 -275 -373 -623 -293 -1018 47 -233 162 -454 305 -587 162
-151 428 -279 664 -321 108 -20 391 -17 510 4 222 40 457 122 750 262 307 146
375 165 592 165 224 0 345 -39 420 -134 98 -122 115 -235 44 -281 -14 -9 -55
-24 -91 -32 l-65 -15 0 -39 c0 -154 216 -260 411 -203 70 21 157 106 183 179
23 65 32 205 17 276 -49 234 -274 399 -629 459 -240 41 -578 16 -770 -57 -9
-4 -7 6 7 33 11 22 25 76 31 121 9 57 16 81 24 76 6 -4 32 -21 59 -39 112 -77
241 -98 330 -55 79 38 123 117 108 191 l-6 31 -99 -50 c-131 -68 -159 -66
-190 10 -14 33 -14 38 2 52 26 22 71 43 135 61 98 28 157 108 157 210 0 124
-137 210 -280 176 -55 -13 -74 -29 -174 -144 -51 -58 -60 -66 -69 -51 -15 27
-3 175 17 213 l17 33 107 -6 c92 -5 112 -4 142 12 65 33 54 111 -26 188 l-54
51 55 39 c83 57 100 86 100 171 0 60 -4 76 -27 112 -75 112 -275 145 -415 67
-38 -21 -43 -21 -43 -7 -1 33 -56 117 -98 149 -81 61 -207 80 -308 45z m149
-287 c-1 -16 -5 -44 -8 -62 -6 -27 -3 -34 20 -49 17 -11 47 -18 84 -18 l56 -1
3 -121 3 -120 -65 -62 c-35 -34 -88 -73 -118 -87 l-53 -25 -7 33 c-4 17 -12
93 -19 168 -12 149 -4 262 27 338 15 38 20 42 48 39 28 -3 31 -6 29 -33z
m-966 -216 c23 -11 60 -40 82 -64 35 -38 41 -51 41 -89 0 -58 -29 -92 -118
-139 -114 -60 -142 -96 -142 -184 0 -86 36 -131 160 -197 l61 -33 -93 -32
c-114 -40 -164 -68 -211 -120 -47 -52 -57 -110 -29 -173 40 -91 137 -119 315
-93 199 29 252 20 301 -52 25 -36 55 -138 44 -148 -10 -11 -64 17 -98 50 -55
53 -95 65 -258 75 -162 9 -162 9 -240 57 -31 18 -60 33 -65 33 -5 0 -8 -33 -5
-73 5 -102 55 -202 146 -295 79 -80 147 -117 249 -133 204 -33 382 83 444 289
18 60 31 39 37 -57 4 -68 8 -83 28 -102 13 -12 24 -28 24 -35 0 -17 -80 -65
-162 -97 -254 -102 -592 -82 -858 50 -160 80 -292 227 -363 405 -48 118 -61
198 -61 378 0 140 3 178 22 250 61 228 219 435 390 512 112 50 273 58 359 17z
m1117 -510 c3 -17 6 -174 6 -349 l0 -317 25 -23 c46 -43 42 -47 -170 -154 -71
-36 -134 -66 -141 -66 -7 0 -4 20 10 58 20 54 21 77 21 388 0 258 3 334 13
347 35 42 192 145 223 147 4 0 9 -14 13 -31z m606 -68 c0 -63 -61 -121 -129
-121 -40 0 -43 9 -22 55 22 48 58 83 97 95 50 15 54 12 54 -29z"/>
<path d="M3410 2109 c-75 -13 -169 -59 -215 -105 -48 -48 -108 -175 -131 -279
-25 -111 -23 -260 5 -345 30 -95 82 -158 165 -200 59 -30 78 -35 161 -38 225
-10 375 99 375 274 0 35 -4 65 -8 68 -13 8 -58 -19 -136 -79 -110 -83 -166
-101 -226 -70 -35 18 -67 77 -72 129 l-3 37 116 43 c135 50 191 81 243 133 48
48 64 79 77 148 13 73 -2 157 -37 203 -53 68 -188 103 -314 81z m150 -238 c14
-28 13 -77 -4 -109 -36 -68 -113 -112 -197 -112 l-51 0 6 33 c11 54 56 136 89
161 63 46 139 59 157 27z"/>
</g>
</svg>
