<?xml version="1.0" encoding="UTF-8" standalone="no"?>
<svg xmlns:dc="http://purl.org/dc/elements/1.1/" xmlns:cc="http://creativecommons.org/ns#" xmlns:rdf="http://www.w3.org/1999/02/22-rdf-syntax-ns#" xmlns:svg="http://www.w3.org/2000/svg" xmlns="http://www.w3.org/2000/svg" viewBox="100 120 555.90668 147.94666" height="250" width="755.90668" xml:space="preserve" id="svg2" version="1.1">
	<metadata id="metadata8">
		<rdf:RDF>
			<cc:Work rdf:about="">
				<dc:format>image/svg+xml</dc:format>
				<dc:type rdf:resource="http://purl.org/dc/dcmitype/StillImage" />
			</cc:Work>
		</rdf:RDF>
	</metadata>
	<defs id="defs6">
		<clipPath id="clipPath18" clipPathUnits="userSpaceOnUse">
			<path id="path16" d="M 0,283.46 H 566.93 V 0 H 0 Z" />
		</clipPath>
	</defs>
	<g transform="matrix(1.3333333,0,0,-1.3333333,0,377.94667)" id="g10">
		<g id="g12">
			<g clip-path="url(#clipPath18)" id="g14">
				<g transform="translate(210.9687,141.73)" id="g20">
					<path id="path22" style="fill:#bbddea;fill-opacity:1;fill-rule:nonzero;stroke:none" d="m 0,0 c 0,-31.018 -25.146,-56.165 -56.167,-56.165 -31.021,0 -56.167,25.147 -56.167,56.165 0,31.019 25.146,56.165 56.167,56.165 C -25.146,56.165 0,31.019 0,0" />
				</g>
				<g transform="translate(171.9355,143.7471)" id="g24">
					<path id="path26" style="fill:#7d4490;fill-opacity:1;fill-rule:evenodd;stroke:none" d="M 0,0 -9.61,-9.322 -14.071,-14.059 -28.137,0 -14.071,14.069 h 28.133 z" />
				</g>
				<g transform="translate(171.9355,143.7471)" id="g28">
					<path id="path30" style="fill:#f7aaac;fill-opacity:1;fill-rule:evenodd;stroke:none" d="M 0,0 -9.61,-9.322 -14.071,-14.059 -28.137,0 Z" />
				</g>
				<g transform="translate(148.4224,148.3623)" id="g32">
					<path id="path34" style="fill:#b17fb7;fill-opacity:1;fill-rule:evenodd;stroke:none" d="M 0,0 27.667,-0.423 13.905,-13.938 Z" />
				</g>
				<g transform="translate(146.4136,157.8164)" id="g36">
					<path id="path38" style="fill:#f47b26;fill-opacity:1;fill-rule:evenodd;stroke:none" d="m 0,0 h -0.101 -0.101 c -10.896,0.109 -19.697,8.972 -19.697,19.893 h 39.59 C 19.691,8.972 10.894,0.109 0,0" />
				</g>
				<g transform="translate(143.7988,143.7471)" id="g40">
					<path id="path42" style="fill:#d2d3d3;fill-opacity:1;fill-rule:evenodd;stroke:none" d="M 0,0 14.065,-14.059 2.59,-25.561 -11.481,-11.494 Z" />
				</g>
				<g transform="translate(142.4307,102.417)" id="g44">
					<path id="path46" style="fill:#6acff6;fill-opacity:1;fill-rule:evenodd;stroke:none" d="M 0,0 C -10.986,0 -19.892,8.906 -19.892,19.893 H 0 Z" />
				</g>
				<g transform="translate(162.3252,122.3096)" id="g48">
					<path id="path50" style="fill:#468b40;fill-opacity:1;fill-rule:evenodd;stroke:none" d="M 0,0 C 10.989,0 19.896,-8.908 19.896,-19.893 H 0 Z" />
				</g>
				<g transform="translate(122.374,122.3096)" id="g52">
					<path id="path54" style="fill:#2da9e1;fill-opacity:1;fill-rule:evenodd;stroke:none" d="M 0,0 9.943,9.943 19.884,0 Z" />
				</g>
				<path id="path56" style="fill:#ffd238;fill-opacity:1;fill-rule:evenodd;stroke:none" d="m 142.431,134.425 h 19.895 v -32.008 h -19.895 z" />
				<g transform="translate(153.0825,134.4658)" id="g58">
					<path id="path60" style="fill:#ffd238;fill-opacity:1;fill-rule:evenodd;stroke:none" d="m 0,0 h -18.553 l -2.212,-2.213 9.941,-9.943 h 0.172 V -0.041 H 0.039 Z" />
				</g>
				<g transform="translate(134.5293,134.4658)" id="g62">
					<path id="path64" style="fill:#f79020;fill-opacity:1;fill-rule:evenodd;stroke:none" d="M 0,0 13.893,13.896 27.796,-0.041 Z" />
				</g>
				<g transform="translate(166.1045,177.709)" id="g66">
					<path id="path68" style="fill:#ef548b;fill-opacity:1;fill-rule:evenodd;stroke:none" d="M 0,0 C 10.989,0 19.893,-8.906 19.893,-19.893 H 0 Z" />
				</g>
				<g transform="translate(162.4155,102.4502)" id="g70">
					<path id="path72" style="fill:#7bc143;fill-opacity:1;fill-rule:evenodd;stroke:none" d="M 0,0 V 19.859 L -19.866,0 Z" />
				</g>
				<g transform="translate(166.1045,177.709)" id="g74">
					<path id="path76" style="fill:#eb1f33;fill-opacity:1;fill-rule:evenodd;stroke:none" d="M 0,0 -19.893,-19.893 H 0 Z" />
				</g>
				<g transform="translate(166.1045,157.8125)" id="g78">
					<path id="path80" style="fill:#db2267;fill-opacity:1;fill-rule:evenodd;stroke:none" d="M 0,0 9.947,-9.945 19.893,0 Z" />
				</g>
				<g transform="translate(360.3887,158.3149)" id="g82">
					<path id="path84" style="fill:#6d6f71;fill-opacity:1;fill-rule:nonzero;stroke:none" d="m 0,0 c 0,0.894 0.268,1.557 0.813,1.99 0.543,0.432 1.274,0.647 2.203,0.647 0.608,0 1.167,-0.08 1.679,-0.24 0.51,-0.16 0.843,-0.273 1.003,-0.337 v -13.369 c 0.801,0.766 1.808,1.717 3.02,2.851 1.216,1.134 2.452,2.278 3.713,3.424 1.261,1.15 2.452,2.224 3.57,3.212 1.117,0.99 1.983,1.742 2.588,2.251 0.801,0.641 1.528,1.165 2.181,1.582 0.657,0.415 1.446,0.626 2.37,0.626 1.023,0 1.853,-0.215 2.494,-0.647 0.637,-0.433 1.052,-0.776 1.244,-1.033 -0.16,-0.16 -0.575,-0.536 -1.244,-1.124 -0.674,-0.595 -1.471,-1.304 -2.396,-2.138 -0.927,-0.825 -1.951,-1.737 -3.068,-2.729 -1.117,-0.99 -2.218,-1.962 -3.307,-2.921 -1.085,-0.959 -2.099,-1.867 -3.04,-2.732 -0.944,-0.864 -1.72,-1.563 -2.325,-2.105 3.192,-2.814 6.183,-5.659 8.96,-8.532 2.78,-2.875 5.319,-5.847 7.62,-8.912 h -7.041 c -0.838,0.988 -1.841,2.133 -3.023,3.424 -1.18,1.295 -2.453,2.629 -3.809,4.004 -1.355,1.373 -2.772,2.721 -4.239,4.047 -1.471,1.327 -2.888,2.535 -4.268,3.619 V -30.236 H 0 Z" />
				</g>
				<g transform="translate(392.9395,162.916)" id="g86">
					<path id="path88" style="fill:#6d6f71;fill-opacity:1;fill-rule:nonzero;stroke:none" d="m 0,0 c 0.929,0 1.709,-0.323 2.351,-0.959 0.64,-0.639 0.961,-1.424 0.961,-2.348 0,-0.926 -0.321,-1.711 -0.961,-2.352 C 1.709,-6.295 0.929,-6.614 0,-6.614 c -0.924,0 -1.708,0.319 -2.345,0.955 -0.641,0.641 -0.962,1.426 -0.962,2.352 0,0.924 0.321,1.709 0.962,2.348 C -1.708,-0.323 -0.924,0 0,0 m -2.731,-13.324 c 0,0.898 0.254,1.544 0.768,1.945 0.509,0.397 1.229,0.598 2.156,0.598 0.572,0 1.102,-0.072 1.582,-0.216 0.477,-0.146 0.801,-0.251 0.957,-0.31 v -23.53 h -5.463 z" />
				</g>
				<g transform="translate(418.6553,140.1045)" id="g90">
					<path id="path92" style="fill:#6d6f71;fill-opacity:1;fill-rule:nonzero;stroke:none" d="m 0,0 c 0,1.086 -0.189,2.108 -0.559,3.069 -0.366,0.957 -0.867,1.789 -1.507,2.489 -0.637,0.703 -1.413,1.255 -2.326,1.656 -0.912,0.398 -1.906,0.598 -2.994,0.598 -1.117,0 -2.124,-0.2 -3.019,-0.598 C -11.297,6.813 -12.073,6.271 -12.727,5.583 -13.38,4.895 -13.881,4.073 -14.238,3.116 -14.587,2.159 -14.764,1.12 -14.764,0 c 0,-1.115 0.177,-2.146 0.526,-3.088 0.357,-0.943 0.858,-1.76 1.511,-2.447 0.654,-0.686 1.43,-1.227 2.322,-1.627 0.895,-0.4 1.902,-0.6 3.019,-0.6 1.088,0 2.082,0.192 2.994,0.578 0.913,0.381 1.689,0.909 2.326,1.58 0.64,0.67 1.141,1.485 1.507,2.444 C -0.189,-2.203 0,-1.148 0,0 m 0,20.749 c 0,0.861 0.246,1.501 0.739,1.918 0.493,0.416 1.204,0.621 2.128,0.621 0.579,0 1.105,-0.07 1.586,-0.214 C 4.93,22.928 5.245,22.826 5.41,22.76 V 1.151 c 0,-2.335 -0.329,-4.362 -0.986,-6.085 -0.649,-1.724 -1.557,-3.164 -2.707,-4.312 -1.146,-1.15 -2.502,-2.014 -4.071,-2.59 -1.565,-0.572 -3.274,-0.861 -5.126,-0.861 -1.882,0 -3.62,0.322 -5.197,0.959 -1.582,0.638 -2.949,1.517 -4.099,2.634 -1.147,1.122 -2.055,2.461 -2.707,4.028 -0.658,1.566 -0.983,3.256 -0.983,5.076 0,1.853 0.313,3.558 0.937,5.106 0.625,1.549 1.483,2.89 2.584,4.024 1.105,1.134 2.399,2.011 3.882,2.635 1.483,0.625 3.105,0.935 4.864,0.935 1.852,0 3.483,-0.36 4.887,-1.078 C -1.906,10.9 -0.806,10.034 0,9.009 Z" />
				</g>
				<g transform="translate(224.7944,158.0562)" id="g94">
					<path id="path96" style="fill:#6d6f71;fill-opacity:1;fill-rule:nonzero;stroke:none" d="m 0,0 c 0,0.832 0.162,1.487 0.48,1.966 0.319,0.48 0.886,0.84 1.699,1.082 0.816,0.234 1.902,0.386 3.262,0.452 1.355,0.068 3.089,0.097 5.196,0.097 3.036,0 5.759,-0.393 8.173,-1.175 2.409,-0.783 4.453,-1.902 6.129,-3.355 1.678,-1.454 2.964,-3.226 3.857,-5.321 0.898,-2.089 1.344,-4.427 1.344,-7.017 0,-2.621 -0.434,-4.974 -1.295,-7.067 -0.86,-2.092 -2.13,-3.873 -3.807,-5.344 -1.681,-1.469 -3.753,-2.594 -6.228,-3.377 -2.479,-0.783 -5.33,-1.176 -8.555,-1.176 -3.42,0 -5.94,0.07 -7.57,0.219 -1.631,0.144 -2.523,0.228 -2.685,0.264 z m 5.702,-24.77 c 0.189,-0.064 0.702,-0.135 1.534,-0.219 0.83,-0.074 1.996,-0.119 3.496,-0.119 4.344,0 7.667,1.031 9.97,3.092 2.298,2.06 3.448,4.975 3.448,8.745 0,1.724 -0.265,3.315 -0.793,4.768 -0.525,1.452 -1.333,2.699 -2.417,3.738 -1.085,1.039 -2.477,1.85 -4.169,2.444 -1.695,0.592 -3.704,0.885 -6.039,0.885 -1.532,0 -2.724,-0.041 -3.57,-0.119 C 6.32,-1.637 5.831,-1.688 5.702,-1.721 Z" />
				</g>
				<g transform="translate(261.5723,163.1377)" id="g98">
					<path id="path100" style="fill:#6d6f71;fill-opacity:1;fill-rule:nonzero;stroke:none" d="m 0,0 c 0.926,0 1.711,-0.318 2.348,-0.959 0.64,-0.639 0.959,-1.421 0.959,-2.346 0,-0.928 -0.319,-1.709 -0.959,-2.35 C 1.711,-6.293 0.926,-6.614 0,-6.614 c -0.928,0 -1.707,0.321 -2.348,0.959 -0.636,0.641 -0.957,1.422 -0.957,2.35 0,0.925 0.321,1.707 0.957,2.346 C -1.707,-0.318 -0.928,0 0,0 m -2.729,-13.32 c 0,0.894 0.256,1.541 0.765,1.937 0.512,0.401 1.231,0.602 2.157,0.602 0.575,0 1.099,-0.07 1.579,-0.216 0.481,-0.144 0.799,-0.249 0.962,-0.312 v -23.525 h -5.463 z" />
				</g>
				<g transform="translate(280.7686,132.8057)" id="g102">
					<path id="path104" style="fill:#6d6f71;fill-opacity:1;fill-rule:nonzero;stroke:none" d="M 0,0 C 1.084,0 2.076,0.191 2.968,0.574 3.865,0.957 4.632,1.486 5.269,2.156 5.911,2.83 6.412,3.627 6.78,4.553 7.146,5.479 7.328,6.502 7.328,7.617 7.328,8.708 7.146,9.721 6.78,10.662 6.412,11.602 5.911,12.419 5.269,13.104 4.632,13.792 3.865,14.328 2.968,14.709 2.076,15.096 1.084,15.283 0,15.283 c -1.12,0 -2.134,-0.198 -3.044,-0.596 -0.91,-0.402 -1.685,-0.951 -2.325,-1.653 C -6.006,12.331 -6.505,11.516 -6.852,10.589 -7.204,9.663 -7.38,8.673 -7.38,7.617 -7.38,5.32 -6.71,3.475 -5.369,2.084 -4.026,0.695 -2.239,0 0,0 m -9.105,-8.625 c 0.129,-0.061 0.408,-0.184 0.84,-0.357 0.431,-0.174 0.971,-0.356 1.628,-0.528 0.654,-0.176 1.422,-0.326 2.299,-0.457 0.879,-0.127 1.83,-0.191 2.853,-0.191 1.084,0 2.156,0.123 3.21,0.357 1.055,0.244 1.997,0.672 2.827,1.297 0.831,0.623 1.509,1.496 2.035,2.609 0.527,1.122 0.791,2.559 0.791,4.317 v 0.57 C 6.645,-1.867 5.58,-2.682 4.194,-3.451 2.802,-4.215 1.134,-4.602 -0.818,-4.602 c -1.785,0 -3.432,0.297 -4.933,0.887 -1.502,0.592 -2.796,1.426 -3.884,2.494 -1.085,1.069 -1.929,2.352 -2.537,3.856 -0.606,1.504 -0.91,3.162 -0.91,4.982 0,1.822 0.327,3.498 0.982,5.035 0.655,1.532 1.555,2.855 2.709,3.976 1.148,1.116 2.529,1.995 4.143,2.635 1.614,0.639 3.379,0.955 5.295,0.955 1.822,0 3.506,-0.269 5.057,-0.809 C 6.65,18.863 8,18.031 9.15,16.916 c 1.15,-1.12 2.043,-2.541 2.685,-4.264 0.639,-1.728 0.959,-3.755 0.959,-6.086 v -6.902 c 0,-2.521 -0.346,-4.685 -1.031,-6.492 -0.687,-1.803 -1.635,-3.281 -2.851,-4.432 -1.214,-1.15 -2.658,-1.988 -4.336,-2.515 -1.679,-0.528 -3.506,-0.791 -5.486,-0.791 -1.311,0 -2.502,0.076 -3.57,0.216 -1.074,0.145 -2.025,0.317 -2.851,0.526 -0.832,0.211 -1.518,0.418 -2.06,0.625 -0.546,0.205 -0.942,0.373 -1.197,0.506 z" />
				</g>
				<g transform="translate(300.3418,163.1377)" id="g106">
					<path id="path108" style="fill:#6d6f71;fill-opacity:1;fill-rule:nonzero;stroke:none" d="M 0,0 C 0.927,0 1.711,-0.318 2.351,-0.959 2.989,-1.598 3.306,-2.38 3.306,-3.305 3.306,-4.233 2.989,-5.014 2.351,-5.655 1.711,-6.293 0.927,-6.614 0,-6.614 c -0.924,0 -1.706,0.321 -2.348,0.959 -0.638,0.641 -0.957,1.422 -0.957,2.35 0,0.925 0.319,1.707 0.957,2.346 C -1.706,-0.318 -0.924,0 0,0 m -2.729,-13.32 c 0,0.894 0.256,1.541 0.768,1.937 0.51,0.401 1.229,0.602 2.154,0.602 0.576,0 1.102,-0.07 1.58,-0.216 0.481,-0.144 0.801,-0.249 0.959,-0.312 v -23.525 h -5.461 z" />
				</g>
				<g transform="translate(307.3418,156.6206)" id="g110">
					<path id="path112" style="fill:#6d6f71;fill-opacity:1;fill-rule:nonzero;stroke:none" d="m 0,0 c 0,0.897 0.257,1.542 0.769,1.939 0.511,0.404 1.213,0.6 2.109,0.6 0.575,0 1.104,-0.07 1.602,-0.214 C 4.977,2.179 5.302,2.076 5.462,2.011 v -6.275 h 6.95 c 1.056,0 1.8,-0.215 2.231,-0.645 0.427,-0.435 0.645,-1.062 0.645,-1.894 0,-0.546 -0.082,-1.047 -0.243,-1.51 -0.155,-0.463 -0.287,-0.792 -0.382,-0.981 H 5.462 v -10.685 c 0,-0.834 0.115,-1.512 0.337,-2.039 0.225,-0.525 0.538,-0.949 0.936,-1.27 0.399,-0.32 0.863,-0.543 1.393,-0.668 0.521,-0.13 1.072,-0.195 1.647,-0.195 0.928,0 1.791,0.145 2.588,0.434 0.797,0.287 1.376,0.558 1.725,0.814 l 1.656,-3.959 c -0.259,-0.195 -0.066,-0.117 -0.526,-0.404 -0.468,-0.287 -1.035,-0.557 -1.704,-0.813 -0.67,-0.257 -1.422,-0.47 -2.252,-0.65 -0.834,-0.174 -1.741,-0.26 -2.732,-0.26 -2.809,0 -4.933,0.727 -6.375,2.178 C 0.722,-25.356 0,-23.448 0,-21.083 Z" />
				</g>
				<g transform="translate(341.7686,139.0361)" id="g114">
					<path id="path116" style="fill:#6d6f71;fill-opacity:1;fill-rule:nonzero;stroke:none" d="m 0,0 c -0.316,0.062 -0.921,0.158 -1.796,0.283 -0.875,0.133 -2.193,0.196 -3.951,0.196 -2.174,0 -3.755,-0.331 -4.745,-0.983 -0.989,-0.656 -1.483,-1.682 -1.483,-3.092 0,-0.576 0.103,-1.099 0.312,-1.58 0.206,-0.48 0.563,-0.886 1.072,-1.224 0.514,-0.336 1.208,-0.586 2.087,-0.764 0.879,-0.176 1.972,-0.264 3.282,-0.264 1.471,0 2.633,0.059 3.5,0.166 C -0.859,-7.146 -0.288,-7.061 0,-7 Z m 5.418,-10.637 c -0.324,-0.068 -0.826,-0.136 -1.508,-0.215 -0.69,-0.08 -1.499,-0.16 -2.424,-0.244 -0.924,-0.076 -1.967,-0.15 -3.113,-0.211 -1.15,-0.064 -2.35,-0.097 -3.595,-0.097 -2.493,0 -4.526,0.213 -6.108,0.648 -1.581,0.43 -2.826,1.002 -3.738,1.723 -0.912,0.719 -1.533,1.551 -1.869,2.492 -0.337,0.941 -0.505,1.908 -0.505,2.9 0,1.309 0.201,2.463 0.603,3.446 0.399,0.994 1.052,1.824 1.964,2.492 0.908,0.676 2.099,1.175 3.569,1.51 1.467,0.334 3.254,0.505 5.366,0.505 1.215,0 2.362,-0.041 3.446,-0.122 1.089,-0.077 1.906,-0.149 2.448,-0.215 0,1.119 -0.184,2.046 -0.555,2.779 -0.365,0.737 -0.866,1.31 -1.506,1.725 -0.642,0.415 -1.406,0.703 -2.301,0.865 -0.892,0.158 -1.886,0.236 -2.97,0.236 -1.82,0 -3.282,-0.205 -4.383,-0.62 -1.105,-0.415 -1.833,-0.768 -2.181,-1.054 -0.194,0.158 -0.453,0.462 -0.789,0.91 -0.337,0.446 -0.505,0.99 -0.505,1.629 0,0.448 0.119,0.883 0.361,1.316 0.238,0.432 0.661,0.818 1.27,1.153 0.603,0.336 1.42,0.6 2.439,0.791 1.023,0.192 2.317,0.283 3.882,0.283 1.886,0 3.603,-0.179 5.151,-0.547 1.549,-0.367 2.884,-0.952 4.006,-1.75 C 2.986,10.893 3.856,9.839 4.481,8.526 5.105,7.218 5.418,5.639 5.418,3.786 Z" />
				</g>
				<g transform="translate(351.0645,161.0757)" id="g118">
					<path id="path120" style="fill:#6d6f71;fill-opacity:1;fill-rule:nonzero;stroke:none" d="m 0,0 c 0,0.862 0.255,1.503 0.768,1.918 0.509,0.413 1.228,0.624 2.153,0.624 0.575,0 1.1,-0.071 1.585,-0.217 C 4.982,2.181 5.303,2.076 5.463,2.017 V -32.772 H 0 Z" />
				</g>
				<g transform="translate(425.5234,133.0264)" id="g122">
					<path id="path124" style="fill:#6d6f71;fill-opacity:1;fill-rule:nonzero;stroke:none" d="m 0,0 c 1.812,1.785 3.681,3.639 5.604,5.559 1.917,1.924 3.799,3.828 5.627,5.722 1.828,1.893 3.57,3.713 5.213,5.468 1.643,1.75 3.114,3.333 4.404,4.752 H 3.644 c -1.845,0 -2.773,0.826 -2.773,2.49 0,0.583 0.095,1.113 0.279,1.589 0.181,0.477 0.341,0.793 0.46,0.947 h 22.466 c 2.493,0 3.738,-1 3.738,-2.999 0,-0.891 -0.299,-1.768 -0.899,-2.629 -0.6,-0.86 -1.393,-1.846 -2.374,-2.951 -1.2,-1.325 -2.539,-2.777 -4.014,-4.361 C 19.048,12.006 17.536,10.402 15.979,8.79 14.431,7.174 12.891,5.602 11.366,4.062 9.847,2.525 8.471,1.141 7.242,-0.088 H 27.675 V -5.117 H 0 Z" />
				</g>
				<g transform="translate(460.3564,157.709)" id="g126">
					<path id="path128" style="fill:#6d6f71;fill-opacity:1;fill-rule:nonzero;stroke:none" d="M 0,0 V -4.995 H -0.994 V 0 H -2.851 V 0.892 H 1.864 L 1.864,0 Z" />
				</g>
				<g transform="translate(468.3789,152.7139)" id="g130">
					<path id="path132" style="fill:#6d6f71;fill-opacity:1;fill-rule:nonzero;stroke:none" d="M 0,0 -0.008,4.397 -1.865,0.614 H -2.514 L -4.371,4.397 V 0 h -0.933 v 5.887 h 1.175 l 1.943,-3.911 1.935,3.911 H 0.916 L 0.916,0 Z" />
				</g>
			</g>
		</g>
		<text id="text136" style="font-variant:normal;font-weight:normal;font-stretch:normal;font-size:26px;font-family:'Co Headline Corp Light';-inkscape-font-specification:CoHeadlineCorp-Light;writing-mode:lr-tb;fill:#6d6f71;fill-opacity:1;fill-rule:nonzero;stroke:none" transform="matrix(1,0,0,-1,323.7471,103.6045)">
			<tspan id="tspan134" y="0" x="0 8.0340004 24.101999 39.416 54.73 70.772003 85.202003 94.561996 99.762001 115.83">foundation</tspan>
		</text>
	</g>
</svg>
