<?xml version="1.0" standalone="no"?>
<!DOCTYPE svg PUBLIC "-//W3C//DTD SVG 20010904//EN" "http://www.w3.org/TR/2001/REC-SVG-20010904/DTD/svg10.dtd">
<svg version="1.0" xmlns="http://www.w3.org/2000/svg" width="1442.000000pt" height="786.000000pt" viewBox="0 0 1442.000000 786.000000" preserveAspectRatio="xMidYMid meet">
 <g transform="translate(0.000000,786.000000) scale(0.100000,-0.100000)" fill="#000000" stroke="none">
  <path fill="#e32525" d="M13500 7845 c-137 -19 -247 -44 -732 -160 -238 -56 -635 -151 -883 -210 -247 -59 -454 -111 -458 -115 -9 -8 -83 -1138 -76 -1145 2 -1 330 76 729 172 626 150 740 175 831 180 124 7 164 -3 220 -54 30 -27 44 -52 62 -107 19 -61 22 -93 22 -233 0 -89 -3 -164 -6 -167 -3 -4 -269 -69 -590 -146 -731 -175 -787 -190 -934 -240 -246 -85 -381 -163 -500 -292 -293 -317 -485 -907 -485 -1488 1 -549 164 -937 433 -1029 116 -40 248 -35 512 19 107 23 2575 609 2581 614 3 2 175 2791 185 3006 11 230 6 540 -12 710 -40 381 -194 601 -474 676 -83 22 -305 27 -425 9z m-354 -2922 c-3 -32 -13 -182 -22 -333 -9 -151 -18 -276 -19 -278 -2 -2 -209 -53 -461 -113 -493 -119 -589 -134 -657 -106 -29 13 -43 27 -59 63 -18 42 -20 61 -16 168 4 92 11 135 28 181 46 121 123 208 209 236 49 17 961 237 984 238 17 1 18 -5 13 -56z"/>
  <path fill="#e32525" d="M10018 7026 c-345 -83 -629 -153 -632 -156 -3 -3 -55 -811 -116 -1795 -61 -984 -114 -1793 -118 -1796 -4 -4 -142 -39 -307 -79 -331 -79 -406 -88 -453 -53 -63 47 -89 131 -101 328 -12 197 -3 392 89 1864 44 717 79 1305 77 1308 -5 4 -1205 -281 -1211 -288 -2 -2 -43 -638 -92 -1414 -81 -1300 -88 -1437 -89 -1755 0 -375 9 -477 61 -658 66 -235 214 -439 378 -521 96 -48 175 -65 311 -65 154 1 206 10 784 149 264 63 483 115 488 115 15 0 -5 -252 -26 -334 -38 -143 -83 -196 -233 -266 -98 -46 -95 -45 -821 -209 -313 -71 -572 -132 -577 -137 -4 -5 -40 -270 -79 -589 -39 -319 -74 -592 -77 -607 l-6 -27 63 15 c35 8 440 102 899 209 459 107 873 206 920 220 561 168 855 461 1045 1037 79 241 128 477 159 768 14 127 299 4881 293 4886 -1 0 -284 -67 -629 -150z"/>
  <path fill="#e32525" d="M3160 6675 c-1157 -261 -1261 -290 -1575 -445 -400 -196 -685 -461 -917 -852 -246 -416 -357 -865 -438 -1763 -19 -213 -233 -3606 -227 -3610 1 -2 297 73 657 164 608 155 655 168 658 189 2 12 36 578 76 1257 40 679 75 1237 77 1240 3 2 297 74 654 160 357 85 649 157 650 158 5 7 107 1137 104 1145 -2 5 -282 -57 -664 -149 -363 -87 -664 -159 -669 -159 -10 0 1 170 20 297 39 264 127 475 264 633 96 111 284 216 555 310 123 42 319 93 856 221 l307 73 257 636 c142 349 264 650 272 668 10 25 11 32 1 31 -7 0 -420 -92 -918 -204z"/>
  <path fill="#e32525" d="M5820 5959 c-58 -4 -163 -17 -233 -28 -185 -30 -912 -195 -1047 -237 -375 -117 -695 -297 -866 -487 -173 -193 -307 -507 -359 -843 -20 -130 -161 -1826 -176 -2109 -23 -461 11 -752 109 -939 92 -175 234 -260 490 -292 143 -19 258 -11 470 32 138 28 2201 520 2208 526 5 5 102 1141 98 1146 -1 2 -373 -85 -826 -193 -1051 -252 -1031 -247 -1155 -249 -88 -1 -105 2 -130 20 -51 37 -67 86 -68 204 0 129 14 332 25 349 4 7 297 82 651 167 724 173 835 203 1008 273 142 57 248 121 333 200 235 216 404 642 472 1186 24 198 27 274 16 392 -26 282 -125 503 -296 662 -194 182 -399 244 -724 220z m-185 -1095 c51 -24 70 -72 69 -179 -1 -213 -83 -383 -215 -450 -48 -25 -1024 -263 -1034 -253 -10 10 34 453 51 510 29 101 102 165 234 207 66 21 561 142 680 166 91 18 175 18 215 -1z"/>
 </g>
</svg>
