<?xml version="1.0" standalone="no"?>
<!DOCTYPE svg PUBLIC "-//W3C//DTD SVG 20010904//EN" "http://www.w3.org/TR/2001/REC-SVG-20010904/DTD/svg10.dtd">
<svg version="1.0" xmlns="http://www.w3.org/2000/svg" width="945.000000pt" height="437.000000pt" viewBox="0 0 945.000000 437.000000" preserveAspectRatio="xMidYMid meet">
 <g transform="translate(0.000000,437.000000) scale(0.100000,-0.100000)" fill="#000000" stroke="none">
  <path fill="#c0d732" d="M8085 3443 c-412 -26 -728 -103 -915 -224 -162 -104 -313 -298 -372 -474 -19 -58 -23 -91 -23 -190 0 -71 5 -136 13 -160 19 -59 54 -136 74 -166 l18 -27 147 148 c257 256 523 445 870 619 154 77 332 153 346 148 5 -1 -40 -33 -101 -70 -382 -234 -822 -603 -1063 -891 l-52 -63 -76 25 c-61 20 -104 26 -215 30 l-139 5 6 -63 c4 -35 7 -91 7 -125 l0 -62 83 -7 c83 -7 160 -24 155 -35 -2 -3 -25 -39 -51 -79 -27 -40 -47 -79 -44 -85 5 -12 136 -83 140 -76 2 2 20 39 41 82 36 76 39 78 57 61 32 -29 59 -118 59 -197 0 -88 -27 -152 -91 -215 -73 -72 -226 -131 -336 -132 l-43 0 0 465 0 465 -100 0 -100 0 -2 413 -3 412 -245 0 c-135 0 -251 -2 -258 -4 -11 -3 -13 -73 -6 -402 l7 -399 -327 0 -326 0 0 -220 0 -220 325 0 325 0 2 -397 3 -398 27 -3 c19 -2 28 2 33 17 3 11 24 44 46 73 23 32 39 63 39 80 0 30 12 34 54 18 35 -13 50 -5 72 36 36 66 48 41 54 -111 l5 -120 220 1 c307 2 442 23 593 95 62 30 100 58 156 112 40 40 83 86 94 102 l22 30 -10 -30 c-72 -233 -90 -294 -90 -304 0 -8 45 -11 166 -9 l166 3 103 340 c194 646 186 623 209 629 11 3 21 4 21 3 1 -1 26 -58 57 -127 l55 -125 -105 -5 -105 -5 -23 -80 c-13 -44 -24 -86 -24 -92 0 -10 41 -13 173 -13 l172 0 132 -265 133 -265 335 0 335 0 0 186 0 186 230 415 c127 227 230 416 230 418 0 3 -78 5 -174 5 l-174 0 -55 -102 c-68 -128 -222 -421 -312 -593 -38 -71 -73 -136 -79 -144 -6 -8 -13 -83 -16 -182 l-5 -169 -205 387 c-113 213 -237 448 -276 523 l-72 135 52 58 51 58 219 -406 c121 -223 223 -402 227 -398 20 21 179 330 177 343 -2 9 -64 124 -138 258 l-135 242 -162 0 -162 0 59 99 c32 54 120 219 196 367 224 440 315 600 411 728 30 38 41 61 34 66 -16 9 -192 28 -371 40 -135 9 -340 10 -455 3z m-654 -1723 c-20 -66 -37 -112 -39 -102 -10 71 -28 134 -48 175 l-24 47 74 0 74 0 -37 -120z"/>
  <path d="M3950 2979 c-228 -58 -393 -208 -465 -419 -23 -70 -29 -107 -33 -210 -4 -107 -1 -137 18 -208 26 -95 74 -182 129 -233 53 -47 127 -86 333 -172 262 -110 328 -162 328 -257 0 -64 -34 -119 -90 -147 -54 -28 -161 -31 -254 -7 -73 18 -231 93 -275 129 -17 15 -36 25 -42 23 -6 -2 -38 -55 -70 -118 -54 -106 -59 -120 -59 -182 0 -37 4 -78 10 -93 25 -66 80 -28 80 56 0 34 4 49 13 49 20 0 57 -43 57 -66 0 -44 12 -60 51 -72 49 -15 71 -5 89 40 8 18 14 34 15 36 9 12 60 -29 76 -60 24 -48 54 -56 111 -30 59 26 76 47 55 70 -14 16 -21 41 -18 70 2 18 85 15 122 -4 50 -26 80 -15 109 37 39 72 48 79 96 79 23 0 46 -5 49 -11 4 -6 14 -38 22 -72 16 -70 50 -127 75 -127 10 0 21 13 27 33 6 19 25 44 42 56 16 12 50 50 75 84 25 34 48 64 51 67 3 3 4 -22 3 -55 -4 -91 -2 -111 18 -135 16 -20 27 -22 85 -21 l66 1 22 -60 c12 -33 28 -65 35 -71 25 -20 90 0 130 39 25 26 38 33 41 24 3 -8 19 -29 35 -48 31 -35 58 -43 75 -21 13 15 26 1984 14 1991 -4 3 -122 6 -262 6 l-254 1 -3 -65 c-2 -36 -5 -66 -7 -66 -2 0 -38 16 -80 35 -254 116 -468 150 -645 104z m730 -645 l0 -456 -39 50 c-22 27 -52 59 -68 70 -39 28 -170 92 -288 142 -155 65 -183 81 -226 127 -46 50 -59 79 -59 131 0 56 30 104 80 130 87 44 169 25 410 -96 3 -1 46 79 95 178 50 99 91 180 92 180 2 0 3 -205 3 -456z"/>
  <path d="M35 2942 c-11 -2 -23 -9 -27 -16 -4 -6 -8 -426 -8 -933 0 -975 0 -978 43 -888 9 20 28 40 41 45 13 5 33 22 46 39 29 41 40 39 40 -8 0 -53 14 -87 41 -102 19 -10 25 -9 40 9 16 21 17 21 23 -20 12 -75 44 -88 89 -38 31 34 52 38 79 13 10 -9 20 -14 23 -12 2 3 5 434 5 959 l1 955 -208 1 c-114 1 -217 -1 -228 -4z"/>
  <path d="M490 2710 l0 -230 285 0 285 0 0 230 0 230 -285 0 -285 0 0 -230z"/>
  <path d="M1069 2298 c0 -354 -2 -783 -5 -955 -3 -183 -1 -314 4 -317 12 -7 36 21 52 64 17 45 15 43 39 31 16 -9 26 -8 45 4 23 15 24 14 36 -17 16 -40 49 -78 67 -78 7 0 19 11 28 25 8 14 22 37 31 51 l16 26 18 -30 c13 -20 33 -35 59 -43 73 -22 70 -34 73 289 l3 288 154 -192 c85 -105 159 -202 163 -215 25 -68 74 -77 124 -24 l32 35 54 -25 c67 -31 79 -31 119 2 31 27 32 27 45 8 44 -67 58 -68 92 -6 29 51 28 65 -8 109 -16 20 -85 115 -153 211 l-125 175 97 57 c53 31 114 73 137 92 89 78 134 224 134 439 0 354 -168 598 -434 629 -39 4 -142 8 -228 9 l-158 0 0 -209 0 -208 73 -6 c89 -8 165 -30 202 -59 75 -59 99 -215 49 -316 -47 -94 -171 -152 -324 -152 l-50 0 0 248 c0 137 -3 351 -7 475 l-6 227 -224 0 -223 0 -1 -642z"/>
  <path d="M2408 2933 c-2 -5 -2 -455 0 -1000 l3 -993 28 0 c29 0 47 14 66 54 12 24 101 58 132 50 11 -3 26 -17 32 -31 16 -36 42 -26 67 26 l22 45 30 -61 c32 -63 58 -80 88 -58 16 11 16 15 -4 57 l-22 44 0 937 0 937 -219 0 c-121 0 -221 -3 -223 -7z"/>
  <path d="M2880 2720 l0 -220 275 0 275 0 0 220 0 220 -275 0 -275 0 0 -220z"/>
  <path d="M490 1940 l0 -220 265 0 265 0 0 220 0 220 -265 0 -265 0 0 -220z"/>
  <path d="M2870 1915 l0 -245 255 0 255 0 0 245 0 245 -255 0 -255 0 0 -245z"/>
  <path d="M2872 1193 l3 -157 34 -23 c39 -26 76 -30 85 -8 3 8 22 22 43 32 25 12 44 31 56 56 22 45 32 46 46 7 13 -38 33 -46 72 -30 43 18 59 47 59 107 0 59 14 73 72 73 30 0 36 5 56 45 12 25 22 48 22 50 0 3 -124 5 -275 5 l-276 0 3 -157z"/>
 </g>
</svg>
