<?xml version="1.0" standalone="no"?>
<!DOCTYPE svg PUBLIC "-//W3C//DTD SVG 20010904//EN" "http://www.w3.org/TR/2001/REC-SVG-20010904/DTD/svg10.dtd">
<svg version="1.0" xmlns="http://www.w3.org/2000/svg" width="1323.000000pt" height="538.000000pt" viewBox="0 0 1323.000000 538.000000" preserveAspectRatio="xMidYMid meet">
 <g transform="translate(0.000000,538.000000) scale(0.100000,-0.100000)" fill="#140000" stroke="none">
  <path fill="#00abe2" d="M480 4510 l0 -380 378 2 377 3 3 378 2 377 -380 0 -380 0 0 -380z"/>
  <path fill="#233792" d="M1700 4530 l0 -380 380 0 380 0 0 380 0 380 -380 0 -380 0 0 -380z"/>
  <path fill="#f53078" d="M2930 4525 l0 -375 375 0 375 0 0 375 0 375 -375 0 -375 0 0 -375z"/>
  <path fill="#f5291a" d="M4157 4903 c-4 -3 -7 -174 -7 -380 l0 -373 380 0 380 0 0 380 0 380 -373 0 c-206 0 -377 -3 -380 -7z"/>
  <path d="M6050 4130 c-15 -15 -20 -33 -20 -69 0 -42 4 -53 26 -70 88 -69 193 45 123 133 -27 34 -98 37 -129 6z"/>
  <path d="M9373 4135 c-24 -17 -39 -71 -28 -104 11 -36 46 -61 84 -61 57 1 91 39 91 100 0 66 -90 105 -147 65z"/>
  <path d="M8670 3570 l0 -570 65 0 65 0 0 570 0 570 -65 0 -65 0 0 -570z"/>
  <path d="M9020 3570 l0 -570 60 0 60 0 0 570 0 570 -60 0 -60 0 0 -570z"/>
  <path d="M7371 3988 c-19 -162 -10 -148 -96 -148 l-75 0 0 -55 0 -55 74 0 75 0 3 -298 c3 -296 3 -298 28 -347 36 -69 88 -95 189 -95 69 0 146 11 157 22 2 3 1 25 -2 50 l-6 45 -89 -1 c-84 -1 -90 0 -116 27 l-28 27 -3 285 -3 285 126 0 125 0 0 55 0 55 -125 0 -125 0 0 125 0 125 -49 0 -49 0 -11 -102z"/>
  <path d="M12400 4065 c0 -13 -5 -69 -11 -125 l-12 -100 -78 0 -79 0 0 -55 0 -55 73 0 74 0 6 -287 c3 -159 11 -305 17 -326 15 -50 63 -103 107 -118 37 -12 202 -8 236 6 11 5 17 18 17 40 0 62 -4 65 -88 59 -65 -5 -82 -2 -108 14 -48 31 -54 69 -54 356 l0 256 125 0 125 0 0 55 0 55 -125 0 -125 0 0 125 0 125 -50 0 c-46 0 -50 -2 -50 -25z"/>
  <path d="M6688 3836 c-49 -18 -119 -59 -142 -85 -28 -31 -35 -26 -38 32 l-3 52 -52 3 -53 3 0 -420 0 -421 65 0 65 0 0 314 0 314 50 45 c116 104 289 98 354 -13 20 -33 21 -53 24 -347 l3 -313 65 0 65 0 -3 328 c-3 317 -4 329 -26 377 -48 105 -119 145 -252 144 -47 0 -101 -6 -122 -13z"/>
  <path d="M8043 3836 c-177 -56 -276 -252 -244 -485 22 -169 82 -263 205 -326 77 -39 81 -40 180 -40 104 1 215 26 262 59 21 15 21 17 5 61 -11 33 -20 44 -31 41 -8 -3 -42 -15 -75 -27 -71 -26 -200 -31 -259 -10 -85 30 -150 123 -163 232 l-6 49 292 0 291 0 0 89 c0 182 -67 301 -198 351 -62 24 -192 26 -259 6z m238 -117 c53 -29 88 -92 96 -172 l6 -57 -233 0 -233 0 7 43 c9 60 52 143 86 167 78 55 191 63 271 19z"/>
  <path d="M9966 3829 c-145 -50 -254 -175 -287 -330 -17 -78 -6 -232 20 -301 30 -77 105 -158 173 -188 41 -18 72 -24 138 -24 97 0 161 22 217 76 l32 31 6 -34 c9 -52 -11 -165 -40 -226 -58 -117 -184 -147 -375 -86 -73 23 -71 23 -86 -17 -22 -62 -20 -66 59 -91 60 -20 92 -24 197 -24 116 0 129 2 175 27 89 47 150 133 174 246 7 34 11 201 11 478 l0 425 -37 16 c-115 48 -274 58 -377 22z m252 -100 l42 -12 0 -246 c0 -274 -1 -281 -72 -335 -43 -32 -147 -60 -191 -50 -126 27 -197 137 -199 307 -3 253 188 406 420 336z"/>
  <path d="M10786 3830 c-141 -55 -220 -176 -233 -355 -16 -220 77 -404 235 -466 86 -34 240 -32 341 4 96 34 99 37 79 90 -17 47 -18 47 -103 16 -72 -26 -200 -31 -259 -10 -53 19 -122 84 -141 134 -8 23 -19 66 -24 95 l-8 52 287 0 c326 0 300 -8 300 90 0 173 -81 311 -207 354 -66 23 -204 20 -267 -4z m209 -91 c61 -17 120 -82 134 -147 6 -29 11 -64 11 -77 l0 -25 -230 0 -230 0 0 23 c0 41 27 116 55 152 54 72 160 102 260 74z"/>
  <path d="M11697 3831 c-27 -11 -72 -38 -102 -60 -51 -39 -53 -39 -59 -18 -3 12 -6 37 -6 55 0 32 0 32 -50 32 l-50 0 0 -420 0 -420 60 0 60 0 0 310 0 309 31 35 c47 54 129 90 208 90 89 1 137 -24 171 -90 25 -48 25 -50 28 -351 l4 -303 59 0 60 0 -3 333 c-3 313 -4 335 -24 377 -24 50 -64 94 -109 118 -48 26 -217 27 -278 3z"/>
  <path d="M6050 3420 l0 -420 65 0 65 0 0 420 0 420 -65 0 -65 0 0 -420z"/>
  <path d="M9370 3420 l0 -420 65 0 65 0 0 420 0 420 -65 0 -65 0 0 -420z"/>
  <path fill="#233792" d="M480 3300 l0 -380 375 0 375 0 0 380 0 380 -375 0 -375 0 0 -380z"/>
  <path fill="#f53078" d="M1700 3305 l0 -375 380 0 380 0 0 375 0 375 -380 0 -380 0 0 -375z"/>
  <path fill="#f5291a" d="M2930 3300 l0 -380 378 2 377 3 3 378 2 377 -380 0 -380 0 0 -380z"/>
  <path fill="#ff9208" d="M4160 3300 l0 -380 378 2 377 3 3 378 2 377 -380 0 -380 0 0 -380z"/>
  <path fill="#ffea00" d="M4150 2090 l0 -380 378 2 377 3 3 378 2 377 -380 0 -380 0 0 -380z"/>
  <path fill="#f5291a" d="M1700 2080 l0 -380 380 0 380 0 0 380 0 380 -380 0 -380 0 0 -380z"/>
  <path fill="#ff9208" d="M2930 2080 l0 -380 380 0 380 0 0 380 0 380 -380 0 -380 0 0 -380z"/>
  <path fill="#f53078" d="M480 2075 l0 -375 375 0 375 0 0 375 0 375 -375 0 -375 0 0 -375z"/>
  <path d="M8386 2198 c-3 -18 -10 -73 -15 -121 -6 -48 -13 -92 -16 -97 -4 -6 -37 -10 -76 -10 l-69 0 0 -50 0 -50 75 0 75 0 0 -283 c0 -313 7 -362 57 -409 36 -33 59 -44 109 -53 37 -6 185 8 203 19 3 2 5 26 3 53 l-4 49 -86 -4 c-154 -7 -162 13 -162 383 l0 245 125 0 125 0 0 50 0 49 -122 3 -123 3 -3 128 -3 127 -44 0 c-42 0 -44 -2 -49 -32z"/>
  <path d="M6202 1975 c-68 -19 -101 -37 -134 -72 -100 -104 -67 -276 64 -344 21 -11 88 -37 150 -59 82 -29 121 -48 146 -73 57 -57 44 -125 -32 -168 -36 -21 -53 -24 -136 -23 -77 0 -108 5 -165 27 -38 14 -73 23 -76 19 -3 -4 -11 -27 -17 -52 -13 -52 -15 -50 78 -82 54 -19 86 -23 185 -23 109 0 125 2 175 26 100 47 144 109 145 204 0 101 -54 164 -191 220 -203 83 -249 113 -260 171 -8 44 17 87 63 110 56 28 199 25 271 -4 29 -12 54 -22 56 -22 8 0 28 99 22 109 -24 39 -250 63 -344 36z"/>
  <path d="M7742 1975 c-68 -19 -101 -37 -134 -72 -100 -104 -67 -276 64 -344 21 -11 88 -37 150 -59 82 -29 121 -48 146 -73 57 -57 44 -125 -32 -168 -36 -21 -53 -24 -136 -23 -77 0 -108 5 -165 27 -38 14 -73 23 -76 19 -3 -4 -11 -27 -17 -52 -13 -52 -15 -50 78 -82 54 -19 86 -23 185 -23 109 0 125 2 175 26 100 47 144 109 145 204 0 104 -55 165 -202 224 -188 76 -234 107 -249 168 -10 38 18 87 63 109 56 28 199 26 271 -4 29 -12 54 -22 56 -22 8 0 28 99 22 109 -24 39 -250 63 -344 36z"/>
  <path d="M9077 1980 c-175 -45 -277 -199 -277 -419 1 -271 153 -441 394 -441 82 0 179 21 236 50 45 23 46 25 24 80 -16 39 -17 39 -43 26 -46 -24 -146 -46 -209 -46 -110 0 -194 46 -236 129 -24 47 -49 149 -39 163 2 5 132 8 288 8 l285 0 6 26 c10 38 -3 172 -21 224 -24 72 -83 141 -147 173 -45 24 -72 30 -139 33 -46 2 -101 -1 -122 -6z m181 -112 c75 -22 120 -92 125 -193 l2 -50 -229 -3 -229 -2 6 50 c20 164 158 249 325 198z"/>
  <path d="M9975 1981 c-44 -11 -94 -39 -142 -77 -23 -19 -44 -34 -47 -34 -3 0 -6 23 -6 50 l0 50 -55 0 -55 0 0 -415 0 -415 65 0 65 0 0 314 0 314 49 44 c55 50 104 68 180 68 88 0 146 -37 170 -109 7 -22 11 -136 11 -332 l0 -299 65 0 65 0 0 314 0 314 49 45 c59 53 116 71 201 65 68 -5 104 -26 135 -79 19 -32 20 -55 23 -346 l3 -313 65 0 65 0 -3 328 c-3 317 -4 329 -26 377 -28 61 -55 90 -107 118 -33 18 -57 22 -140 22 -90 0 -105 -3 -153 -28 -30 -16 -73 -46 -97 -68 l-44 -40 -14 28 c-19 35 -52 66 -96 88 -39 19 -177 29 -226 16z"/>
  <path d="M11255 1977 c-94 -25 -150 -68 -179 -139 -32 -75 -14 -172 42 -231 34 -37 92 -65 215 -107 127 -43 179 -86 179 -145 0 -32 -6 -45 -35 -72 -20 -17 -55 -37 -79 -44 -60 -16 -170 -6 -253 25 -38 14 -72 22 -76 18 -3 -4 -11 -27 -18 -51 -15 -52 -16 -50 79 -83 54 -19 86 -23 185 -23 109 0 125 2 175 26 99 47 143 109 144 204 2 103 -53 165 -201 224 -196 79 -239 109 -249 172 -3 24 1 44 15 66 41 65 198 82 319 34 29 -12 54 -21 56 -21 8 0 28 99 22 109 -23 37 -247 62 -341 38z"/>
  <path d="M6689 1893 c112 -303 274 -730 282 -745 5 -10 16 -18 24 -18 9 0 -10 -55 -61 -172 -41 -94 -74 -178 -74 -185 0 -11 15 -13 61 -11 l61 3 227 560 c125 308 235 579 244 603 l17 42 -68 0 -67 0 -135 -350 c-74 -192 -137 -350 -140 -350 -3 0 -64 157 -135 350 l-130 350 -67 0 -67 0 28 -77z"/>
  <path fill="#f5291a" d="M480 850 l0 -380 375 0 375 0 0 380 0 380 -375 0 -375 0 0 -380z"/>
  <path fill="#ff9208" d="M1700 850 l0 -380 380 0 380 0 0 380 0 380 -380 0 -380 0 0 -380z"/>
  <path fill="#ffea00" d="M2930 850 l0 -380 378 2 377 3 3 378 2 377 -380 0 -380 0 0 -380z"/>
  <path fill="#008f44" d="M4160 855 l0 -375 375 0 375 0 0 375 0 375 -375 0 -375 0 0 -375z"/>
 </g>
</svg>
