<?xml version="1.0" standalone="no"?>
<!DOCTYPE svg PUBLIC "-//W3C//DTD SVG 20010904//EN" "http://www.w3.org/TR/2001/REC-SVG-20010904/DTD/svg10.dtd">
<svg version="1.0" xmlns="http://www.w3.org/2000/svg" width="1038.000000pt" height="543.000000pt" viewBox="0 0 1038.000000 543.000000" preserveAspectRatio="xMidYMid meet">
 <g transform="translate(0.000000,543.000000) scale(0.100000,-0.100000)" fill="#000000" stroke="none">
  <path fill="#001662" d="M5802 4193 c8 -10 293 -339 632 -732 339 -392 616 -717 614 -722 -2 -5 -280 -345 -618 -755 -338 -410 -616 -750 -618 -755 -2 -5 229 -9 590 -9 l593 0 284 480 284 479 91 -147 c51 -81 181 -292 291 -469 l199 -323 578 0 c318 0 578 3 578 6 0 4 -764 977 -1116 1419 l-72 91 599 724 599 725 -587 3 c-324 1 -592 0 -598 -2 -5 -2 -136 -204 -290 -450 -154 -245 -282 -445 -285 -445 -3 0 -129 202 -280 449 l-275 449 -604 1 c-574 0 -603 -1 -589 -17z"/>
  <path fill="#001662" d="M1372 3372 c-166 -450 -302 -821 -302 -825 0 -4 117 -7 259 -7 l259 0 10 28 c110 305 289 830 307 902 13 52 24 91 24 86 1 -5 19 -86 40 -180 22 -94 72 -313 111 -486 39 -173 73 -323 76 -332 5 -16 22 -18 172 -18 l167 0 257 453 c141 248 268 476 281 505 l25 53 -1 -113 c-1 -62 0 -290 1 -505 l2 -393 251 0 252 0 -7 173 c-3 94 -8 262 -11 372 -3 110 -7 256 -10 325 -3 69 -7 244 -10 390 -3 146 -8 293 -11 328 l-6 62 -297 0 -297 0 -186 -337 c-191 -345 -268 -495 -268 -522 0 -34 -9 0 -24 89 -9 52 -49 247 -88 433 l-73 337 -301 0 -301 0 -301 -818z"/>
  <path fill="#001662" d="M4150 3378 c-272 -446 -496 -817 -498 -825 -3 -11 46 -13 289 -11 l292 3 96 155 97 155 344 0 345 0 41 -155 41 -155 271 -3 c255 -2 272 -1 271 15 0 10 -94 380 -207 823 l-208 805 -339 2 -340 3 -495 -812z m831 92 c28 -118 53 -223 55 -232 5 -17 -9 -18 -201 -18 -165 0 -206 3 -202 13 3 7 56 103 119 214 63 111 126 230 139 265 l24 63 8 -45 c4 -25 30 -142 58 -260z"/>
  <path fill="#001662" d="M2120 2153 c0 -5 -32 -206 -70 -448 -39 -242 -70 -446 -70 -452 0 -10 48 -13 209 -13 323 0 430 26 546 132 120 109 174 311 130 481 -18 71 -56 146 -95 190 -41 47 -134 94 -210 106 -74 12 -440 15 -440 4z m380 -213 c44 -12 94 -63 109 -112 21 -66 15 -162 -14 -226 -50 -109 -104 -143 -237 -150 -70 -4 -88 -2 -88 9 0 8 16 121 37 252 l37 237 61 0 c33 0 76 -5 95 -10z"/>
  <path fill="#001662" d="M3185 2148 c-4 -14 -145 -889 -145 -900 0 -7 540 -12 540 -5 0 1 7 40 15 87 23 132 36 120 -125 120 -100 0 -140 3 -140 12 0 6 5 40 11 75 l11 63 133 0 133 0 12 73 c6 39 13 84 16 100 l6 27 -136 0 -135 0 5 28 c3 15 8 47 12 72 l8 45 145 3 146 3 13 92 c7 50 15 97 17 104 4 10 -51 13 -266 13 -209 0 -273 -3 -276 -12z"/>
  <path fill="#001662" d="M4015 2148 c-5 -16 -145 -879 -145 -896 0 -9 32 -12 125 -12 121 0 125 1 130 23 12 56 75 500 75 534 0 34 4 29 39 -57 22 -52 79 -185 128 -295 l89 -200 142 -3 c78 -1 142 0 142 4 0 4 32 204 70 444 39 240 70 444 70 454 0 14 -16 16 -124 16 l-124 0 -6 -32 c-19 -102 -76 -488 -76 -513 0 -22 -12 -2 -43 75 -24 58 -79 187 -123 287 l-79 183 -143 0 c-105 0 -144 -3 -147 -12z"/>
  <path fill="#001662" d="M5074 2123 c-4 -21 -12 -68 -19 -105 -7 -37 -10 -70 -7 -73 3 -3 50 -5 104 -5 54 0 98 -2 98 -4 0 -2 -25 -156 -55 -341 -30 -185 -55 -340 -55 -346 0 -6 48 -9 127 -7 l127 3 56 347 55 347 100 3 100 3 12 65 c6 36 14 84 18 108 l6 42 -330 0 -330 0 -7 -37z"/>
 </g>
</svg>
