<?xml version="1.0" encoding="utf-8"?>
<!-- Generator: Adobe Illustrator 13.0.2, SVG Export Plug-In . SVG Version: 6.00 Build 14948)  -->
<!DOCTYPE svg PUBLIC "-//W3C//DTD SVG 1.1//EN" "http://www.w3.org/Graphics/SVG/1.1/DTD/svg11.dtd">
<svg version="1.1" id="Layer_1" xmlns="http://www.w3.org/2000/svg" xmlns:xlink="http://www.w3.org/1999/xlink" x="0px" y="0px" width="271px" height="100px" viewBox="15 25 261.117 100">
<g id="Mon">
	<g display="inline">
		<g>
			<g>
				<path fill="#000" d="M57.883,89.405c3.072-1.109,17.301-21.04,4.743-27.535c-9.138-4.729-20.67,2.021-27.381,11.697
					c-3.983,5.745-10.563,20.789-0.316,32.188c2.838,3.158,6.589,4.821,11.309,4.758c19.47-0.277,42.07-27.222,47.083-34.332
					c5.009-7.105,10.041-14.273,15.092-21.507c5.051-7.234,9.512-12.48,13.389-15.731c3.876-3.253,7.497-5.483,10.867-6.705
					c5.816-2.119,9.525-1.802,9.224-1.668c-2.386,1.067-4.281,2.314-6.797,5.084c-2.522,2.763-4.662,6.949-6.422,12.562
					c-1.765,5.611-3.111,11.359-4.032,17.251c-0.926,5.89-1.723,11.353-2.395,16.396c3.2-3.991,6.594-8.146,10.177-12.46
					c3.583-4.318,7.185-8.289,10.809-11.914c3.617-3.622,8.604-7.779,14.968-12.47c6.359-4.686,12.742-8.293,19.146-10.818
					c6.406-2.526,11.168-3.794,14.289-3.794c0,0-6.887,2.024-13.865,7.334c-3.363,2.554-8.082,7.205-13.233,15.264
					c-3.114,5.371-15.692,26.44-18.472,32.964c-2.778,6.512-3.711,9.639-4.135,12.982c-0.353,2.773,0.171,5.526,2.058,6.241
					c3.134,1.184,5.535-0.613,9.098-3.378c3.251-2.513,9.904-9.108,9.904-9.108c-5.862,9.742-14.89,22.988-24.907,22.988
					c-7.635,0-9.97-8.715-9.713-14.732c0.152-3.564,1.332-8.201,3.99-13.884c2.661-5.687,5.699-11.026,9.122-16.013
					c3.419-4.988,9.096-12.716,17.033-23.19c-0.254,0-2.781,2.152-7.586,6.459c-4.801,4.309-10.188,9.788-16.171,16.446
					c-5.981,6.648-11.441,13.563-16.368,20.711c-4.931,7.152-10.579,13.513-17.63,18.164c-4.796,3.162-7.04,3.861-10.493,5.729
					c-0.085-0.157,8.201-4.47,10.937-13.712c0.981-3.315,2.946-10.903,4.923-23.101c1.981-12.177,3.518-20.135,4.612-23.872
					c-2.78,4.949-6.61,11.464-11.499,19.532c-4.887,8.079-11.898,16.766-21.051,26.064c-9.155,9.3-23.887,18.188-36.873,17.599
					c-7.494-0.338-13.544-2.666-17.258-7.095c-5.357-6.378-6.058-12.677-5.515-18.666c2.499-27.61,30.398-36.591,39.339-36.591
					c6.743,0,11.532,1.257,14.359,3.773c2.824,2.513,4.237,5.598,4.237,9.254c0,2.188-0.501,4.717-1.835,7.426
					C72.497,80.372,67.682,85.875,57.883,89.405z"/>
				<path fill="#000" d="M170.452,115.313c-2.528-0.813-4.363-1.99-5.5-3.531c-1.144-1.545-1.709-3.452-1.709-5.728
					c0-6.822,4.493-14.359,13.474-22.604c8.985-8.25,17.688-12.37,26.121-12.37c3.462,0,6.5,0.856,9.109,2.558
					c2.621,1.708,3.93,4.226,3.93,7.553c0,6.907-4.438,14.463-13.29,22.669s-17.626,12.307-26.313,12.307
					C174.162,116.166,172.225,115.88,170.452,115.313z M176.258,111.896c0.764,0.646,1.817,0.973,3.17,0.973
					c4.809,0,10.784-4.402,17.918-13.205c7.137-8.813,10.705-15.933,10.705-21.371c0-2.027-0.76-3.491-2.273-4.379
					c-3.133-1.546-8.938,2.952-17.42,13.506c-8.482,10.558-12.732,18.105-12.732,22.648
					C175.624,110.966,175.839,111.568,176.258,111.896z"/>
				<path fill="#000" d="M257.133,112.909c-3.203,2.049-6.421,2.782-9.279,2.782c-2.277,0-4.148-0.623-5.623-1.88
					c-1.472-1.256-2.207-2.941-2.207-5.058c0-1.943,0.563-4.081,1.701-6.391c1.121-2.313,3.109-5.069,5.963-8.279
					c2.844-3.203,5.021-6.104,6.531-8.702c1.506-2.596,2.26-4.585,2.26-5.964c0-1.297-0.588-1.95-1.767-1.95
					c-1.853,0-4.353,1.404-7.509,4.205c-3.162,2.805-7.203,7.987-12.131,15.542c-4.926,7.561-8.035,12.317-9.348,14.269
					c-1.303,1.946-2.246,3.25-2.834,3.896h-15.783l16.057-23.299c0.08-0.163,1.619-2.315,4.611-6.462
					c2.992-4.153,4.539-6.438,5.629-9.203c0,0,1.137-2.315-0.594-2.795c-2.951-1.046-7.74,1.675-7.74,1.675
					s6.515-7.324,16.758-6.488c9.125,0.836,7.332,7.01,7.248,7.375c-0.082,0.366-0.243,0.802-0.504,1.286
					c2.271-1.554,4.521-2.719,6.75-3.489c2.22-0.78,4.345-1.171,6.365-1.171c5.037,0,7.811,2.069,8.314,6.22
					c0.504,3.091-1.738,8.813-8.016,16.219c-7.426,8.771-8.975,11.545-8.768,13.54c0.045,0.484,0.203,0.811,0.51,1.098
					c1.172,1.14,6.152-1.278,12.187-5.644C265.917,104.24,261.289,110.26,257.133,112.909z"/>
			</g>
			<path fill="#ccc" d="M253.732,109.884c-0.176-0.161-0.905-0.568-0.905-2.218c0-2.001,0.985-4.398,8.411-13.179
				c6.27-7.403,8.513-13.126,8.01-16.214c-0.184-1.496-0.669-2.711-1.441-3.662c-1.394-1.188-3.422-1.804-6.117-1.804
				c-2.021,0-4.146,0.391-6.364,1.171c-2.229,0.771-4.479,1.938-6.749,3.489c0.26-0.484,0.421-0.92,0.503-1.286
				c0.01-0.041,1.122-2.873-1.625-5.466c-1.118-0.916-2.869-1.655-5.623-1.909c-6.579-0.537-11.603,2.286-14.366,4.381
				c1.49-0.484,3.236-0.805,4.602-0.322c2.759,0.497,1.344,3.552,1.344,3.552c-1.09,2.766-2.639,5.05-5.631,9.203
				c-2.991,4.146-4.53,6.299-4.61,6.462l-15.538,22.545h14.506c0.594-0.648,1.541-1.951,2.842-3.899
				c1.303-1.951,4.42-6.703,9.349-14.267c4.924-7.551,8.966-12.734,12.118-15.539c3.156-2.805,4.707-3.254,6.688-3.589
				c0.771-0.132,1.894-0.09,2.373,0.271c0.646,0.248,0.979,0.852,0.979,1.813c0,1.379-0.754,3.368-2.262,5.964
				c-1.511,2.601-3.688,5.499-6.531,8.702c-2.854,3.21-4.84,5.97-5.963,8.279c-1.137,2.31-1.701,4.445-1.701,6.391
				c0,1.766,0.545,3.214,1.574,4.382c1.451,1.195,3.281,1.799,5.502,1.799c2.854,0,6.07-0.735,9.273-2.779
				c2.205-1.406,4.537-3.752,6.242-5.655C258.135,109.395,254.682,110.802,253.732,109.884z M143.988,105.189
				c-0.522-0.197-0.932-0.563-1.26-1.034c-1.468-0.986-1.872-3.459-1.559-5.958c0.429-3.35,1.357-6.479,4.145-12.992
				c2.776-6.514,15.345-27.586,18.465-32.959c5.15-8.062,9.873-12.713,13.232-15.266c3.905-2.973,7.784-4.912,10.438-6.045
				c-2.723,0.593-6.088,1.679-10.104,3.263c-6.402,2.525-12.787,6.135-19.146,10.818c-6.363,4.688-11.354,8.848-14.968,12.47
				c-3.624,3.625-7.226,7.596-10.809,11.914c-3.583,4.313-6.977,8.469-10.177,12.46c0.092-0.665-0.09,0.676,0,0
				c-0.337,0.42,0.712-11.261,1.641-17.152c0.915-5.887,2.261-11.641,4.026-17.251c1.762-5.61,3.901-9.796,6.422-12.559
				c1.969-2.165,3.564-3.397,5.304-4.345c-1.614,0.161-4.021,0.607-6.971,1.685c-3.37,1.222-6.991,3.452-10.867,6.705
				c-3.877,3.251-8.338,8.497-13.389,15.731c-5.051,7.231-10.083,14.399-15.092,21.507c-5.014,7.11-27.614,34.055-47.083,34.332
				c-4.522,0.062-8.144-1.48-10.937-4.38c-0.392-0.354-0.763-0.731-1.131-1.13c-10.246-11.406-3.664-26.445,0.317-32.196
				c6.714-9.677,18.249-16.42,27.385-11.692c1.207,0.625,2.167,1.38,2.914,2.229c7.008,6.231-0.197,19.071-4.595,24.062
				c7.757-3.495,11.784-8.276,13.704-12.167c1.333-2.712,1.828-5.234,1.828-7.425c0-3.156-1.06-5.882-3.166-8.188
				c-0.109-0.102-0.208-0.211-0.315-0.312c-2.827-2.519-7.616-3.773-14.359-3.773c-8.94,0-36.84,8.979-39.339,36.591
				C18,98.121,18.7,104.42,24.058,110.798c0.268,0.326,0.575,0.605,0.874,0.902c3.74,3.349,9.142,5.142,15.63,5.436
				c12.976,0.593,27.718-8.301,36.869-17.601c9.153-9.297,16.031-18.069,21.054-26.063c7.939-12.635,12.254-18.775,12.254-18.775
				c-1.095,3.737-2.631,11.695-4.612,23.872c-1.977,12.195-3.941,19.783-4.923,23.101c-1.421,4.787-4.321,8.242-6.783,10.489
				c1.549-0.788,3.266-1.735,5.584-3.26c7.051-4.658,12.699-11.018,17.629-18.164c4.927-7.15,10.387-14.063,16.367-20.718
				c5.984-6.656,11.375-11.841,16.175-16.146c4.805-4.306,8.34-5.998,8.34-5.998c-7.938,10.477-13.614,18.202-17.033,23.19
				c-3.423,4.984-6.461,10.326-9.122,16.013c-2.658,5.683-3.838,10.317-3.99,13.884c-0.165,3.895,0.764,8.896,3.494,11.962
				c1.406,1.235,3.194,2.016,5.458,2.016c8.787,0,16.814-10.18,22.607-19.254c-2.188,2.087-5.037,4.741-6.845,6.131
				C149.521,104.576,147.122,106.373,143.988,105.189z M213.048,74.498c-0.335-0.307-0.7-0.596-1.103-0.858
				c-2.608-1.699-5.646-2.558-9.108-2.558c-8.435,0-17.136,4.12-26.121,12.37c-8.979,8.242-13.474,15.779-13.474,22.604
				c0,2.273,0.566,4.183,1.709,5.728c0.133,0.18,0.313,0.342,0.457,0.51c1.097,0.938,2.507,1.697,4.285,2.267
				c1.771,0.567,3.715,0.854,5.822,0.854c8.688,0,17.461-4.1,26.313-12.31c8.854-8.205,13.288-15.759,13.288-22.666
				C215.118,78.026,214.419,76.054,213.048,74.498z M197.346,99.663c-7.134,8.803-13.109,13.205-17.918,13.205
				c-1.353,0-2.406-0.325-3.17-0.973c-0.152-0.127-0.275-0.296-0.373-0.499c-0.131-0.081-0.268-0.16-0.384-0.263
				c-0.421-0.32-0.627-0.934-0.627-1.822c0-4.546,4.239-12.097,12.724-22.647c8.487-10.557,14.127-13.126,16.154-13.126
				c1.234-0.065,2.023,0.375,2.534,0.771c1.151,0.908,1.765,2.215,1.765,3.982C208.051,83.73,204.482,90.85,197.346,99.663z"/>
		</g>
	</g>
</g>
</svg>
