<?xml version="1.0" encoding="UTF-8" standalone="no"?>
<svg
	xmlns:dc="http://purl.org/dc/elements/1.1/"
	xmlns:cc="http://creativecommons.org/ns#"
	xmlns:rdf="http://www.w3.org/1999/02/22-rdf-syntax-ns#"
	xmlns:svg="http://www.w3.org/2000/svg"
	xmlns="http://www.w3.org/2000/svg"
	viewBox="0 0 300.90668 155.90668"
	height="155.90668"
	width="755.90668"
	xml:space="preserve"
	id="svg2"
	version="1.1">
	<metadata id="metadata8">
		<rdf:RDF>
			<cc:Work rdf:about="">
				<dc:format>image/svg+xml</dc:format>
				<dc:type rdf:resource="http://purl.org/dc/dcmitype/StillImage" />
			</cc:Work>
		</rdf:RDF>
	</metadata>
	<defs id="defs6" />
	<g transform="matrix(1.3333333,0,0,-1.3333333,-415,644.5)" id="g10">
		<g transform="scale(0.15)" id="g12">
			<path id="path16" style="fill:#80b029;fill-opacity:1;fill-rule:nonzero;stroke:none" d="m 2044.62,3053.2 97.88,-305.91 h 1.8 l 99.07,305.91 h 133.9 V 2616.08 H 2275.5 v 108.38 l 9.6,199.65 -1.8,0.3 -105.38,-308.33 h -68.45 l -104.18,305.63 -1.8,-0.31 9.61,-196.94 v -108.38 h -101.78 v 437.12 h 133.3" />
			<path id="path18" style="fill:#80b029;fill-opacity:1;fill-rule:nonzero;stroke:none" d="m 2598.55,2862.26 h 1.8 l 87.07,190.94 h 110.17 l -148.61,-283.41 v -153.71 h -101.17 v 158.82 l -145.62,278.3 h 109.58 l 86.78,-190.94" />
			<path id="path20" style="fill:#80b029;fill-opacity:1;fill-rule:nonzero;stroke:none" d="m 3159.37,2756.29 0.6,-1.81 c 0.79,-41.02 -13.62,-75.4 -43.24,-103.13 -29.63,-27.71 -68.75,-41.58 -117.38,-41.58 -49.44,0 -89.73,17.52 -120.84,52.54 -31.13,35.04 -46.7,79.47 -46.7,133.3 v 77.77 c 0,53.82 15.57,98.32 46.7,133.44 31.11,35.13 71.4,52.69 120.84,52.69 49.43,0 88.76,-13.16 117.99,-39.47 29.22,-26.33 43.42,-61.21 42.63,-104.63 l -0.6,-1.81 h -56.75 c 0,30.63 -9,54.84 -27.02,72.66 -18.01,17.81 -43.44,26.72 -76.25,26.72 -33.03,0 -59.35,-13.3 -78.96,-39.9 -19.62,-26.6 -29.43,-59.6 -29.43,-98.99 v -78.29 c 0,-39.8 9.81,-73 29.43,-99.59 19.61,-26.6 45.93,-39.9 78.96,-39.9 32.81,0 58.24,8.85 76.25,26.56 18.02,17.72 27.02,42.19 27.02,73.42 h 56.75" />
			<path id="path22" style="fill:#80b029;fill-opacity:1;fill-rule:nonzero;stroke:none" d="m 3298.98,2662.62 h 206.85 v -46.54 h -265.99 v 437.12 h 59.14 v -390.58" />
			<path id="path24" style="fill:#80b029;fill-opacity:1;fill-rule:nonzero;stroke:none" d="m 3634.33,2616.08 h -59.45 v 437.12 h 59.45 v -437.12" />
			<path id="path26" style="fill:#80b029;fill-opacity:1;fill-rule:nonzero;stroke:none" d="m 4076.26,2616.08 h -59.14 l -210.46,338.06 -1.8,-0.61 v -337.45 h -59.14 v 437.12 h 59.14 l 210.45,-337.46 1.81,0.61 v 336.85 h 59.14 v -437.12" />
			<path id="path28" style="fill:#80b029;fill-opacity:1;fill-rule:nonzero;stroke:none" d="m 4246.79,2616.08 h -59.45 v 437.12 h 59.45 v -437.12" />
			<path id="path30" style="fill:#80b029;fill-opacity:1;fill-rule:nonzero;stroke:none" d="m 4667.1,2756.29 0.61,-1.81 c 0.8,-41.02 -13.61,-75.4 -43.24,-103.13 -29.61,-27.71 -68.75,-41.58 -117.39,-41.58 -49.43,0 -89.72,17.52 -120.83,52.54 -31.14,35.04 -46.68,79.47 -46.68,133.3 v 77.77 c 0,53.82 15.54,98.32 46.68,133.44 31.11,35.13 71.4,52.69 120.83,52.69 49.44,0 88.77,-13.16 117.99,-39.47 29.22,-26.33 43.44,-61.21 42.64,-104.63 l -0.61,-1.81 h -56.73 c 0,30.63 -9.01,54.84 -27.04,72.66 -18,17.81 -43.41,26.72 -76.25,26.72 -33.02,0 -59.35,-13.3 -78.96,-39.9 -19.61,-26.6 -29.41,-59.6 -29.41,-98.99 v -78.29 c 0,-39.8 9.8,-73 29.41,-99.59 19.61,-26.6 45.94,-39.9 78.96,-39.9 32.84,0 58.25,8.85 76.25,26.56 18.03,17.72 27.04,42.19 27.04,73.42 h 56.73" />
			<path id="path32" style="fill:#9c9c9b;fill-opacity:1;fill-rule:nonzero;stroke:none" d="m 1577.36,2707.72 -68.55,141.45 -72.64,-139.54 -56.69,-108.89 -53.55,110.47 -65.2,134.52 -71.85,-138.01 h -111.05 -54.63 c 52.36,-148.83 194.09,-255.55 360.82,-255.55 166.73,0 308.46,106.72 360.82,255.55 h -58.01 -109.47" />
			<path id="path34" style="fill:#80b029;fill-opacity:1;fill-rule:nonzero;stroke:none" d="m 1207.19,2956.21 56.69,108.89 53.54,-110.47 65.2,-134.51 72.64,139.53 56.69,108.88 53.54,-110.48 73.59,-151.82 h 126.25 c 0.69,9.4 1.16,18.85 1.16,28.4 0,211.24 -171.24,382.48 -382.47,382.48 -211.24,0 -382.47,-171.24 -382.47,-382.48 0,-9.55 0.47,-19 1.16,-28.4 h 126.4 l 78.08,149.98" />
		</g>
	</g>
</svg>
