<?xml version="1.0" encoding="UTF-8" standalone="no"?>
<svg xmlns:dc="http://purl.org/dc/elements/1.1/" xmlns:cc="http://creativecommons.org/ns#" xmlns:rdf="http://www.w3.org/1999/02/22-rdf-syntax-ns#" xmlns:svg="http://www.w3.org/2000/svg" xmlns="http://www.w3.org/2000/svg" viewBox="2200 -80 2350 400" height="250" width="655" xml:space="preserve" id="svg2" version="1.1">
	<metadata id="metadata8">
		<rdf:RDF>
			<cc:Work rdf:about="">
				<dc:format>image/svg+xml</dc:format>
				<dc:type rdf:resource="http://purl.org/dc/dcmitype/StillImage" />
			</cc:Work>
		</rdf:RDF>
	</metadata>
	<g transform="matrix(1.3333333,0,0,-1.3333333,0,755)" id="g10">
		<g transform="scale(0.45)" id="g12">
			<g id="g42">
				<g clip-path="url(#clipPath48)" id="g44">
					<path id="path52" style="fill:#8e182f;fill-opacity:1;fill-rule:nonzero;stroke:none" d="m 5952.02,1140.57 c -10.2,8.11 -22.89,11.68 -35.79,10.12 -15.23,-1.89 -28.57,-10.92 -35.19,-23.38 -24.96,12.68 -52.06,17.83 -80.71,15.3 -38.07,-3.23 -71.07,-22.1 -95.76,-54.27 -35.19,-45.73 -52.02,-116.594 -42.94,-180.399 11.01,-77.597 41.34,-180.25 177.72,-175.8 1.81,0.121 3.65,0.336 5.46,0.586 32.53,3.961 62.08,19.597 86.43,45.515 1.46,-9.176 5.51,-16.738 11.92,-22.226 7.96,-6.735 19.36,-9.762 31.32,-8.325 22.15,2.715 43.96,20.309 42.89,48.934 -10.67,115.832 -21.94,188.91 -40.4,290.585 -3.18,30.31 -15.36,45.73 -24.95,53.36 M 5902.5,944.648 c 5.25,-49.3 -7.74,-105.089 -60.18,-113.785 -61.61,-10.215 -84.67,38.813 -92.97,81.164 -9.03,45.731 -0.86,118.723 58.72,132.503 3.02,0.7 6.02,1.22 8.95,1.59 62.47,7.65 80.53,-68.573 85.48,-101.472" />
					<path id="path54" style="fill:#8e182f;fill-opacity:1;fill-rule:nonzero;stroke:none" d="m 6884.36,1035.05 c -9.03,9.66 -21.29,14.35 -33.64,12.84 -19.45,-2.42 -29.77,-17.02 -37.43,-43.03 -8.17,-30.512 -24.52,-46.676 -56.53,-50.61 -78.38,-4.027 -120.84,123.88 -97.14,193.97 12.35,32.66 32.74,42.01 58.21,45.12 12.78,1.59 25.55,-0.48 38.16,-6.15 11.27,-4.64 22.11,-6.31 32.35,-5.07 19.83,2.45 34.67,15.88 37.81,34.27 2.89,16.78 -4.86,39.95 -35.45,55.01 -22.54,9.17 -47.96,12.4 -73.6,9.29 -51.03,-6.28 -99.08,-36.76 -125.37,-79.53 -45.47,-74.22 -22.93,-155.78 -6.96,-207.574 18.8,-60.762 67.07,-123.668 151.17,-130.191 12.47,-0.977 24.95,-0.731 37,0.765 h 0.04 c 77.05,11.707 114.09,65.457 123.51,115.547 4.43,22.083 0.05,42.253 -12.13,55.343" />
					<path id="path56" style="fill:#8e182f;fill-opacity:1;fill-rule:nonzero;stroke:none" d="m 5630.14,813.063 c -8.78,66.976 -24.61,139.207 -36.22,217.867 l -1.25,8.27 c -2.54,34.08 -15.19,51.1 -25.34,59.42 -9.98,8.13 -22.41,11.79 -34.97,10.27 -21.22,-2.62 -38.21,-18.84 -43.29,-40.13 -26.19,12.29 -55.71,16.84 -87.97,13.39 l -2.93,-0.3 c -44.05,-5.4 -81.48,-27.32 -108.24,-63.42 -36.26,-48.899 -47.49,-113.051 -35.4,-182.047 16.77,-95.309 91.29,-184.758 201.12,-171.313 7.53,0.938 15.27,2.375 22.93,4.235 29.64,7.254 55.06,21.527 75.8,42.472 24.52,-95.675 15.53,-165.375 -25.17,-196.437 -17.25,-11.16 -34.28,-17.836 -50.55,-19.852 -55.32,-6.765 -93.82,41.375 -106.34,89.578 -6.93,18.684 -19.62,19.27 -24.78,18.629 -13.34,-1.617 -26.54,-15.824 -33.6,-36.195 -5.16,-14.875 -18.11,-67.652 34.54,-120.582 39.37,-33.473 86.86,-47.926 137.28,-41.738 39.54,4.816 80.54,22.59 112.85,49.058 55.28,52.41 56.74,100.797 57.73,136.098 v 2.289 c 1.07,36.199 -8.13,103.633 -8.56,106.68 -6.33,38.414 -15.79,100.461 -17.64,113.758 m -215.84,174.972 1.99,0.242 c 47.06,5.735 83.5,-16.586 100.79,-84.089 16.31,-73.629 -2.62,-120.766 -56.35,-140.032 -6.54,-2.347 -13.04,-3.937 -19.28,-4.691 -52.74,-6.469 -88.1,45.574 -98.73,96.644 -14.02,85.579 32.61,125.098 71.58,131.926" />
					<path id="path58" style="fill:#8e182f;fill-opacity:1;fill-rule:nonzero;stroke:none" d="m 6389.54,971.48 c -3.23,21.219 -6.67,43.11 -12.39,74.57 -8.13,44.43 -24.95,107.17 -77.48,139.27 -29.64,18.11 -68.06,25.34 -108.24,20.47 -29.64,-3.66 -58.25,-14.03 -80.58,-29.21 -4.13,-2.81 -8.17,-5.83 -12,-9.09 -8.73,15.28 -25.17,24.03 -42.76,21.86 -12.14,-1.49 -22.98,-8.23 -29.64,-18.5 -6.41,-9.83 -12.22,-27.41 -3.75,-55.47 7.01,-25.27 30.59,-120.853 40.53,-287.255 0.6,-19.121 7.7,-35.437 19.96,-45.922 9.85,-8.473 22.58,-12.469 34.8,-10.91 12.01,1.465 22.63,7.984 29.9,18.41 7.96,11.469 15.66,32.871 6.89,69.547 -5.68,31.465 -8.74,58.723 -11.71,85.063 -2.19,19.824 -4.51,40.308 -7.83,61.477 -5.63,53.74 6.15,86.03 37.05,101.64 7.44,3.75 16.21,6.34 25.42,7.46 26.84,3.27 52.74,-5.39 67.54,-22.68 23.75,-27.62 28.05,-66.92 31.45,-98.472 1.42,-12.715 2.28,-25.492 3.23,-40.281 1.37,-21.699 3.01,-46.277 6.84,-77.805 2.96,-36.863 15.7,-54.394 25.81,-62.625 8.95,-7.289 19.4,-10.398 30.37,-9.054 12.26,1.492 24.01,8.754 32.18,19.968 10.67,14.637 14.41,33.965 10.46,54.422 -8.09,41.828 -11.96,66.742 -16.05,93.117" />
					<path id="path60" style="fill:#8e182f;fill-opacity:1;fill-rule:nonzero;stroke:none" d="m 6520.32,1092.43 c -3.96,32.23 -6.93,51.01 -9.21,65.06 -8.51,68.94 -34.75,89.12 -58.12,86.25 -11.18,-1.37 -21.16,-8.14 -28.26,-19.06 -11.92,-18.53 -17.77,-44.9 -8.73,-73.59 4.21,-16.62 10.92,-62.93 18.28,-119.06 6.33,-47.87 12.86,-97.409 18.97,-135.675 2.07,-28.05 11.79,-50.457 27.32,-63.175 9.59,-7.836 20.86,-11.43 31.71,-10.059 10.41,1.25 19.74,6.945 26.28,16.004 10.24,14.027 13.17,35.094 8.43,59.063 -10.88,67.8 -20,140.882 -26.67,194.242" />
					<path id="path62" style="fill:#8e182f;fill-opacity:1;fill-rule:nonzero;stroke:none" d="m 6416.98,1433.63 c -5.93,-0.7 -11.82,-2.72 -17.46,-5.89 -26.33,-15.03 -30.24,-45.55 -22.37,-69.18 8.52,-25.73 29.47,-41.15 52.1,-38.38 6.32,0.79 12.77,2.89 19.36,6.52 28.69,16.99 31.14,45.52 23.91,66.52 -7.7,22.51 -29.25,43.64 -55.54,40.41" />
					<path id="path64" style="fill:#611025;fill-opacity:1;fill-rule:nonzero;stroke:none" d="m 5354.38,1237.93 c -3.06,9.35 -6.24,18.95 -9.94,31.42 -7.27,24.33 -16.05,65.34 -25.94,121.83 -9.08,51.41 -16.43,102.3 -21.98,151.2 -1.47,12.78 -6.97,23.21 -15.97,30.12 -9.29,7.13 -22.11,10.15 -35.19,8.23 -16.3,-2.37 -34.24,-13.02 -41.12,-31.73 -26.59,12.62 -56.58,17.4 -89.31,14.17 -114.48,-11.21 -170.71,-130.52 -159.14,-236.26 11.49,-104.72 81.18,-228.5 201.6,-220.83 34.63,3.39 91.37,21.78 97.01,62.42 4.73,-11.01 10.41,-20.83 17.25,-29.76 13.16,-17.19 33.64,-25.64 54.76,-22.53 16.22,2.38 30.03,11.37 38.08,24.67 6.41,10.69 12.05,29.14 2.45,55.52 -4.26,16.49 -8.26,28.62 -12.56,41.53 m -187.79,-36.02 c -81.73,-8.81 -112.32,92.23 -115.98,141.41 -3.66,49.21 18.41,121.43 77.65,130.86 66.13,7.31 89.4,-55.4 97.31,-109.28 11.54,-56.43 0.65,-155.51 -58.98,-162.99" />
					<path id="path66" style="fill:#611025;fill-opacity:1;fill-rule:nonzero;stroke:none" d="m 5797.57,1637.84 c -9.07,8.96 -20.69,13.08 -32.69,11.62 -19.4,-2.39 -40.14,-20.56 -42.81,-55.55 -8.43,-72.32 8.74,-167.7 13.81,-275.63 -10.15,10.5 -18.92,21.74 -29.55,39.21 -24.39,40.16 -25.73,41.99 -48.66,88.21 -11.7,23.57 -31.44,36.71 -51.58,34.23 -16.39,-1.98 -35.32,-16 -39.45,-49.29 -20.73,-55.4 -38.12,-88.33 -58.98,-124.34 -24.39,94.33 -43.23,195.77 -51.32,245.66 -5.72,42.98 -32.74,59.6 -55.37,56.83 -26.46,-3.24 -50.29,-31.1 -44.57,-78.03 5.85,-36.89 13.81,-69.24 34.59,-160.64 15.57,-68.57 38.07,-154.78 50.98,-186.96 6.62,-16.34 24.3,-25.79 44.01,-23.36 23.15,2.82 44.31,20.8 58.12,49.31 23.4,48.23 41.08,75.76 56.74,100.06 5.43,8.57 10.67,16.77 15.88,25.31 43.62,-61.84 83.8,-102.16 115.64,-124.27 36,-21.71 97.69,-18.48 95.72,43.96 -8.69,213.3 -14.15,301.38 -13.72,315.89 3.35,29.61 -2.59,53.69 -16.79,67.78" />
					<path id="path68" style="fill:#611025;fill-opacity:1;fill-rule:nonzero;stroke:none" d="m 5151.41,1023.83 c -154.75,17.56 -313.15,267.66 -324.42,286.83 46.51,33.78 74.17,74.58 84.45,124.58 12.26,59.42 5.29,120.92 -18.58,164.55 -25.52,46.59 -70.34,87.69 -114.18,104.64 -38.25,14.78 -86.47,20.21 -135.86,15.36 -46.21,-4.57 -90.86,-17.86 -125.71,-37.5 -49.34,-27.77 -47.32,-43.99 -38.84,-112.23 1.98,-15.82 4.21,-33.72 6.41,-55.76 l 5.98,-54.76 c 5.59,-51.43 9.07,-83.48 13.46,-121.28 -10.84,-1.87 -20.35,-5.1 -28.91,-9.7 -22.37,-12.13 -9.72,-95.51 14.45,-99.54 8.39,-1.44 17.64,-2.38 28.01,-3 0,0 28.7,-205.79 40.1,-274.754 7.91,-47.778 36.39,-62.196 58.42,-60.032 14.07,1.403 27.27,8.989 37.08,21.403 13.08,16.519 18.42,39.336 15.11,64.058 -4.22,38.775 -23.8,118.265 -31.02,169.055 -2.29,15.77 -6.84,48.51 -12.09,87.26 37.25,6 74.21,15.12 99.89,24.7 l 0.86,0.36 c 19.57,-26.77 117.23,-185.92 253.09,-293.3 49.3,-31.61 95.98,-46.309 135.09,-42.446 41,4.035 65.56,27.446 74.85,47.965 7.1,15.52 6.75,31.101 -0.82,41.711 -7.31,10.15 -13.37,10.12 -36.82,11.83 m -328.94,465.89 c 0.43,-27.1 -21.72,-68.42 -51.41,-95.91 -29.25,-24.61 -65.17,-40.98 -160.51,-51.47 -6.19,47.54 -10.62,82.38 -13.07,103.64 -2.28,19.87 -5.25,40.09 -8.14,59.6 -6.11,40.91 -12.34,83.23 -6.19,93.45 6.49,10.7 40.31,21.61 78.64,25.39 6.97,0.7 13.73,1.07 20.05,1.19 40.7,0.7 75.37,-11.22 100.28,-34.45 25.68,-24 39.67,-59.06 40.35,-101.44" />
				</g>
			</g>
		</g>
	</g>
</svg>
