<?xml version="1.0" standalone="no"?>
<!DOCTYPE svg PUBLIC "-//W3C//DTD SVG 20010904//EN" "http://www.w3.org/TR/2001/REC-SVG-20010904/DTD/svg10.dtd">
<svg version="1.0" xmlns="http://www.w3.org/2000/svg" width="410.000000pt" height="93.000000pt" viewBox="0 0 410.000000 93.000000" preserveAspectRatio="xMidYMid meet">
 <g transform="translate(0.000000,93.000000) scale(0.100000,-0.100000)" fill="#000000" stroke="none">
  <path fill="#225ba7" d="M344 872 c-117 -41 -201 -117 -257 -232 -30 -61 -32 -70 -32 -180 0 -114 1 -117 38 -192 44 -89 121 -167 207 -207 50 -24 66 -26 180 -26 92 0 133 4 155 15 l30 15 3 183 2 183 -92 99 c-51 55 -97 100 -103 100 -5 0 -50 -31 -100 -68 -89 -67 -90 -68 -93 -115 -2 -26 1 -47 6 -47 5 0 47 27 93 60 l84 60 58 -58 58 -58 0 -142 c0 -78 -2 -146 -5 -151 -19 -29 -173 -17 -253 21 -250 117 -278 468 -50 621 190 128 439 64 538 -139 62 -126 45 -280 -43 -380 -15 -16 -18 -34 -16 -70 l3 -49 43 45 c206 213 137 565 -135 693 -60 28 -80 32 -168 34 -77 3 -112 -1 -151 -15z"/>
  <path fill="#225ba7" d="M1160 375 l0 -335 65 0 65 0 0 136 0 136 101 -4 c94 -3 102 -5 123 -29 19 -22 24 -42 29 -122 3 -53 8 -101 12 -107 3 -5 38 -10 77 -10 63 0 69 2 63 18 -4 9 -11 65 -15 123 -8 114 -16 136 -54 167 l-25 19 29 22 c48 35 63 74 58 152 -4 81 -24 114 -88 147 -41 21 -57 22 -242 22 l-198 0 0 -335z m368 202 c27 -25 35 -62 22 -102 -15 -46 -47 -56 -161 -53 l-94 3 -3 89 -3 88 110 -4 c88 -3 113 -7 129 -21z"/>
  <path fill="#225ba7" d="M1770 468 c0 -134 5 -259 10 -279 16 -58 51 -101 105 -128 44 -23 61 -26 155 -26 97 0 109 2 152 28 99 58 108 90 108 398 l0 249 -65 0 -65 0 0 -232 c0 -255 -6 -288 -60 -315 -32 -16 -118 -16 -150 0 -54 27 -60 60 -60 315 l0 232 -65 0 -65 0 0 -242z"/>
  <path fill="#225ba7" d="M2474 375 l111 -336 64 3 64 3 24 65 c13 36 36 103 52 150 16 47 57 165 90 262 34 97 61 180 61 183 0 3 -30 5 -66 3 l-67 -3 -63 -200 c-35 -110 -69 -222 -75 -250 -15 -60 -7 -78 -95 223 l-68 232 -71 0 -72 0 111 -335z"/>
  <path fill="#225ba7" d="M3000 375 l0 -335 318 0 c291 0 320 2 334 18 8 9 41 63 73 120 32 56 61 102 64 102 3 0 35 -54 71 -120 l65 -120 78 0 c43 0 77 3 75 8 -4 8 -37 61 -141 222 -86 134 -89 104 27 282 112 174 110 158 24 158 l-73 0 -60 -105 c-33 -58 -63 -105 -67 -105 -4 0 -32 45 -63 101 -31 55 -63 103 -69 105 -7 3 -43 4 -79 2 l-67 -3 91 -144 c49 -79 94 -152 100 -163 8 -15 -8 -47 -93 -183 l-103 -165 -3 55 -3 55 -182 2 -182 3 -3 88 -3 87 161 0 160 0 0 55 0 54 -157 3 -158 3 -3 73 -3 72 176 0 175 0 0 55 0 55 -240 0 -240 0 0 -335z"/>
 </g>
</svg>
