<?xml version="1.0" standalone="no"?>
<!DOCTYPE svg PUBLIC "-//W3C//DTD SVG 20010904//EN" "http://www.w3.org/TR/2001/REC-SVG-20010904/DTD/svg10.dtd">
<svg version="1.0" xmlns="http://www.w3.org/2000/svg" width="794.000000pt" height="525.000000pt" viewBox="0 0 794.000000 525.000000" preserveAspectRatio="xMidYMid meet">
 <g transform="translate(0.000000,525.000000) scale(0.100000,-0.100000)" fill="#000000" stroke="none">
  <path fill="#ec2028" d="M3471 5183 c-12 -10 -218 -360 -458 -778 -347 -605 -436 -767 -436 -795 0 -28 89 -191 439 -800 390 -678 444 -767 474 -783 33 -16 90 -17 887 -15 847 3 852 3 880 24 59 44 63 133 7 185 l-26 24 -809 5 -809 5 -23 25 c-13 14 -189 311 -391 661 -279 485 -366 644 -366 669 0 25 87 184 366 669 202 350 378 647 391 661 l23 25 809 5 809 5 26 24 c55 52 55 137 -1 181 -25 20 -39 20 -898 20 -817 0 -874 -1 -894 -17z"/>
  <path fill="#ec2028" d="M3752 4717 c-12 -7 -28 -22 -36 -32 -30 -45 -590 -1012 -602 -1042 -10 -24 -11 -39 -3 -60 5 -15 146 -261 312 -547 225 -386 309 -522 329 -532 22 -12 129 -14 603 -14 612 0 616 0 658 48 42 47 28 144 -26 174 -17 10 -148 14 -554 18 l-533 5 -24 25 c-28 28 -473 793 -482 828 -4 12 -4 32 0 45 9 34 454 799 482 827 l24 25 533 5 c574 5 563 4 592 60 26 50 19 95 -19 138 l-34 37 -599 2 c-468 2 -603 0 -621 -10z"/>
  <path fill="#ec2028" d="M4030 4235 c-35 -19 -360 -583 -360 -625 0 -44 325 -607 362 -626 22 -11 88 -14 328 -14 333 0 343 2 380 63 24 39 25 68 5 111 -30 63 -46 66 -314 66 l-241 0 -30 28 c-39 35 -210 338 -210 372 0 34 171 337 210 373 l30 27 245 0 244 0 35 31 c21 18 38 43 41 63 9 45 -17 101 -57 126 -31 19 -49 20 -338 20 -240 -1 -310 -4 -330 -15z"/>
  <path fill="#000009" d="M2753 1024 c-46 -23 -69 -76 -54 -126 29 -96 169 -104 207 -11 19 44 11 83 -24 116 -35 33 -87 42 -129 21z"/>
  <path fill="#000009" d="M2417 1023 c-4 -3 -7 -89 -7 -190 0 -100 -4 -183 -9 -183 -5 0 -14 7 -21 14 -23 28 -108 49 -180 44 -168 -12 -281 -143 -281 -327 0 -128 45 -226 130 -286 44 -30 124 -55 176 -55 53 0 133 29 170 61 l35 31 0 -36 0 -36 80 0 80 0 0 485 0 485 -83 0 c-46 0 -87 -3 -90 -7z m-77 -496 c52 -34 75 -82 75 -152 0 -77 -25 -122 -85 -152 -55 -28 -92 -29 -146 -2 -96 46 -122 185 -52 274 45 57 148 73 208 32z"/>
  <path fill="#000009" d="M5750 545 l0 -485 80 0 80 0 0 37 0 37 28 -26 c51 -49 91 -62 177 -62 96 1 138 17 205 80 73 69 95 126 95 254 0 101 -1 108 -34 169 -62 112 -164 168 -293 159 -54 -4 -79 -12 -118 -36 l-50 -31 0 194 0 195 -85 0 -85 0 0 -485z m427 -23 c42 -29 66 -84 65 -148 0 -57 -11 -85 -50 -126 -84 -91 -249 -39 -267 85 -14 93 8 149 76 195 44 31 129 28 176 -6z"/>
  <path fill="#000009" d="M245 904 c-98 -35 -158 -118 -159 -221 0 -114 70 -188 256 -269 50 -21 104 -51 119 -66 36 -33 38 -76 6 -114 -19 -22 -34 -28 -79 -32 -75 -6 -118 10 -181 68 l-53 48 -56 -42 c-32 -22 -57 -44 -58 -47 0 -16 97 -112 137 -136 49 -28 137 -53 193 -53 57 0 148 28 195 60 84 58 120 162 91 262 -23 80 -77 125 -241 203 -77 37 -138 72 -144 84 -16 30 -13 55 9 84 42 53 140 44 209 -19 21 -19 42 -34 45 -34 4 0 32 19 61 42 l54 42 -20 27 c-33 46 -99 97 -147 113 -57 20 -183 20 -237 0z"/>
  <path fill="#000009" d="M4047 910 c-101 -26 -230 -127 -276 -218 -92 -180 -56 -387 90 -527 70 -67 140 -101 241 -116 92 -15 181 -3 262 34 59 27 138 94 167 141 l18 30 -59 43 c-33 24 -63 43 -66 43 -4 0 -22 -18 -41 -39 -100 -118 -294 -127 -402 -20 -129 128 -95 368 63 452 56 29 192 31 249 3 41 -20 83 -57 109 -94 l16 -23 66 46 66 47 -17 30 c-28 47 -102 108 -173 142 -58 27 -76 31 -170 33 -58 1 -122 -2 -143 -7z"/>
  <path fill="#000009" d="M790 780 l0 -80 -50 0 -50 0 0 -75 0 -75 50 0 50 0 0 -153 c0 -187 12 -239 69 -290 52 -46 100 -62 196 -62 114 1 115 1 115 84 l0 69 -81 4 c-117 5 -119 8 -119 199 l0 149 90 0 91 0 -3 73 -3 72 -87 3 -87 3 -3 77 -3 77 -87 3 -88 3 0 -81z"/>
  <path fill="#000009" d="M3213 692 c-148 -53 -227 -164 -227 -318 0 -68 5 -90 28 -137 35 -73 119 -150 188 -173 81 -28 189 -24 260 8 75 35 141 98 175 167 39 79 39 190 1 272 -55 119 -163 190 -298 196 -55 3 -89 -1 -127 -15z m207 -172 c60 -43 87 -142 56 -213 -55 -129 -236 -137 -295 -13 -44 91 -10 204 74 243 44 20 125 12 165 -17z"/>
  <path fill="#000009" d="M4783 691 c-53 -18 -118 -58 -148 -91 -16 -18 -16 -21 13 -58 53 -66 57 -68 97 -38 75 58 146 70 202 36 29 -17 53 -65 53 -106 0 -8 -42 -13 -127 -16 -145 -4 -205 -24 -245 -81 -30 -41 -37 -141 -14 -185 57 -110 216 -143 343 -72 l53 30 0 -25 c0 -25 1 -25 80 -25 l80 0 0 213 c0 254 -9 299 -74 363 -70 71 -202 94 -313 55z m211 -418 c-11 -44 -32 -70 -71 -88 -92 -44 -197 31 -133 95 17 17 33 20 115 20 l95 0 -6 -27z"/>
  <path fill="#000009" d="M6715 697 c-22 -8 -51 -19 -64 -26 -45 -25 -113 -95 -139 -146 -24 -44 -27 -62 -27 -145 0 -84 3 -102 28 -152 101 -205 387 -248 552 -83 73 74 98 142 93 250 -4 60 -11 92 -30 130 -32 62 -103 130 -166 158 -58 26 -189 33 -247 14z m186 -170 c57 -38 79 -81 79 -152 0 -72 -24 -116 -79 -149 -72 -42 -171 -17 -218 54 -32 47 -32 143 0 191 53 79 148 103 218 56z"/>
  <path fill="#000009" d="M7509 696 c-20 -7 -50 -23 -68 -35 l-31 -22 0 31 0 31 -77 -3 -78 -3 -3 -317 -2 -318 90 0 90 0 0 211 0 211 34 34 c29 29 41 34 83 34 29 0 58 -7 72 -16 44 -31 51 -69 51 -279 l0 -195 86 0 85 0 -3 243 c-3 228 -4 244 -25 284 -55 103 -188 151 -304 109z"/>
  <path fill="#000009" d="M1242 478 c4 -252 10 -279 83 -353 58 -57 115 -79 211 -80 70 0 88 4 139 30 37 19 72 46 92 73 54 71 63 120 63 349 l0 203 -84 0 -84 0 -4 -209 c-3 -195 -5 -212 -24 -238 -31 -41 -85 -59 -134 -44 -70 21 -74 36 -80 276 l-5 210 -88 3 -89 3 4 -223z"/>
  <path fill="#000009" d="M2720 380 l0 -320 85 0 85 0 0 320 0 320 -85 0 -85 0 0 -320z"/>
  <path fill="#000009" d="M5297 693 c-4 -3 -7 -147 -7 -320 l0 -313 90 0 90 0 0 188 c0 168 2 190 20 219 28 46 63 65 133 72 l62 6 0 75 0 75 -71 0 c-66 0 -75 -3 -112 -32 -23 -18 -43 -33 -46 -33 -3 0 -6 16 -6 35 l0 35 -73 0 c-41 0 -77 -3 -80 -7z"/>
 </g>
</svg>
