<?xml version="1.0" standalone="no"?>
<!DOCTYPE svg PUBLIC "-//W3C//DTD SVG 20010904//EN"
 "http://www.w3.org/TR/2001/REC-SVG-20010904/DTD/svg10.dtd">
<svg version="1.0" xmlns="http://www.w3.org/2000/svg" width="827.000000pt" height="599.000000pt" viewBox="0 0 827.000000 599.000000" preserveAspectRatio="xMidYMid meet">
 <g transform="translate(0.000000,599.000000) scale(0.100000,-0.100000)" stroke="none">
  <path fill="#e11d8d" d="M2505 5894 c-16 -2 -73 -9 -125 -15 -657 -75 -1293 -433 -1722 -969 -281 -352 -487 -828 -543 -1257 -7 -52 -6 -53 18 -53 14 0 29 -5 33 -12 5 -8 -2 -9 -24 -5 -23 5 -32 2 -37 -11 -13 -34 -18 -397 -6 -517 33 -344 107 -614 250 -910 130 -269 275 -477 481 -689 290 -298 616 -509 1004 -648 350 -125 750 -174 1221 -149 507 28 637 31 767 21 323 -26 577 -112 778 -261 86 -64 191 -172 240 -247 18 -29 37 -52 42 -52 5 0 19 24 31 52 194 477 560 698 1377 833 434 72 707 171 995 363 760 507 1080 1463 788 2355 -120 366 -343 697 -633 939 -282 236 -611 390 -978 460 -158 30 -553 33 -702 5 -303 -56 -568 -159 -799 -310 l-84 -55 -62 85 c-407 551 -1026 920 -1725 1028 -100 16 -514 29 -585 19z m-247 -1256 c7 -7 12 -43 12 -92 0 -119 6 -116 -217 -116 l-183 0 0 -468 c0 -351 -3 -471 -12 -480 -8 -8 -47 -12 -110 -12 -97 0 -99 0 -108 26 -7 16 -10 202 -10 481 l1 455 -180 -2 c-218 -1 -211 -5 -211 114 0 50 5 87 12 94 17 17 989 17 1006 0z m364 -308 c142 -53 238 -210 238 -389 0 -25 -6 -57 -13 -71 l-13 -25 -276 -5 -277 -5 18 -40 c27 -60 77 -103 141 -122 75 -22 151 -7 238 46 36 22 71 37 78 34 20 -8 95 -143 89 -162 -7 -23 -99 -81 -175 -110 -55 -21 -82 -25 -175 -25 -91 0 -120 4 -167 23 -163 64 -272 212 -285 388 -18 233 118 430 330 478 79 19 176 13 249 -15z m931 15 c237 -50 398 -278 359 -507 -17 -98 -61 -184 -127 -250 -231 -229 -619 -163 -758 129 -30 65 -32 74 -32 188 0 114 2 123 32 188 61 127 179 222 316 252 81 18 128 18 210 0z m-2208 -642 c99 -52 105 -76 105 -391 l0 -259 -30 -59 c-16 -32 -28 -59 -26 -61 1 -1 15 14 31 35 61 81 188 162 310 198 75 21 227 21 310 -1 181 -47 335 -174 419 -346 71 -147 90 -241 90 -439 0 -192 -18 -279 -85 -416 -121 -247 -340 -384 -613 -384 -175 0 -300 48 -414 157 -35 35 -68 63 -72 63 -4 0 -22 -38 -39 -85 -19 -48 -41 -89 -51 -95 -27 -14 -163 -13 -178 2 -9 9 -12 231 -12 939 l0 928 -22 15 c-14 10 -44 16 -78 16 -31 0 -61 5 -68 12 -7 7 -12 44 -12 95 0 67 3 84 18 93 11 7 80 9 197 7 160 -3 185 -5 220 -24z m3155 5 c55 -24 97 -78 110 -143 8 -38 11 -136 8 -285 l-3 -227 -30 -59 -31 -59 71 70 c119 119 254 176 420 176 339 2 591 -227 661 -597 12 -68 15 -124 11 -239 -6 -179 -20 -242 -89 -384 -42 -88 -62 -116 -131 -185 -136 -136 -283 -196 -481 -196 -173 0 -292 46 -408 157 -37 36 -71 62 -76 59 -6 -3 -22 -40 -37 -81 -16 -42 -37 -83 -49 -90 -13 -10 -45 -15 -90 -15 -118 0 -106 -108 -106 961 0 908 0 929 -19 939 -11 5 -46 10 -78 10 -33 0 -64 5 -71 12 -7 7 -12 42 -12 87 0 116 -3 114 215 109 133 -3 189 -8 215 -20z m-912 -544 c119 -25 224 -84 317 -178 89 -89 137 -170 177 -296 19 -64 23 -96 23 -216 0 -105 -4 -145 -14 -157 -12 -15 -61 -17 -529 -17 l-515 0 7 -42 c12 -78 64 -173 127 -233 170 -163 431 -164 666 -5 81 55 93 58 115 33 30 -36 128 -212 128 -232 0 -48 -231 -174 -396 -217 -90 -23 -112 -25 -239 -21 -162 6 -246 26 -365 88 -148 76 -253 182 -330 330 -66 127 -83 208 -83 389 0 184 17 262 89 410 39 78 62 110 128 176 91 90 155 130 269 169 135 45 271 51 425 19z m3182 -6 c246 -64 413 -236 481 -493 28 -110 31 -315 4 -345 -18 -19 -32 -20 -532 -20 -435 0 -513 -2 -513 -14 0 -33 40 -140 70 -185 66 -104 173 -170 309 -192 136 -23 273 13 414 108 45 30 90 53 101 51 13 -2 41 -41 87 -122 55 -95 66 -122 58 -137 -24 -46 -211 -149 -349 -194 -114 -37 -305 -46 -431 -21 -209 42 -394 165 -504 335 -92 142 -130 280 -128 466 1 191 45 346 137 484 165 247 487 361 796 279z"/>
  <path fill="#e11d8d" d="M2407 4146 c-21 -8 -48 -22 -59 -33 -18 -16 -58 -83 -58 -98 0 -3 74 -5 165 -5 125 0 165 3 165 13 -1 27 -40 97 -64 112 -35 23 -103 28 -149 11z"/>
  <path fill="#e11d8d" d="M3349 4120 c-167 -90 -168 -344 -3 -430 63 -33 150 -33 212 -1 151 77 163 324 20 419 -56 36 -173 43 -229 12z"/>
  <path fill="#e11d8d" d="M1744 2850 c-143 -29 -244 -142 -285 -318 -15 -66 -15 -236 1 -302 33 -141 108 -248 209 -297 49 -24 68 -28 146 -28 77 0 98 4 147 27 145 68 228 229 228 443 0 253 -103 423 -285 470 -64 16 -97 17 -161 5z"/>
  <path fill="#e11d8d" d="M4900 2847 c-184 -41 -290 -211 -290 -461 1 -220 83 -386 225 -457 43 -20 64 -24 145 -24 79 0 103 4 142 24 152 75 231 230 231 451 -1 219 -76 372 -216 439 -74 36 -158 46 -237 28z"/>
  <path fill="#e11d8d" d="M3341 2879 c-125 -21 -215 -106 -266 -250 l-14 -39 344 0 344 0 -15 53 c-20 65 -42 101 -91 149 -74 72 -190 105 -302 87z"/>
  <path fill="#e11d8d" d="M6510 2880 c-111 -19 -193 -84 -246 -195 -19 -38 -34 -75 -34 -82 0 -10 71 -13 341 -13 l341 0 -7 33 c-38 173 -214 288 -395 257z"/>
 </g>
</svg>
