<?xml version="1.0" standalone="no"?>
<!DOCTYPE svg PUBLIC "-//W3C//DTD SVG 20010904//EN" "http://www.w3.org/TR/2001/REC-SVG-20010904/DTD/svg10.dtd">
<svg version="1.0" xmlns="http://www.w3.org/2000/svg" width="3307.000000pt" height="1929.000000pt" viewBox="0 0 3307.000000 1929.000000" preserveAspectRatio="xMidYMid meet">
<g transform="translate(0.000000,1929.000000) scale(0.100000,-0.100000)" fill="#0f2d53" stroke="none">
<path d="M20690 19283 c-8 -3 -125 -45 -260 -93 -291 -104 -483 -162 -760 -229 -642 -157 -1433 -254 -2345 -290 -677 -27 -508 -31 -5660 129 l-4870 152 -550 -6 c-1445 -16 -2329 -79 -3115 -222 -1085 -197 -1929 -569 -2486 -1097 -174 -164 -359 -414 -455 -613 -199 -413 -242 -930 -119 -1439 89 -372 253 -702 435 -880 58 -56 144 -111 164 -103 5 2 42 46 83 99 430 566 1055 1006 1873 1319 1318 505 3196 751 6320 830 243 7 482 8 550 3 l120 -8 -72 -28 c-125 -49 -420 -232 -653 -406 -773 -576 -1476 -1437 -2185 -2676 -252 -441 -582 -1073 -814 -1562 -200 -421 -479 -1116 -1943 -4843 -858 -2184 -947 -2409 -1136 -2850 -366 -855 -636 -1448 -927 -2035 -511 -1030 -903 -1644 -1320 -2071 -58 -59 -105 -108 -105 -110 0 -8 270 -88 415 -124 411 -101 874 -147 1243 -122 741 49 1372 342 1951 906 685 669 1300 1727 1993 3426 359 880 1356 3488 1733 4535 110 307 855 2184 1159 2923 908 2204 1494 3324 2141 4097 250 298 559 582 850 779 l90 61 160 -2 c88 -2 347 -12 575 -23 2677 -131 2448 -123 3385 -117 764 6 1088 14 1475 37 930 56 1593 168 2050 347 662 260 1065 695 1161 1251 35 208 24 483 -31 732 -23 108 -90 330 -99 329 -3 0 -13 -3 -21 -6z"/>
<path d="M18421 14830 c-1527 -87 -3047 -607 -4426 -1515 -747 -492 -1333 -1006 -2030 -1780 -1769 -1964 -2997 -4357 -3354 -6535 -83 -509 -120 -1003 -101 -1359 50 -917 336 -1672 854 -2254 338 -378 847 -650 1541 -822 463 -115 1011 -170 1454 -146 1616 87 3708 840 5691 2049 466 284 1086 711 1423 980 l69 54 -49 35 c-66 47 -183 105 -274 136 -644 215 -1521 11 -2504 -583 -88 -53 -230 -139 -315 -192 -863 -530 -1718 -830 -2469 -867 -551 -27 -977 69 -1267 285 -304 225 -486 571 -550 1039 -41 309 -6 1041 81 1692 28 208 89 571 109 648 l12 50 75 26 c41 15 223 75 404 134 1997 648 3660 1423 5050 2355 482 324 940 670 1361 1031 335 286 667 599 828 779 686 763 1134 1509 1311 2185 143 542 114 1058 -81 1446 -310 619 -997 1008 -1969 1115 -168 18 -658 26 -874 14z m-381 -1210 c142 -35 241 -90 346 -195 124 -123 184 -243 231 -457 25 -118 25 -448 -1 -603 -97 -588 -398 -1166 -932 -1790 -164 -192 -550 -578 -767 -768 -833 -727 -1835 -1380 -3014 -1965 -345 -171 -1170 -549 -1179 -540 -6 7 107 479 157 653 302 1050 858 2111 1799 3430 440 616 627 844 979 1195 356 354 658 584 1007 767 302 158 623 260 919 292 136 15 354 6 455 -19z"/>
<path d="M28596 14770 c-1768 -122 -3478 -857 -4923 -2115 -178 -155 -605 -580 -765 -760 -350 -396 -644 -790 -926 -1243 -985 -1579 -1604 -3131 -1801 -4517 -128 -901 -102 -1688 84 -2521 59 -262 146 -496 279 -749 273 -519 645 -964 1000 -1197 439 -289 1143 -492 1986 -575 215 -21 782 -24 1000 -5 980 85 1843 330 2755 782 928 459 1787 1085 2590 1885 1771 1766 2943 4049 3159 6155 52 506 45 1074 -20 1520 -105 731 -349 1371 -717 1884 -241 336 -555 640 -892 862 -454 299 -1081 495 -1855 580 -172 18 -759 27 -954 14z m418 -1385 c551 -115 907 -569 1030 -1318 39 -233 50 -416 43 -727 -8 -391 -45 -705 -132 -1148 -388 -1954 -1564 -4344 -2913 -5917 -802 -935 -1638 -1555 -2339 -1736 -362 -93 -668 -75 -938 55 -177 85 -305 192 -428 355 -326 433 -449 1167 -346 2076 117 1044 505 2269 1136 3590 1026 2149 2445 3887 3693 4524 293 150 534 229 790 261 103 12 309 5 404 -15z"/>
</g>
</svg>
